<?xml version="1.0" encoding="utf-8"?>
<!-- Generator: Adobe Illustrator 15.0.0, SVG Export Plug-In . SVG Version: 6.00 Build 0)  -->
<!DOCTYPE svg PUBLIC "-//W3C//DTD SVG 1.1//EN" "http://www.w3.org/Graphics/SVG/1.1/DTD/svg11.dtd">
<svg version="1.1" id="Layer_1" xmlns="http://www.w3.org/2000/svg" xmlns:xlink="http://www.w3.org/1999/xlink" x="0px" y="0px"
	 width="32px" height="32px" viewBox="0 0 32 32" enable-background="new 0 0 32 32" xml:space="preserve">
<g>
	<path fill-rule="evenodd" clip-rule="evenodd" fill="#FFFFFF" d="M23.316,11.277c-0.669,0-1.213,0.553-1.213,1.232v4.816
		c0,0.681,0.544,1.231,1.213,1.231c0.671,0,1.214-0.551,1.214-1.231v-4.816C24.53,11.83,23.987,11.277,23.316,11.277z M8.683,11.277
		c-0.67,0-1.213,0.553-1.213,1.232v4.816c0,0.681,0.543,1.231,1.213,1.231s1.213-0.551,1.213-1.231v-4.816
		C9.896,11.83,9.353,11.277,8.683,11.277z"/>
	<path fill-rule="evenodd" clip-rule="evenodd" fill="#FFFFFF" d="M10.626,11.314v8.798c0,0.523,0.424,0.944,0.947,0.944h1.08v2.683
		c0,0.679,0.543,1.23,1.213,1.23s1.214-0.552,1.214-1.23v-2.683h1.889v2.683c0,0.679,0.543,1.23,1.213,1.23s1.214-0.552,1.214-1.23
		v-2.683h1.081c0.521,0,0.944-0.421,0.944-0.944v-8.798H10.626z"/>
	<path fill-rule="evenodd" clip-rule="evenodd" fill="#FFFFFF" d="M18.559,6.755l0.998-1.447c0.059-0.086,0.043-0.198-0.033-0.252
		c-0.078-0.054-0.188-0.027-0.247,0.059L18.24,6.619C17.559,6.35,16.799,6.2,16,6.2c-0.8,0-1.558,0.15-2.24,0.419l-1.036-1.503
		c-0.059-0.086-0.169-0.113-0.247-0.059c-0.078,0.054-0.093,0.166-0.034,0.252l0.997,1.447c-1.585,0.738-2.697,2.14-2.838,3.775
		h10.794C21.257,8.895,20.145,7.493,18.559,6.755z M13.723,9.037c-0.33,0-0.597-0.267-0.597-0.597s0.267-0.597,0.597-0.597
		c0.331,0,0.597,0.267,0.597,0.597S14.053,9.037,13.723,9.037z M18.353,9.037c-0.33,0-0.599-0.267-0.599-0.597
		s0.269-0.597,0.599-0.597c0.329,0,0.597,0.267,0.597,0.597S18.682,9.037,18.353,9.037z"/>
</g>
</svg>
