<?xml version="1.0" encoding="utf-8"?>
<!-- Generator: Adobe Illustrator 15.0.0, SVG Export Plug-In . SVG Version: 6.00 Build 0)  -->
<!DOCTYPE svg PUBLIC "-//W3C//DTD SVG 1.1//EN" "http://www.w3.org/Graphics/SVG/1.1/DTD/svg11.dtd">
<svg version="1.1" id="Layer_1" xmlns="http://www.w3.org/2000/svg" xmlns:xlink="http://www.w3.org/1999/xlink" x="0px" y="0px"
	 width="165.59px" height="165.59px" viewBox="0 0 165.59 165.59" enable-background="new 0 0 165.59 165.59" xml:space="preserve">
<circle fill="#E56246" cx="82.795" cy="82.822" r="82.795"/>
<g>
	<g enable-background="new    ">
		<path fill="#FFFFFF" d="M32.78,101.54l15.697-39.241h7.848l15.67,39.215l-8.345,0.026l-2.354-6.017h-17.79l-2.354,6.017H32.78z
			 M52.61,72.763l-5.965,14.912h11.772L52.61,72.763z"/>
		<path fill="#FFFFFF" d="M77.855,101.54V62.299h17.11c9.156,0,13.734,3.768,13.734,11.302c0,7.813-4.57,11.72-13.709,11.72h-9.287
			v16.22H77.855z M85.704,77.995h10.988c3.156-0.052,4.777-1.491,4.865-4.316c-0.088-2.581-1.684-3.924-4.787-4.028H85.704V77.995z"
			/>
		<path fill="#FFFFFF" d="M114.481,62.272h7.822v39.268h-7.822V62.272z"/>
	</g>
	<g>
		<path fill="#FFFFFF" d="M33.403,40.543c2.075-1.222,3.772-0.252,3.772,2.155v21.911c0,2.408-1.697,3.378-3.772,2.156
			L14.912,55.876c-2.075-1.222-2.075-3.221,0-4.443L33.403,40.543z"/>
	</g>
	<g>
		<rect x="31.365" y="49.558" fill="#FFFFFF" width="93.916" height="7.082"/>
	</g>
	<g>
		<path fill="#FFFFFF" d="M132.188,98.878c-2.075-1.223-3.773-0.253-3.773,2.156v21.911c0,2.406,1.698,3.377,3.773,2.154
			l18.49-10.891c2.074-1.223,2.074-3.221,0-4.441L132.188,98.878z"/>
	</g>
	<g>
		<rect x="33.454" y="107.893" fill="#FFFFFF" width="100.771" height="7.082"/>
	</g>
</g>
</svg>
