<?xml version="1.0" encoding="utf-8"?>
<!-- Generator: Adobe Illustrator 15.0.0, SVG Export Plug-In . SVG Version: 6.00 Build 0)  -->
<!DOCTYPE svg PUBLIC "-//W3C//DTD SVG 1.1//EN" "http://www.w3.org/Graphics/SVG/1.1/DTD/svg11.dtd">
<svg version="1.1" id="Layer_1" xmlns="http://www.w3.org/2000/svg" xmlns:xlink="http://www.w3.org/1999/xlink" x="0px" y="0px"
	 width="118.783px" height="179.609px" viewBox="39.14 0 118.783 179.609" enable-background="new 39.14 0 118.783 179.609"
	 xml:space="preserve">
<g>
	<path fill="#333333" d="M114.939,63.601c0,0-2.557,0.989-5.114,0l-0.008,20.536l-1.236,7.485v18.57h7.596V91.625l-1.237-7.485
		V63.601z"/>
</g>
<g>
	<path fill="#3DBEEE" d="M144.541,23.678c-3.745-3.732-8.251-6.925-13.512-9.271c-5.263-2.354-11.333-3.995-18.771-3.978
		c-7.438,0.022-13.516,1.708-18.737,4.103c-5.238,2.396-9.678,5.615-13.435,9.339c-1.766-1.811-3.604-3.542-5.349-5.375
		c4.435-4.369,9.585-8.162,15.685-10.888c4.613-2.067,9.591-3.652,15.562-4.376c0.986-0.119,2.002-0.238,3.037-0.294
		c9.939-0.531,18.384,1.452,25.177,4.537c5.257,2.391,9.958,5.493,14.007,9.217c0.398,0.361,0.84,0.79,1.284,1.227
		c0.117,0.116,0.427,0.363,0.427,0.392c0.011,0.119-0.541,0.548-0.68,0.677C147.687,20.546,146.098,22.193,144.541,23.678"/>
</g>
<g>
	<path fill="#3DBEEE" d="M133.875,34.442c-2.542-2.442-5.5-4.593-9.035-6.169c-3.498-1.559-7.562-2.676-12.492-2.66
		c-4.911,0.011-9.061,1.095-12.517,2.72c-3.487,1.639-6.494,3.734-8.954,6.244c-1.806-1.755-3.564-3.559-5.371-5.316
		c2.971-3.078,6.556-5.635,10.697-7.608c4.14-1.977,8.92-3.312,14.712-3.589c3.233-0.159,6.506,0.199,9.118,0.735
		c7.397,1.495,13.182,4.825,17.909,9.094c0.195,0.183,0.409,0.346,0.649,0.579c0.156,0.144,0.6,0.575,0.6,0.599
		c0.008,0.105-0.6,0.601-0.675,0.679C136.931,31.345,135.472,32.902,133.875,34.442"/>
</g>
<g>
	<path fill="#3DBEEE" d="M128.483,39.841c-1.73,1.833-3.543,3.59-5.322,5.378c-2.571-2.358-5.881-4.437-10.773-4.424
		c-4.877,0.011-8.221,2.084-10.738,4.507c-1.799-1.795-3.615-3.553-5.37-5.381c3.628-3.469,8.246-6.347,15.038-6.674
		c3.946-0.198,7.399,0.635,10.089,1.8C124.242,36.282,126.587,37.939,128.483,39.841"/>
</g>
<g>
	<path fill="#333333" d="M118.448,57.177c0-3.382-2.741-6.121-6.121-6.121c-3.377,0-6.119,2.74-6.119,6.121
		c0,3.38,2.742,6.119,6.119,6.119C115.707,63.296,118.448,60.552,118.448,57.177"/>
</g>
<g>
	<path fill="#333333" d="M132.236,174.625c0,2.754-2.23,4.984-4.983,4.984H53.152c-2.754,0-4.985-2.23-4.985-4.984v-74.1
		c0-2.754,2.231-4.988,4.985-4.988h74.101c2.753,0,4.983,2.229,4.983,4.988V174.625z"/>
</g>
<g>
	<rect x="60.123" y="129.274" fill="#FFFFFF" width="17.147" height="3.594"/>
</g>
<g>
	<rect x="81.936" y="129.274" fill="#FFFFFF" width="17.149" height="3.594"/>
</g>
<g>
	<rect x="103.757" y="129.274" fill="#FFFFFF" width="17.143" height="3.594"/>
</g>
<g>
	<rect x="60.123" y="137.573" fill="#FFFFFF" width="17.147" height="3.598"/>
</g>
<g>
	<rect x="81.936" y="137.573" fill="#FFFFFF" width="17.149" height="3.598"/>
</g>
<g>
	<rect x="103.757" y="137.573" fill="#FFFFFF" width="17.143" height="3.598"/>
</g>
<g>
	<rect x="60.123" y="146.424" fill="#FFFFFF" width="17.147" height="3.594"/>
</g>
<g>
	<rect x="81.936" y="146.424" fill="#FFFFFF" width="17.149" height="3.594"/>
</g>
<g>
	<rect x="103.757" y="146.424" fill="#FFFFFF" width="17.143" height="3.594"/>
</g>
<g>
	<rect x="60.123" y="154.723" fill="#FFFFFF" width="17.147" height="3.596"/>
</g>
<g>
	<rect x="81.936" y="154.723" fill="#FFFFFF" width="17.149" height="3.596"/>
</g>
<g>
	<rect x="103.757" y="154.723" fill="#FFFFFF" width="17.143" height="3.596"/>
</g>
<g>
	<path fill="#333333" d="M114.397,63.601c0,0-2.017,0.989-4.039,0v20.538l-1.361,7.534v18.57l6.729-0.039V91.631l-1.32-7.485
		L114.397,63.601z"/>
</g>
<g>
	<path fill="#FFFFFF" d="M75.041,122.922H59.334c-1.294,0-2.354-1.066-2.354-2.359v-15.707c0-1.303,1.059-2.355,2.354-2.355h15.708
		c1.297,0,2.354,1.053,2.354,2.355v15.707C77.391,121.86,76.339,122.922,75.041,122.922z M59.334,104.139
		c-0.398,0-0.718,0.322-0.718,0.721v15.707c0,0.395,0.32,0.719,0.718,0.719h15.708c0.397,0,0.72-0.322,0.72-0.719V104.86
		c0-0.398-0.322-0.721-0.72-0.721H59.334z"/>
</g>
<g>
	<g>
		<g>
			<polygon fill="#FFFFFF" points="68.44,103.76 68.44,113.848 63.43,113.848 			"/>
		</g>
	</g>
	<g>
		<g>
			<polygon fill="#FFFFFF" points="70.946,111.576 65.936,121.658 65.936,111.576 			"/>
		</g>
	</g>
</g>
</svg>
