<?xml version="1.0" encoding="utf-8"?>
<!-- Generator: Adobe Illustrator 15.0.0, SVG Export Plug-In . SVG Version: 6.00 Build 0)  -->
<!DOCTYPE svg PUBLIC "-//W3C//DTD SVG 1.1//EN" "http://www.w3.org/Graphics/SVG/1.1/DTD/svg11.dtd">
<svg version="1.1" id="Layer_1" xmlns="http://www.w3.org/2000/svg" xmlns:xlink="http://www.w3.org/1999/xlink" x="0px" y="0px"
	 width="53.006px" height="93.856px" viewBox="0 0 53.006 93.856" enable-background="new 0 0 53.006 93.856" xml:space="preserve">
<g>
	<g>
		<path fill="#2691D0" d="M34.786,33.42c0,0-1.332,0.515-2.664,0l-0.004,10.698l-0.645,3.901v9.674h3.957V48.02l-0.643-3.901
			L34.786,33.42z"/>
	</g>
	<g>
		<path fill="#3DBEEE" d="M50.208,12.622c-1.951-1.944-4.299-3.608-7.039-4.83c-2.742-1.225-5.904-2.081-9.78-2.072
			c-3.874,0.011-7.041,0.89-9.761,2.137c-2.729,1.248-5.042,2.924-6.999,4.865c-0.92-0.943-1.878-1.845-2.786-2.8
			c2.31-2.276,4.993-4.252,8.17-5.672c2.404-1.077,4.998-1.903,8.108-2.28c0.514-0.062,1.043-0.124,1.582-0.153
			c5.178-0.278,9.578,0.755,13.116,2.363c2.738,1.246,5.188,2.862,7.297,4.802c0.208,0.187,0.438,0.411,0.669,0.638
			c0.061,0.06,0.223,0.19,0.223,0.204c0.004,0.062-0.283,0.287-0.354,0.353C51.846,10.989,51.018,11.848,50.208,12.622"/>
	</g>
	<g>
		<path fill="#3DBEEE" d="M44.652,18.229c-1.325-1.273-2.866-2.393-4.707-3.214c-1.823-0.813-3.94-1.394-6.508-1.385
			c-2.558,0.006-4.72,0.57-6.52,1.417c-1.817,0.854-3.384,1.945-4.665,3.253c-0.941-0.914-1.857-1.854-2.798-2.77
			c1.548-1.602,3.415-2.934,5.573-3.962c2.156-1.031,4.647-1.725,7.664-1.871c1.683-0.083,3.388,0.104,4.749,0.383
			c3.854,0.78,6.868,2.514,9.33,4.739c0.102,0.094,0.214,0.179,0.339,0.3c0.081,0.076,0.313,0.3,0.313,0.312
			c0.004,0.055-0.312,0.313-0.351,0.354C46.243,16.616,45.484,17.427,44.652,18.229"/>
	</g>
	<g>
		<path fill="#3DBEEE" d="M41.842,21.042c-0.902,0.955-1.846,1.87-2.773,2.802c-1.339-1.229-3.064-2.312-5.613-2.305
			c-2.541,0.006-4.283,1.086-5.593,2.348c-0.937-0.935-1.885-1.851-2.799-2.803c1.89-1.806,4.296-3.305,7.835-3.476
			c2.055-0.103,3.855,0.331,5.257,0.938C39.633,19.188,40.855,20.051,41.842,21.042"/>
	</g>
	<g>
		<path fill="#3DBEEE" d="M36.614,30.072c0-1.761-1.428-3.188-3.188-3.188s-3.188,1.427-3.188,3.188
			c0,1.761,1.427,3.188,3.188,3.188C35.186,33.261,36.614,31.832,36.614,30.072"/>
	</g>
	<g>
		<path fill="#3DBEEE" d="M43.797,91.26c0,1.434-1.162,2.596-2.596,2.596H2.597C1.162,93.856,0,92.694,0,91.26V52.655
			c0-1.434,1.162-2.598,2.597-2.598h38.604c1.434,0,2.596,1.162,2.596,2.598V91.26z"/>
	</g>
	<g>
		<rect x="6.229" y="67.633" fill="#FFFFFF" width="8.933" height="1.872"/>
	</g>
	<g>
		<rect x="17.593" y="67.633" fill="#FFFFFF" width="8.934" height="1.872"/>
	</g>
	<g>
		<rect x="28.961" y="67.633" fill="#FFFFFF" width="8.931" height="1.872"/>
	</g>
	<g>
		<rect x="6.229" y="71.957" fill="#FFFFFF" width="8.933" height="1.873"/>
	</g>
	<g>
		<rect x="17.593" y="71.957" fill="#FFFFFF" width="8.934" height="1.873"/>
	</g>
	<g>
		<rect x="28.961" y="71.957" fill="#FFFFFF" width="8.931" height="1.873"/>
	</g>
	<g>
		<rect x="6.229" y="76.567" fill="#FFFFFF" width="8.933" height="1.873"/>
	</g>
	<g>
		<rect x="17.593" y="76.567" fill="#FFFFFF" width="8.934" height="1.873"/>
	</g>
	<g>
		<rect x="28.961" y="76.567" fill="#FFFFFF" width="8.931" height="1.873"/>
	</g>
	<g>
		<rect x="6.229" y="80.891" fill="#FFFFFF" width="8.933" height="1.873"/>
	</g>
	<g>
		<rect x="17.593" y="80.891" fill="#FFFFFF" width="8.934" height="1.873"/>
	</g>
	<g>
		<rect x="28.961" y="80.891" fill="#FFFFFF" width="8.931" height="1.873"/>
	</g>
	<g>
		<path fill="#3DBEEE" d="M34.504,33.42c0,0-1.051,0.515-2.104,0L32.4,44.119l-0.71,3.925v9.675l3.506-0.022v-9.674l-0.688-3.901
			L34.504,33.42z"/>
	</g>
	<g>
		<path fill="#FFFFFF" d="M14.001,64.324H5.818c-0.674,0-1.226-0.554-1.226-1.229v-8.183c0-0.677,0.551-1.226,1.226-1.226h8.183
			c0.676,0,1.226,0.549,1.226,1.226v8.183C15.225,63.77,14.677,64.324,14.001,64.324z M5.818,54.539
			c-0.207,0-0.374,0.168-0.374,0.375v8.183c0,0.206,0.167,0.375,0.374,0.375h8.183c0.207,0,0.375-0.168,0.375-0.375v-8.183
			c0-0.207-0.168-0.375-0.375-0.375H5.818z"/>
	</g>
	<g>
		<g>
			<g>
				<polygon fill="#FFFFFF" points="10.562,54.342 10.562,59.596 7.952,59.596 				"/>
			</g>
		</g>
		<g>
			<g>
				<polygon fill="#FFFFFF" points="11.867,58.414 9.258,63.666 9.258,58.414 				"/>
			</g>
		</g>
	</g>
</g>
</svg>
