<?xml version="1.0" encoding="utf-8"?>
<!-- Generator: Adobe Illustrator 15.0.0, SVG Export Plug-In . SVG Version: 6.00 Build 0)  -->
<!DOCTYPE svg PUBLIC "-//W3C//DTD SVG 1.1//EN" "http://www.w3.org/Graphics/SVG/1.1/DTD/svg11.dtd">
<svg version="1.1" id="Layer_1" xmlns="http://www.w3.org/2000/svg" xmlns:xlink="http://www.w3.org/1999/xlink" x="0px" y="0px"
	 width="165.59px" height="165.59px" viewBox="0 0 165.59 165.59" enable-background="new 0 0 165.59 165.59" xml:space="preserve">
<g>
	<path fill="#FFFFFF" d="M68.484,129.166v4.062c1.723,0.011,4.869,0.021,8.131-0.041c6.727-0.114,18.457-0.68,26.78-2.284v-4.148
		c-8.687,1.71-19.956,2.237-26.858,2.377C73.277,129.194,70.207,129.181,68.484,129.166z"/>
	<path fill="#FFFFFF" d="M68.66,145.246c0.647,1.151,3.165,5.203,6.673,5.203h0.135c0.12,0.159,0.192,0.346,0.365,0.469
		c2.652,1.906,2.486,3.646,3.646,4.475c1.159,0.83,6.462,0.746,6.462,0.746s5.304,0.084,6.463-0.746
		c1.16-0.828,0.994-2.568,3.646-4.475c0.173-0.123,0.244-0.31,0.365-0.469h0.132c4.086,0,6.848-5.525,6.848-5.525v-2.031
		c-8.645,1.664-19.734,2.183-26.555,2.319C73.495,145.274,70.354,145.261,68.66,145.246z"/>
	<path fill="#FFFFFF" d="M68.484,137.201v4.069c1.681,0.014,4.918,0.023,8.281-0.038c6.688-0.111,18.317-0.674,26.63-2.253v-4.16
		c-8.666,1.685-19.844,2.213-26.706,2.351C73.327,137.233,70.17,137.217,68.484,137.201z"/>
	<path fill="#FFFFFF" d="M87.107,120.542c-9.806,0-17.717-1.884-18.624-2.107v6.729c2.288-0.009,3.978,0.063,7.981-0.012
		c6.769-0.113,18.599-0.687,26.931-2.312v-4.385C97.941,120.013,92.264,120.542,87.107,120.542z"/>
	<path fill="#FFFFFF" d="M128.145,52.675c0-23.309-18.895-42.203-42.203-42.203c-23.309,0-42.203,18.894-42.203,42.203
		c0,7.768,2.134,15.021,5.794,21.274l-0.025,0.033c0,0,0.149,0.213,0.359,0.516c0.617,1.015,1.269,2.001,1.963,2.957
		c4.078,6.388,12.009,20.279,11.017,30.35c0,4.16,2.3,7.731,5.636,9.544v0.716l0.091-0.347c0.184,0.05,18.562,4.72,34.821-0.003
		v-0.429c3.274-1.833,5.523-5.367,5.523-9.481c-0.984-9.993,6.874-23.736,11.012-30.189c0.75-1.017,1.449-2.065,2.104-3.148
		c0.199-0.286,0.341-0.485,0.341-0.485l-0.025-0.033C126.011,67.699,128.145,60.443,128.145,52.675z"/>
</g>
</svg>
