<?xml version="1.0" encoding="utf-8"?>
<!-- Generator: Adobe Illustrator 15.0.0, SVG Export Plug-In . SVG Version: 6.00 Build 0)  -->
<!DOCTYPE svg PUBLIC "-//W3C//DTD SVG 1.1//EN" "http://www.w3.org/Graphics/SVG/1.1/DTD/svg11.dtd">
<svg version="1.1" id="Layer_1" xmlns="http://www.w3.org/2000/svg" xmlns:xlink="http://www.w3.org/1999/xlink" x="0px" y="0px"
	 width="165.59px" height="165.59px" viewBox="0 0 165.59 165.59" enable-background="new 0 0 165.59 165.59" xml:space="preserve">
<g>
	<path fill="#FFFFFF" d="M70.674,120.212v2.827c1.167,0.009,3.415,0.016,5.75-0.027c4.644-0.078,12.715-0.467,18.489-1.564v-2.889
		c-6.016,1.171-13.778,1.536-18.542,1.633C74.037,120.236,71.845,120.224,70.674,120.212z M70.797,125.797
		c0.45,0.801,2.197,3.614,4.633,3.614h0.094c0.083,0.11,0.132,0.238,0.253,0.325c1.841,1.324,1.726,2.531,2.531,3.106
		c0.805,0.576,4.487,0.519,4.487,0.519s3.682,0.058,4.486-0.519c0.806-0.575,0.69-1.782,2.532-3.106
		c0.121-0.087,0.17-0.215,0.253-0.325h0.092c2.838,0,4.755-3.836,4.755-3.836v-1.411c-6.003,1.156-13.702,1.516-18.437,1.61
		C74.154,125.818,71.973,125.809,70.797,125.797z M70.674,114.634v2.822c1.196,0.006,3.38,0.013,5.646-0.03
		c4.67-0.078,12.814-0.472,18.593-1.586v-2.881c-6.032,1.188-13.855,1.555-18.647,1.651
		C74.002,114.654,71.871,114.645,70.674,114.634z M112.097,61.527c0-16.183-13.119-29.301-29.301-29.301
		c-16.184,0-29.301,13.118-29.301,29.301c0,5.394,1.481,10.429,4.023,14.771L57.5,76.321c0,0,0.104,0.147,0.25,0.358
		c0.429,0.706,0.881,1.39,1.363,2.053c2.831,4.436,8.337,14.079,7.649,21.071c0,2.89,1.597,5.368,3.913,6.626v5.426
		c1.588-0.006,2.762,0.046,5.541-0.008c4.698-0.078,12.913-0.476,18.698-1.605v-3.855c2.272-1.272,3.835-3.727,3.835-6.583
		c-0.684-6.937,4.772-16.479,7.645-20.959c0.521-0.707,1.007-1.434,1.46-2.186c0.14-0.198,0.238-0.337,0.238-0.337l-0.018-0.022
		C110.614,71.958,112.097,66.921,112.097,61.527z"/>
</g>
</svg>
