<?xml version="1.0" encoding="utf-8"?>
<!-- Generator: Adobe Illustrator 15.0.0, SVG Export Plug-In . SVG Version: 6.00 Build 0)  -->
<!DOCTYPE svg PUBLIC "-//W3C//DTD SVG 1.1//EN" "http://www.w3.org/Graphics/SVG/1.1/DTD/svg11.dtd">
<svg version="1.1" id="Layer_1" xmlns="http://www.w3.org/2000/svg" xmlns:xlink="http://www.w3.org/1999/xlink" x="0px" y="0px"
	 width="32px" height="32px" viewBox="0 0 32 32" enable-background="new 0 0 32 32" xml:space="preserve">
<path fill="#FFFFFF" d="M24.938,13.73c0-2.417-1.019-4.734-2.612-6.329c-1.592-1.596-3.911-2.612-6.326-2.612
	c-2.417,0-4.723,1.019-6.315,2.612C8.092,8.994,7.06,11.313,7.06,13.73c0,3.896,2.555,7.36,6.257,8.521v-2.36
	c-0.502,0.069-0.824,0.097-0.965,0.097c-1.019,0-1.731-0.46-2.136-1.396c-0.14-0.351-0.308-0.641-0.503-0.88
	c-0.042-0.055-0.14-0.138-0.293-0.266c-0.155-0.126-0.279-0.237-0.391-0.335c-0.126-0.099-0.182-0.182-0.182-0.224
	c0-0.112,0.126-0.168,0.393-0.168c0.544,0,0.963,0.308,1.257,0.685c0.279,0.386,0.544,0.807,1.005,1.075
	c0.224,0.14,0.488,0.21,0.782,0.21c0.392,0,0.768-0.07,1.131-0.201c0.155-0.531,0.447-0.948,0.88-1.242
	c-3.087-0.294-4.553-1.384-4.553-4.302c0-1.104,0.335-2.025,1.019-2.765c-0.126-0.392-0.196-0.783-0.196-1.173
	c0-0.545,0.127-1.048,0.377-1.523c1.062,0,1.76,0.349,2.823,1.123c0.71-0.168,1.493-0.252,2.36-0.252
	c0.739,0,1.452,0.069,2.137,0.22c1.061-0.741,1.745-1.09,2.794-1.09c0.252,0.475,0.376,0.979,0.376,1.523
	c0,0.404-0.068,0.782-0.195,1.159c0.685,0.769,1.021,1.69,1.021,2.779c0,2.918-1.468,4.035-4.541,4.316
	c0.644,0.433,0.966,1.047,0.966,1.831v3.155C22.382,21.096,24.938,17.63,24.938,13.73z M25.287,8.339
	c0.966,1.648,1.44,3.449,1.44,5.391c0,3.896-2.055,7.375-5.336,9.287c-1.648,0.966-3.452,1.44-5.392,1.44
	c-3.897,0-7.375-2.053-9.29-5.352c-0.963-1.633-1.438-3.436-1.438-5.376c0-3.896,2.053-7.375,5.349-9.29
	C12.256,3.477,14.058,3.003,16,3.003C19.896,3.003,23.375,5.059,25.287,8.339z"/>
</svg>
