<?xml version="1.0" encoding="utf-8"?>
<!-- Generator: Adobe Illustrator 15.0.0, SVG Export Plug-In . SVG Version: 6.00 Build 0)  -->
<!DOCTYPE svg PUBLIC "-//W3C//DTD SVG 1.1//EN" "http://www.w3.org/Graphics/SVG/1.1/DTD/svg11.dtd">
<svg version="1.1" id="Layer_1" xmlns="http://www.w3.org/2000/svg" xmlns:xlink="http://www.w3.org/1999/xlink" x="0px" y="0px"
	 width="115.226px" height="112.164px" viewBox="0 0 115.226 112.164" enable-background="new 0 0 115.226 112.164"
	 xml:space="preserve">
<rect x="1.461" y="104.75" fill="#424143" width="103.381" height="5.827"/>
<polyline fill="none" stroke="#3997D3" stroke-miterlimit="10" points="3.066,87.574 17.788,73.188 31.685,83.049 42.448,70.869 
	58.593,65.257 64.949,43.024 81.312,47.897 96.858,37.408 110.611,46.506 "/>
<polyline fill="none" stroke="#E56246" stroke-miterlimit="10" points="110.611,28.988 96.237,43.156 81.991,33.513 71.229,45.694 
	55.085,51.303 48.729,73.537 32.365,68.666 16.819,79.154 3.067,70.056 "/>
<path fill="#3997D3" d="M98.669,37.396c0,1.342-1.088,2.431-2.431,2.431c-1.344,0-2.432-1.089-2.432-2.431
	c0-1.344,1.088-2.432,2.432-2.432C97.581,34.963,98.669,36.051,98.669,37.396"/>
<path fill="#E56246" d="M112.873,29.473c0,1.342-1.087,2.431-2.431,2.431c-1.342,0-2.431-1.089-2.431-2.431
	c0-1.344,1.089-2.432,2.431-2.432C111.786,27.041,112.873,28.129,112.873,29.473"/>
<path fill="#E56246" d="M84.334,33.705c0,1.342-1.089,2.431-2.432,2.431c-1.344,0-2.431-1.089-2.431-2.431
	c0-1.344,1.087-2.432,2.431-2.432C83.245,31.273,84.334,32.361,84.334,33.705"/>
<path fill="#E56246" d="M73.709,45.588c0,1.342-1.087,2.431-2.431,2.431c-1.342,0-2.431-1.089-2.431-2.431
	c0-1.345,1.089-2.432,2.431-2.432C72.622,43.156,73.709,44.244,73.709,45.588"/>
<path fill="#E56246" d="M57.684,51.284c0,1.343-1.087,2.432-2.431,2.432c-1.343,0-2.431-1.089-2.431-2.432
	c0-1.344,1.088-2.432,2.431-2.432C56.596,48.852,57.684,49.94,57.684,51.284"/>
<path fill="#E56246" d="M51.002,73.716c0,1.342-1.088,2.431-2.431,2.431c-1.343,0-2.431-1.089-2.431-2.431
	c0-1.345,1.088-2.433,2.431-2.433C49.915,71.284,51.002,72.372,51.002,73.716"/>
<path fill="#E56246" d="M34.703,68.495c0,1.342-1.088,2.431-2.431,2.431c-1.343,0-2.431-1.089-2.431-2.431
	c0-1.345,1.088-2.434,2.431-2.434C33.615,66.061,34.703,67.15,34.703,68.495"/>
<path fill="#E56246" d="M19.892,79.155c0,1.342-1.088,2.431-2.431,2.431c-1.343,0-2.431-1.089-2.431-2.431
	c0-1.344,1.088-2.432,2.431-2.432C18.804,76.723,19.892,77.811,19.892,79.155"/>
<path fill="#3997D3" d="M112.873,46.59c0,1.249-1.013,2.262-2.262,2.262c-1.25,0-2.263-1.013-2.263-2.262
	c0-1.25,1.013-2.264,2.263-2.264C111.86,44.327,112.873,45.34,112.873,46.59"/>
<path fill="#3997D3" d="M83.567,47.851c0,1.249-1.013,2.263-2.262,2.263s-2.262-1.014-2.262-2.263c0-1.25,1.013-2.263,2.262-2.263
	S83.567,46.601,83.567,47.851"/>
<path fill="#3997D3" d="M66.821,42.833c0,1.249-1.014,2.262-2.263,2.262c-1.248,0-2.262-1.013-2.262-2.262
	c0-1.25,1.014-2.263,2.262-2.263C65.808,40.57,66.821,41.583,66.821,42.833"/>
<path fill="#3997D3" d="M61.363,65.521c0,1.249-1.014,2.263-2.263,2.263s-2.262-1.014-2.262-2.263s1.013-2.262,2.262-2.262
	S61.363,64.272,61.363,65.521"/>
<path fill="#3997D3" d="M44.617,71.285c0,1.25-1.014,2.263-2.262,2.263c-1.249,0-2.263-1.013-2.263-2.263s1.014-2.263,2.263-2.263
	C43.604,69.022,44.617,70.035,44.617,71.285"/>
<path fill="#3997D3" d="M34.534,82.809c0,1.25-1.013,2.263-2.262,2.263c-1.25,0-2.263-1.013-2.263-2.263s1.013-2.263,2.263-2.263
	C33.521,80.546,34.534,81.559,34.534,82.809"/>
<path fill="#3997D3" d="M19.723,73.188c0,1.25-1.013,2.263-2.262,2.263c-1.25,0-2.263-1.013-2.263-2.263s1.013-2.263,2.263-2.263
	C18.709,70.925,19.723,71.938,19.723,73.188"/>
<line fill="none" stroke="#3997D3" stroke-miterlimit="10" x1="110.611" y1="46.506" x2="96.237" y2="37.073"/>
<line fill="none" stroke="#3997D3" stroke-miterlimit="10" x1="17.788" y1="73.188" x2="3.233" y2="87.742"/>
<line fill="none" stroke="#424143" stroke-width="5" stroke-miterlimit="10" x1="3.066" y1="3.052" x2="3.066" y2="110.579"/>
</svg>
