<?xml version="1.0" encoding="utf-8"?>
<!-- Generator: Adobe Illustrator 15.0.0, SVG Export Plug-In . SVG Version: 6.00 Build 0)  -->
<!DOCTYPE svg PUBLIC "-//W3C//DTD SVG 1.1//EN" "http://www.w3.org/Graphics/SVG/1.1/DTD/svg11.dtd">
<svg version="1.1" id="Layer_1" xmlns="http://www.w3.org/2000/svg" xmlns:xlink="http://www.w3.org/1999/xlink" x="0px" y="0px"
	 width="180.35px" height="196px" viewBox="0 0 180.35 196" enable-background="new 0 0 180.35 196" xml:space="preserve">
<g>
	<path fill="#E56246" d="M22.268,24.997c0,8.248,6.692,14.945,14.939,14.945c8.254,0,14.936-6.697,14.936-14.945
		c0-8.244-6.682-14.935-14.936-14.935C28.96,10.062,22.268,16.752,22.268,24.997z"/>
	<path fill="#E56246" d="M0,49.552c0-3.535,2.556-6.398,5.709-6.398h60.942c3.159,0,5.717,2.864,5.717,6.398
		c0,0.062-0.013,0.124-0.013,0.196c0,0.056,0.013,0.118,0.013,0.178v12.303l17.223-29.395v12.682L75.29,73.407
		c0,0-3.096,6.328-6.983,6.328s-7.571-5.872-7.571-5.872v-17.94h-3.419v47.326v9.405v63.182c0,5.073-4.1,9.172-9.158,9.172
		c-5.058,0-9.165-4.099-9.165-9.172v-63.182h-5.522v63.182c0,5.073-4.1,9.172-9.154,9.172c-5.067,0-9.163-4.099-9.163-9.172v-63.182
		v-9.405V55.924h-3.355v39.93c0,3.204-2.646,5.801-5.901,5.801C2.635,101.655,0,99.058,0,95.854V49.926
		c0-0.06,0.012-0.122,0.012-0.178C0.012,49.684,0,49.613,0,49.552z"/>
</g>
<line fill="none" stroke="#E56246" stroke-miterlimit="10" x1="90.325" y1="28.372" x2="90.325" y2="15.501"/>
<line fill="none" stroke="#E56246" stroke-miterlimit="10" x1="94.878" y1="30.566" x2="100.087" y2="21.664"/>
<line fill="none" stroke="#E56246" stroke-miterlimit="10" x1="85.771" y1="30.566" x2="80.565" y2="21.664"/>
<g>
	<path fill="#E56246" d="M158.082,24.904c0,8.248-6.692,14.945-14.938,14.945c-8.254,0-14.937-6.697-14.937-14.945
		c0-8.244,6.683-14.935,14.937-14.935C151.39,9.969,158.082,16.66,158.082,24.904z"/>
	<path fill="#E56246" d="M180.35,49.459c0-3.534-2.556-6.398-5.71-6.398h-60.941c-3.159,0-5.717,2.864-5.717,6.398
		c0,0.062,0.013,0.124,0.013,0.197c0,0.056-0.013,0.118-0.013,0.178v12.303L90.758,32.741v12.682l14.303,27.892
		c0,0,3.095,6.328,6.982,6.328c3.887,0,7.571-5.872,7.571-5.872v-17.94h3.419v47.326v9.406v63.181c0,5.074,4.099,9.172,9.158,9.172
		c5.058,0,9.164-4.098,9.164-9.172v-63.181h5.523v63.181c0,5.074,4.099,9.172,9.153,9.172c5.067,0,9.163-4.098,9.163-9.172v-63.181
		v-9.406V55.832h3.355v39.93c0,3.205,2.645,5.802,5.9,5.802c3.264,0,5.898-2.597,5.898-5.802V49.833c0-0.06-0.012-0.122-0.012-0.178
		C180.338,49.591,180.35,49.521,180.35,49.459z"/>
</g>
</svg>
