<?xml version="1.0" encoding="utf-8"?>
<!-- Generator: Adobe Illustrator 15.0.0, SVG Export Plug-In . SVG Version: 6.00 Build 0)  -->
<!DOCTYPE svg PUBLIC "-//W3C//DTD SVG 1.1//EN" "http://www.w3.org/Graphics/SVG/1.1/DTD/svg11.dtd">
<svg version="1.1" id="Layer_1" xmlns="http://www.w3.org/2000/svg" xmlns:xlink="http://www.w3.org/1999/xlink" x="0px" y="0px"
	 width="165.59px" height="165.59px" viewBox="0 0 165.59 165.59" enable-background="new 0 0 165.59 165.59" xml:space="preserve">
<path fill="none" d="M24.313,82.736c0-32.248,26.242-58.49,58.484-58.49c32.248,0,58.485,26.242,58.485,58.49
	c0.001,16.849-7.173,32.05-18.616,42.734v11.28c16.545-12.246,27.294-31.896,27.294-54.014c0-37.022-30.125-67.149-67.163-67.149
	c-37.035,0-67.167,30.127-67.167,67.149c0,24.041,12.704,45.161,31.743,57.031v-10.54C33.371,118.53,24.313,101.672,24.313,82.736z"
	/>
<path fill="none" d="M49.26,82.736c0-18.499,15.017-33.51,33.539-33.51c18.498,0,33.524,15.011,33.524,33.51
	c0,0.435-0.017,0.867-0.033,1.297l9.005,9.316c0.85-3.4,1.307-6.954,1.307-10.614c0-24.157-19.642-43.804-43.805-43.804
	c-24.156,0-43.799,19.646-43.799,43.804c0,3.93,0.528,7.737,1.502,11.363l8.84-9.147C49.293,84.218,49.26,83.48,49.26,82.736z"/>
<path fill="none" d="M47.373,108.456v-5.894h-3.614C44.812,104.626,46.02,106.597,47.373,108.456z"/>
<path fill="#3ABEEE" d="M82.799,49.226c-18.522,0-33.539,15.011-33.539,33.51c0,0.745,0.033,1.482,0.081,2.215l33.916-35.096
	l33.033,34.178c0.017-0.431,0.033-0.862,0.033-1.297C116.323,64.237,101.297,49.226,82.799,49.226z"/>
<path fill="#3ABEEE" d="M141.282,82.736c0-32.248-26.237-58.49-58.485-58.49c-32.242,0-58.484,26.242-58.484,58.49
	c0,18.936,9.058,35.794,23.06,46.491v-20.771c-1.354-1.859-2.562-3.83-3.614-5.894H32.321l8.18-8.464
	c-0.975-3.626-1.502-7.433-1.502-11.363c0-24.158,19.643-43.804,43.799-43.804c24.163,0,43.805,19.647,43.805,43.804
	c0,3.66-0.457,7.213-1.307,10.614l8.904,9.213h-11.533v22.907C134.109,114.786,141.283,99.585,141.282,82.736z"/>
<path fill="#3ABEEE" d="M164.646,82.735c0-45.126-36.722-81.834-81.85-81.834c-45.132,0-81.854,36.707-81.854,81.834
	c0,32.438,18.985,60.545,46.43,73.781v-16.749c-19.039-11.87-31.743-32.99-31.743-57.031c0-37.022,30.132-67.149,67.167-67.149
	c37.038,0,67.163,30.127,67.163,67.149c0,22.119-10.749,41.768-27.294,54.014v17.43C147.687,140.155,164.646,113.386,164.646,82.735
	z"/>
<path fill="#3ABEEE" d="M82.797,164.589c0.013,0,0.025-0.001,0.039-0.001h-0.077C82.771,164.588,82.784,164.589,82.797,164.589z"/>
<rect x="93.555" y="110.629" fill="#3ABEEE" width="16.127" height="16.127"/>
<rect x="60.849" y="110.629" fill="#3ABEEE" width="16.127" height="16.127"/>
<rect x="75.975" y="135.962" fill="#3ABEEE" width="17.582" height="28.628"/>
</svg>
