<?xml version="1.0" encoding="utf-8"?>
<!-- Generator: Adobe Illustrator 15.0.0, SVG Export Plug-In . SVG Version: 6.00 Build 0)  -->
<!DOCTYPE svg PUBLIC "-//W3C//DTD SVG 1.1//EN" "http://www.w3.org/Graphics/SVG/1.1/DTD/svg11.dtd">
<svg version="1.1" id="Layer_1" xmlns="http://www.w3.org/2000/svg" xmlns:xlink="http://www.w3.org/1999/xlink" x="0px" y="0px"
	 width="222.102px" height="60.125px" viewBox="0 0 222.102 60.125" enable-background="new 0 0 222.102 60.125"
	 xml:space="preserve">
<g>
	<path fill="#FFFFFF" d="M36.848,13.065c0.266-0.269,0.624-0.403,1.075-0.403c0.478,0,0.85,0.134,1.115,0.403
		c0.266,0.269,0.398,0.602,0.398,1s-0.133,0.73-0.398,0.996c-0.266,0.266-0.631,0.398-1.095,0.398c-0.465,0-0.83-0.133-1.095-0.398
		c-0.266-0.265-0.398-0.597-0.398-0.996S36.583,13.333,36.848,13.065z M39.338,26.412v-9.967H36.55v9.967H39.338z"/>
	<path fill="#FFFFFF" d="M52.6,18.536c1.308,0.876,2.001,2.015,2.081,3.415c-0.133,2.815-1.636,4.305-4.51,4.471l-8.404-0.01V11.487
		h7.926c2.516,0.146,3.843,1.609,3.983,4.391C53.629,17.206,53.27,18.091,52.6,18.536z M44.764,17.471h4.182
		c1.201-0.02,1.818-0.641,1.852-1.862c-0.034-0.73-0.641-1.115-1.822-1.155h-4.212V17.471z M44.764,24.082h4.879
		c1.4-0.02,2.118-0.74,2.151-2.161c-0.033-0.956-0.74-1.454-2.121-1.493h-4.909V24.082z"/>
	<path fill="#FFFFFF" d="M56.902,21.434c0-1.46,0.465-2.655,1.394-3.584c0.929-0.929,2.124-1.394,3.584-1.394
		s2.622,0.465,3.485,1.394c0.863,0.93,1.294,2.125,1.294,3.584v0.996h-6.87c0.066,0.531,0.299,0.946,0.697,1.245
		c0.398,0.299,0.863,0.448,1.394,0.448c0.929,0,1.759-0.266,2.489-0.796l1.593,1.593c-0.73,0.996-2.091,1.494-4.083,1.494
		c-1.46,0-2.655-0.464-3.584-1.394C57.366,24.089,56.902,22.894,56.902,21.434z M63.274,19.193
		c-0.398-0.299-0.863-0.448-1.394-0.448c-0.531,0-0.996,0.149-1.394,0.448c-0.398,0.299-0.597,0.713-0.597,1.245h3.983
		C63.872,19.907,63.673,19.492,63.274,19.193z"/>
	<path fill="#FFFFFF" d="M69.039,17.65c1.261-0.796,2.721-1.195,4.381-1.195c1.195,0,2.141,0.332,2.838,0.996
		c0.697,0.664,1.045,1.66,1.045,2.987v5.974h-2.788v-0.796c-0.81,0.531-1.54,0.796-2.19,0.796c-1.328,0-2.323-0.282-2.987-0.846
		c-0.664-0.564-0.996-1.344-0.996-2.34c0-0.93,0.314-1.759,0.941-2.489c0.627-0.73,1.641-1.095,3.042-1.095
		c0.644,0,1.374,0.199,2.19,0.597V19.94c-0.013-0.73-0.544-1.128-1.593-1.195c-1.195,0-2.124,0.199-2.788,0.598L69.039,17.65z
		 M74.515,23.425V22.3c-0.266-0.511-0.896-0.767-1.892-0.767c-1.195,0.133-1.826,0.598-1.892,1.394
		c0.066,0.79,0.697,1.218,1.892,1.284C73.619,24.211,74.25,23.95,74.515,23.425z"/>
	<path fill="#FFFFFF" d="M80.778,25.167c-0.996-0.83-1.494-1.908-1.494-3.236v-0.996c0-1.328,0.498-2.406,1.494-3.236
		c0.996-0.83,2.161-1.245,3.495-1.245c1.593,0,2.917,0.564,3.973,1.693l-1.992,1.494c-0.597-0.598-1.261-0.896-1.991-0.896
		c-0.664,0-1.245,0.266-1.742,0.797c-0.498,0.531-0.747,1.162-0.747,1.892c0,0.73,0.232,1.361,0.697,1.892
		c0.464,0.531,1.062,0.796,1.792,0.796c0.73,0,1.394-0.299,1.991-0.896l1.992,1.493c-1.062,1.129-2.39,1.693-3.983,1.693
		C82.935,26.412,81.774,25.998,80.778,25.167z"/>
	<path fill="#FFFFFF" d="M91.114,25.053c-0.969-0.973-1.454-2.179-1.454-3.62c0-1.447,0.485-2.655,1.454-3.625
		c0.969-0.969,2.177-1.454,3.624-1.454s2.655,0.485,3.625,1.454c0.969,0.97,1.454,2.178,1.454,3.625
		c0,1.447-0.484,2.655-1.454,3.625s-2.177,1.454-3.625,1.454S92.082,26.025,91.114,25.053z M94.728,24.102
		c0.757,0,1.371-0.254,1.842-0.762s0.707-1.14,0.707-1.897c0-0.756-0.236-1.39-0.707-1.901s-1.088-0.767-1.852-0.767
		c-0.75,0-1.36,0.256-1.832,0.767c-0.471,0.511-0.707,1.145-0.707,1.901c0,0.757,0.235,1.389,0.707,1.897
		C93.357,23.848,93.971,24.102,94.728,24.102z"/>
	<path fill="#FFFFFF" d="M104.496,20.08v6.333h-2.788v-9.668l2.788-0.299v0.906c0.67-0.597,1.467-0.896,2.39-0.896
		c1.261,0,2.224,0.382,2.888,1.145c0.664,0.764,0.996,1.643,0.996,2.639v6.173h-2.788v-5.476c0-0.664-0.166-1.178-0.498-1.543
		s-0.833-0.558-1.503-0.578C105.402,18.855,104.907,19.276,104.496,20.08z"/>
	<path fill="#FFFFFF" d="M128.392,11.975c0.764,0.332,1.478,0.83,2.141,1.494l-1.991,1.991c-0.664-0.796-1.593-1.195-2.788-1.195
		c-1.194,0-1.958,0.282-2.29,0.846c-0.332,0.564-0.332,1.045,0,1.444s1.096,0.697,2.29,0.896c1.262,0.133,2.406,0.548,3.436,1.245
		c1.028,0.697,1.543,1.809,1.543,3.336c0,1.195-0.549,2.224-1.647,3.086s-2.378,1.294-3.839,1.294c-1.387,0-2.546-0.199-3.475-0.598
		c-0.93-0.398-1.727-0.929-2.39-1.593l1.991-1.992c0.664,0.797,1.792,1.262,3.386,1.394c1.327,0,2.155-0.282,2.484-0.846
		c0.328-0.564,0.328-1.128,0-1.693c-0.329-0.564-1.157-0.913-2.484-1.045c-1.195-0.133-2.29-0.498-3.286-1.095
		c-0.996-0.597-1.493-1.626-1.493-3.086c0-1.321,0.565-2.381,1.697-3.181c1.132-0.8,2.295-1.2,3.49-1.2
		C126.553,11.477,127.629,11.643,128.392,11.975z"/>
	<path fill="#FFFFFF" d="M132.643,21.434c0-1.46,0.465-2.655,1.395-3.584c0.929-0.929,2.124-1.394,3.584-1.394
		s2.622,0.465,3.485,1.394c0.862,0.93,1.294,2.125,1.294,3.584v0.996h-6.87c0.066,0.531,0.299,0.946,0.697,1.245
		c0.398,0.299,0.862,0.448,1.394,0.448c0.93,0,1.759-0.266,2.489-0.796l1.593,1.593c-0.729,0.996-2.091,1.494-4.082,1.494
		c-1.46,0-2.655-0.464-3.584-1.394C133.108,24.089,132.643,22.894,132.643,21.434z M139.016,19.193
		c-0.398-0.299-0.863-0.448-1.395-0.448s-0.995,0.149-1.394,0.448s-0.598,0.713-0.598,1.245h3.982
		C139.613,19.907,139.414,19.492,139.016,19.193z"/>
	<path fill="#FFFFFF" d="M147.161,17.55c0.71-0.73,1.576-1.095,2.599-1.095c0.325,0,0.634,0.027,0.926,0.08l-0.438,2.748
		c-0.325-0.292-0.79-0.448-1.395-0.468c-0.677,0.046-1.241,0.538-1.692,1.474v6.124h-2.788v-9.668l2.788-0.299V17.55z"/>
	<path fill="#FFFFFF" d="M154.519,16.455l2.34,6.223l2.39-6.223h2.828l-3.993,9.957h-2.39l-4.003-9.957H154.519z"/>
	<path fill="#FFFFFF" d="M164.187,13.065c0.266-0.269,0.624-0.403,1.076-0.403c0.478,0,0.85,0.134,1.115,0.403
		c0.265,0.269,0.397,0.602,0.397,1s-0.133,0.73-0.397,0.996c-0.266,0.266-0.631,0.398-1.096,0.398s-0.83-0.133-1.096-0.398
		c-0.265-0.265-0.397-0.597-0.397-0.996S163.923,13.333,164.187,13.065z M166.677,26.412v-9.967h-2.787v9.967H166.677z"/>
	<path fill="#FFFFFF" d="M170.092,25.167c-0.996-0.83-1.493-1.908-1.493-3.236v-0.996c0-1.328,0.497-2.406,1.493-3.236
		c0.996-0.83,2.16-1.245,3.495-1.245c1.593,0,2.917,0.564,3.973,1.693l-1.991,1.494c-0.598-0.598-1.262-0.896-1.991-0.896
		c-0.664,0-1.245,0.266-1.743,0.797c-0.498,0.531-0.746,1.162-0.746,1.892c0,0.73,0.231,1.361,0.696,1.892
		c0.465,0.531,1.062,0.796,1.793,0.796c0.729,0,1.394-0.299,1.991-0.896l1.991,1.493c-1.062,1.129-2.39,1.693-3.982,1.693
		C172.249,26.412,171.088,25.998,170.092,25.167z"/>
	<path fill="#FFFFFF" d="M179.023,21.434c0-1.46,0.465-2.655,1.395-3.584c0.929-0.929,2.124-1.394,3.584-1.394
		s2.622,0.465,3.485,1.394c0.862,0.93,1.294,2.125,1.294,3.584v0.996h-6.87c0.066,0.531,0.299,0.946,0.697,1.245
		c0.398,0.299,0.862,0.448,1.394,0.448c0.93,0,1.759-0.266,2.489-0.796l1.593,1.593c-0.729,0.996-2.091,1.494-4.082,1.494
		c-1.46,0-2.655-0.464-3.584-1.394C179.488,24.089,179.023,22.894,179.023,21.434z M185.396,19.193
		c-0.398-0.299-0.863-0.448-1.395-0.448s-0.995,0.149-1.394,0.448s-0.598,0.713-0.598,1.245h3.982
		C185.993,19.907,185.794,19.492,185.396,19.193z"/>
	<path fill="#FFFFFF" d="M196.597,16.734c0.518,0.226,1.003,0.561,1.454,1.006l-1.554,1.752c-0.451-0.538-1.016-0.807-1.692-0.807
		c-0.671,0-1.118,0.125-1.344,0.374c-0.227,0.249-0.227,0.475,0,0.677c0.226,0.203,0.673,0.37,1.344,0.503
		c0.989,0.093,1.799,0.375,2.43,0.846c0.63,0.472,0.945,1.292,0.945,2.459c0,0.943-0.371,1.673-1.115,2.19
		c-0.743,0.518-1.609,0.777-2.599,0.777c-0.942,0-1.728-0.134-2.354-0.403s-1.167-0.629-1.618-1.08l1.544-1.743
		c0.451,0.538,1.151,0.85,2.101,0.936c0.763,0,1.256-0.125,1.479-0.374s0.256-0.498,0.1-0.747s-0.682-0.417-1.578-0.503
		c-0.81-0.093-1.552-0.342-2.226-0.747s-1.011-1.168-1.011-2.291c0-1.029,0.384-1.813,1.15-2.354s1.555-0.812,2.364-0.812
		C195.353,16.396,196.08,16.508,196.597,16.734z"/>
</g>
<g>
	<g>
		<path fill="#FFFFFF" d="M22.812,28.292H7.945c-2.684,0-4.867-2.183-4.867-4.867V8.558c0-2.684,2.184-4.867,4.867-4.867h14.868
			c2.684,0,4.867,2.184,4.867,4.867v14.867C27.678,26.11,25.495,28.292,22.812,28.292z M7.945,5.17
			c-1.868,0-3.388,1.521-3.388,3.388v14.867c0,1.868,1.52,3.388,3.388,3.388h14.867c1.868,0,3.387-1.52,3.387-3.388l0-14.867
			c0-1.867-1.52-3.388-3.387-3.388H7.945z"/>
	</g>
	<g>
		<path fill="#FFFFFF" d="M10.02,25.836c-2.54,0-4.608-2.066-4.608-4.606s2.068-4.608,4.608-4.608c2.541,0,4.607,2.068,4.607,4.608
			S12.56,25.836,10.02,25.836z M10.02,17.588c-2.008,0-3.641,1.633-3.641,3.641s1.633,3.641,3.641,3.641s3.642-1.633,3.642-3.641
			C13.66,19.221,12.028,17.588,10.02,17.588z"/>
	</g>
	<g>
		<g>
			<g>
				<polygon fill="#FFFFFF" points="10.426,18.325 10.426,21.598 8.801,21.598 				"/>
			</g>
		</g>
		<g>
			<g>
				<polygon fill="#FFFFFF" points="11.239,20.861 9.614,24.133 9.614,20.861 				"/>
			</g>
		</g>
	</g>
</g>
</svg>
