<?xml version="1.0" encoding="utf-8"?>
<!-- Generator: Adobe Illustrator 15.0.0, SVG Export Plug-In . SVG Version: 6.00 Build 0)  -->
<!DOCTYPE svg PUBLIC "-//W3C//DTD SVG 1.1//EN" "http://www.w3.org/Graphics/SVG/1.1/DTD/svg11.dtd">
<svg version="1.1" id="Layer_1" xmlns="http://www.w3.org/2000/svg" xmlns:xlink="http://www.w3.org/1999/xlink" x="0px" y="0px"
	 width="165.59px" height="165.59px" viewBox="0 0 165.59 165.59" enable-background="new 0 0 165.59 165.59" xml:space="preserve">
<g>
	<path fill="none" d="M87.105,55.005v26.327h-11.32L87.105,55.005z"/>
	<g>
		<path fill="#FFFFFF" d="M122.006,108.008c0,7.733-6.266,14-13.998,14H57.582c-7.731,0-14-6.267-14-14V57.582
			c0-7.732,6.269-14,14-14h50.428c7.732,0,13.998,6.268,13.998,14v50.426H122.006z"/>
		<path fill="#3BBDEE" d="M64.496,118.589c-9.319,0-16.904-7.583-16.904-16.903S55.177,84.78,64.496,84.78
			c9.321,0,16.906,7.585,16.906,16.905S73.817,118.589,64.496,118.589z M64.496,88.325c-7.366,0-13.359,5.993-13.359,13.358
			s5.994,13.359,13.359,13.359c7.367,0,13.361-5.994,13.361-13.359C77.854,94.318,71.862,88.325,64.496,88.325z"/>
		<g>
			<g>
				<polygon fill="#3BBDEE" points="65.987,91.027 65.987,103.035 60.025,103.035 				"/>
			</g>
			<g>
				<polygon fill="#3BBDEE" points="68.967,100.331 63.006,112.34 63.006,100.331 				"/>
			</g>
		</g>
	</g>
</g>
</svg>
