<?xml version="1.0" encoding="utf-8"?>
<!-- Generator: Adobe Illustrator 15.0.0, SVG Export Plug-In . SVG Version: 6.00 Build 0)  -->
<!DOCTYPE svg PUBLIC "-//W3C//DTD SVG 1.1//EN" "http://www.w3.org/Graphics/SVG/1.1/DTD/svg11.dtd">
<svg version="1.1" id="Layer_1" xmlns="http://www.w3.org/2000/svg" xmlns:xlink="http://www.w3.org/1999/xlink" x="0px" y="0px"
	 width="62.85px" height="153.234px" viewBox="230.871 0 62.85 153.234" enable-background="new 230.871 0 62.85 153.234"
	 xml:space="preserve">
<g>
	<path fill="#E56326" d="M271.617,55.173c-0.477,1.21-1.846,1.804-3.053,1.327c-1.211-0.479-1.806-1.846-1.329-3.056
		c0.478-1.209,1.848-1.804,3.055-1.325C271.499,52.595,272.094,53.964,271.617,55.173z"/>
	<path fill="#E56326" d="M265.045,49.016c-0.478,1.21-1.846,1.804-3.055,1.327c-1.209-0.478-1.804-1.846-1.326-3.056
		c0.477-1.208,1.845-1.804,3.056-1.325C264.927,46.438,265.522,47.807,265.045,49.016z"/>
	<path fill="#E56326" d="M273.401,41.669c-1.188,3.019-4.602,4.5-7.617,3.309c-3.021-1.189-4.503-4.604-3.312-7.622
		c1.194-3.017,4.606-4.498,7.624-3.308C273.109,35.238,274.592,38.652,273.401,41.669z"/>
	<path fill="#E56326" d="M264.072,122.041c-0.57,1.445-2.203,2.156-3.648,1.587c-1.444-0.572-2.155-2.205-1.586-3.65
		c0.573-1.443,2.206-2.152,3.65-1.584C263.932,118.963,264.642,120.597,264.072,122.041z"/>
	<path fill="#E56326" d="M274.385,16.764c-0.469,1.189-1.814,1.773-3.002,1.304c-1.189-0.469-1.77-1.813-1.302-3.003
		c0.469-1.187,1.813-1.771,3-1.303C274.269,14.231,274.855,15.578,274.385,16.764z"/>
	<path fill="#E56326" d="M270.082,108.382c-0.757,1.058-2.226,1.301-3.287,0.545c-1.058-0.759-1.299-2.23-0.543-3.288
		c0.758-1.058,2.229-1.3,3.286-0.543C270.597,105.853,270.838,107.325,270.082,108.382z"/>
	<circle fill="#E56326" cx="254.278" cy="75.563" r="2.355"/>
	<path fill="#E56326" d="M277.309,95.597c-0.758,1.059-2.228,1.302-3.285,0.546c-1.058-0.758-1.301-2.229-0.544-3.287
		c0.757-1.059,2.228-1.3,3.286-0.542C277.823,93.071,278.066,94.543,277.309,95.597z"/>
	<path fill="#E56326" d="M280.262,24.02c-0.477,1.209-1.845,1.802-3.054,1.326c-1.211-0.478-1.805-1.846-1.328-3.055
		c0.478-1.209,1.847-1.805,3.056-1.327C280.145,21.44,280.739,22.81,280.262,24.02z"/>
	<circle fill="#E56326" cx="268.805" cy="25.937" r="5.408"/>
	<circle fill="#E56326" cx="271.534" cy="71.572" r="7.792"/>
	<path fill="#E56326" d="M271.645,58.933c-2.088,5.295-8.073,7.894-13.368,5.804c-5.292-2.088-7.889-8.072-5.802-13.366
		c2.089-5.291,8.073-7.89,13.366-5.802C271.136,47.659,273.732,53.642,271.645,58.933z"/>
	<path fill="#E56326" d="M272.26,95.818c-1.789,4.532-6.909,6.756-11.439,4.968c-4.529-1.788-6.752-6.91-4.964-11.438
		c1.787-4.529,6.908-6.752,11.438-4.965C271.824,86.17,274.046,91.292,272.26,95.818z"/>
	<path fill="#E56326" d="M270.357,32.836c-0.179,0.453-0.689,0.676-1.142,0.499c-0.453-0.181-0.677-0.691-0.498-1.147
		c0.178-0.452,0.69-0.674,1.145-0.496C270.314,31.871,270.536,32.383,270.357,32.836z"/>
	<path fill="#E56326" d="M273.841,45.057c-0.179,0.454-0.693,0.678-1.144,0.499c-0.454-0.18-0.677-0.692-0.498-1.146
		c0.18-0.452,0.692-0.675,1.146-0.496C273.798,44.094,274.02,44.605,273.841,45.057z"/>
	<path fill="#E56326" d="M251.094,55.477c-0.179,0.453-0.692,0.676-1.144,0.498c-0.454-0.179-0.676-0.691-0.497-1.146
		c0.179-0.453,0.69-0.676,1.145-0.497C251.05,54.511,251.272,55.022,251.094,55.477z"/>
	<path fill="#E56326" d="M281.721,63.515c-0.224,0.569-0.867,0.849-1.432,0.625c-0.57-0.224-0.85-0.867-0.625-1.437
		c0.223-0.567,0.869-0.847,1.434-0.622C281.665,62.305,281.945,62.95,281.721,63.515z"/>
	<path fill="#E56326" d="M278.355,64.35c-0.285,0.728-1.106,1.085-1.832,0.801c-0.727-0.289-1.083-1.109-0.797-1.836
		c0.287-0.726,1.109-1.083,1.834-0.794C278.285,62.805,278.643,63.628,278.355,64.35z"/>
	<path fill="#E56326" d="M263.554,34.783c-0.478,1.215-1.85,1.812-3.062,1.337c-1.218-0.48-1.812-1.855-1.333-3.071
		c0.477-1.21,1.854-1.805,3.071-1.328C263.438,32.197,264.031,33.571,263.554,34.783z"/>
	<path fill="#E56326" d="M273.877,7.322c-0.215,0.548-0.831,0.814-1.374,0.6c-0.546-0.215-0.814-0.832-0.599-1.378
		c0.214-0.545,0.832-0.812,1.377-0.598C273.824,6.162,274.091,6.777,273.877,7.322z"/>
	<path fill="#E56326" d="M274.359,13.211c-0.168,0.43-0.656,0.641-1.083,0.472c-0.431-0.169-0.644-0.655-0.471-1.086
		c0.168-0.43,0.653-0.641,1.083-0.471C274.32,12.296,274.528,12.78,274.359,13.211z"/>
	<path fill="#E56326" d="M269.854,17.599c-0.284,0.72-1.096,1.072-1.811,0.791c-0.718-0.286-1.071-1.098-0.788-1.816
		c0.283-0.718,1.095-1.07,1.815-0.786C269.787,16.069,270.139,16.882,269.854,17.599z"/>
	<path fill="#E56326" d="M280.475,3.912c-0.283,0.72-1.096,1.071-1.812,0.79c-0.717-0.284-1.069-1.096-0.787-1.815
		c0.282-0.719,1.095-1.071,1.813-0.786C280.407,2.382,280.76,3.193,280.475,3.912z"/>
	<path fill="#E56326" d="M262.882,4.803c-0.181,0.453-0.692,0.675-1.144,0.497c-0.455-0.179-0.677-0.69-0.498-1.146
		c0.178-0.452,0.691-0.675,1.145-0.495C262.837,3.838,263.06,4.35,262.882,4.803z"/>
	<circle fill="#E56326" cx="273.355" cy="19.114" r="0.881"/>
	<path fill="#E56326" d="M269.272,19.846c-0.157,0.396-0.605,0.588-0.997,0.434c-0.397-0.156-0.591-0.604-0.435-0.998
		c0.156-0.396,0.603-0.59,1-0.433C269.234,19.005,269.426,19.452,269.272,19.846z"/>
	<path fill="#E56326" d="M263.342,27.58c-0.156,0.396-0.605,0.589-0.997,0.435c-0.397-0.157-0.591-0.604-0.436-1
		c0.157-0.394,0.604-0.588,1-0.431C263.304,26.737,263.497,27.183,263.342,27.58z"/>
	<path fill="#E56326" d="M267.403,20.071c-0.2,0.507-0.771,0.755-1.275,0.557c-0.507-0.201-0.755-0.771-0.555-1.278
		c0.198-0.506,0.771-0.754,1.277-0.553C267.354,18.994,267.603,19.565,267.403,20.071z"/>
	<path fill="#E56326" d="M274.402,30.853c-0.18,0.455-0.693,0.677-1.143,0.499c-0.455-0.179-0.677-0.691-0.498-1.145
		c0.178-0.454,0.691-0.675,1.145-0.496C274.358,29.888,274.581,30.4,274.402,30.853z"/>
	<path fill="#E56326" d="M272.59,9.072c-0.19,0.449-0.707,0.662-1.152,0.476c-0.453-0.19-0.663-0.706-0.475-1.156
		c0.188-0.449,0.704-0.661,1.155-0.472C272.566,8.106,272.778,8.624,272.59,9.072z"/>
	<path fill="#E56326" d="M259.708,103.922c-0.478,1.211-1.844,1.805-3.056,1.329c-1.21-0.48-1.803-1.848-1.326-3.058
		c0.478-1.21,1.843-1.805,3.055-1.326C259.593,101.345,260.184,102.713,259.708,103.922z"/>
	<path fill="#E56326" d="M257.352,9.034c-0.479,1.209-1.846,1.803-3.056,1.325c-1.209-0.479-1.803-1.846-1.326-3.056
		c0.476-1.209,1.844-1.804,3.054-1.326C257.237,6.457,257.829,7.824,257.352,9.034z"/>
	<path fill="#E56326" d="M274.31,58.436c-0.195,0.499-0.759,0.742-1.253,0.547c-0.498-0.195-0.743-0.759-0.546-1.256
		c0.198-0.496,0.759-0.739,1.256-0.543C274.262,57.378,274.506,57.94,274.31,58.436z"/>
	<path fill="#E56326" d="M293.043,63.922c-0.136,0.345-0.525,0.514-0.869,0.379c-0.345-0.136-0.514-0.526-0.377-0.872
		c0.137-0.344,0.526-0.512,0.87-0.375C293.01,63.186,293.178,63.578,293.043,63.922z"/>
	<path fill="#E56326" d="M264.879,46.877c-0.179,0.453-0.691,0.676-1.144,0.499c-0.453-0.18-0.677-0.692-0.498-1.146
		c0.179-0.453,0.692-0.676,1.146-0.496C264.833,45.912,265.057,46.423,264.879,46.877z"/>
	<path fill="#E56326" d="M257.764,45.064c-0.183,0.461-0.703,0.688-1.162,0.508c-0.462-0.183-0.689-0.704-0.505-1.167
		c0.181-0.46,0.704-0.688,1.165-0.506C257.719,44.083,257.946,44.603,257.764,45.064z"/>
	<path fill="#E56326" d="M274.042,48.082c-0.358,0.907-1.384,1.352-2.286,0.995c-0.909-0.358-1.353-1.383-0.997-2.288
		c0.361-0.904,1.383-1.352,2.29-0.992C273.953,46.153,274.4,47.177,274.042,48.082z"/>
	<path fill="#E56326" d="M262.103,37.861c-0.177,0.453-0.69,0.679-1.14,0.499c-0.455-0.18-0.678-0.691-0.498-1.146
		c0.178-0.452,0.691-0.674,1.145-0.495C262.062,36.896,262.286,37.41,262.103,37.861z"/>
	<path fill="#E56326" d="M261.692,68.925c-0.476,1.21-1.845,1.804-3.055,1.327c-1.211-0.479-1.804-1.847-1.327-3.056
		c0.478-1.21,1.844-1.804,3.057-1.325C261.575,66.347,262.169,67.715,261.692,68.925z"/>
	<path fill="#E56326" d="M264.223,79.854c-0.673,1.709-2.609,2.55-4.32,1.876c-1.71-0.677-2.546-2.608-1.872-4.318
		c0.673-1.709,2.605-2.549,4.317-1.874C264.058,76.212,264.897,78.146,264.223,79.854z"/>
	<circle fill="#E56326" cx="281.169" cy="75.822" r="2.355"/>
	<path fill="#E56326" d="M278.998,87.213c-0.751,1.9-2.902,2.834-4.805,2.085c-1.904-0.753-2.835-2.904-2.085-4.806
		c0.75-1.902,2.899-2.835,4.804-2.087C278.812,83.158,279.747,85.31,278.998,87.213z"/>
	<circle fill="#E56326" cx="278.071" cy="14.576" r="2.355"/>
	<circle fill="#E56326" cx="284.585" cy="68.495" r="5.408"/>
	<path fill="#E56326" d="M251.303,74.493c-1.098,2.778-4.237,4.144-7.017,3.045c-2.778-1.096-4.141-4.236-3.044-7.016
		c1.096-2.778,4.235-4.142,7.015-3.045C251.035,68.576,252.397,71.715,251.303,74.493z"/>
	<path fill="#E56326" d="M265.528,114.405c-1.095,2.778-4.234,4.143-7.014,3.046c-2.778-1.098-4.142-4.235-3.045-7.015
		c1.097-2.78,4.237-4.143,7.015-3.048C265.263,108.485,266.626,111.627,265.528,114.405z"/>
	<path fill="#E56326" d="M265.627,11.545c-0.179,0.455-0.692,0.677-1.146,0.499c-0.453-0.18-0.676-0.691-0.496-1.146
		c0.178-0.453,0.691-0.675,1.144-0.497C265.583,10.58,265.805,11.093,265.627,11.545z"/>
	<circle fill="#E56326" cx="276.27" cy="34.318" r="0.883"/>
	<path fill="#E56326" d="M287.044,21.117c-0.179,0.453-0.69,0.675-1.142,0.499c-0.455-0.18-0.678-0.691-0.498-1.146
		c0.178-0.453,0.691-0.676,1.145-0.497C287,20.151,287.223,20.665,287.044,21.117z"/>
	<path fill="#E56326" d="M270.402,14.096c-0.196,0.499-0.759,0.742-1.256,0.546c-0.499-0.196-0.743-0.759-0.545-1.257
		c0.197-0.497,0.758-0.742,1.258-0.545C270.354,13.035,270.599,13.597,270.402,14.096z"/>
	<path fill="#E56326" d="M274.226,62.605c-0.342,0.867-1.322,1.292-2.188,0.95c-0.868-0.341-1.29-1.321-0.951-2.187
		c0.343-0.865,1.319-1.291,2.188-0.948C274.142,60.762,274.568,61.739,274.226,62.605z"/>
	<path fill="#E56326" d="M261.555,41.88c-0.62,1.578-2.405,2.354-3.982,1.732c-1.583-0.624-2.354-2.409-1.731-3.987
		c0.623-1.577,2.403-2.351,3.985-1.728C261.402,38.521,262.178,40.303,261.555,41.88z"/>
	<circle fill="#E56326" cx="266.679" cy="5.677" r="1.686"/>
	<path fill="#E56326" d="M272.866,12.204c-0.343,0.865-1.322,1.293-2.188,0.951c-0.867-0.342-1.292-1.323-0.95-2.188
		c0.34-0.867,1.32-1.291,2.187-0.948C272.782,10.36,273.207,11.339,272.866,12.204z"/>
	<path fill="#E56326" d="M253.594,64.882c-0.532,1.345-2.054,2.009-3.401,1.478c-1.347-0.531-2.009-2.057-1.477-3.403
		c0.528-1.347,2.052-2.005,3.4-1.475C253.464,62.014,254.126,63.534,253.594,64.882z"/>
	<path fill="#E56326" d="M246.817,65.11c-0.343,0.864-1.322,1.292-2.188,0.951c-0.867-0.343-1.292-1.324-0.951-2.188
		c0.341-0.868,1.321-1.29,2.188-0.947C246.734,63.266,247.159,64.246,246.817,65.11z"/>
	<circle fill="#E56326" cx="256.07" cy="65.558" r="1.295"/>
	<path fill="#E56326" d="M242.446,61.057c-0.343,0.865-1.321,1.292-2.188,0.951c-0.867-0.342-1.292-1.323-0.95-2.188
		c0.34-0.866,1.32-1.291,2.187-0.948C242.361,59.214,242.787,60.191,242.446,61.057z"/>
	<path fill="#E56326" d="M281.872,82.604c-0.341,0.865-1.321,1.292-2.188,0.949c-0.865-0.341-1.291-1.322-0.949-2.188
		c0.341-0.865,1.32-1.291,2.188-0.946C281.789,80.76,282.214,81.738,281.872,82.604z"/>
	<path fill="#E56326" d="M250.975,59.602c-0.458,1.159-1.767,1.729-2.923,1.271c-1.161-0.458-1.727-1.767-1.271-2.924
		c0.459-1.156,1.765-1.726,2.923-1.267C250.862,57.138,251.431,58.446,250.975,59.602z"/>
	<path fill="#E56326" d="M252.927,49.585c-0.188,0.479-0.729,0.712-1.205,0.524c-0.478-0.188-0.714-0.729-0.523-1.208
		c0.188-0.476,0.728-0.711,1.206-0.522C252.881,48.567,253.116,49.107,252.927,49.585z"/>
	<path fill="#E56326" d="M274.375,5.457c-0.113,0.291-0.441,0.433-0.729,0.318c-0.29-0.114-0.434-0.441-0.317-0.73
		c0.113-0.29,0.44-0.432,0.731-0.317C274.347,4.84,274.489,5.167,274.375,5.457z"/>
	<circle fill="#E56326" cx="273.455" cy="8.733" r="0.562"/>
	<circle fill="#E56326" cx="272.89" cy="5.333" r="0.344"/>
	<path fill="#E56326" d="M274.489,6.343c-0.069,0.178-0.269,0.265-0.445,0.195c-0.179-0.07-0.265-0.271-0.194-0.448
		c0.069-0.178,0.269-0.265,0.447-0.195C274.473,5.966,274.56,6.167,274.489,6.343z"/>
	<circle fill="#E56326" cx="274.016" cy="7.849" r="0.285"/>
	<circle fill="#E56326" cx="272.89" cy="9.615" r="0.285"/>
	<circle fill="#E56326" cx="273.952" cy="11.507" r="0.285"/>
	<circle fill="#E56326" cx="268.557" cy="15.028" r="0.451"/>
	<circle fill="#E56326" cx="262.911" cy="25.937" r="0.285"/>
	<path fill="#E56326" d="M267.249,18.291c-0.105,0.262-0.399,0.391-0.659,0.288c-0.262-0.104-0.392-0.399-0.286-0.66
		c0.101-0.261,0.398-0.39,0.657-0.285C267.224,17.735,267.351,18.03,267.249,18.291z"/>
	<circle fill="#E56326" cx="267.569" cy="18.796" r="0.286"/>
	<circle fill="#E56326" cx="269.61" cy="15.213" r="0.284"/>
	<circle fill="#E56326" cx="267.786" cy="15.498" r="0.285"/>
	<path fill="#E56326" d="M270.485,19.017c-0.126,0.313-0.478,0.467-0.79,0.344c-0.315-0.125-0.468-0.478-0.344-0.791
		c0.122-0.312,0.478-0.465,0.79-0.342C270.454,18.351,270.606,18.705,270.485,19.017z"/>
	<path fill="#E56326" d="M265.755,21.127c-0.099,0.246-0.374,0.366-0.618,0.27c-0.245-0.097-0.366-0.373-0.268-0.618
		c0.094-0.244,0.372-0.363,0.617-0.268C265.732,20.605,265.851,20.883,265.755,21.127z"/>
	<path fill="#E56326" d="M271.747,20.288c-0.165,0.409-0.625,0.61-1.033,0.448c-0.412-0.16-0.613-0.624-0.449-1.033
		c0.159-0.41,0.624-0.609,1.033-0.448C271.708,19.416,271.908,19.878,271.747,20.288z"/>
	<path fill="#E56326" d="M272.247,19.094c-0.098,0.246-0.373,0.367-0.617,0.269c-0.245-0.096-0.367-0.373-0.269-0.617
		c0.095-0.244,0.374-0.364,0.618-0.269C272.223,18.574,272.343,18.85,272.247,19.094z"/>
	<path fill="#E56326" d="M274.049,21.265c-0.176,0.439-0.669,0.655-1.105,0.482c-0.442-0.173-0.657-0.67-0.481-1.107
		c0.17-0.438,0.667-0.653,1.105-0.479C274.007,20.333,274.221,20.828,274.049,21.265z"/>
	<path fill="#E56326" d="M274.433,22.644c-0.126,0.313-0.477,0.467-0.789,0.344c-0.315-0.124-0.469-0.478-0.345-0.792
		c0.122-0.312,0.479-0.465,0.791-0.342C274.402,21.978,274.555,22.333,274.433,22.644z"/>
	<circle fill="#E56326" cx="265.503" cy="15.916" r="0.286"/>
	<circle fill="#E56326" cx="272.279" cy="19.997" r="0.285"/>
	<path fill="#E56326" d="M270.052,20.101c-0.06,0.146-0.223,0.218-0.37,0.16s-0.219-0.224-0.161-0.371
		c0.057-0.146,0.224-0.217,0.37-0.159C270.038,19.788,270.109,19.954,270.052,20.101z"/>
	<path fill="#E56326" d="M264.786,30.35c-0.06,0.146-0.224,0.218-0.37,0.161c-0.146-0.058-0.219-0.223-0.161-0.37
		c0.058-0.146,0.224-0.217,0.37-0.16C264.772,30.038,264.843,30.204,264.786,30.35z"/>
	<path fill="#E56326" d="M264.927,33.592c-0.089,0.224-0.342,0.334-0.565,0.245c-0.227-0.089-0.338-0.343-0.247-0.568
		c0.087-0.224,0.344-0.334,0.567-0.245C264.906,33.112,265.017,33.366,264.927,33.592z"/>
	<circle fill="#E56326" cx="272.7" cy="34.754" r="0.438"/>
	<circle fill="#E56326" cx="274.152" cy="17.946" r="0.285"/>
	<circle fill="#E56326" cx="270.812" cy="18.35" r="0.285"/>
	<circle fill="#E56326" cx="274.016" cy="9.615" r="0.285"/>
	<path fill="#E56326" d="M274.172,4.262c-0.07,0.176-0.27,0.264-0.446,0.194c-0.179-0.07-0.266-0.271-0.195-0.448
		c0.069-0.177,0.269-0.264,0.447-0.194C274.155,3.883,274.242,4.084,274.172,4.262z"/>
	<path fill="#E56326" d="M271.098,2.837c-0.07,0.178-0.27,0.265-0.446,0.195c-0.18-0.07-0.267-0.271-0.195-0.448
		c0.068-0.177,0.269-0.265,0.447-0.194C271.081,2.459,271.167,2.66,271.098,2.837z"/>
	<path fill="#E56326" d="M274.449,3.181c-0.069,0.176-0.27,0.264-0.445,0.195c-0.179-0.07-0.267-0.271-0.196-0.449
		c0.07-0.177,0.271-0.264,0.448-0.193C274.434,2.804,274.52,3.004,274.449,3.181z"/>
	<circle fill="#E56326" cx="273.581" cy="10.463" r="0.562"/>
	<circle fill="#E56326" cx="285.623" cy="73.318" r="0.51"/>
	<path fill="#E56326" d="M287.243,75.034c-0.179,0.451-0.692,0.676-1.144,0.497c-0.453-0.181-0.677-0.691-0.496-1.146
		c0.18-0.453,0.691-0.675,1.146-0.494C287.201,74.067,287.42,74.581,287.243,75.034z"/>
	<circle fill="#E56326" cx="292.855" cy="62.456" r="0.344"/>
	<circle fill="#E56326" cx="291.749" cy="62.38" r="0.305"/>
	<path fill="#E56326" d="M290.803,62.797c-0.061,0.156-0.238,0.233-0.394,0.172c-0.158-0.062-0.233-0.239-0.17-0.396
		c0.062-0.156,0.237-0.232,0.394-0.171C290.788,62.463,290.865,62.639,290.803,62.797z"/>
	<path fill="#E56326" d="M290.032,63.854c-0.091,0.229-0.351,0.341-0.576,0.251c-0.231-0.09-0.344-0.351-0.251-0.58
		c0.089-0.229,0.348-0.342,0.578-0.25C290.01,63.364,290.123,63.625,290.032,63.854z"/>
	<path fill="#E56326" d="M287.038,63.151c-0.081,0.205-0.313,0.308-0.519,0.228c-0.207-0.082-0.308-0.315-0.226-0.521
		c0.08-0.207,0.313-0.306,0.519-0.226C287.02,62.714,287.119,62.946,287.038,63.151z"/>
	<circle fill="#E56326" cx="284.028" cy="62.455" r="0.4"/>
	<path fill="#E56326" d="M282.973,63.043c-0.104,0.262-0.398,0.392-0.658,0.289c-0.266-0.104-0.394-0.401-0.289-0.663
		c0.103-0.265,0.396-0.393,0.662-0.287C282.948,62.486,283.076,62.783,282.973,63.043z"/>
	<path fill="#E56326" d="M291.411,63.884c-0.114,0.29-0.442,0.433-0.729,0.318c-0.293-0.115-0.434-0.443-0.318-0.731
		c0.113-0.291,0.441-0.434,0.73-0.318C291.385,63.265,291.523,63.593,291.411,63.884z"/>
	<circle fill="#E56326" cx="290.439" cy="68.208" r="0.29"/>
	<path fill="#E56326" d="M289.132,63.392c-0.213,0.51-0.799,0.751-1.307,0.537c-0.513-0.212-0.75-0.798-0.537-1.311
		c0.211-0.511,0.799-0.75,1.31-0.536C289.109,62.298,289.348,62.882,289.132,63.392z"/>
	<path fill="#E56326" d="M291.999,65.953c-0.239,0.566-0.89,0.834-1.454,0.598c-0.568-0.238-0.833-0.891-0.597-1.458
		c0.237-0.564,0.887-0.834,1.455-0.595C291.971,64.734,292.237,65.385,291.999,65.953z"/>
	<path fill="#E56326" d="M289.426,60.252c-0.135,0.323-0.506,0.475-0.826,0.34c-0.324-0.136-0.476-0.505-0.34-0.829
		c0.135-0.321,0.504-0.473,0.828-0.338C289.41,59.559,289.561,59.929,289.426,60.252z"/>
	<circle fill="#E56326" cx="273.585" cy="50.479" r="0.562"/>
	<path fill="#E56326" d="M274.218,52.629c-0.206,0.529-0.804,0.788-1.329,0.581c-0.529-0.208-0.791-0.806-0.58-1.333
		c0.208-0.527,0.803-0.787,1.331-0.578C274.168,51.505,274.423,52.101,274.218,52.629z"/>
	<circle fill="#E56326" cx="270.142" cy="46.177" r="0.603"/>
	<path fill="#E56326" d="M255.212,43.819c-0.113,0.289-0.442,0.432-0.729,0.318c-0.29-0.114-0.434-0.441-0.316-0.732
		c0.113-0.289,0.439-0.43,0.729-0.315C255.184,43.204,255.325,43.529,255.212,43.819z"/>
	<circle fill="#E56326" cx="253.561" cy="47.986" r="0.562"/>
	<circle fill="#E56326" cx="261.286" cy="30.246" r="0.563"/>
	<path fill="#E56326" d="M262.358,43.869c-0.14,0.277-0.481,0.388-0.756,0.249c-0.279-0.143-0.389-0.481-0.246-0.76
		c0.141-0.277,0.479-0.387,0.757-0.247C262.39,43.253,262.499,43.591,262.358,43.869z"/>
	<circle fill="#E56326" cx="258.699" cy="36.282" r="0.562"/>
	<path fill="#E56326" d="M264.4,31.606c-0.14,0.277-0.481,0.387-0.756,0.246c-0.278-0.142-0.389-0.479-0.247-0.758
		s0.48-0.387,0.758-0.247C264.431,30.989,264.541,31.328,264.4,31.606z"/>
	<path fill="#E56326" d="M263.676,29.776c-0.214,0.424-0.733,0.591-1.151,0.378c-0.424-0.217-0.593-0.733-0.375-1.155
		c0.216-0.422,0.73-0.59,1.155-0.375C263.723,28.839,263.89,29.354,263.676,29.776z"/>
	<path fill="#E56326" d="M272.759,32.451c-0.215,0.421-0.733,0.589-1.151,0.376c-0.424-0.217-0.592-0.733-0.375-1.156
		c0.216-0.422,0.73-0.59,1.154-0.375C272.806,31.51,272.973,32.027,272.759,32.451z"/>
	<path fill="#E56326" d="M274.086,33.123c-0.141,0.276-0.481,0.386-0.756,0.246c-0.279-0.142-0.391-0.48-0.248-0.759
		c0.141-0.276,0.481-0.387,0.757-0.246C274.118,32.505,274.226,32.844,274.086,33.123z"/>
	<path fill="#E56326" d="M266.581,32.318c-0.222,0.438-0.761,0.611-1.195,0.392c-0.44-0.227-0.617-0.761-0.39-1.201
		c0.224-0.438,0.757-0.612,1.198-0.389C266.632,31.343,266.804,31.879,266.581,32.318z"/>
	<path fill="#E56326" d="M255.606,46.562c-0.392,0.774-1.342,1.08-2.111,0.691c-0.775-0.396-1.087-1.344-0.689-2.12
		c0.396-0.774,1.341-1.08,2.117-0.687C255.693,44.841,255.998,45.787,255.606,46.562z"/>
	<path fill="#E56326" d="M261.532,72.285c-0.185,0.362-0.63,0.506-0.991,0.323c-0.364-0.187-0.51-0.63-0.323-0.993
		c0.186-0.364,0.628-0.508,0.992-0.323C261.572,71.475,261.716,71.92,261.532,72.285z"/>
	<path fill="#E56326" d="M255.344,71.617c-0.14,0.276-0.481,0.387-0.756,0.246c-0.279-0.142-0.391-0.48-0.247-0.76
		c0.142-0.275,0.48-0.387,0.757-0.245C255.376,71,255.485,71.339,255.344,71.617z"/>
	<circle fill="#E56326" cx="250.273" cy="51.952" r="0.563"/>
	<circle fill="#E56326" cx="247.498" cy="61.971" r="0.563"/>
	<path fill="#E56326" d="M240.504,63.611c-0.14,0.277-0.481,0.388-0.756,0.247c-0.279-0.142-0.391-0.48-0.246-0.759
		c0.141-0.277,0.479-0.386,0.757-0.245C240.536,62.997,240.644,63.335,240.504,63.611z"/>
	<circle fill="#E56326" cx="253.446" cy="71.362" r="0.562"/>
	<circle fill="#E56326" cx="244.172" cy="80.698" r="0.563"/>
	<path fill="#E56326" d="M243.499,83.006c-0.14,0.276-0.481,0.388-0.756,0.245c-0.278-0.141-0.39-0.479-0.246-0.758
		c0.141-0.277,0.479-0.387,0.757-0.245C243.531,82.387,243.641,82.727,243.499,83.006z"/>
	<path fill="#E56326" d="M238.022,69.54c-0.141,0.276-0.481,0.387-0.756,0.247c-0.279-0.142-0.392-0.481-0.247-0.76
		c0.141-0.277,0.479-0.387,0.757-0.244C238.052,68.924,238.162,69.26,238.022,69.54z"/>
	<path fill="#E56326" d="M243.187,77.498c0.021,0.367-0.262,0.683-0.626,0.704c-0.37,0.02-0.685-0.26-0.705-0.629
		c-0.021-0.368,0.261-0.681,0.628-0.703C242.851,76.849,243.165,77.131,243.187,77.498z"/>
	<path fill="#E56326" d="M252.82,78.873c-0.14,0.276-0.48,0.386-0.756,0.246c-0.278-0.142-0.391-0.479-0.246-0.758
		c0.141-0.277,0.479-0.388,0.757-0.244C252.851,78.255,252.961,78.594,252.82,78.873z"/>
	<circle fill="#E56326" cx="249.446" cy="78.616" r="0.563"/>
	<path fill="#E56326" d="M259.487,73.414c-0.498,0.981-1.702,1.369-2.676,0.876c-0.986-0.501-1.38-1.703-0.874-2.688
		c0.5-0.98,1.698-1.369,2.681-0.87C259.599,71.23,259.983,72.428,259.487,73.414z"/>
	<path fill="#E56326" d="M271.139,83.137c-0.48,0.945-1.64,1.322-2.58,0.843c-0.951-0.482-1.331-1.642-0.844-2.59
		c0.486-0.948,1.638-1.322,2.587-0.837C271.247,81.03,271.62,82.188,271.139,83.137z"/>
	<path fill="#E56326" d="M277.473,80.125c-0.142,0.278-0.481,0.387-0.756,0.249c-0.277-0.143-0.39-0.482-0.246-0.761
		c0.141-0.277,0.479-0.388,0.756-0.245C277.504,79.508,277.613,79.846,277.473,80.125z"/>
	<circle fill="#E56326" cx="279.741" cy="64.673" r="0.562"/>
	<circle fill="#E56326" cx="278.496" cy="66.637" r="0.563"/>
	<path fill="#E56326" d="M291.021,67.439c-0.139,0.277-0.479,0.387-0.756,0.248c-0.277-0.143-0.389-0.481-0.246-0.759
		c0.142-0.278,0.48-0.387,0.758-0.246C291.055,66.822,291.164,67.162,291.021,67.439z"/>
	<circle fill="#E56326" cx="284.801" cy="75.822" r="0.563"/>
	<path fill="#E56326" d="M281.518,79.435c-0.142,0.279-0.481,0.387-0.756,0.248c-0.277-0.142-0.391-0.48-0.246-0.759
		c0.141-0.276,0.479-0.387,0.758-0.246C281.549,78.818,281.657,79.157,281.518,79.435z"/>
	<path fill="#E56326" d="M260.003,83.898c-0.14,0.276-0.481,0.387-0.756,0.245c-0.278-0.14-0.39-0.479-0.246-0.758
		c0.141-0.278,0.479-0.387,0.758-0.245C260.035,83.28,260.144,83.621,260.003,83.898z"/>
	<path fill="#E56326" d="M266.314,80.125c-0.14,0.276-0.48,0.387-0.757,0.247c-0.277-0.144-0.39-0.481-0.245-0.761
		c0.141-0.277,0.479-0.386,0.756-0.244C266.345,79.507,266.455,79.847,266.314,80.125z"/>
	<path fill="#E56326" d="M263.342,69.34c-0.14,0.278-0.481,0.388-0.756,0.249c-0.279-0.143-0.39-0.482-0.246-0.759
		c0.141-0.277,0.479-0.389,0.757-0.247C263.374,68.722,263.483,69.062,263.342,69.34z"/>
	<path fill="#E56326" d="M264.47,66.938c-0.141,0.277-0.481,0.388-0.756,0.248c-0.279-0.142-0.39-0.482-0.246-0.76
		c0.141-0.276,0.479-0.386,0.757-0.246C264.502,66.321,264.61,66.661,264.47,66.938z"/>
	<path fill="#E56326" d="M257.706,84.146c-0.277,0.545-0.949,0.763-1.491,0.486c-0.548-0.279-0.77-0.946-0.486-1.494
		c0.279-0.549,0.946-0.764,1.494-0.487C257.769,82.928,257.983,83.597,257.706,84.146z"/>
	<circle fill="#E56326" cx="256.071" cy="86.251" r="0.563"/>
	<path fill="#E56326" d="M232.568,85.098c-0.19,0.45-0.707,0.663-1.154,0.476c-0.451-0.189-0.663-0.706-0.474-1.157
		c0.188-0.449,0.705-0.661,1.155-0.472C232.544,84.133,232.755,84.649,232.568,85.098z"/>
	<circle fill="#E56326" cx="238.569" cy="66.271" r="0.304"/>
	<circle fill="#E56326" cx="249.749" cy="77.307" r="0.304"/>
	<path fill="#E56326" d="M245.235,78.937c-0.173,0.448-0.679,0.666-1.121,0.491c-0.448-0.176-0.669-0.681-0.49-1.128
		c0.175-0.45,0.678-0.667,1.126-0.489C245.195,77.984,245.41,78.493,245.235,78.937z"/>
	<path fill="#E56326" d="M241.795,77.569c-0.078,0.202-0.308,0.303-0.509,0.224c-0.204-0.08-0.303-0.311-0.222-0.511
		c0.079-0.203,0.309-0.303,0.511-0.223C241.776,77.138,241.875,77.368,241.795,77.569z"/>
	<path fill="#E56326" d="M238.94,81.197c-0.062,0.158-0.239,0.235-0.395,0.174c-0.158-0.062-0.234-0.239-0.172-0.397
		c0.061-0.156,0.239-0.232,0.395-0.172C238.925,80.866,239.001,81.043,238.94,81.197z"/>
	<path fill="#E56326" d="M242.117,76.69c-0.038,0.1-0.149,0.148-0.245,0.108c-0.1-0.039-0.147-0.149-0.108-0.246
		c0.038-0.099,0.147-0.147,0.246-0.109C242.109,76.481,242.156,76.593,242.117,76.69z"/>
	<path fill="#E56326" d="M236.053,74.885c-0.038,0.099-0.148,0.147-0.245,0.107c-0.101-0.038-0.148-0.148-0.108-0.246
		c0.038-0.101,0.149-0.148,0.246-0.108C236.045,74.677,236.093,74.788,236.053,74.885z"/>
	<path fill="#E56326" d="M240.65,73.675c-0.006,0.104-0.096,0.186-0.199,0.179c-0.108-0.005-0.187-0.095-0.179-0.202
		c0.005-0.104,0.093-0.185,0.2-0.179C240.578,73.476,240.658,73.567,240.65,73.675z"/>
	<path fill="#E56326" d="M240.518,71.753c-0.007,0.114-0.105,0.203-0.217,0.194c-0.119-0.007-0.206-0.104-0.198-0.22
		c0.004-0.117,0.103-0.205,0.218-0.197C240.438,71.537,240.524,71.636,240.518,71.753z"/>
	<path fill="#E56326" d="M236.466,71.472c-0.062,0.157-0.24,0.234-0.395,0.173c-0.158-0.062-0.234-0.24-0.171-0.396
		c0.062-0.157,0.239-0.233,0.396-0.171C236.45,71.138,236.526,71.315,236.466,71.472z"/>
	<path fill="#E56326" d="M241.734,76.335c-0.114,0.291-0.443,0.434-0.733,0.319c-0.293-0.115-0.435-0.445-0.32-0.737
		c0.115-0.292,0.443-0.434,0.735-0.319C241.709,75.713,241.848,76.043,241.734,76.335z"/>
	<path fill="#E56326" d="M242.45,67.785c-0.061,0.155-0.237,0.232-0.394,0.172c-0.158-0.063-0.234-0.239-0.172-0.397
		c0.062-0.156,0.239-0.231,0.396-0.172C242.436,67.452,242.513,67.628,242.45,67.785z"/>
	<circle fill="#E56326" cx="293.53" cy="62.267" r="0.19"/>
	<circle fill="#E56326" cx="291.083" cy="62.267" r="0.19"/>
	<circle fill="#E56326" cx="291.083" cy="62.815" r="0.19"/>
	<circle fill="#E56326" cx="288.542" cy="64.302" r="0.19"/>
	<path fill="#E56326" d="M290.035,62.499c-0.068,0.176-0.27,0.264-0.441,0.193c-0.18-0.069-0.266-0.269-0.193-0.444
		c0.068-0.18,0.267-0.265,0.445-0.195C290.02,62.121,290.105,62.321,290.035,62.499z"/>
	<path fill="#E56326" d="M286.878,62.35c-0.045,0.117-0.179,0.175-0.294,0.129c-0.121-0.047-0.178-0.179-0.13-0.298
		c0.045-0.117,0.178-0.176,0.295-0.128C286.869,62.098,286.926,62.231,286.878,62.35z"/>
	<path fill="#E56326" d="M279.165,63.774c-0.044,0.118-0.178,0.177-0.293,0.13c-0.121-0.047-0.177-0.179-0.131-0.297
		c0.046-0.119,0.179-0.175,0.296-0.128C279.156,63.524,279.213,63.657,279.165,63.774z"/>
	<path fill="#E56326" d="M283.456,62.43c-0.046,0.119-0.181,0.176-0.295,0.129c-0.12-0.045-0.177-0.179-0.129-0.296
		c0.046-0.119,0.178-0.176,0.296-0.129C283.446,62.179,283.503,62.311,283.456,62.43z"/>
	<path fill="#E56326" d="M292.406,62.863c-0.038,0.099-0.149,0.147-0.246,0.107c-0.1-0.039-0.146-0.148-0.105-0.246
		c0.037-0.1,0.147-0.146,0.246-0.107C292.396,62.654,292.445,62.765,292.406,62.863z"/>
	<path fill="#E56326" d="M291.811,63.054c-0.039,0.099-0.148,0.146-0.244,0.107c-0.102-0.038-0.148-0.149-0.108-0.247
		c0.038-0.101,0.149-0.146,0.247-0.108S291.85,62.956,291.811,63.054z"/>
	<path fill="#E56326" d="M290.018,66.5c-0.037,0.099-0.148,0.146-0.244,0.105c-0.101-0.038-0.147-0.148-0.107-0.246
		c0.038-0.099,0.148-0.146,0.247-0.107C290.01,66.291,290.057,66.4,290.018,66.5z"/>
	<path fill="#E56326" d="M292.462,64.848c-0.056,0.146-0.221,0.217-0.366,0.16c-0.146-0.058-0.218-0.223-0.158-0.369
		c0.055-0.146,0.221-0.218,0.367-0.16C292.45,64.538,292.521,64.702,292.462,64.848z"/>
	<path fill="#E56326" d="M291.811,64.372c-0.039,0.098-0.148,0.146-0.244,0.107c-0.102-0.04-0.148-0.149-0.108-0.248
		c0.038-0.099,0.149-0.146,0.247-0.107S291.85,64.272,291.811,64.372z"/>
	<path fill="#E56326" d="M289.757,65.63c-0.038,0.098-0.149,0.146-0.245,0.106c-0.1-0.039-0.146-0.149-0.107-0.247
		c0.037-0.099,0.148-0.146,0.248-0.107C289.749,65.42,289.796,65.53,289.757,65.63z"/>
	<circle fill="#E56326" cx="290.196" cy="64.302" r="0.19"/>
	<path fill="#E56326" d="M289.885,64.946c-0.109,0.278-0.423,0.415-0.695,0.306c-0.282-0.109-0.42-0.422-0.308-0.701
		c0.109-0.281,0.421-0.415,0.699-0.305C289.859,64.353,289.996,64.668,289.885,64.946z"/>
	<circle fill="#E56326" cx="290.032" cy="63.045" r="0.19"/>
	<path fill="#E56326" d="M282.164,59.039c-0.038,0.097-0.148,0.146-0.245,0.106c-0.101-0.039-0.147-0.148-0.108-0.247
		s0.149-0.146,0.248-0.107S282.204,58.94,282.164,59.039z"/>
	<path fill="#E56326" d="M286.047,62.75c-0.088,0.229-0.349,0.344-0.576,0.252c-0.233-0.092-0.345-0.351-0.252-0.58
		c0.09-0.232,0.35-0.344,0.579-0.253C286.028,62.26,286.143,62.519,286.047,62.75z"/>
	<path fill="#E56326" d="M286.324,60.356c-0.09,0.23-0.35,0.345-0.576,0.253c-0.232-0.092-0.345-0.35-0.252-0.58
		c0.09-0.232,0.348-0.345,0.579-0.254S286.418,60.127,286.324,60.356z"/>
	<path fill="#E56326" d="M293.326,63.076c-0.039,0.098-0.148,0.146-0.246,0.107c-0.1-0.039-0.146-0.149-0.107-0.248
		s0.148-0.146,0.246-0.107S293.365,62.977,293.326,63.076z"/>
	<path fill="#E56326" d="M232.011,73.463c0.136-0.344,0.526-0.513,0.868-0.379c0.346,0.138,0.515,0.526,0.379,0.872
		c-0.137,0.344-0.526,0.513-0.871,0.377C232.045,74.196,231.875,73.806,232.011,73.463z"/>
	<path fill="#E56326" d="M236.159,78.578c0.101-0.259,0.393-0.384,0.649-0.282c0.259,0.102,0.385,0.393,0.282,0.648
		c-0.101,0.261-0.391,0.385-0.651,0.283C236.184,79.127,236.061,78.836,236.159,78.578z"/>
	<path fill="#E56326" d="M237.131,79.117c0.067-0.176,0.268-0.263,0.443-0.193c0.179,0.07,0.264,0.269,0.193,0.446
		c-0.069,0.176-0.268,0.263-0.446,0.191C237.147,79.494,237.062,79.294,237.131,79.117z"/>
	<path fill="#E56326" d="M236.598,77.734c0.068-0.177,0.269-0.264,0.443-0.193c0.178,0.069,0.264,0.269,0.193,0.445
		c-0.07,0.179-0.269,0.262-0.446,0.192C236.614,78.109,236.53,77.912,236.598,77.734z"/>
	<path fill="#E56326" d="M237.439,76.19c0.068-0.176,0.269-0.263,0.443-0.192c0.179,0.069,0.264,0.269,0.193,0.445
		c-0.069,0.179-0.268,0.264-0.446,0.193C237.455,76.567,237.37,76.369,237.439,76.19z"/>
	<path fill="#E56326" d="M238.914,80.571c0.115-0.294,0.45-0.439,0.742-0.323c0.297,0.116,0.442,0.448,0.324,0.745
		c-0.115,0.294-0.45,0.439-0.747,0.321C238.94,81.201,238.798,80.869,238.914,80.571z"/>
	<path fill="#E56326" d="M241.672,78.754c0.101-0.253,0.385-0.377,0.638-0.278c0.256,0.103,0.38,0.388,0.278,0.641
		c-0.1,0.255-0.385,0.379-0.64,0.278C241.697,79.296,241.572,79.009,241.672,78.754z"/>
	<path fill="#E56326" d="M237.532,77.211c0.176-0.451,0.688-0.675,1.138-0.497c0.458,0.179,0.682,0.691,0.499,1.144
		c-0.178,0.456-0.691,0.679-1.143,0.499C237.573,78.177,237.353,77.666,237.532,77.211z"/>
	<path fill="#E56326" d="M239.247,72.622c0.127-0.32,0.49-0.478,0.805-0.351c0.324,0.125,0.482,0.487,0.354,0.808
		c-0.126,0.319-0.488,0.477-0.81,0.349C239.278,73.303,239.122,72.942,239.247,72.622z"/>
	<path fill="#E56326" d="M239.851,78.405c0.184-0.437,0.686-0.643,1.12-0.46c0.439,0.185,0.644,0.687,0.46,1.123
		c-0.184,0.438-0.685,0.643-1.122,0.459C239.872,79.345,239.667,78.843,239.851,78.405z"/>
	<path fill="#E56326" d="M237.962,74.519c0.299-0.711,1.116-1.045,1.826-0.749c0.711,0.298,1.045,1.115,0.748,1.829
		c-0.297,0.709-1.113,1.046-1.825,0.749C237.999,76.051,237.664,75.232,237.962,74.519z"/>
	<path fill="#E56326" d="M235.851,79.314c0.038-0.097,0.147-0.146,0.244-0.108c0.1,0.041,0.148,0.148,0.108,0.248
		c-0.038,0.099-0.148,0.146-0.247,0.107C235.858,79.524,235.811,79.414,235.851,79.314z"/>
	<path fill="#E56326" d="M243.013,79.234c0.038-0.096,0.147-0.146,0.246-0.105c0.099,0.04,0.147,0.147,0.106,0.247
		c-0.037,0.099-0.147,0.146-0.245,0.107C243.02,79.445,242.972,79.335,243.013,79.234z"/>
	<path fill="#E56326" d="M243.297,77.466c0.038-0.1,0.148-0.147,0.244-0.108c0.101,0.04,0.148,0.149,0.108,0.248
		c-0.039,0.1-0.149,0.146-0.247,0.107C243.305,77.675,243.258,77.562,243.297,77.466z"/>
	<path fill="#E56326" d="M242.821,78.456c0.038-0.1,0.148-0.146,0.245-0.108c0.101,0.038,0.147,0.15,0.108,0.247
		c-0.038,0.098-0.149,0.146-0.246,0.106C242.829,78.664,242.782,78.552,242.821,78.456z"/>
	<circle fill="#E56326" cx="235.059" cy="76.812" r="0.19"/>
	<path fill="#E56326" d="M240.283,76.624c0.038-0.1,0.149-0.146,0.246-0.108c0.099,0.038,0.147,0.149,0.108,0.248
		c-0.038,0.097-0.149,0.146-0.247,0.106C240.291,76.833,240.244,76.72,240.283,76.624z"/>
	<circle fill="#E56326" cx="245.673" cy="78.24" r="0.19"/>
	<path fill="#E56326" d="M237.967,78.864c0.038-0.098,0.149-0.147,0.245-0.106c0.1,0.039,0.147,0.147,0.108,0.247
		c-0.038,0.098-0.149,0.146-0.247,0.108C237.975,79.076,237.927,78.963,237.967,78.864z"/>
	<path fill="#E56326" d="M239.263,78.132c0.038-0.097,0.148-0.146,0.245-0.107c0.101,0.04,0.147,0.149,0.108,0.248
		c-0.038,0.1-0.149,0.146-0.246,0.108C239.271,78.341,239.224,78.23,239.263,78.132z"/>
	<path fill="#E56326" d="M237.273,78.456c0.038-0.1,0.149-0.146,0.245-0.108c0.1,0.038,0.147,0.15,0.108,0.247
		c-0.038,0.098-0.149,0.146-0.247,0.106C237.281,78.664,237.233,78.552,237.273,78.456z"/>
	<path fill="#E56326" d="M236.931,76.921c0.038-0.1,0.148-0.146,0.245-0.108c0.101,0.039,0.148,0.149,0.108,0.248
		c-0.038,0.099-0.149,0.146-0.246,0.108C236.938,77.131,236.891,77.018,236.931,76.921z"/>
	<path fill="#E56326" d="M240.352,77.419c0.054-0.137,0.208-0.206,0.344-0.151c0.141,0.055,0.208,0.21,0.153,0.349
		c-0.055,0.141-0.21,0.206-0.348,0.151C240.363,77.714,240.295,77.557,240.352,77.419z"/>
	<path fill="#E56326" d="M239.382,77.022c0.087-0.225,0.339-0.334,0.559-0.247c0.228,0.091,0.337,0.343,0.246,0.564
		c-0.087,0.225-0.338,0.334-0.562,0.245C239.4,77.5,239.291,77.247,239.382,77.022z"/>
	<path fill="#E56326" d="M238.492,78.86c0.099-0.255,0.384-0.38,0.633-0.278c0.257,0.1,0.381,0.385,0.278,0.638
		c-0.098,0.256-0.382,0.379-0.634,0.277C238.512,79.399,238.39,79.113,238.492,78.86z"/>
	<path fill="#E56326" d="M255.302,123.91c0.296-0.743,1.134-1.106,1.872-0.813c0.742,0.293,1.105,1.133,0.815,1.875
		c-0.292,0.742-1.132,1.104-1.875,0.812C255.374,125.49,255.011,124.65,255.302,123.91z"/>
	<path fill="#E56326" d="M259.859,124.941c0.254-0.639,0.976-0.953,1.61-0.703c0.64,0.256,0.954,0.979,0.702,1.613
		c-0.251,0.641-0.974,0.955-1.614,0.701C259.921,126.302,259.607,125.58,259.859,124.941z"/>
	<path fill="#E56326" d="M255.114,131.021c0.287-0.682,1.071-1.004,1.75-0.721c0.687,0.287,1.006,1.071,0.719,1.756
		c-0.285,0.68-1.068,1.004-1.751,0.717C255.149,132.488,254.828,131.705,255.114,131.021z"/>
	<path fill="#E56326" d="M257.474,127.568c0.372-0.94,1.437-1.406,2.379-1.035c0.943,0.373,1.405,1.441,1.034,2.381
		c-0.371,0.943-1.437,1.404-2.38,1.029C257.564,129.574,257.102,128.51,257.474,127.568z"/>
	<path fill="#E56326" d="M255.254,134.609c0.131-0.342,0.521-0.508,0.858-0.375c0.342,0.133,0.51,0.521,0.374,0.861
		c-0.134,0.342-0.521,0.508-0.859,0.373C255.286,135.334,255.119,134.951,255.254,134.609z"/>
	<path fill="#E56326" d="M255.233,136.67c0.134-0.349,0.528-0.517,0.873-0.382c0.348,0.14,0.519,0.529,0.381,0.878
		c-0.137,0.348-0.527,0.518-0.875,0.381C255.265,137.41,255.098,137.017,255.233,136.67z"/>
	<path fill="#E56326" d="M256.855,134.918c0.071-0.183,0.274-0.271,0.452-0.197c0.181,0.07,0.27,0.272,0.196,0.453
		c-0.069,0.18-0.272,0.268-0.453,0.194C256.871,135.301,256.785,135.095,256.855,134.918z"/>
	<circle fill="#E56326" cx="257.942" cy="132.024" r="0.253"/>
	<path fill="#E56326" d="M255.603,128.734c0.165-0.412,0.629-0.613,1.037-0.453c0.415,0.162,0.617,0.627,0.453,1.039
		c-0.162,0.412-0.627,0.615-1.039,0.453C255.644,129.611,255.443,129.146,255.603,128.734z"/>
	<path fill="#E56326" d="M257.278,130.103c0.07-0.176,0.27-0.266,0.445-0.195c0.179,0.068,0.267,0.271,0.196,0.447
		c-0.069,0.178-0.27,0.266-0.446,0.193C257.294,130.48,257.208,130.279,257.278,130.103z"/>
	<circle fill="#E56326" cx="259.814" cy="124.154" r="0.285"/>
	<circle fill="#E56326" cx="262.643" cy="124.154" r="0.285"/>
	<path fill="#E56326" d="M261.035,127.035c0.058-0.145,0.223-0.219,0.369-0.159c0.146,0.059,0.219,0.223,0.16,0.37
		c-0.057,0.146-0.224,0.218-0.369,0.16C261.048,127.349,260.977,127.183,261.035,127.035z"/>
	<path fill="#E56326" d="M257.328,125.957c0.058-0.145,0.223-0.217,0.37-0.159c0.147,0.057,0.219,0.223,0.16,0.371
		c-0.058,0.146-0.224,0.217-0.37,0.159C257.341,126.271,257.269,126.103,257.328,125.957z"/>
	<circle fill="#E56326" cx="255.429" cy="128.072" r="0.285"/>
	<circle fill="#E56326" cx="255.429" cy="129.972" r="0.285"/>
	<path fill="#E56326" d="M262.303,131.109c0.058-0.147,0.225-0.221,0.37-0.164c0.147,0.062,0.22,0.226,0.16,0.371
		c-0.057,0.146-0.223,0.219-0.37,0.16C262.316,131.42,262.246,131.256,262.303,131.109z"/>
	<path fill="#E56326" d="M255.26,133.41c0.084-0.209,0.322-0.315,0.534-0.229c0.213,0.084,0.316,0.322,0.231,0.535
		c-0.082,0.211-0.322,0.313-0.532,0.229C255.28,133.863,255.178,133.623,255.26,133.41z"/>
	<path fill="#E56326" d="M257.74,132.638c0.113-0.279,0.426-0.42,0.704-0.308c0.28,0.109,0.419,0.425,0.306,0.703
		c-0.109,0.281-0.425,0.418-0.703,0.306C257.766,133.232,257.633,132.916,257.74,132.638z"/>
	<path fill="#E56326" d="M255.338,135.799c0.051-0.136,0.204-0.201,0.339-0.148c0.136,0.053,0.204,0.207,0.148,0.342
		c-0.052,0.138-0.205,0.203-0.341,0.15C255.348,136.088,255.283,135.935,255.338,135.799z"/>
	<path fill="#E56326" d="M256.124,135.742c0.091-0.237,0.358-0.356,0.594-0.262c0.24,0.092,0.358,0.361,0.26,0.6
		c-0.093,0.236-0.359,0.354-0.598,0.261C256.144,136.248,256.028,135.978,256.124,135.742z"/>
	<path fill="#E56326" d="M255.262,137.871c0.068-0.176,0.269-0.262,0.444-0.192c0.179,0.069,0.267,0.27,0.196,0.444
		c-0.07,0.181-0.271,0.267-0.447,0.195C255.277,138.248,255.192,138.051,255.262,137.871z"/>
	<path fill="#E56326" d="M255.11,138.744c0.07-0.178,0.27-0.264,0.446-0.194c0.178,0.069,0.267,0.271,0.195,0.446
		c-0.069,0.181-0.27,0.267-0.448,0.193C255.126,139.123,255.04,138.922,255.11,138.744z"/>
	<path fill="#E56326" d="M255.531,126.656c0.189-0.479,0.736-0.719,1.215-0.53c0.482,0.194,0.722,0.737,0.527,1.223
		c-0.188,0.479-0.732,0.717-1.217,0.524C255.577,127.685,255.344,127.14,255.531,126.656z"/>
	<path fill="#E56326" d="M258.087,125.451c0.128-0.323,0.498-0.485,0.822-0.356c0.328,0.129,0.489,0.498,0.358,0.824
		c-0.128,0.325-0.495,0.485-0.823,0.356C258.119,126.146,257.96,125.779,258.087,125.451z"/>
	<path fill="#E56326" d="M257.002,121.308c0.127-0.326,0.498-0.486,0.822-0.359c0.327,0.131,0.489,0.498,0.356,0.824
		c-0.126,0.328-0.494,0.488-0.823,0.357C257.033,122.002,256.874,121.635,257.002,121.308z"/>
	<path fill="#E56326" d="M257.989,130.818c0.16-0.41,0.625-0.608,1.033-0.451c0.41,0.166,0.612,0.627,0.448,1.035
		c-0.161,0.41-0.623,0.611-1.033,0.449S257.829,131.228,257.989,130.818z"/>
	<path fill="#E56326" d="M256.271,133.416c0.169-0.437,0.666-0.65,1.099-0.48c0.435,0.174,0.652,0.668,0.477,1.104
		c-0.172,0.437-0.663,0.648-1.099,0.478C256.311,134.344,256.099,133.851,256.271,133.416z"/>
	<path fill="#E56326" d="M260.042,129.203c-0.141,0.277-0.482,0.388-0.757,0.248c-0.277-0.141-0.39-0.481-0.246-0.76
		c0.143-0.277,0.479-0.389,0.758-0.244C260.073,128.586,260.183,128.926,260.042,129.203z"/>
	<path fill="#E56326" d="M263.038,148.595c-0.141,0.276-0.482,0.389-0.756,0.246c-0.278-0.142-0.391-0.479-0.247-0.758
		c0.141-0.277,0.48-0.388,0.758-0.246C263.069,147.978,263.178,148.318,263.038,148.595z"/>
	<circle fill="#E56326" cx="257.057" cy="134.874" r="0.562"/>
	<path fill="#E56326" d="M252.105,150.689c-0.189,0.449-0.706,0.662-1.153,0.475c-0.451-0.188-0.663-0.704-0.475-1.155
		c0.188-0.449,0.704-0.66,1.154-0.474C252.082,149.722,252.293,150.24,252.105,150.689z"/>
	<circle fill="#E56326" cx="258.107" cy="131.86" r="0.304"/>
	<path fill="#E56326" d="M258.477,146.789c-0.062,0.158-0.239,0.234-0.394,0.175c-0.159-0.062-0.235-0.24-0.172-0.398
		c0.062-0.154,0.239-0.231,0.396-0.17C258.462,146.457,258.538,146.635,258.477,146.789z"/>
	<path fill="#E56326" d="M255.591,140.476c-0.039,0.098-0.149,0.146-0.246,0.107c-0.099-0.039-0.147-0.148-0.107-0.246
		c0.037-0.103,0.148-0.146,0.246-0.111C255.582,140.267,255.63,140.379,255.591,140.476z"/>
	<path fill="#E56326" d="M262.794,134.566c-0.006,0.105-0.096,0.187-0.199,0.178c-0.107-0.004-0.187-0.096-0.179-0.198
		c0.006-0.107,0.094-0.188,0.201-0.181C262.722,134.369,262.801,134.461,262.794,134.566z"/>
	<path fill="#E56326" d="M262.663,132.644c-0.007,0.115-0.105,0.203-0.217,0.195c-0.119-0.009-0.205-0.104-0.198-0.22
		c0.005-0.116,0.103-0.204,0.218-0.198C262.581,132.427,262.67,132.527,262.663,132.644z"/>
	<path fill="#E56326" d="M256.003,137.064c-0.062,0.156-0.239,0.234-0.395,0.172c-0.158-0.062-0.234-0.24-0.172-0.396
		c0.062-0.158,0.239-0.234,0.396-0.172C255.988,136.73,256.063,136.908,256.003,137.064z"/>
	<path fill="#E56326" d="M251.548,139.052c0.137-0.344,0.526-0.515,0.868-0.377c0.346,0.137,0.515,0.524,0.379,0.873
		c-0.137,0.342-0.526,0.512-0.871,0.373C251.583,139.787,251.414,139.398,251.548,139.052z"/>
	<path fill="#E56326" d="M255.697,144.17c0.102-0.261,0.393-0.386,0.65-0.283c0.258,0.1,0.384,0.393,0.281,0.649
		c-0.101,0.261-0.391,0.384-0.65,0.283C255.722,144.717,255.598,144.426,255.697,144.17z"/>
	<path fill="#E56326" d="M256.669,144.707c0.068-0.176,0.269-0.262,0.443-0.19c0.179,0.068,0.265,0.268,0.194,0.445
		c-0.069,0.176-0.268,0.264-0.446,0.192C256.686,145.084,256.6,144.885,256.669,144.707z"/>
	<path fill="#E56326" d="M256.137,143.324c0.068-0.176,0.268-0.262,0.443-0.19c0.178,0.067,0.265,0.268,0.194,0.446
		c-0.07,0.177-0.269,0.261-0.446,0.191C256.153,143.701,256.066,143.502,256.137,143.324z"/>
	<path fill="#E56326" d="M258.452,146.162c0.114-0.295,0.45-0.438,0.742-0.323c0.296,0.116,0.44,0.448,0.324,0.746
		c-0.116,0.295-0.452,0.44-0.746,0.321C258.479,146.791,258.336,146.459,258.452,146.162z"/>
	<path fill="#E56326" d="M259.813,141.551c0.101-0.254,0.385-0.379,0.638-0.277c0.256,0.1,0.38,0.385,0.278,0.641
		c-0.1,0.255-0.387,0.377-0.639,0.277C259.838,142.094,259.714,141.804,259.813,141.551z"/>
	<path fill="#E56326" d="M261.393,133.513c0.128-0.32,0.489-0.478,0.805-0.351c0.324,0.125,0.482,0.486,0.353,0.808
		c-0.126,0.32-0.488,0.477-0.808,0.35C261.423,134.197,261.268,133.834,261.393,133.513z"/>
	<path fill="#E56326" d="M260.655,136.476c0.096,0.043,0.138,0.156,0.094,0.25c-0.043,0.096-0.157,0.141-0.251,0.096
		c-0.098-0.043-0.14-0.156-0.096-0.252C260.444,136.474,260.557,136.433,260.655,136.476z"/>
	<path fill="#E56326" d="M260.961,141.25c0.038-0.097,0.149-0.144,0.245-0.105c0.101,0.037,0.147,0.148,0.108,0.248
		c-0.038,0.098-0.148,0.145-0.246,0.104C260.97,141.461,260.922,141.349,260.961,141.25z"/>
	<path fill="#E56326" d="M254.42,142.334c0.038-0.101,0.149-0.146,0.245-0.107c0.101,0.039,0.147,0.148,0.108,0.244
		c-0.038,0.1-0.149,0.147-0.246,0.108C254.429,142.543,254.381,142.431,254.42,142.334z"/>
	<path fill="#E56326" d="M257.505,144.455c0.038-0.096,0.148-0.145,0.246-0.106c0.099,0.039,0.146,0.147,0.107,0.246
		c-0.039,0.102-0.149,0.147-0.247,0.11C257.513,144.666,257.464,144.554,257.505,144.455z"/>
	<path fill="#E56326" d="M258.801,143.722c0.038-0.098,0.148-0.146,0.245-0.105c0.099,0.037,0.147,0.148,0.107,0.246
		c-0.037,0.101-0.147,0.146-0.246,0.107C258.809,143.931,258.761,143.822,258.801,143.722z"/>
	<circle fill="#E56326" cx="256.987" cy="144.116" r="0.19"/>
	<circle fill="#E56326" cx="256.645" cy="142.582" r="0.189"/>
	<path fill="#E56326" d="M258.029,144.451c0.1-0.256,0.384-0.381,0.632-0.278c0.257,0.1,0.382,0.385,0.279,0.639
		c-0.097,0.256-0.382,0.379-0.634,0.277C258.05,144.99,257.929,144.705,258.029,144.451z"/>
</g>
</svg>
