<?xml version="1.0" encoding="utf-8"?>
<!-- Generator: Adobe Illustrator 15.0.0, SVG Export Plug-In . SVG Version: 6.00 Build 0)  -->
<!DOCTYPE svg PUBLIC "-//W3C//DTD SVG 1.1//EN" "http://www.w3.org/Graphics/SVG/1.1/DTD/svg11.dtd">
<svg version="1.1" id="Layer_1" xmlns="http://www.w3.org/2000/svg" xmlns:xlink="http://www.w3.org/1999/xlink" x="0px" y="0px"
	 width="64.667px" height="97.333px" viewBox="9.875 0 64.667 97.333" enable-background="new 9.875 0 64.667 97.333"
	 xml:space="preserve">
<path fill="#222222" d="M13.096,88.143l-0.002-47.642c0-2.645,2.145-4.791,4.791-4.791h47.643c2.646,0,4.792,2.145,4.792,4.791
	v47.642c0,2.646-2.146,4.791-4.792,4.791H17.887C15.241,92.934,13.096,90.79,13.096,88.143L13.096,88.143z"/>
<g>
	<g>
		<polygon fill="#3ABEEE" points="48.359,66.545 38.551,66.545 38.551,46.795 		"/>
	</g>
	<g>
		<polygon fill="#3ABEEE" points="43.453,62.094 43.453,81.844 33.649,62.094 		"/>
	</g>
</g>
<g>
	<path fill="#222222" d="M54.792,48.633L54.791,20.99l0.01-0.28c0.004-0.055,0.291-5.458-3.038-8.995
		c-2.122-2.257-5.44-3.402-9.856-3.402c-12.541,0-13.281,10.574-13.303,12.678v14.757c0,0-0.519,3.46-4.156,3.46
		c-3.635,0-4.155-3.46-4.155-3.46V21c-0.001-0.368,0.052-9.086,6.174-15.221C30.291,1.944,35.486,0,41.906,0
		c6.849,0,12.23,2.054,15.99,6.104c5.379,5.792,5.271,13.626,5.209,14.998v27.531H54.792L54.792,48.633z"/>
</g>
</svg>
