<?xml version="1.0" encoding="utf-8"?>
<!-- Generator: Adobe Illustrator 15.0.0, SVG Export Plug-In . SVG Version: 6.00 Build 0)  -->
<!DOCTYPE svg PUBLIC "-//W3C//DTD SVG 1.1//EN" "http://www.w3.org/Graphics/SVG/1.1/DTD/svg11.dtd">
<svg version="1.1" id="Layer_1" xmlns="http://www.w3.org/2000/svg" xmlns:xlink="http://www.w3.org/1999/xlink" x="0px" y="0px"
	 width="85.416px" height="94.997px" viewBox="0 0 85.416 94.997" enable-background="new 0 0 85.416 94.997" xml:space="preserve">
<path fill="#222222" d="M57.224,90.206c0,2.646-2.146,4.791-4.791,4.791H4.792C2.145,94.997,0,92.852,0,90.206V42.563
	c0-2.646,2.145-4.791,4.792-4.791h47.643c2.646,0,4.791,2.146,4.791,4.791L57.224,90.206L57.224,90.206z"/>
<g>
	<g>
		<polygon fill="#3ABEEE" points="31.768,48.858 31.768,68.608 21.96,68.608 		"/>
	</g>
	<g>
		<polygon fill="#3ABEEE" points="36.67,64.157 26.866,83.907 26.866,64.157 		"/>
	</g>
</g>
<g>
	<path fill="#222222" d="M49.961,49.694h-8.313V22.163c-0.063-1.372-0.17-9.206,5.208-14.998c3.76-4.05,9.142-6.104,15.99-6.104
		c6.42,0,11.616,1.944,15.441,5.779c6.122,6.135,6.175,14.853,6.174,15.221v14.748c0,0-0.521,3.46-4.156,3.46
		c-3.637,0-4.156-3.46-4.156-3.46V22.052c-0.021-2.104-0.762-12.678-13.303-12.678c-4.416,0-7.734,1.145-9.856,3.402
		c-3.329,3.537-3.042,8.94-3.038,8.995l0.01,0.28L49.961,49.694L49.961,49.694z"/>
</g>
</svg>
