<?xml version="1.0" encoding="utf-8"?>
<!-- Generator: Adobe Illustrator 15.0.0, SVG Export Plug-In . SVG Version: 6.00 Build 0)  -->
<!DOCTYPE svg PUBLIC "-//W3C//DTD SVG 1.1//EN" "http://www.w3.org/Graphics/SVG/1.1/DTD/svg11.dtd">
<svg version="1.1" id="Layer_1" xmlns="http://www.w3.org/2000/svg" xmlns:xlink="http://www.w3.org/1999/xlink" x="0px" y="0px"
	 width="48.333px" height="102.481px" viewBox="0.875 18.666 48.333 102.481" enable-background="new 0.875 18.666 48.333 102.481"
	 xml:space="preserve">
<g>
	<g>
		<g id="XMLID_1_">
			<g>
				<polygon fill="#FFFFFF" points="49.578,113.838 49.578,120.689 0.508,120.689 0.508,114.208 0.948,114.208 2.068,115.869 
					2.508,115.569 2.508,118.689 47.578,118.689 47.578,115.199 48.018,115.499 49.138,113.838 				"/>
				<polygon fill="#FFFFFF" points="49.578,86.659 49.578,113.838 49.138,113.838 47.578,112.779 47.578,89.808 49.218,88.418 
					47.928,86.899 47.928,86.659 				"/>
				<polygon fill="#FFFFFF" points="47.928,86.899 49.218,88.418 47.578,89.808 47.578,88.659 45.848,88.659 				"/>
				<polygon fill="#FFFFFF" points="49.138,113.838 48.018,115.499 47.578,115.199 47.578,112.779 				"/>
				<polygon fill="#FFFFFF" points="47.928,86.659 47.928,86.899 45.848,88.659 4.868,88.659 2.328,86.659 				"/>
				<polygon fill="#E56326" points="47.578,115.199 47.578,118.689 2.508,118.689 2.508,115.569 20.378,103.409 26.158,107.958 
					30.958,103.888 				"/>
				<polygon fill="#FFFFFF" points="47.578,112.779 47.578,115.199 30.958,103.888 32.538,102.548 				"/>
				<polygon fill="#E56326" points="47.578,89.808 47.578,112.779 32.538,102.548 				"/>
				<polygon fill="#FFFFFF" points="47.578,88.659 47.578,89.808 32.538,102.548 31.718,101.989 30.588,103.638 30.958,103.888 
					26.158,107.958 20.378,103.409 21.188,102.859 20.068,101.199 20.348,100.838 26.108,105.369 45.848,88.659 				"/>
				<polygon fill="#E56326" points="45.848,88.659 26.108,105.369 20.348,100.838 4.868,88.659 				"/>
				<polygon fill="#FFFFFF" points="31.718,101.989 32.538,102.548 30.958,103.888 30.588,103.638 				"/>
				<polygon fill="#FFFFFF" points="20.068,101.199 21.188,102.859 20.378,103.409 18.728,102.109 				"/>
				<polygon fill="#FFFFFF" points="20.378,103.409 2.508,115.569 2.508,113.149 18.728,102.109 				"/>
				<polygon fill="#FFFFFF" points="4.868,88.659 20.348,100.838 20.068,101.199 18.728,102.109 2.508,89.348 2.508,88.659 				"/>
				<polygon fill="#E56326" points="18.728,102.109 2.508,113.149 2.508,89.348 				"/>
				<polygon fill="#FFFFFF" points="2.328,86.659 4.868,88.659 2.508,88.659 2.508,89.348 0.888,88.079 1.998,86.659 				"/>
				<polygon fill="#FFFFFF" points="2.508,113.149 2.508,115.569 2.068,115.869 0.948,114.208 				"/>
				<polygon fill="#FFFFFF" points="2.508,89.348 2.508,113.149 0.948,114.208 0.508,114.208 0.508,86.659 1.998,86.659 
					0.888,88.079 				"/>
				<polygon fill="#E56326" points="2.128,86.499 2.328,86.659 1.998,86.659 				"/>
			</g>
			<g>
			</g>
		</g>
	</g>
</g>
</svg>
