<?xml version="1.0" encoding="utf-8"?>
<!-- Generator: Adobe Illustrator 15.0.0, SVG Export Plug-In . SVG Version: 6.00 Build 0)  -->
<!DOCTYPE svg PUBLIC "-//W3C//DTD SVG 1.1//EN" "http://www.w3.org/Graphics/SVG/1.1/DTD/svg11.dtd">
<svg version="1.1" id="Layer_1" xmlns="http://www.w3.org/2000/svg" xmlns:xlink="http://www.w3.org/1999/xlink" x="0px" y="0px"
	 width="165.59px" height="165.59px" viewBox="0 0 165.59 165.59" enable-background="new 0 0 165.59 165.59" xml:space="preserve">
<g>
	<g>
		<polygon fill="#FFFFFF" stroke="#FFFFFF" stroke-width="2" stroke-miterlimit="10" points="85.662,51.83 85.662,78.509 
			74.188,78.509 		"/>
		<polygon fill="#FFFFFF" stroke="#FFFFFF" stroke-width="2" stroke-miterlimit="10" points="91.402,72.492 79.92,99.165 
			79.92,72.492 		"/>
	</g>
</g>
<path fill="#FFFFFF" d="M96.488,25.754H67.859c-15.813,0-28.627,12.819-28.627,28.624v57.259c0,15.807,12.814,28.627,28.627,28.627
	h28.629c15.805,0,28.627-12.82,28.627-28.627V54.378C125.115,38.573,112.293,25.754,96.488,25.754z M82.179,133.327
	c-4.082,0-7.389-3.302-7.389-7.379c0-4.082,3.307-7.37,7.389-7.37c4.073,0,7.377,3.288,7.377,7.37
	C89.557,130.025,86.252,133.327,82.179,133.327z M110.805,111.637H53.547V54.378c0-7.878,6.422-14.315,14.312-14.315h28.629
	c7.883,0,14.316,6.438,14.316,14.315V111.637L110.805,111.637z"/>
<path fill="none" d="M85.463,51.83v26.679H73.989L85.463,51.83z M79.721,72.492v26.673l11.48-26.673H79.721z"/>
</svg>
