<?xml version="1.0" encoding="utf-8"?>
<!-- Generator: Adobe Illustrator 15.0.0, SVG Export Plug-In . SVG Version: 6.00 Build 0)  -->
<!DOCTYPE svg PUBLIC "-//W3C//DTD SVG 1.1//EN" "http://www.w3.org/Graphics/SVG/1.1/DTD/svg11.dtd">
<svg version="1.1" id="Layer_1" xmlns="http://www.w3.org/2000/svg" xmlns:xlink="http://www.w3.org/1999/xlink" x="0px" y="0px"
	 width="220.507px" height="165.59px" viewBox="0 0 220.507 165.59" enable-background="new 0 0 220.507 165.59"
	 xml:space="preserve">
<path fill="none" d="M151.509,90.048c0.053-0.097,0.104-0.192,0.158-0.289c-0.179,0.007-0.357,0.003-0.535,0.007
	c-0.002,0.014-0.006,0.024-0.008,0.037C151.253,89.883,151.382,89.966,151.509,90.048z"/>
<path fill="#3ABEEE" d="M197.817,44.585c-4.58-0.529-9.015,0.186-12.976,1.867c-3.256-14.217-15.147-25.51-30.469-27.279
	c-7.024-0.811-13.804,0.502-19.707,3.417c-6.684-6.424-15.442-10.796-25.364-11.941C96.324,9.15,84.022,13.478,74.993,21.55
	c-4.322-2.964-9.405-4.952-14.974-5.596c-18.252-2.11-34.757,10.98-36.864,29.23c-0.761,6.596,0.47,12.96,3.204,18.502
	C13.158,63.305,1.631,73.081,0.087,86.447c-1.63,14.113,8.49,26.879,22.605,28.51c3.051,0.352,6.038,0.152,8.863-0.516
	c1.451,20.672,17.429,38.039,38.764,40.502c14.984,1.727,29.072-4.305,38.254-14.905c5.247,5.952,12.625,10.062,21.129,11.041
	c16.672,1.925,31.885-8.834,35.996-24.622c0.936,0.327,1.898,0.609,2.891,0.831c13.865,3.096,27.617-5.634,30.716-19.5
	c0.938-4.196,0.784-8.38-0.259-12.265c11.053-1.814,20.027-10.754,21.375-22.435C222.052,58.978,211.931,46.216,197.817,44.585z
	 M108.894,125.535c-7.906,0-15.312-2.161-21.677-5.912l-21.457,6.104l12.123-13.522c-7.319-7.688-11.827-18.078-11.827-29.507
	c0-23.615,19.217-42.833,42.838-42.833c23.618,0,42.831,19.218,42.831,42.833c0,2.408-0.209,4.768-0.593,7.07
	c0.178-0.004,0.356,0,0.535-0.008c-0.053,0.098-0.105,0.192-0.158,0.289c-0.127-0.082-0.256-0.165-0.385-0.244
	C147.731,110.053,130.093,125.535,108.894,125.535z"/>
<path fill="#3ABEEE" d="M142.748,82.698c-0.002-18.666-15.187-33.854-33.854-33.854c-18.668,0-33.856,15.188-33.856,33.854
	c0,18.669,15.188,33.854,33.856,33.854C127.561,116.553,142.748,101.365,142.748,82.698z M105.117,109.701V86.125H97.56
	l15.113-30.43V79.27h7.552L105.117,109.701z"/>
</svg>
