<?xml version="1.0" encoding="utf-8"?>
<!-- Generator: Adobe Illustrator 15.0.0, SVG Export Plug-In . SVG Version: 6.00 Build 0)  -->
<!DOCTYPE svg PUBLIC "-//W3C//DTD SVG 1.1//EN" "http://www.w3.org/Graphics/SVG/1.1/DTD/svg11.dtd">
<svg version="1.1" id="Layer_1" xmlns="http://www.w3.org/2000/svg" xmlns:xlink="http://www.w3.org/1999/xlink" x="0px" y="0px"
	 width="552.535px" height="125.248px" viewBox="0 0 552.535 125.248" enable-background="new 0 0 552.535 125.248"
	 xml:space="preserve">
<g>
	<path fill="#FFFFFF" d="M1.001,111.89V64.856h3.137l20.382,23.203l20.412-23.203h3.136v47.034H38.66l-0.032-27.28l-14.108,15.678
		L10.408,84.61v27.279L1.001,111.89L1.001,111.89z"/>
	<path fill="#FFFFFF" d="M55.059,96.212c0-4.599,1.463-8.36,4.39-11.288c2.927-2.926,6.689-4.39,11.288-4.39
		s8.257,1.464,10.975,4.39c2.719,2.928,4.076,6.689,4.076,11.288v3.137H64.151c0.209,1.673,0.94,2.979,2.195,3.919
		c1.254,0.94,2.717,1.411,4.39,1.411c2.927,0,5.539-0.837,7.839-2.509l5.018,5.018c-2.3,3.136-6.585,4.703-12.855,4.703
		c-4.599,0-8.361-1.464-11.288-4.391S55.059,100.811,55.059,96.212z M75.126,89.157c-1.254-0.941-2.717-1.411-4.39-1.411
		s-3.136,0.47-4.39,1.411c-1.255,0.94-1.882,2.247-1.882,3.919h12.542C77.008,91.404,76.381,90.097,75.126,89.157z"/>
	<path fill="#FFFFFF" d="M110.401,81.412c1.631,0.711,3.156,1.768,4.578,3.167l-4.893,5.52c-1.422-1.693-3.197-2.54-5.33-2.54
		c-2.111,0-3.522,0.392-4.232,1.176c-0.711,0.784-0.711,1.495,0,2.132c0.71,0.638,2.121,1.166,4.232,1.583
		c3.114,0.293,5.664,1.182,7.65,2.665c1.985,1.484,2.979,4.066,2.979,7.745c0,2.969-1.171,5.268-3.512,6.897
		c-2.341,1.631-5.068,2.445-8.184,2.445c-2.969,0-5.44-0.423-7.416-1.27c-1.977-0.848-3.674-1.98-5.095-3.402l4.858-5.487
		c1.422,1.693,3.627,2.676,6.616,2.947c2.404,0,3.956-0.392,4.656-1.176c0.699-0.783,0.805-1.567,0.312-2.353
		c-0.491-0.782-2.146-1.312-4.97-1.583c-2.551-0.293-4.887-1.076-7.008-2.352c-2.122-1.275-3.184-3.68-3.184-7.212
		c0-3.24,1.207-5.711,3.622-7.416c2.414-1.704,4.896-2.557,7.446-2.557C106.481,80.346,108.771,80.702,110.401,81.412z"/>
	<path fill="#FFFFFF" d="M139.5,81.412c1.631,0.711,3.156,1.768,4.578,3.167l-4.892,5.52c-1.422-1.693-3.198-2.54-5.33-2.54
		c-2.112,0-3.523,0.392-4.233,1.176c-0.711,0.784-0.711,1.495,0,2.132c0.71,0.638,2.121,1.166,4.233,1.583
		c3.113,0.293,5.664,1.182,7.649,2.665c1.985,1.484,2.979,4.066,2.979,7.745c0,2.969-1.171,5.268-3.512,6.897
		c-2.342,1.631-5.069,2.445-8.185,2.445c-2.969,0-5.439-0.423-7.416-1.27c-1.976-0.848-3.674-1.98-5.095-3.402l4.859-5.487
		c1.422,1.693,3.627,2.676,6.615,2.947c2.404,0,3.956-0.392,4.656-1.176c0.7-0.783,0.805-1.567,0.313-2.353
		c-0.491-0.782-2.147-1.312-4.971-1.583c-2.551-0.293-4.887-1.076-7.008-2.352c-2.122-1.275-3.183-3.68-3.183-7.212
		c0-3.24,1.207-5.711,3.622-7.416c2.414-1.704,4.896-2.557,7.445-2.557C135.58,80.346,137.869,80.702,139.5,81.412z"/>
	<path fill="#FFFFFF" d="M151.478,84.296c3.972-2.508,8.569-3.763,13.797-3.763c3.763,0,6.741,1.046,8.936,3.136
		c2.195,2.09,3.293,5.227,3.293,9.407v18.813h-8.779v-2.509c-2.551,1.672-4.851,2.509-6.897,2.509c-4.182,0-7.317-0.889-9.407-2.665
		c-2.091-1.776-3.136-4.233-3.136-7.368c0-2.928,0.988-5.54,2.964-7.839c1.976-2.301,5.168-3.45,9.579-3.45
		c2.027,0,4.327,0.627,6.897,1.881v-0.941c-0.042-2.299-1.715-3.553-5.018-3.763c-3.763,0-6.688,0.627-8.779,1.881L151.478,84.296z
		 M168.723,102.483V98.94c-0.836-1.61-2.821-2.415-5.957-2.415c-3.764,0.419-5.749,1.882-5.958,4.39
		c0.209,2.488,2.194,3.837,5.958,4.045C165.901,104.96,167.887,104.135,168.723,102.483z"/>
	<path fill="#FFFFFF" d="M214.941,81.475v27.906c0,4.391-1.308,8.059-3.919,11.007c-2.613,2.946-5.906,4.504-9.878,4.672
		l-1.881,0.188c-6.062-0.125-10.767-1.859-14.11-5.205l4.076-4.703c2.3,1.673,5.09,2.613,8.372,2.822
		c3.345,0,5.606-0.784,6.789-2.352c1.181-1.568,1.771-3.293,1.771-5.175v-1.566c-2.342,1.881-5.06,2.821-8.152,2.821
		c-4.809,0-8.414-1.411-10.817-4.232c-2.404-2.822-3.605-6.637-3.605-11.445c0-4.599,1.307-8.36,3.919-11.288
		c2.613-2.926,6.323-4.39,11.133-4.39c3.554,0.209,6.062,1.16,7.524,2.854v-2.854L214.941,81.475z M206.162,99.034v-5.08
		c-0.419-3.512-2.613-5.57-6.585-6.177c-5.227,0.188-8.048,2.791-8.466,7.808c0.208,5.854,3.03,8.886,8.466,9.093
		C203.549,104.051,205.743,102.17,206.162,99.034z"/>
	<path fill="#FFFFFF" d="M219.551,96.212c0-4.599,1.464-8.36,4.391-11.288c2.927-2.926,6.688-4.39,11.288-4.39
		c4.599,0,8.257,1.464,10.975,4.39c2.718,2.928,4.076,6.689,4.076,11.288v3.137h-21.636c0.209,1.673,0.94,2.979,2.194,3.919
		s2.718,1.411,4.391,1.411c2.927,0,5.539-0.837,7.839-2.509l5.018,5.018c-2.3,3.136-6.585,4.703-12.855,4.703
		c-4.6,0-8.361-1.464-11.288-4.391S219.551,100.811,219.551,96.212z M239.618,89.157c-1.254-0.941-2.717-1.411-4.39-1.411
		s-3.137,0.47-4.391,1.411c-1.254,0.94-1.881,2.247-1.881,3.919h12.542C241.5,91.404,240.873,90.097,239.618,89.157z"/>
	<path fill="#FFFFFF" d="M294.55,91.226l11.728,20.507H295.49l-11.257-19.439h-8.591v19.439h-9.407V64.701h20.507
		c10.976,0,16.463,4.515,16.463,13.546C303.205,85.041,300.319,89.367,294.55,91.226z M275.642,83.513h13.169
		c3.783-0.062,5.729-1.787,5.832-5.174c-0.104-3.094-2.018-4.703-5.737-4.829h-13.264V83.513z"/>
	<path fill="#FFFFFF" d="M311.044,84.14c3.972-2.509,8.569-3.763,13.797-3.763c3.763,0,6.741,1.046,8.936,3.136
		c2.195,2.09,3.293,5.226,3.293,9.406v18.812h-8.779v-2.508c-2.551,1.672-4.851,2.508-6.897,2.508c-4.182,0-7.317-0.888-9.407-2.665
		c-2.091-1.775-3.136-4.232-3.136-7.367c0-2.928,0.988-5.54,2.964-7.84s5.168-3.448,9.579-3.448c2.027,0,4.327,0.627,6.897,1.881
		v-0.94c-0.042-2.3-1.715-3.554-5.018-3.763c-3.763,0-6.688,0.627-8.779,1.881L311.044,84.14z M328.289,102.328v-3.543
		c-0.837-1.61-2.821-2.415-5.957-2.415c-3.764,0.419-5.749,1.882-5.958,4.39c0.209,2.488,2.194,3.837,5.958,4.045
		C325.467,104.803,327.452,103.978,328.289,102.328z"/>
	<path fill="#FFFFFF" d="M374.665,64.731v47.002h-8.78v-2.508c-2.341,1.672-4.642,2.508-6.898,2.508
		c-4.808,0-8.622-1.566-11.443-4.703c-2.822-3.136-4.233-6.793-4.233-10.975c0-4.181,1.411-7.839,4.233-10.975
		c2.821-3.137,6.637-4.703,11.443-4.703c3.137,0.209,5.437,1.056,6.898,2.54V64.699L374.665,64.731z M365.884,98.878v-5.08
		c-0.418-3.512-2.613-5.57-6.584-6.177c-5.019,0.396-7.84,3-8.467,7.808c0.209,5.854,3.03,8.885,8.467,9.093
		C363.27,103.894,365.466,102.013,365.884,98.878z"/>
	<path fill="#FFFFFF" d="M383.318,69.702c0.836-0.848,1.965-1.271,3.388-1.271c1.505,0,2.676,0.423,3.512,1.271
		c0.836,0.847,1.254,1.896,1.254,3.15s-0.418,2.3-1.254,3.136s-1.986,1.255-3.449,1.255c-1.464,0-2.613-0.419-3.449-1.255
		s-1.254-1.882-1.254-3.136S382.482,70.548,383.318,69.702z M391.157,111.733V80.346h-8.778v31.387H391.157L391.157,111.733z"/>
	<path fill="#FFFFFF" d="M417.715,100.602V80.346h8.778v31.387h-8.778v-2.854c-2.111,1.882-4.62,2.822-7.525,2.822
		c-3.972,0-7.003-1.202-9.093-3.605c-2.091-2.404-3.136-5.174-3.136-8.31v-19.44h8.778v17.245c0,2.091,0.522,3.711,1.568,4.86
		c1.045,1.149,2.623,1.756,4.734,1.817C414.861,104.145,416.42,102.923,417.715,100.602z"/>
	<path fill="#FFFFFF" d="M451.799,81.256c1.631,0.711,3.156,1.767,4.578,3.167l-4.893,5.519c-1.422-1.692-3.198-2.54-5.33-2.54
		c-2.111,0-3.522,0.394-4.232,1.177c-0.711,0.783-0.711,1.494,0,2.133c0.71,0.638,2.121,1.165,4.232,1.583
		c3.114,0.293,5.664,1.182,7.65,2.665c1.985,1.483,2.979,4.065,2.979,7.745c0,2.969-1.171,5.268-3.512,6.897
		s-5.069,2.445-8.184,2.445c-2.97,0-5.44-0.423-7.416-1.271c-1.977-0.847-3.674-1.979-5.096-3.401l4.859-5.487
		c1.422,1.693,3.627,2.676,6.616,2.947c2.404,0,3.956-0.393,4.656-1.176c0.699-0.783,0.805-1.567,0.312-2.353
		c-0.491-0.783-2.146-1.312-4.97-1.583c-2.551-0.293-4.887-1.076-7.008-2.352c-2.122-1.275-3.184-3.681-3.184-7.212
		c0-3.24,1.207-5.713,3.622-7.416c2.414-1.703,4.896-2.557,7.446-2.557C447.88,80.189,450.169,80.546,451.799,81.256z"/>
</g>
<path fill="none" stroke="#3497D3" stroke-width="9" stroke-miterlimit="10" d="M547.562,43.341c0,21.22-17.201,38.42-38.417,38.42
	c-21.221,0-38.42-17.2-38.42-38.42c0-21.215,17.199-38.417,38.42-38.417C530.36,4.924,547.562,22.126,547.562,43.341z"/>
<polyline fill="#3497D3" points="484.142,76.962 470.725,91.939 500.195,83.552 "/>
<g>
	<polygon fill="#3497D3" points="512.927,16.289 512.927,46.775 497.789,46.775 	"/>
	<polygon fill="#3497D3" points="520.497,39.907 505.36,70.395 505.36,39.907 	"/>
</g>
</svg>
