<?xml version="1.0" encoding="utf-8"?>
<!-- Generator: Adobe Illustrator 15.0.0, SVG Export Plug-In . SVG Version: 6.00 Build 0)  -->
<!DOCTYPE svg PUBLIC "-//W3C//DTD SVG 1.1//EN" "http://www.w3.org/Graphics/SVG/1.1/DTD/svg11.dtd">
<svg version="1.1" id="Layer_1" xmlns="http://www.w3.org/2000/svg" xmlns:xlink="http://www.w3.org/1999/xlink" x="0px" y="0px"
	 width="222.102px" height="60.125px" viewBox="0 0 222.102 60.125" enable-background="new 0 0 222.102 60.125"
	 xml:space="preserve">
<g>
	<g>
		<path fill="#FFFFFF" d="M36.236,27.518V13.307h0.948l6.158,7.011l6.168-7.011h0.947v14.208h-2.843l-0.009-8.242l-4.262,4.737
			l-4.264-4.737v8.242h-2.843V27.518z"/>
	</g>
	<g>
		<path fill="#FFFFFF" d="M52.569,22.78c0-1.39,0.442-2.525,1.326-3.411c0.884-0.884,2.02-1.326,3.41-1.326
			c1.39,0,2.495,0.442,3.316,1.326c0.823,0.884,1.231,2.021,1.231,3.411v0.947h-6.537c0.063,0.506,0.285,0.9,0.664,1.185
			c0.378,0.284,0.821,0.427,1.325,0.427c0.885,0,1.672-0.253,2.369-0.758l1.515,1.516c-0.694,0.945-1.99,1.418-3.884,1.418
			c-1.39,0-2.525-0.442-3.411-1.326C53.011,25.306,52.569,24.17,52.569,22.78z M58.632,20.649c-0.378-0.284-0.821-0.426-1.326-0.426
			s-0.946,0.142-1.325,0.426c-0.379,0.284-0.569,0.679-0.569,1.185H59.2C59.201,21.328,59.01,20.934,58.632,20.649z"/>
	</g>
	<g>
		<path fill="#FFFFFF" d="M69.29,18.31c0.494,0.214,0.955,0.535,1.384,0.956l-1.479,1.667c-0.43-0.512-0.965-0.768-1.61-0.768
			c-0.638,0-1.064,0.119-1.278,0.355c-0.215,0.237-0.215,0.452,0,0.645c0.213,0.192,0.64,0.354,1.278,0.478
			c0.941,0.089,1.711,0.357,2.311,0.805c0.601,0.448,0.9,1.229,0.9,2.341c0,0.896-0.352,1.591-1.06,2.082
			c-0.708,0.494-1.533,0.739-2.474,0.739c-0.897,0-1.644-0.128-2.24-0.383c-0.598-0.258-1.11-0.6-1.539-1.028l1.467-1.658
			c0.429,0.511,1.095,0.809,1.999,0.89c0.727,0,1.197-0.118,1.407-0.355c0.212-0.236,0.245-0.474,0.095-0.71
			c-0.15-0.237-0.648-0.396-1.503-0.479c-0.771-0.088-1.476-0.326-2.117-0.71c-0.64-0.385-0.962-1.112-0.962-2.179
			c0-0.979,0.365-1.725,1.094-2.241c0.73-0.515,1.48-0.772,2.25-0.772C68.106,17.988,68.798,18.094,69.29,18.31z"/>
	</g>
	<g>
		<path fill="#FFFFFF" d="M78.081,18.31c0.493,0.214,0.955,0.535,1.384,0.956l-1.478,1.667c-0.429-0.512-0.967-0.768-1.61-0.768
			c-0.638,0-1.065,0.119-1.281,0.355c-0.214,0.237-0.214,0.452,0,0.645c0.215,0.192,0.643,0.354,1.281,0.478
			c0.939,0.089,1.711,0.357,2.311,0.805s0.9,1.229,0.9,2.341c0,0.896-0.354,1.591-1.062,2.082c-0.708,0.494-1.53,0.739-2.472,0.739
			c-0.896,0-1.644-0.128-2.242-0.383c-0.597-0.258-1.109-0.6-1.54-1.028l1.468-1.658c0.43,0.511,1.096,0.809,1.999,0.89
			c0.727,0,1.196-0.118,1.408-0.355c0.21-0.236,0.242-0.474,0.093-0.71c-0.148-0.237-0.648-0.396-1.501-0.479
			c-0.772-0.088-1.478-0.326-2.118-0.71c-0.641-0.385-0.961-1.112-0.961-2.179c0-0.979,0.364-1.725,1.094-2.241
			c0.729-0.515,1.479-0.772,2.25-0.772C76.898,17.988,77.588,18.094,78.081,18.31z"/>
	</g>
	<g>
		<path fill="#FFFFFF" d="M81.7,19.181c1.202-0.757,2.589-1.137,4.169-1.137c1.137,0,2.036,0.316,2.7,0.947
			c0.662,0.632,0.994,1.579,0.994,2.843v5.684h-2.651v-0.76c-0.772,0.506-1.466,0.76-2.084,0.76c-1.264,0-2.211-0.271-2.842-0.806
			c-0.633-0.536-0.948-1.278-0.948-2.225c0-0.885,0.299-1.674,0.896-2.369c0.597-0.696,1.562-1.041,2.895-1.041
			c0.613,0,1.308,0.188,2.083,0.567v-0.285c-0.012-0.694-0.518-1.074-1.515-1.136c-1.137,0-2.021,0.19-2.653,0.568L81.7,19.181z
			 M86.912,24.676v-1.071c-0.252-0.486-0.853-0.73-1.8-0.73c-1.138,0.126-1.737,0.568-1.801,1.327
			c0.064,0.751,0.663,1.158,1.801,1.221C86.059,25.423,86.66,25.175,86.912,24.676z"/>
	</g>
	<g>
		<path fill="#FFFFFF" d="M100.875,18.329v8.429c0,1.328-0.395,2.436-1.184,3.326c-0.789,0.89-1.785,1.358-2.984,1.411l-0.566,0.059
			c-1.832-0.039-3.254-0.562-4.264-1.575l1.232-1.421c0.694,0.505,1.537,0.788,2.528,0.854c1.012,0,1.695-0.237,2.052-0.711
			s0.535-0.995,0.535-1.563v-0.473c-0.708,0.567-1.529,0.851-2.462,0.851c-1.455,0-2.544-0.425-3.27-1.277
			c-0.726-0.853-1.089-2.005-1.089-3.458c0-1.389,0.396-2.525,1.184-3.41c0.79-0.883,1.911-1.327,3.364-1.327
			c1.074,0.064,1.831,0.352,2.274,0.863v-0.863L100.875,18.329z M98.222,23.634v-1.535c-0.126-1.061-0.79-1.682-1.989-1.866
			c-1.58,0.057-2.432,0.844-2.557,2.357c0.062,1.77,0.914,2.687,2.557,2.749C97.432,25.15,98.095,24.582,98.222,23.634z"/>
	</g>
	<g>
		<path fill="#FFFFFF" d="M102.268,22.78c0-1.39,0.442-2.525,1.326-3.411c0.885-0.884,2.02-1.326,3.409-1.326
			c1.391,0,2.496,0.442,3.317,1.326c0.821,0.884,1.231,2.021,1.231,3.411v0.947h-6.538c0.065,0.506,0.284,0.9,0.663,1.185
			c0.378,0.284,0.822,0.427,1.326,0.427c0.886,0,1.674-0.253,2.37-0.758l1.517,1.516c-0.695,0.945-1.989,1.418-3.885,1.418
			c-1.39,0-2.525-0.442-3.41-1.326S102.268,24.17,102.268,22.78z M108.332,20.649c-0.38-0.284-0.823-0.426-1.329-0.426
			c-0.504,0-0.948,0.142-1.326,0.426c-0.379,0.284-0.568,0.679-0.568,1.185h3.79C108.899,21.328,108.711,20.934,108.332,20.649z"/>
	</g>
	<g>
		<path fill="#FFFFFF" d="M124.928,21.274l3.543,6.195h-3.259l-3.4-5.872h-2.598v5.872h-2.842V13.26h6.198
			c3.315,0,4.972,1.363,4.972,4.092C127.543,19.407,126.673,20.713,124.928,21.274z M119.214,18.944h3.981
			c1.14-0.019,1.729-0.541,1.76-1.563c-0.03-0.936-0.61-1.42-1.732-1.459h-4.008L119.214,18.944L119.214,18.944z"/>
	</g>
	<g>
		<path fill="#FFFFFF" d="M129.912,19.133c1.2-0.757,2.589-1.136,4.167-1.136c1.138,0,2.037,0.317,2.701,0.948
			c0.662,0.631,0.994,1.579,0.994,2.841v5.683h-2.653v-0.757c-0.768,0.506-1.464,0.757-2.083,0.757
			c-1.262,0-2.209-0.269-2.843-0.805c-0.63-0.536-0.945-1.278-0.945-2.225c0-0.885,0.299-1.673,0.894-2.369
			c0.599-0.695,1.562-1.043,2.897-1.043c0.612,0,1.306,0.191,2.083,0.569v-0.284c-0.013-0.695-0.519-1.074-1.517-1.136
			c-1.135,0-2.021,0.188-2.653,0.567L129.912,19.133z M135.121,24.629V23.56c-0.253-0.487-0.852-0.73-1.801-0.73
			c-1.137,0.126-1.736,0.567-1.799,1.326c0.062,0.751,0.662,1.159,1.799,1.223C134.267,25.376,134.868,25.128,135.121,24.629z"/>
	</g>
	<g>
		<path fill="#FFFFFF" d="M149.132,13.27v14.199h-2.649v-0.757c-0.71,0.506-1.403,0.757-2.085,0.757
			c-1.452,0-2.608-0.473-3.458-1.419c-0.852-0.947-1.279-2.052-1.279-3.316c0-1.263,0.428-2.369,1.279-3.316
			c0.85-0.948,2.006-1.421,3.458-1.421c0.948,0.063,1.645,0.319,2.085,0.769V13.26L149.132,13.27z M146.482,23.586V22.05
			c-0.127-1.061-0.791-1.683-1.989-1.865c-1.517,0.12-2.369,0.907-2.561,2.36c0.062,1.769,0.915,2.685,2.561,2.747
			C145.691,25.102,146.352,24.533,146.482,23.586z"/>
	</g>
	<g>
		<path fill="#FFFFFF" d="M151.75,14.77c0.253-0.256,0.587-0.383,1.02-0.383c0.457,0,0.811,0.128,1.063,0.383
			c0.25,0.257,0.379,0.575,0.379,0.954c0,0.378-0.129,0.694-0.379,0.946c-0.253,0.252-0.599,0.379-1.041,0.379
			c-0.444,0-0.789-0.127-1.042-0.379c-0.253-0.253-0.38-0.568-0.38-0.946C151.37,15.345,151.493,15.026,151.75,14.77z
			 M154.116,27.469v-9.481h-2.653v9.481H154.116L154.116,27.469z"/>
	</g>
	<g>
		<path fill="#FFFFFF" d="M162.139,24.108v-6.12h2.654v9.481h-2.654v-0.863c-0.639,0.569-1.396,0.854-2.271,0.854
			c-1.202,0-2.119-0.364-2.749-1.088c-0.634-0.728-0.946-1.563-0.946-2.511v-5.873h2.65v5.21c0,0.632,0.157,1.122,0.475,1.468
			c0.315,0.348,0.793,0.531,1.432,0.549C161.276,25.177,161.748,24.809,162.139,24.108z"/>
	</g>
	<g>
		<path fill="#FFFFFF" d="M172.44,18.261c0.492,0.215,0.951,0.534,1.382,0.958l-1.479,1.667c-0.429-0.511-0.965-0.769-1.611-0.769
			c-0.637,0-1.062,0.119-1.277,0.355c-0.214,0.236-0.214,0.452,0,0.646c0.215,0.193,0.641,0.352,1.277,0.478
			c0.94,0.088,1.712,0.357,2.312,0.805c0.599,0.447,0.9,1.228,0.9,2.34c0,0.897-0.355,1.591-1.062,2.083
			c-0.705,0.493-1.529,0.738-2.473,0.738c-0.896,0-1.644-0.128-2.241-0.384c-0.596-0.256-1.106-0.598-1.538-1.028l1.471-1.657
			c0.428,0.512,1.093,0.808,1.996,0.89c0.727,0,1.194-0.117,1.409-0.355c0.209-0.236,0.242-0.474,0.092-0.71
			c-0.145-0.237-0.646-0.397-1.501-0.477c-0.771-0.089-1.475-0.327-2.119-0.711c-0.639-0.384-0.958-1.112-0.958-2.179
			c0-0.979,0.364-1.726,1.093-2.241c0.729-0.514,1.479-0.772,2.248-0.772C171.253,17.939,171.945,18.047,172.44,18.261z"/>
	</g>
</g>
<g>
	<g>
		<path fill="#FFFFFF" d="M0,12.311C0,5.523,5.523,0,12.312,0c6.789,0,12.311,5.523,12.311,12.311
			c0,6.789-5.523,12.312-12.311,12.312C5.523,24.623,0,19.099,0,12.311z M2.625,12.311c0,5.343,4.346,9.688,9.688,9.688
			c5.34,0,9.688-4.346,9.688-9.688c0-5.341-4.348-9.686-9.688-9.686C6.97,2.625,2.624,6.97,2.625,12.311z"/>
	</g>
	<g>
		<g>
			<polygon fill="#FFFFFF" points="13.395,4.565 13.395,13.293 9.061,13.293 			"/>
		</g>
		<g>
			<polygon fill="#FFFFFF" points="15.562,11.327 11.228,20.055 11.228,11.327 			"/>
		</g>
	</g>
</g>
<polyline fill="#FFFFFF" points="20.619,17.315 28.547,25.736 17.563,23.415 "/>
</svg>
