<?xml version="1.0" encoding="utf-8"?>
<!-- Generator: Adobe Illustrator 15.0.0, SVG Export Plug-In . SVG Version: 6.00 Build 0)  -->
<!DOCTYPE svg PUBLIC "-//W3C//DTD SVG 1.1//EN" "http://www.w3.org/Graphics/SVG/1.1/DTD/svg11.dtd">
<svg version="1.1" id="Layer_1" xmlns="http://www.w3.org/2000/svg" xmlns:xlink="http://www.w3.org/1999/xlink" x="0px" y="0px"
	 width="162.187px" height="165.59px" viewBox="27.489 0 162.187 165.59" enable-background="new 27.489 0 162.187 165.59"
	 xml:space="preserve">
<g>
	<g>
		<path fill="#3ABEEE" d="M108.862,161.652c-43.579,0-79.037-35.455-79.037-79.04c0-43.569,35.457-79.027,79.037-79.027
			c43.575,0,79.023,35.458,79.023,79.027C187.889,126.197,152.441,161.652,108.862,161.652z M108.862,20.156
			c-34.443,0-62.465,28.021-62.465,62.46c0,34.444,28.022,62.462,62.465,62.462c34.44,0,62.458-28.021,62.458-62.462
			C171.316,48.178,143.302,20.156,108.862,20.156z"/>
	</g>
	<g>
		<polyline fill="#3ABEEE" points="53.993,134.434 29.279,162.005 83.554,146.567 		"/>
	</g>
	<g>
		<g>
			<polygon fill="#3ABEEE" points="115.834,32.795 115.834,88.939 87.95,88.939 			"/>
		</g>
		<g>
			<polygon fill="#3ABEEE" points="129.767,76.292 101.893,132.438 101.893,76.292 			"/>
		</g>
	</g>
</g>
</svg>
