<?xml version="1.0" encoding="utf-8"?>
<!-- Generator: Adobe Illustrator 15.0.0, SVG Export Plug-In . SVG Version: 6.00 Build 0)  -->
<!DOCTYPE svg PUBLIC "-//W3C//DTD SVG 1.1//EN" "http://www.w3.org/Graphics/SVG/1.1/DTD/svg11.dtd">
<svg version="1.1" id="Layer_1" xmlns="http://www.w3.org/2000/svg" xmlns:xlink="http://www.w3.org/1999/xlink" x="0px" y="0px"
	 width="115.227px" height="138.922px" viewBox="0 0 115.227 138.922" enable-background="new 0 0 115.227 138.922"
	 xml:space="preserve">
<g>
	<path fill="#3ABEEE" d="M41.525,60.673c-12.433-1.436-23.673,7.479-25.109,19.91c-1.436,12.432,7.479,23.673,19.912,25.108
		c12.432,1.433,23.673-7.479,25.106-19.911C62.869,73.348,53.957,62.109,41.525,60.673z M79.699,35.636
		c-10.025-1.157-19.093,6.031-20.25,16.06c-1.158,10.027,6.032,19.093,16.06,20.253c10.027,1.156,19.094-6.034,20.25-16.061
		C96.917,45.862,89.728,36.794,79.699,35.636z M56.442,31.237c-12.431-1.436-23.672,7.479-25.107,19.911
		C29.9,63.579,38.814,74.821,51.246,76.254c12.43,1.436,23.671-7.477,25.106-19.909C77.788,43.913,68.875,32.672,56.442,31.237z
		 M70.907,69.595c-9.418-1.088-17.936,5.665-19.022,15.083c-1.087,9.418,5.667,17.935,15.084,19.02
		c9.416,1.087,17.935-5.665,19.021-15.082C87.078,79.199,80.325,70.681,70.907,69.595z M31.013,33.975
		c-9.418-1.088-17.934,5.666-19.021,15.083c-1.087,9.418,5.665,17.935,15.083,19.021c9.418,1.088,17.934-5.666,19.021-15.082
		C47.184,43.579,40.432,35.063,31.013,33.975z M14.798,58.684C7.515,57.844,0.93,63.065,0.089,70.349
		c-0.841,7.282,4.381,13.868,11.664,14.71c7.284,0.84,13.869-4.382,14.708-11.666C27.303,66.111,22.081,59.525,14.798,58.684z
		 M92.821,65.511c-7.153-1.598-14.25,2.906-15.851,10.062c-1.597,7.153,2.908,14.25,10.063,15.85
		c7.154,1.598,14.25-2.907,15.849-10.062C104.481,74.206,99.977,67.108,92.821,65.511z M102.115,48.749
		c-7.282-0.841-13.868,4.382-14.71,11.665c-0.841,7.283,4.383,13.868,11.664,14.709c7.282,0.841,13.869-4.383,14.709-11.666
		C114.62,56.175,109.398,49.59,102.115,48.749z"/>
</g>
<g>
	<g>
		<path fill="#FFFFFF" d="M56.231,90.518c-12.187,0-22.104-9.916-22.104-22.105c0-12.185,9.916-22.101,22.104-22.101
			s22.101,9.916,22.101,22.101C78.333,80.602,68.42,90.518,56.231,90.518z M56.231,50.946c-9.632,0-17.469,7.837-17.469,17.468
			c0,9.633,7.837,17.469,17.469,17.469c9.633,0,17.468-7.837,17.468-17.469C73.698,58.783,65.864,50.946,56.231,50.946z"/>
	</g>
	<g>
		<polyline fill="#FFFFFF" points="40.887,82.906 33.975,90.617 49.154,86.298 		"/>
	</g>
	<g>
		<g>
			<polygon fill="#FFFFFF" points="58.181,54.481 58.181,70.183 50.384,70.183 			"/>
		</g>
		<g>
			<polygon fill="#FFFFFF" points="62.079,66.646 54.283,82.347 54.283,66.646 			"/>
		</g>
	</g>
</g>
</svg>
