<?xml version="1.0" encoding="utf-8"?>
<!-- Generator: Adobe Illustrator 15.0.0, SVG Export Plug-In . SVG Version: 6.00 Build 0)  -->
<!DOCTYPE svg PUBLIC "-//W3C//DTD SVG 1.1//EN" "http://www.w3.org/Graphics/SVG/1.1/DTD/svg11.dtd">
<svg version="1.1" id="Layer_1" xmlns="http://www.w3.org/2000/svg" xmlns:xlink="http://www.w3.org/1999/xlink" x="0px" y="0px"
	 width="32px" height="32px" viewBox="0 0 32 32" enable-background="new 0 0 32 32" xml:space="preserve">
<g>
	<g>
		<g>
			<path fill="#FFFFFF" d="M16.16,26.243c-0.938,0-1.753-0.323-2.493-0.98c-0.033-0.03-0.068-0.063-0.099-0.099
				c-0.05-0.049-0.096-0.103-0.137-0.13c-0.094-0.057-0.214-0.104-0.333-0.147c-0.071-0.027-0.147-0.056-0.215-0.086
				c-0.402-0.184-0.739-0.371-1.062-0.598c-0.071-0.046-0.134-0.097-0.196-0.147c-0.088-0.065-0.167-0.134-0.249-0.177
				c-0.071-0.038-0.137-0.063-0.206-0.092c-0.076-0.032-0.154-0.066-0.231-0.109c-0.835-0.485-1.448-1.266-1.717-2.2
				c-0.025-0.086-0.041-0.175-0.058-0.266c-0.016-0.079-0.031-0.16-0.051-0.242c-0.025-0.104-0.073-0.221-0.126-0.34
				c-0.048-0.103-0.092-0.208-0.13-0.32c-0.036-0.108-0.059-0.216-0.081-0.32c-0.031-0.142-0.059-0.277-0.115-0.406
				c-0.03-0.071-0.091-0.145-0.149-0.221c-0.044-0.053-0.089-0.106-0.127-0.168c-0.213-0.329-0.502-0.861-0.558-1.612
				c-0.12-1.636,0.767-2.535,1.447-3.068c0.061-0.086,0.066-0.178,0.073-0.366c0.003-0.056,0.005-0.114,0.008-0.177
				c0.084-1.382,0.841-2.172,1.486-2.662c-0.132-0.092-0.231-0.211-0.305-0.358c-0.303-0.124-0.605-0.31-0.696-0.711
				c-0.042-0.038-0.084-0.068-0.132-0.102c-0.132-0.096-0.285-0.205-0.374-0.406C9.304,9.659,9.299,9.591,9.299,9.53
				c0-0.041-0.002-0.074-0.013-0.102C9.273,9.39,9.226,9.342,9.18,9.294C9.093,9.205,8.984,9.096,8.943,8.923
				C8.934,8.854,8.936,8.791,8.941,8.74c0.005-0.036,0.01-0.068,0.002-0.094C8.934,8.601,8.9,8.552,8.854,8.494
				C8.776,8.387,8.676,8.257,8.666,8.042c0-0.048,0.01-0.089,0.018-0.132c0.007-0.031,0.018-0.066,0.015-0.087
				C8.697,7.795,8.671,7.754,8.648,7.711C8.608,7.646,8.56,7.562,8.547,7.458c-0.028-0.206,0-0.363,0.104-0.552
				C8.555,6.642,8.583,6.357,8.73,6.134c0.162-0.259,0.455-0.392,0.774-0.354C9.522,5.768,9.535,5.753,9.55,5.74
				c0.069-0.066,0.143-0.137,0.267-0.183c0.132-0.053,0.259-0.056,0.381-0.061c0.089,0,0.176-0.002,0.27-0.023
				c0.02-0.005,0.061-0.033,0.097-0.058c0.045-0.031,0.096-0.069,0.16-0.089c0.077-0.028,0.147-0.033,0.201-0.033
				c0.02,0,0.043,0,0.064,0.003c0.025,0,0.045,0,0.066,0c0.041,0,0.071-0.003,0.104-0.008c0.034-0.005,0.074-0.033,0.117-0.061
				c0.076-0.049,0.166-0.11,0.292-0.125c0.036-0.002,0.069-0.005,0.104-0.005c0.122,0,0.219,0.025,0.322,0.05
				c0.028,0.008,0.056,0.016,0.083,0.021c0.11-0.061,0.25-0.091,0.404-0.091c0.198,0,0.407,0.051,0.569,0.132
				c0.073-0.021,0.152-0.031,0.233-0.031c0.201,0,0.406,0.064,0.567,0.17c0.058-0.016,0.122-0.021,0.18-0.021
				c0.358,0,0.599,0.231,0.778,0.399c0.495,0.013,0.777,0.392,0.982,0.67l0.038,0.046c0.152,0.206,0.277,0.404,0.371,0.597
				c0.102-0.196,0.21-0.394,0.354-0.58l0.03-0.043c0.172-0.231,0.409-0.546,0.729-0.65c0.061-0.023,0.125-0.023,0.181-0.025
				c0.041,0,0.073,0,0.099-0.007c0.036-0.01,0.102-0.071,0.157-0.125c0.138-0.126,0.323-0.299,0.596-0.299
				c0.068,0,0.144,0.013,0.212,0.035c0.021-0.01,0.044-0.02,0.062-0.033c0.096-0.053,0.203-0.117,0.358-0.135
				c0.018,0,0.038-0.002,0.056-0.002c0.07,0,0.134,0.015,0.191,0.028c0.04,0.013,0.078,0.02,0.111,0.02h0.005
				c0.043-0.002,0.096-0.025,0.162-0.054c0.106-0.045,0.236-0.104,0.411-0.104c0.03,0,0.063,0,0.094,0.005
				c0.108,0.013,0.189,0.051,0.282,0.094c0.122-0.036,0.26-0.059,0.395-0.059c0.232,0,0.429,0.059,0.563,0.168
				c0.239-0.028,0.475,0.038,0.687,0.193c0.439-0.01,0.764,0.094,0.96,0.31c0.321-0.036,0.614,0.102,0.778,0.356
				c0.141,0.221,0.169,0.493,0.077,0.751c0.157,0.267,0.117,0.704-0.037,0.937c0.068,0.364-0.105,0.633-0.247,0.818
				c0.03,0.384-0.181,0.623-0.346,0.787c-0.023,0.434-0.305,0.627-0.536,0.783c-0.008,0.007-0.018,0.015-0.027,0.022
				c-0.051,0.216-0.143,0.371-0.301,0.5c-0.081,0.066-0.17,0.104-0.251,0.137c-0.058,0.025-0.113,0.048-0.147,0.076
				c-0.023,0.02-0.049,0.061-0.071,0.107c-0.035,0.068-0.081,0.149-0.157,0.213c-0.07,0.061-0.142,0.096-0.217,0.124
				c0.599,0.505,1.18,1.194,1.339,2.352c0.013,0.081,0.016,0.168,0.018,0.252c0.008,0.154,0.017,0.316,0.075,0.396
				c0.061,0.078,0.159,0.149,0.264,0.223c0.099,0.068,0.198,0.141,0.277,0.224c0.482,0.508,1.041,1.379,0.957,2.652
				c-0.043,0.629-0.242,1.19-0.606,1.711c-0.03,0.044-0.064,0.079-0.101,0.117c-0.04,0.049-0.081,0.092-0.101,0.13
				c-0.036,0.083-0.049,0.182-0.063,0.277c-0.008,0.068-0.018,0.131-0.033,0.189c-0.025,0.078-0.051,0.149-0.078,0.218
				c-0.03,0.077-0.059,0.15-0.074,0.219c-0.015,0.071-0.012,0.149-0.012,0.229c0.002,0.06,0.005,0.118,0,0.179
				c-0.07,0.97-0.507,1.66-0.861,2.074c-0.209,0.242-0.463,0.462-0.778,0.684c-0.192,0.137-0.398,0.221-0.611,0.311
				c-0.115,0.051-0.234,0.099-0.355,0.159c-0.079,0.036-0.164,0.099-0.252,0.162c-0.044,0.036-0.094,0.071-0.145,0.105
				c-0.245,0.162-0.544,0.353-0.89,0.516c-0.065,0.03-0.134,0.056-0.206,0.078c-0.089,0.033-0.183,0.068-0.253,0.109
				c-0.074,0.048-0.16,0.142-0.245,0.236c-0.07,0.073-0.142,0.149-0.213,0.208c-0.611,0.513-1.28,0.785-2.042,0.831
				C16.332,26.24,16.243,26.243,16.16,26.243z M9.398,6.078c-0.178,0-0.326,0.077-0.417,0.219c-0.104,0.16-0.114,0.368-0.025,0.561
				l0.033,0.071L8.943,6.998C8.844,7.16,8.821,7.254,8.844,7.419c0.005,0.043,0.033,0.092,0.063,0.145
				c0.036,0.063,0.082,0.137,0.089,0.224c0.01,0.071-0.007,0.137-0.018,0.19c-0.005,0.018-0.01,0.043-0.013,0.051
				c0.005,0.12,0.063,0.195,0.126,0.284c0.059,0.072,0.123,0.158,0.148,0.27c0.015,0.074,0.005,0.14,0.002,0.19
				C9.241,8.809,9.235,8.837,9.241,8.857c0.018,0.089,0.086,0.155,0.152,0.226C9.464,9.154,9.535,9.228,9.57,9.329
				c0.023,0.069,0.028,0.135,0.03,0.186c0.003,0.038,0.003,0.076,0.011,0.094c0.056,0.127,0.152,0.196,0.274,0.285
				c0.063,0.046,0.129,0.094,0.196,0.155l0.035,0.036l0.01,0.051c0.053,0.297,0.269,0.437,0.576,0.557l0.064,0.022l0.023,0.061
				c0.073,0.18,0.198,0.303,0.388,0.374l0.267,0.104l-0.236,0.162c-1.011,0.701-1.488,1.496-1.554,2.573
				c-0.002,0.061-0.005,0.117-0.005,0.167c-0.007,0.209-0.013,0.386-0.15,0.558l-0.01,0.015L9.474,14.74
				c-0.63,0.49-1.456,1.314-1.346,2.819c0.048,0.685,0.315,1.17,0.51,1.473c0.028,0.046,0.067,0.091,0.104,0.14
				c0.071,0.087,0.149,0.184,0.196,0.297c0.066,0.154,0.102,0.308,0.132,0.455c0.022,0.104,0.043,0.197,0.073,0.29
				c0.034,0.099,0.077,0.2,0.117,0.296c0.056,0.128,0.114,0.258,0.145,0.389c0.025,0.087,0.038,0.174,0.056,0.258
				c0.015,0.083,0.03,0.167,0.051,0.24c0.246,0.856,0.808,1.575,1.583,2.022c0.058,0.033,0.125,0.059,0.195,0.089
				c0.071,0.033,0.145,0.063,0.226,0.104c0.109,0.059,0.204,0.135,0.3,0.212c0.059,0.048,0.115,0.094,0.173,0.134
				c0.312,0.213,0.635,0.396,1.019,0.568c0.059,0.028,0.127,0.054,0.198,0.082c0.133,0.046,0.267,0.1,0.384,0.173
				c0.076,0.046,0.139,0.114,0.199,0.175c0.03,0.03,0.058,0.061,0.081,0.081c0.744,0.669,1.569,0.958,2.535,0.896
				c0.706-0.043,1.3-0.283,1.866-0.759c0.057-0.049,0.118-0.112,0.181-0.186c0.1-0.106,0.203-0.216,0.313-0.286
				c0.096-0.06,0.205-0.098,0.309-0.136c0.066-0.025,0.128-0.048,0.182-0.071c0.326-0.154,0.614-0.335,0.851-0.495
				c0.046-0.027,0.086-0.058,0.135-0.091c0.096-0.071,0.192-0.142,0.295-0.193c0.126-0.062,0.251-0.114,0.369-0.162
				c0.199-0.087,0.39-0.168,0.561-0.285c0.291-0.203,0.527-0.408,0.718-0.63c0.325-0.379,0.727-1.013,0.79-1.899
				c0.003-0.048,0-0.097,0-0.148c-0.002-0.091-0.005-0.192,0.018-0.299c0.021-0.094,0.056-0.184,0.086-0.27
				c0.028-0.063,0.051-0.127,0.069-0.185c0.013-0.041,0.018-0.097,0.027-0.153c0.016-0.109,0.033-0.235,0.088-0.357
				c0.037-0.085,0.099-0.15,0.151-0.212c0.028-0.03,0.056-0.061,0.079-0.086c0.333-0.475,0.513-0.985,0.551-1.559
				c0.075-1.162-0.433-1.959-0.877-2.424c-0.061-0.063-0.145-0.125-0.23-0.185c-0.119-0.086-0.241-0.174-0.328-0.285
				c-0.121-0.154-0.126-0.366-0.137-0.568c-0.002-0.079-0.007-0.155-0.018-0.222c-0.163-1.194-0.818-1.847-1.438-2.332l-0.219-0.17
				l0.257-0.092c0.048-0.018,0.094-0.03,0.132-0.043c0.104-0.028,0.175-0.053,0.255-0.115c0.03-0.028,0.056-0.073,0.083-0.124
				c0.036-0.066,0.073-0.14,0.145-0.196c0.063-0.056,0.142-0.088,0.22-0.122c0.068-0.028,0.129-0.056,0.177-0.094
				c0.116-0.094,0.175-0.203,0.205-0.384l0.013-0.061l0.051-0.036c0.029-0.02,0.057-0.038,0.085-0.058
				c0.226-0.153,0.406-0.277,0.404-0.595V9.301l0.045-0.045c0.198-0.193,0.337-0.351,0.292-0.633L23.146,8.56l0.038-0.051
				c0.171-0.219,0.295-0.409,0.222-0.678L23.384,7.75l0.056-0.063c0.121-0.13,0.157-0.534,0.027-0.683l-0.063-0.077l0.038-0.086
				c0.084-0.186,0.076-0.386-0.022-0.541c-0.114-0.175-0.323-0.257-0.559-0.211l-0.095,0.019l-0.056-0.08
				c-0.124-0.172-0.362-0.259-0.726-0.259c-0.033,0-0.062,0-0.094,0l-0.058,0.002L21.79,5.738c-0.177-0.143-0.371-0.193-0.563-0.153
				L21.141,5.6l-0.059-0.065c-0.068-0.076-0.216-0.125-0.398-0.125c-0.122,0-0.25,0.023-0.354,0.061l-0.061,0.02l-0.099-0.048
				c-0.084-0.038-0.136-0.064-0.199-0.072c-0.021-0.002-0.041-0.002-0.059-0.002c-0.113,0-0.2,0.039-0.295,0.079
				c-0.081,0.036-0.17,0.074-0.264,0.079c-0.075,0.002-0.146-0.015-0.203-0.03c-0.054-0.013-0.1-0.023-0.137-0.018
				c-0.097,0.01-0.16,0.051-0.246,0.097c-0.044,0.025-0.088,0.05-0.138,0.074L18.569,5.68l-0.062-0.028
				c-0.059-0.026-0.112-0.039-0.162-0.039c-0.153,0-0.275,0.112-0.39,0.219c-0.088,0.082-0.176,0.16-0.277,0.19
				c-0.061,0.021-0.124,0.023-0.18,0.023c-0.035,0-0.07,0.002-0.089,0.007c-0.233,0.079-0.434,0.349-0.582,0.547l-0.035,0.043
				c-0.145,0.193-0.254,0.401-0.371,0.622c-0.036,0.066-0.068,0.134-0.104,0.201L16.152,7.77l-0.111-0.331
				c-0.085-0.254-0.237-0.528-0.45-0.812l-0.039-0.048c-0.208-0.277-0.42-0.564-0.799-0.549l-0.063,0.002l-0.087-0.081
				c-0.157-0.153-0.332-0.323-0.571-0.323c-0.053,0-0.114,0.01-0.175,0.029L13.777,5.68l-0.062-0.052
				c-0.086-0.073-0.253-0.146-0.432-0.146c-0.071,0-0.134,0.01-0.192,0.035l-0.074,0.028l-0.063-0.043
				c-0.12-0.073-0.308-0.125-0.473-0.125c-0.119,0-0.224,0.028-0.292,0.077l-0.053,0.035l-0.064-0.013
				c-0.058-0.013-0.109-0.022-0.152-0.035c-0.097-0.023-0.168-0.043-0.249-0.043c-0.023,0-0.046,0.003-0.071,0.005
				c-0.053,0.005-0.102,0.041-0.16,0.076c-0.062,0.043-0.138,0.089-0.229,0.106c-0.049,0.008-0.1,0.013-0.158,0.013
				c-0.025,0-0.048,0-0.074-0.002c-0.02,0-0.041,0-0.056,0c-0.045,0-0.074,0.005-0.099,0.013c-0.025,0.008-0.059,0.03-0.091,0.054
				c-0.059,0.041-0.122,0.086-0.203,0.106c-0.12,0.025-0.229,0.028-0.326,0.03c-0.104,0.003-0.198,0.005-0.282,0.038
				C9.858,5.865,9.817,5.9,9.756,5.958C9.726,5.989,9.69,6.022,9.645,6.058L9.591,6.101L9.522,6.088
				C9.482,6.08,9.439,6.078,9.398,6.078z M16.116,25.442c-0.914,0-1.565-0.434-1.949-0.795c-0.203-0.19-0.412-0.418-0.414-0.642
				c0-0.361,0.452-0.614,0.59-0.687c0.465-0.233,1.12-0.362,1.844-0.362c0.833,0,1.627,0.172,2.119,0.462l0.032,0.016l0.019,0.03
				c0.022,0.038,0.048,0.063,0.075,0.089c0.059,0.062,0.135,0.139,0.145,0.3c0.028,0.281-0.17,0.485-0.312,0.637
				c-0.025,0.021-0.043,0.038-0.059,0.061c-0.503,0.541-1.203,0.856-1.971,0.887C16.192,25.44,16.157,25.442,16.116,25.442z
				 M16.188,23.258c-0.676,0-1.285,0.118-1.712,0.331c-0.208,0.104-0.419,0.282-0.419,0.417c0,0.056,0.053,0.174,0.32,0.427
				c0.343,0.32,0.922,0.709,1.74,0.709c0.038,0,0.071-0.003,0.106-0.003c0.69-0.026,1.313-0.311,1.761-0.793
				c0.021-0.02,0.04-0.043,0.061-0.065c0.122-0.125,0.25-0.257,0.237-0.399c-0.009-0.056-0.02-0.068-0.067-0.118
				c-0.028-0.027-0.056-0.058-0.089-0.105C17.676,23.406,16.955,23.258,16.188,23.258z M12.624,23.368L12.624,23.368
				c-0.038,0-0.079-0.002-0.12-0.008c-1.097-0.084-2.11-0.892-2.471-1.967c-0.192-0.578-0.256-1.387,0.031-1.871
				c0.134-0.229,0.34-0.371,0.589-0.419c0.079-0.013,0.157-0.021,0.238-0.021c0.483,0,0.912,0.249,1.13,0.396
				c0.582,0.406,1.245,1.272,1.476,1.939c0.167,0.48,0.238,1.146-0.066,1.57C13.256,23.232,12.979,23.368,12.624,23.368z
				 M10.891,19.383c-0.061,0-0.124,0.008-0.183,0.018c-0.17,0.03-0.292,0.122-0.383,0.271c-0.231,0.386-0.178,1.113-0.008,1.623
				c0.325,0.965,1.229,1.689,2.209,1.766c0.034,0.003,0.064,0.003,0.097,0.003l0,0c0.257,0,0.444-0.081,0.561-0.25
				c0.193-0.273,0.206-0.781,0.028-1.295c-0.208-0.607-0.833-1.425-1.364-1.79C11.664,19.601,11.293,19.383,10.891,19.383z
				 M19.645,23.354L19.645,23.354c-0.504,0-0.855-0.217-0.988-0.613c-0.165-0.482-0.025-1.079,0.04-1.315
				c0.161-0.546,0.57-1.224,1.045-1.728c0.398-0.418,0.767-0.681,1.16-0.814c0.136-0.048,0.229-0.064,0.414-0.088
				c0.043-0.005,0.086-0.005,0.128-0.005c0.316,0,0.735,0.146,0.938,0.849c0.124,0.442,0.124,1.136,0,1.578
				c-0.253,0.887-0.979,1.659-1.854,1.968C20.312,23.264,19.981,23.354,19.645,23.354z M21.443,19.091
				c-0.032,0-0.062,0.002-0.093,0.007c-0.18,0.018-0.245,0.03-0.35,0.068c-0.346,0.121-0.681,0.356-1.042,0.74
				c-0.437,0.462-0.828,1.106-0.973,1.604c-0.127,0.435-0.145,0.851-0.046,1.133c0.089,0.271,0.331,0.407,0.704,0.407l0,0
				c0.233,0,0.506-0.051,0.782-0.149c0.787-0.28,1.437-0.972,1.664-1.766c0.111-0.389,0.111-1.024,0-1.416
				C21.931,19.156,21.644,19.091,21.443,19.091z M16.135,22.644L16.135,22.644c-0.025,0-0.051,0-0.076,0
				c-1.083-0.035-2.253-0.755-2.394-2.061c-0.076-0.713,0.287-1.384,0.492-1.637c0.341-0.43,1.05-0.879,1.868-0.912
				c0.043-0.003,0.084-0.003,0.127-0.003c0.715,0,1.389,0.267,1.852,0.733c0.446,0.457,0.795,1.293,0.553,2.134
				C18.272,21.892,17.231,22.644,16.135,22.644z M16.152,18.33c-0.038,0-0.076,0-0.114,0c-0.725,0.034-1.346,0.425-1.646,0.801
				c-0.206,0.26-0.49,0.849-0.427,1.42c0.122,1.136,1.15,1.758,2.102,1.788c0.022,0.002,0.045,0.002,0.068,0.002
				c0.97,0,1.887-0.654,2.132-1.523c0.209-0.722-0.104-1.46-0.479-1.841C17.385,18.567,16.786,18.33,16.152,18.33z M9.642,19.281
				c-0.216-0.002-0.394-0.239-0.488-0.365c-0.262-0.356-0.531-0.976-0.531-1.559c-0.007-0.685,0.208-1.129,0.401-1.439
				c0.259-0.419,0.597-0.737,0.958-0.894c0.018-0.013,0.046-0.025,0.077-0.033c0.139-0.022,0.264,0.021,0.36,0.125
				c0.318,0.335,0.299,1.311,0.274,1.715c-0.046,0.812-0.297,1.682-0.62,2.156C10.025,19.055,9.855,19.281,9.642,19.281z
				 M10.129,15.286c-0.005,0.005-0.01,0.007-0.015,0.01c-0.305,0.129-0.607,0.415-0.833,0.779c-0.257,0.417-0.366,0.8-0.358,1.28
				c0.005,0.51,0.247,1.075,0.476,1.379c0.157,0.217,0.223,0.242,0.244,0.244c0.028-0.002,0.116-0.065,0.18-0.163
				c0.3-0.433,0.529-1.238,0.572-2.001c0.033-0.606-0.013-1.3-0.193-1.493C10.17,15.291,10.147,15.286,10.129,15.286z M22.535,19.22
				c-0.331,0-0.576-0.549-0.622-0.657c-0.268-0.627-0.507-1.867-0.439-2.776c0.025-0.318,0.111-0.856,0.43-0.917
				c0.02-0.002,0.038-0.005,0.058-0.005c0.205,0,0.447,0.19,0.678,0.394c0.618,0.541,0.955,1.331,0.907,2.107
				c-0.031,0.546-0.221,1.062-0.549,1.489l-0.013,0.018c-0.132,0.173-0.274,0.337-0.437,0.348
				C22.543,19.22,22.54,19.22,22.535,19.22z M21.961,15.166c-0.002,0-0.005,0-0.005,0c-0.048,0.018-0.153,0.247-0.181,0.644
				c-0.068,0.864,0.163,2.039,0.416,2.636c0.102,0.243,0.268,0.46,0.339,0.473c0.027-0.01,0.088-0.063,0.212-0.227l0.016-0.021
				c0.204-0.261,0.449-0.708,0.489-1.323c0.061-1.018-0.601-1.683-0.806-1.867C22.202,15.273,22.04,15.166,21.961,15.166z
				 M13.165,18.691L13.165,18.691c-1.12-0.003-1.872-0.874-2.035-1.735c-0.159-0.837,0.168-1.688,0.498-2.16
				c0.335-0.484,1.042-1.078,1.928-1.164c0.074-0.007,0.15-0.013,0.222-0.013c0.754,0,1.455,0.402,1.79,1.023
				c0.279,0.516,0.358,1.212,0.211,1.861c-0.214,0.969-1.097,1.881-2.05,2.116C13.538,18.666,13.348,18.691,13.165,18.691z
				 M13.777,13.922c-0.062,0-0.128,0.003-0.193,0.008c-0.782,0.079-1.41,0.606-1.709,1.039c-0.318,0.457-0.582,1.235-0.447,1.932
				c0.137,0.74,0.779,1.489,1.737,1.489l0,0c0.161,0,0.323-0.02,0.493-0.062c0.838-0.208,1.639-1.039,1.826-1.89
				c0.131-0.574,0.056-1.206-0.18-1.653C15.021,14.259,14.422,13.922,13.777,13.922z M19.271,18.593
				c-0.516,0-1.134-0.216-1.575-0.549c-0.213-0.163-0.482-0.454-0.645-0.696c-0.442-0.657-0.728-1.72-0.366-2.597
				c0.202-0.502,0.742-1.113,1.579-1.197c0.082-0.008,0.168-0.01,0.249-0.01c0.657,0,1.253,0.253,1.763,0.756
				c0.646,0.633,1.288,2.056,0.688,3.232C20.636,18.176,19.972,18.593,19.271,18.593z M18.514,13.844
				c-0.073,0-0.146,0.005-0.22,0.01c-0.702,0.068-1.156,0.586-1.326,1.008c-0.32,0.774-0.052,1.745,0.334,2.319
				c0.144,0.213,0.392,0.482,0.575,0.622c0.393,0.3,0.939,0.487,1.392,0.487c0.589,0,1.15-0.35,1.425-0.896
				c0.533-1.039-0.046-2.309-0.628-2.88C19.613,14.069,19.09,13.844,18.514,13.844z M21.926,14.653l-0.141-0.002
				c-0.283-0.013-0.482-0.114-0.662-0.221c-0.263-0.15-0.541-0.343-0.803-0.563c-0.092-0.077-0.19-0.153-0.285-0.224
				c-0.152-0.119-0.312-0.246-0.455-0.378c-0.202-0.188-0.457-0.424-0.683-0.663c-0.025-0.031-0.056-0.062-0.086-0.094
				c-0.204-0.211-0.432-0.45-0.467-0.787l-0.019-0.117l0.114-0.043c0.229-0.082,0.478-0.122,0.747-0.122
				c0.67,0,1.417,0.277,1.864,0.688c0.396,0.366,1.036,1.161,0.89,2.391L21.926,14.653z M18.666,11.803
				c0.067,0.186,0.219,0.343,0.363,0.495c0.03,0.033,0.063,0.063,0.091,0.096c0.215,0.234,0.465,0.463,0.664,0.65
				c0.135,0.123,0.281,0.236,0.437,0.358c0.097,0.074,0.195,0.15,0.292,0.231c0.249,0.206,0.512,0.394,0.76,0.536
				c0.116,0.068,0.236,0.131,0.384,0.163c0.068-1.014-0.47-1.677-0.809-1.987c-0.327-0.302-0.97-0.607-1.66-0.607
				C19.002,11.74,18.829,11.76,18.666,11.803z M10.396,14.592L10.396,14.592c-0.03,0-0.056-0.002-0.083-0.005l-0.122-0.013
				l-0.01-0.124c-0.061-0.8,0.186-1.555,0.688-2.119c0.49-0.554,1.178-0.872,1.933-0.902c0.038-0.002,0.079-0.002,0.12-0.002
				c0.228,0,0.551,0.028,0.784,0.16l0.092,0.053l-0.021,0.107c-0.084,0.396-0.378,0.706-0.656,0.965
				c-0.661,0.63-1.326,1.235-2.151,1.702C10.762,14.531,10.572,14.592,10.396,14.592z M12.921,11.73c-0.036,0-0.074,0-0.109,0
				c-0.673,0.028-1.283,0.31-1.717,0.8c-0.419,0.472-0.64,1.089-0.62,1.754c0.102-0.015,0.221-0.058,0.346-0.132
				c0.797-0.452,1.445-1.041,2.096-1.658c0.22-0.208,0.439-0.432,0.536-0.693C13.314,11.755,13.132,11.73,12.921,11.73z
				 M16.261,13.764L16.261,13.764c-0.785,0-1.763-0.22-2.179-0.71c-0.175-0.209-0.313-0.58-0.195-0.899
				c0.145-0.384,0.521-0.607,0.793-0.768l0.023-0.013c0.334-0.198,0.652-0.331,1.195-0.371c0.063-0.008,0.133-0.01,0.201-0.01
				c0.576,0,1.044,0.191,1.334,0.348c0.319,0.176,1.056,0.653,0.965,1.316c-0.065,0.465-0.633,0.81-1.096,0.96
				C17.006,13.713,16.647,13.764,16.261,13.764z M16.099,11.295c-0.058,0-0.12,0.002-0.179,0.008
				c-0.487,0.038-0.769,0.154-1.066,0.33l-0.018,0.013c-0.255,0.147-0.561,0.328-0.669,0.612c-0.071,0.198,0.018,0.452,0.143,0.6
				c0.302,0.358,1.104,0.604,1.95,0.604c0.354,0,0.682-0.043,0.945-0.129c0.401-0.132,0.851-0.412,0.892-0.716
				c0.065-0.48-0.544-0.866-0.813-1.011C17.031,11.462,16.612,11.295,16.099,11.295z M19.875,11.239
				c-0.744,0-1.521-0.249-1.887-0.607c-0.065-0.066-0.427-0.485-0.396-0.767c0.016-0.117,0.127-0.229,0.311-0.394
				c0.04-0.036,0.076-0.066,0.102-0.092c0.391-0.383,0.881-0.769,1.487-1.171c-0.774,0.386-1.447,0.826-2.031,1.329l-0.075,0.066
				l-0.091-0.041c-0.578-0.277-0.843-0.686-0.801-1.248c0.061-0.901,0.761-1.661,0.975-1.872l0.175-0.17l0.076,0.231
				c0.005,0.023,0.013,0.044,0.015,0.064c0.033-0.036,0.066-0.071,0.098-0.109c0.13-0.149,0.264-0.302,0.434-0.427l0.231-0.165
				l0.005,0.282c0.003,0.028,0,0.056,0,0.083c0,0.013-0.002,0.028-0.002,0.043c0.015-0.015,0.025-0.028,0.04-0.043
				c0.117-0.124,0.247-0.264,0.439-0.343c0.028-0.022,0.063-0.035,0.099-0.035h0.126l0.025,0.124
				c0.005,0.025,0.002,0.048-0.003,0.071l0.003,0.033c0.167-0.125,0.339-0.251,0.573-0.33l0.117-0.041l0.062,0.106
				c0.038,0.066,0.025,0.132-0.002,0.183c0.198-0.096,0.429-0.183,0.704-0.226l0.435-0.063l-0.303,0.314
				c-0.008,0.013-0.018,0.023-0.028,0.031c0.003-0.002,0.008-0.002,0.011-0.005c0.167-0.053,0.343-0.109,0.578-0.109h0.473
				L21.471,6.21c0.162-0.035,0.337-0.071,0.519-0.071c0.111,0,0.213,0.01,0.313,0.038l0.242,0.061l-0.167,0.186
				c-0.01,0.013-0.025,0.025-0.033,0.036c0.203,0.013,0.421,0.007,0.594-0.01l0.117-0.013l0.04,0.112
				c0.038,0.111-0.03,0.206-0.073,0.259C23.018,6.817,23.01,6.825,23,6.835c-0.068,0.104-0.132,0.229-0.186,0.364
				c0,0,0.003,0,0.006,0c0.086,0,0.113-0.011,0.124-0.016l0.271-0.147l-0.053,0.307c-0.041,0.239-0.218,0.381-0.37,0.508
				c-0.021,0.015-0.039,0.031-0.057,0.043c0.03-0.008,0.057-0.016,0.074-0.025l0.397-0.206l-0.194,0.406
				c-0.094,0.198-0.271,0.363-0.445,0.521l0,0l0.138-0.03l0.037,0.132c0.05,0.142-0.073,0.238-0.131,0.284
				c-0.011,0.007-0.021,0.015-0.028,0.026c-0.084,0.076-0.175,0.145-0.268,0.213l0.042-0.013l0.041,0.155
				c0.04,0.165-0.11,0.251-0.174,0.289c-0.018,0.008-0.03,0.015-0.038,0.023c-0.108,0.079-0.235,0.158-0.363,0.231l0.457-0.079
				l-0.439,0.361c-0.175,0.144-0.402,0.223-0.637,0.289l0.343,0.021l-0.373,0.251c-0.202,0.132-0.478,0.157-0.747,0.183
				c-0.019,0-0.031,0.003-0.051,0.005l0.638,0.175L20.3,11.208C20.165,11.229,20.022,11.239,19.875,11.239z M17.893,9.911
				c0.002,0.104,0.194,0.398,0.306,0.508c0.311,0.3,1.018,0.518,1.677,0.518c0.003,0,0.003,0,0.003,0
				c-0.008-0.023-0.016-0.048-0.022-0.076l-0.028-0.145l0.145-0.033c0.138-0.028,0.285-0.043,0.427-0.056
				c0.097-0.01,0.193-0.018,0.285-0.034c-0.023-0.022-0.038-0.053-0.051-0.081l-0.071-0.149l0.154-0.056
				c0.102-0.036,0.208-0.066,0.309-0.096c0.101-0.028,0.192-0.053,0.278-0.084c-0.035-0.03-0.063-0.068-0.081-0.114l-0.051-0.135
				l0.135-0.056c0.193-0.083,0.391-0.19,0.568-0.302c-0.035-0.015-0.068-0.036-0.094-0.061l-0.127-0.12L21.79,9.23
				c0.071-0.056,0.146-0.109,0.225-0.167c0.083-0.061,0.17-0.122,0.245-0.185c-0.058-0.018-0.106-0.048-0.142-0.089l-0.086-0.106
				l0.096-0.096c0.063-0.062,0.127-0.12,0.19-0.178c0.077-0.066,0.153-0.135,0.222-0.203c-0.084-0.013-0.152-0.041-0.205-0.086
				l-0.093-0.082l0.059-0.106c0.074-0.129,0.188-0.221,0.298-0.312c0.053-0.041,0.099-0.079,0.137-0.119l0,0
				c-0.043,0-0.087-0.002-0.127,0L22.4,7.508l0.056-0.206c0.056-0.188,0.14-0.378,0.23-0.538c-0.035,0.002-0.078,0.002-0.119,0.002
				c-0.197,0-0.398-0.013-0.565-0.036L21.79,6.703l0.098-0.188c0.013-0.028,0.03-0.053,0.046-0.073
				c-0.158,0.007-0.32,0.045-0.473,0.083c-0.08,0.018-0.158,0.039-0.236,0.054L21.1,6.602l-0.045-0.117
				c-0.028-0.068-0.033-0.132-0.025-0.188c-0.046,0.015-0.093,0.03-0.139,0.043c-0.124,0.041-0.255,0.083-0.411,0.102l-0.154,0.018
				l-0.013-0.152c-0.005-0.046-0.003-0.087,0.005-0.123c-0.167,0.063-0.312,0.143-0.449,0.221l-0.13,0.076l-0.075-0.127
				c-0.003-0.005-0.011-0.01-0.019-0.018c-0.019-0.023-0.054-0.062-0.062-0.122C19.58,6.21,19.58,6.208,19.58,6.203
				c-0.061,0.041-0.116,0.081-0.175,0.125c-0.073,0.058-0.154,0.117-0.239,0.17l-0.102,0.064l-0.083-0.087
				c-0.043-0.043-0.076-0.099-0.097-0.165c-0.043,0.038-0.083,0.083-0.124,0.129c-0.067,0.066-0.13,0.135-0.206,0.201l-0.059,0.048
				l-0.073-0.02c-0.116-0.031-0.176-0.109-0.201-0.196c-0.056,0.058-0.106,0.12-0.162,0.183c-0.084,0.102-0.175,0.203-0.275,0.297
				l-0.129,0.12l-0.099-0.145c-0.018-0.028-0.035-0.056-0.048-0.086c-0.265,0.304-0.674,0.866-0.717,1.493
				c-0.03,0.411,0.143,0.696,0.548,0.912c1.045-0.878,2.349-1.564,3.976-2.103l0.123,0.277c-1.472,0.78-2.525,1.491-3.225,2.174
				c-0.03,0.03-0.068,0.066-0.106,0.099C18.039,9.753,17.92,9.862,17.893,9.911z M12.413,11.234L12.413,11.234
				c-0.099,0-0.201-0.002-0.302-0.007l-0.536-0.028l0.472-0.257c0.005,0,0.008-0.005,0.013-0.007
				c-0.051-0.008-0.104-0.01-0.16-0.018c-0.236-0.023-0.477-0.051-0.666-0.153l-0.318-0.178l0.338-0.096
				c-0.021-0.005-0.043-0.013-0.063-0.018c-0.221-0.068-0.447-0.137-0.627-0.267L10.233,9.97l0.401-0.038
				c-0.239-0.123-0.482-0.255-0.625-0.447L9.738,9.116l0.354,0.109c-0.17-0.119-0.343-0.241-0.442-0.411L9.474,8.519L9.812,8.59
				c0.008,0.002,0.016,0.002,0.023,0.005c-0.008-0.01-0.018-0.018-0.028-0.028c-0.152-0.142-0.312-0.29-0.429-0.485L9.136,7.676
				l0.427,0.19c0.028,0.01,0.056,0.021,0.084,0.025C9.612,7.869,9.576,7.841,9.54,7.808C9.444,7.719,9.304,7.577,9.226,7.371
				l-0.13-0.342l0.335,0.149c0.036,0.018,0.117,0.021,0.154,0.021C9.52,7.021,9.401,6.833,9.319,6.705L9.136,6.418l0.305,0.03
				c0.19,0.015,0.409,0.021,0.602,0.01l0,0L9.817,6.294l0.262-0.097c0.104-0.041,0.218-0.061,0.345-0.061
				c0.066,0,0.13,0.007,0.193,0.013l-0.379-0.107l0.763-0.084c0.038-0.005,0.071-0.007,0.106-0.007c0.173,0,0.325,0.045,0.467,0.094
				l-0.439-0.284l0.562,0.03c0.231,0.01,0.475,0.084,0.726,0.216c-0.03-0.056-0.045-0.117-0.007-0.186l0.061-0.111l0.123,0.043
				c0.236,0.086,0.421,0.218,0.596,0.354c-0.02-0.029-0.03-0.062-0.03-0.095V5.86l0.152-0.002c0.017,0,0.032,0.002,0.044,0.008
				l0.018-0.003l0.021,0.018c0.005,0.002,0.007,0.005,0.013,0.01c0.213,0.089,0.357,0.244,0.485,0.383
				c-0.002-0.025-0.007-0.053-0.015-0.086l-0.079-0.356l0.304,0.195c0.211,0.135,0.363,0.318,0.51,0.493
				c0.013,0.016,0.025,0.029,0.038,0.044c0-0.005,0-0.013,0-0.021l0.024-0.322l0.233,0.224c0.341,0.318,0.917,0.982,0.993,1.852
				c0.048,0.557-0.208,0.971-0.785,1.263l-0.086,0.045L14.955,9.54c-0.596-0.495-1.275-0.935-2.026-1.316
				c0.67,0.445,1.3,0.948,1.839,1.542l0.05,0.061l-0.015,0.077C14.589,10.774,13.764,11.234,12.413,11.234z M11.72,10.594
				c0.073,0.011,0.143,0.016,0.211,0.023c0.175,0.018,0.353,0.036,0.51,0.086l0.135,0.043l-0.036,0.137
				c-0.005,0.018-0.011,0.03-0.018,0.048c0.792-0.018,1.718-0.219,1.966-1.023c-0.978-1.054-2.271-1.819-3.527-2.49l0.119-0.277
				c1.557,0.509,2.898,1.215,3.99,2.101c0.406-0.228,0.572-0.518,0.534-0.919c-0.055-0.642-0.439-1.173-0.717-1.478
				c-0.022,0.041-0.05,0.073-0.078,0.104l-0.112,0.109l-0.105-0.112c-0.071-0.076-0.142-0.157-0.205-0.233
				c-0.071-0.086-0.139-0.165-0.214-0.241c-0.008,0.025-0.018,0.051-0.033,0.071c-0.041,0.066-0.109,0.109-0.188,0.127l-0.078,0.015
				l-0.059-0.058c-0.047-0.043-0.087-0.092-0.128-0.135c-0.058-0.063-0.116-0.126-0.175-0.182c-0.028,0.086-0.078,0.152-0.142,0.19
				l-0.087,0.049l-0.079-0.059c-0.048-0.033-0.089-0.068-0.137-0.101c-0.083-0.066-0.165-0.127-0.251-0.183
				c-0.002,0.01-0.002,0.02-0.005,0.03c-0.015,0.053-0.057,0.125-0.153,0.175l-0.079,0.038l-0.071-0.045
				c-0.147-0.096-0.292-0.17-0.429-0.224c0.003,0.048,0.003,0.096-0.018,0.155l-0.035,0.122L11.9,6.441
				c-0.137-0.018-0.261-0.059-0.381-0.096c-0.053-0.018-0.102-0.036-0.153-0.051c0.01,0.079-0.01,0.152-0.056,0.22l-0.058,0.084
				l-0.097-0.021c-0.063-0.015-0.139-0.033-0.211-0.051c-0.157-0.041-0.325-0.083-0.482-0.086c0.025,0.035,0.044,0.076,0.046,0.12
				l0.02,0.149l-0.145,0.02c-0.155,0.023-0.34,0.036-0.543,0.036c-0.044,0-0.089,0-0.13-0.002c0.096,0.172,0.196,0.371,0.218,0.563
				L9.949,7.5L9.776,7.498c-0.036,0-0.074,0-0.111,0c0,0-0.005,0-0.01,0c0.028,0.028,0.058,0.058,0.091,0.091
				C9.769,7.612,9.804,7.635,9.84,7.658c0.099,0.071,0.221,0.157,0.269,0.32L10.142,8.1L10.03,8.156
				C9.975,8.179,9.921,8.196,9.86,8.202c0.046,0.051,0.096,0.096,0.149,0.145c0.092,0.081,0.181,0.165,0.264,0.261l0.122,0.137
				l-0.158,0.089c-0.033,0.023-0.068,0.038-0.106,0.048c0.045,0.036,0.096,0.068,0.15,0.106c0.114,0.082,0.239,0.167,0.337,0.27
				l0.155,0.157l-0.201,0.086c-0.021,0.008-0.038,0.016-0.059,0.021c0.094,0.056,0.195,0.111,0.3,0.162
				c0.099,0.051,0.201,0.104,0.297,0.16l0.12,0.074l-0.066,0.126c-0.015,0.033-0.041,0.058-0.066,0.081
				c0.058,0.018,0.12,0.036,0.181,0.057c0.137,0.043,0.279,0.083,0.412,0.144l0.149,0.066l-0.081,0.145
				C11.748,10.559,11.737,10.576,11.72,10.594z"/>
		</g>
	</g>
	<g>
		<g>
			<path fill="#FFFFFF" d="M12.413,11.234c-0.099,0-0.201-0.002-0.302-0.007l-0.536-0.028l0.472-0.257
				c0.005,0,0.008-0.005,0.013-0.007c-0.051-0.008-0.104-0.01-0.16-0.018c-0.236-0.023-0.477-0.051-0.666-0.153l-0.318-0.178
				l0.338-0.096c-0.021-0.005-0.043-0.013-0.063-0.018c-0.221-0.068-0.447-0.137-0.627-0.267L10.233,9.97l0.401-0.038
				c-0.239-0.123-0.482-0.255-0.625-0.447L9.738,9.116l0.354,0.109c-0.17-0.119-0.343-0.241-0.442-0.411L9.474,8.519L9.812,8.59
				c0.008,0.002,0.016,0.002,0.023,0.005c-0.008-0.01-0.018-0.018-0.028-0.028c-0.152-0.142-0.312-0.29-0.429-0.485L9.136,7.676
				l0.427,0.19c0.028,0.01,0.056,0.021,0.084,0.025C9.612,7.869,9.576,7.841,9.54,7.808C9.444,7.719,9.304,7.577,9.226,7.371
				l-0.13-0.342l0.335,0.149c0.036,0.018,0.117,0.021,0.154,0.021C9.52,7.021,9.401,6.833,9.319,6.705L9.136,6.418l0.305,0.03
				c0.19,0.015,0.409,0.021,0.602,0.01l0,0L9.817,6.294l0.262-0.097c0.104-0.041,0.218-0.061,0.345-0.061
				c0.066,0,0.13,0.007,0.193,0.013l-0.379-0.107l0.763-0.084c0.038-0.005,0.071-0.007,0.106-0.007c0.173,0,0.325,0.045,0.467,0.094
				l-0.439-0.284l0.562,0.03c0.231,0.01,0.475,0.084,0.726,0.216c-0.03-0.056-0.045-0.117-0.007-0.186l0.061-0.111l0.123,0.043
				c0.241,0.089,0.432,0.226,0.609,0.363l-0.579-0.521l0.75,0.28c0.23,0.089,0.385,0.249,0.518,0.398
				c-0.002-0.025-0.007-0.053-0.015-0.086l-0.079-0.356l0.304,0.195c0.211,0.135,0.363,0.318,0.51,0.493
				c0.013,0.016,0.025,0.029,0.038,0.044c0-0.005,0-0.013,0-0.021l0.024-0.322l0.233,0.224c0.341,0.318,0.917,0.982,0.993,1.852
				c0.048,0.557-0.208,0.971-0.785,1.263l-0.086,0.045L14.955,9.54c-0.596-0.495-1.275-0.935-2.026-1.316
				c0.67,0.445,1.3,0.948,1.839,1.542l0.05,0.061l-0.015,0.077C14.589,10.774,13.764,11.234,12.413,11.234z M11.72,10.594
				c0.073,0.011,0.143,0.016,0.211,0.023c0.175,0.018,0.353,0.036,0.51,0.086l0.135,0.043l-0.036,0.137
				c-0.005,0.018-0.011,0.03-0.018,0.048c0.792-0.018,1.718-0.219,1.966-1.023c-0.972-1.047-2.255-1.811-3.502-2.479
				c-0.021-0.003-0.034-0.01-0.049-0.015l-0.051-0.018V7.368c-0.023-0.028-0.033-0.063-0.036-0.094l-0.005-0.206l0.193,0.053
				c0.03,0.007,0.056,0.018,0.078,0.033c1.54,0.506,2.871,1.209,3.952,2.088c0.406-0.228,0.572-0.518,0.534-0.919
				c-0.055-0.642-0.439-1.173-0.717-1.478c-0.022,0.041-0.05,0.073-0.078,0.104l-0.112,0.109l-0.105-0.112
				c-0.071-0.076-0.142-0.157-0.205-0.233c-0.071-0.086-0.139-0.165-0.214-0.241c-0.008,0.025-0.018,0.051-0.033,0.071
				c-0.041,0.066-0.109,0.109-0.188,0.127l-0.078,0.015l-0.059-0.058c-0.047-0.043-0.087-0.092-0.128-0.135
				c-0.058-0.063-0.116-0.126-0.175-0.182c-0.028,0.086-0.078,0.152-0.142,0.19l-0.087,0.049l-0.079-0.059
				c-0.048-0.033-0.089-0.068-0.137-0.101c-0.083-0.066-0.165-0.127-0.251-0.183c-0.002,0.01-0.002,0.02-0.005,0.03
				c-0.015,0.053-0.057,0.125-0.153,0.175l-0.079,0.038l-0.071-0.045c-0.147-0.096-0.292-0.17-0.429-0.224
				c0.003,0.048,0.003,0.096-0.018,0.155l-0.035,0.122L11.9,6.441c-0.137-0.018-0.261-0.059-0.381-0.096
				c-0.053-0.018-0.102-0.036-0.153-0.051c0.01,0.079-0.01,0.152-0.056,0.22l-0.058,0.084l-0.097-0.021
				c-0.063-0.015-0.139-0.033-0.211-0.051c-0.157-0.041-0.325-0.083-0.482-0.086c0.025,0.035,0.044,0.076,0.046,0.12l0.02,0.149
				l-0.145,0.02c-0.155,0.023-0.34,0.036-0.543,0.036c-0.044,0-0.089,0-0.13-0.002c0.096,0.172,0.196,0.371,0.218,0.563L9.949,7.5
				L9.776,7.498c-0.036,0-0.074,0-0.111,0c0,0-0.005,0-0.01,0c0.028,0.028,0.058,0.058,0.091,0.091
				C9.769,7.612,9.804,7.635,9.84,7.658c0.099,0.071,0.221,0.157,0.269,0.32L10.142,8.1L10.03,8.156
				C9.975,8.179,9.921,8.196,9.86,8.202c0.046,0.051,0.096,0.096,0.149,0.145c0.092,0.081,0.181,0.165,0.264,0.261l0.122,0.137
				l-0.158,0.089c-0.033,0.023-0.068,0.038-0.106,0.048c0.045,0.036,0.096,0.068,0.15,0.106c0.114,0.082,0.239,0.167,0.337,0.27
				l0.155,0.157l-0.201,0.086c-0.021,0.008-0.038,0.016-0.059,0.021c0.094,0.056,0.195,0.111,0.3,0.162
				c0.099,0.051,0.201,0.104,0.297,0.16l0.12,0.074l-0.066,0.126c-0.015,0.033-0.041,0.058-0.066,0.081
				c0.058,0.018,0.12,0.036,0.181,0.057c0.137,0.043,0.279,0.083,0.412,0.144l0.149,0.066l-0.081,0.145
				C11.748,10.559,11.737,10.576,11.72,10.594z"/>
		</g>
	</g>
	<g>
		<g>
			<path fill="#FFFFFF" d="M19.875,11.239c-0.744,0-1.521-0.249-1.887-0.607c-0.065-0.066-0.427-0.485-0.396-0.767
				c0.016-0.117,0.127-0.229,0.311-0.394c0.04-0.036,0.076-0.066,0.102-0.092c0.391-0.383,0.881-0.769,1.487-1.171
				c-0.774,0.386-1.447,0.826-2.031,1.329l-0.075,0.066l-0.091-0.041c-0.578-0.277-0.843-0.686-0.801-1.248
				c0.061-0.901,0.761-1.661,0.975-1.872l0.175-0.17l0.076,0.231c0.005,0.023,0.013,0.044,0.015,0.064
				c0.033-0.036,0.066-0.071,0.098-0.109c0.13-0.149,0.264-0.302,0.434-0.427l0.231-0.165l0.005,0.282c0.003,0.028,0,0.056,0,0.083
				c0,0.013-0.002,0.028-0.002,0.043c0.015-0.015,0.025-0.028,0.04-0.043c0.122-0.132,0.263-0.282,0.482-0.358l0.707-0.242
				l-0.533,0.478c0.008-0.008,0.021-0.018,0.03-0.026c0.167-0.124,0.342-0.254,0.576-0.333l0.117-0.041l0.062,0.106
				c0.038,0.066,0.025,0.132-0.002,0.183c0.198-0.096,0.429-0.183,0.704-0.226l0.435-0.063l-0.303,0.314
				c-0.008,0.013-0.018,0.023-0.028,0.031c0.003-0.002,0.008-0.002,0.011-0.005c0.167-0.053,0.343-0.109,0.578-0.109h0.473
				L21.471,6.21c0.162-0.035,0.337-0.071,0.519-0.071c0.111,0,0.213,0.01,0.313,0.038l0.242,0.061l-0.167,0.186
				c-0.01,0.013-0.025,0.025-0.033,0.036c0.203,0.013,0.421,0.007,0.594-0.01l0.117-0.013l0.04,0.112
				c0.038,0.111-0.03,0.206-0.073,0.259C23.018,6.817,23.01,6.825,23,6.835c-0.068,0.104-0.132,0.229-0.186,0.364
				c0,0,0.003,0,0.006,0c0.086,0,0.113-0.011,0.124-0.016l0.271-0.147l-0.053,0.307c-0.041,0.239-0.218,0.381-0.37,0.508
				c-0.021,0.015-0.039,0.031-0.057,0.043c0.03-0.008,0.057-0.016,0.074-0.025l0.397-0.206l-0.194,0.406
				c-0.094,0.198-0.271,0.363-0.445,0.521l0,0l0.138-0.03l0.037,0.132c0.05,0.142-0.073,0.238-0.131,0.284
				c-0.011,0.007-0.021,0.015-0.028,0.026c-0.084,0.076-0.175,0.145-0.268,0.213l0.042-0.013l0.041,0.155
				c0.04,0.165-0.11,0.251-0.174,0.289c-0.018,0.008-0.03,0.015-0.038,0.023c-0.108,0.079-0.235,0.158-0.363,0.231l0.457-0.079
				l-0.439,0.361c-0.175,0.144-0.402,0.223-0.637,0.289l0.343,0.021l-0.373,0.251c-0.202,0.132-0.478,0.157-0.747,0.183
				c-0.019,0-0.031,0.003-0.051,0.005l0.638,0.175L20.3,11.208C20.165,11.229,20.022,11.239,19.875,11.239z M17.893,9.911
				c0.002,0.104,0.194,0.398,0.306,0.508c0.311,0.3,1.018,0.518,1.677,0.518c0.003,0,0.003,0,0.003,0
				c-0.008-0.023-0.016-0.048-0.022-0.076l-0.028-0.145l0.145-0.033c0.138-0.028,0.285-0.043,0.427-0.056
				c0.097-0.01,0.193-0.018,0.285-0.034c-0.023-0.022-0.038-0.053-0.051-0.081l-0.071-0.149l0.154-0.056
				c0.102-0.036,0.208-0.066,0.309-0.096c0.101-0.028,0.192-0.053,0.278-0.084c-0.035-0.03-0.063-0.068-0.081-0.114l-0.051-0.135
				l0.135-0.056c0.193-0.083,0.391-0.19,0.568-0.302c-0.035-0.015-0.068-0.036-0.094-0.061l-0.127-0.12L21.79,9.23
				c0.071-0.056,0.146-0.109,0.225-0.167c0.083-0.061,0.17-0.122,0.245-0.185c-0.058-0.018-0.106-0.048-0.142-0.089l-0.086-0.106
				l0.096-0.096c0.063-0.062,0.127-0.12,0.19-0.178c0.077-0.066,0.153-0.135,0.222-0.203c-0.084-0.013-0.152-0.041-0.205-0.086
				l-0.093-0.082l0.059-0.106c0.074-0.129,0.188-0.221,0.298-0.312c0.053-0.041,0.099-0.079,0.137-0.119l0,0
				c-0.043,0-0.087-0.002-0.127,0L22.4,7.508l0.056-0.206c0.056-0.188,0.14-0.378,0.23-0.538c-0.035,0.002-0.078,0.002-0.119,0.002
				c-0.197,0-0.398-0.013-0.565-0.036L21.79,6.703l0.098-0.188c0.013-0.028,0.03-0.053,0.046-0.073
				c-0.158,0.007-0.32,0.045-0.473,0.083c-0.08,0.018-0.158,0.039-0.236,0.054L21.1,6.602l-0.045-0.117
				c-0.028-0.068-0.033-0.132-0.025-0.188c-0.046,0.015-0.093,0.03-0.139,0.043c-0.124,0.041-0.255,0.083-0.411,0.102l-0.154,0.018
				l-0.013-0.152c-0.005-0.046-0.003-0.087,0.005-0.123c-0.167,0.063-0.312,0.143-0.449,0.221l-0.13,0.076l-0.075-0.127
				c-0.003-0.005-0.011-0.01-0.019-0.018c-0.019-0.023-0.054-0.062-0.062-0.122C19.58,6.21,19.58,6.208,19.58,6.203
				c-0.061,0.041-0.116,0.081-0.175,0.125c-0.073,0.058-0.154,0.117-0.239,0.17l-0.102,0.064l-0.083-0.087
				c-0.043-0.043-0.076-0.099-0.097-0.165c-0.043,0.038-0.083,0.083-0.124,0.129c-0.067,0.066-0.13,0.135-0.206,0.201l-0.059,0.048
				l-0.073-0.02c-0.116-0.031-0.176-0.109-0.201-0.196c-0.056,0.058-0.106,0.12-0.162,0.183c-0.084,0.102-0.175,0.203-0.275,0.297
				l-0.129,0.12l-0.099-0.145c-0.018-0.028-0.035-0.056-0.048-0.086c-0.265,0.304-0.674,0.866-0.717,1.493
				c-0.03,0.411,0.143,0.696,0.548,0.912c1.037-0.871,2.33-1.554,3.94-2.09c0.027-0.023,0.061-0.033,0.099-0.033
				c0.082,0,0.147,0.053,0.163,0.135l0.035,0.18h-0.176c-1.45,0.772-2.491,1.479-3.188,2.157c-0.03,0.03-0.068,0.066-0.106,0.099
				C18.039,9.753,17.92,9.862,17.893,9.911z"/>
		</g>
	</g>
	<g>
		<g>
			<path fill="#FFFFFF" d="M13.325,6.167c-0.044,0-0.087-0.015-0.118-0.045l-0.041-0.044l-0.002-0.066V5.86l0.152-0.002v0.149
				l0.009-0.005v0.005l0.137,0.005h-0.137h0.137h-0.137V6.167z"/>
		</g>
	</g>
	<g>
		<g>
			<path fill="#FFFFFF" d="M18.94,6.235l-0.02-0.206c-0.003-0.046,0.013-0.091,0.043-0.124c0.03-0.033,0.07-0.051,0.113-0.051h0.126
				l0.025,0.124c0.018,0.073-0.025,0.145-0.098,0.178L18.94,6.235z M19.08,6.017l-0.003,0.14c0.041,0,0.079-0.018,0.108-0.048
				c0.025-0.029,0.04-0.066,0.038-0.104L19.08,6.017z M19.012,5.88c-0.048,0.018-0.094,0.083-0.076,0.157l0.135-0.025L19.012,5.88z"
				/>
		</g>
	</g>
	<g>
		<g>
			<path fill="#FFFFFF" d="M11.189,7.488l-0.19-0.056c-0.097-0.015-0.143-0.089-0.148-0.157l-0.005-0.206l0.193,0.053
				c0.096,0.015,0.145,0.092,0.145,0.16L11.189,7.488z M10.996,7.287L10.884,7.29c0.002,0.056,0.035,0.102,0.077,0.122L10.996,7.287
				z M11.072,7.145L11.039,7.27l0.114-0.005C11.15,7.211,11.117,7.165,11.072,7.145z"/>
		</g>
	</g>
	<g>
		<g>
			<path fill="#FFFFFF" d="M21.577,7.437h-0.365l0.002-0.152c0-0.089,0.073-0.163,0.165-0.163c0.082,0,0.147,0.053,0.163,0.135
				L21.577,7.437z M21.392,7.287l-0.145,0.028c0.01,0.063,0.065,0.109,0.132,0.109c0.074,0,0.136-0.061,0.138-0.137H21.392z"/>
		</g>
	</g>
	<g>
		<g>
			<path fill="#FFFFFF" d="M16.261,13.764c-0.785,0-1.763-0.22-2.179-0.71c-0.175-0.209-0.313-0.58-0.195-0.899
				c0.145-0.384,0.521-0.607,0.793-0.768l0.023-0.013c0.334-0.198,0.652-0.331,1.195-0.371c0.063-0.008,0.133-0.01,0.201-0.01
				c0.576,0,1.044,0.191,1.334,0.348c0.319,0.176,1.056,0.653,0.965,1.316c-0.065,0.465-0.633,0.81-1.096,0.96
				C17.006,13.713,16.647,13.764,16.261,13.764z M16.099,11.295c-0.058,0-0.12,0.002-0.179,0.008
				c-0.487,0.038-0.769,0.154-1.066,0.33l-0.018,0.013c-0.255,0.147-0.561,0.328-0.669,0.612c-0.071,0.198,0.018,0.452,0.143,0.6
				c0.302,0.358,1.104,0.604,1.95,0.604c0.354,0,0.682-0.043,0.945-0.129c0.401-0.132,0.851-0.412,0.892-0.716
				c0.065-0.48-0.544-0.866-0.813-1.011C17.031,11.462,16.612,11.295,16.099,11.295z"/>
		</g>
	</g>
	<g>
		<g>
			<path fill="#FFFFFF" d="M10.396,14.592c-0.03,0-0.056-0.002-0.083-0.005l-0.122-0.013l-0.01-0.124
				c-0.061-0.8,0.186-1.555,0.688-2.119c0.49-0.554,1.178-0.872,1.933-0.902c0.038-0.002,0.079-0.002,0.12-0.002
				c0.228,0,0.551,0.028,0.784,0.16l0.092,0.053l-0.021,0.107c-0.084,0.396-0.378,0.706-0.656,0.965
				c-0.661,0.63-1.326,1.235-2.151,1.702C10.762,14.531,10.572,14.592,10.396,14.592z M12.921,11.73c-0.036,0-0.074,0-0.109,0
				c-0.673,0.028-1.283,0.31-1.717,0.8c-0.419,0.472-0.64,1.089-0.62,1.754c0.102-0.015,0.221-0.058,0.346-0.132
				c0.797-0.452,1.445-1.041,2.096-1.658c0.22-0.208,0.439-0.432,0.536-0.693C13.314,11.755,13.132,11.73,12.921,11.73z"/>
		</g>
	</g>
	<g>
		<g>
			<path fill="#FFFFFF" d="M21.926,14.653l-0.141-0.002c-0.283-0.013-0.482-0.114-0.662-0.221c-0.263-0.15-0.541-0.343-0.803-0.563
				c-0.092-0.077-0.19-0.153-0.285-0.224c-0.152-0.119-0.312-0.246-0.455-0.378c-0.202-0.188-0.457-0.424-0.683-0.663
				c-0.025-0.031-0.056-0.062-0.086-0.094c-0.204-0.211-0.432-0.45-0.467-0.787l-0.019-0.117l0.114-0.043
				c0.229-0.082,0.478-0.122,0.747-0.122c0.67,0,1.417,0.277,1.864,0.688c0.396,0.366,1.036,1.161,0.89,2.391L21.926,14.653z
				 M18.666,11.803c0.067,0.186,0.219,0.343,0.363,0.495c0.03,0.033,0.063,0.063,0.091,0.096c0.215,0.234,0.465,0.463,0.664,0.65
				c0.135,0.123,0.281,0.236,0.437,0.358c0.097,0.074,0.195,0.15,0.292,0.231c0.249,0.206,0.512,0.394,0.76,0.536
				c0.116,0.068,0.236,0.131,0.384,0.163c0.068-1.014-0.47-1.677-0.809-1.987c-0.327-0.302-0.97-0.607-1.66-0.607
				C19.002,11.74,18.829,11.76,18.666,11.803z"/>
		</g>
	</g>
	<g>
		<g>
			<path fill="#FFFFFF" d="M19.269,18.593c-0.513,0-1.131-0.216-1.572-0.549c-0.213-0.163-0.482-0.454-0.645-0.696
				c-0.442-0.657-0.728-1.72-0.366-2.597c0.202-0.502,0.742-1.113,1.579-1.197c0.082-0.008,0.168-0.01,0.249-0.01
				c0.657,0,1.253,0.253,1.763,0.756c0.646,0.633,1.288,2.056,0.688,3.232c-0.329,0.645-0.993,1.062-1.693,1.062H19.269z
				 M18.514,13.844c-0.073,0-0.146,0.005-0.22,0.01c-0.702,0.068-1.156,0.586-1.326,1.008c-0.32,0.774-0.052,1.745,0.334,2.319
				c0.144,0.213,0.392,0.482,0.575,0.622c0.393,0.3,0.939,0.487,1.392,0.487v0.15l0.003-0.15c0.586,0,1.147-0.35,1.422-0.896
				c0.533-1.039-0.046-2.309-0.628-2.88C19.613,14.069,19.09,13.844,18.514,13.844z"/>
		</g>
	</g>
	<g>
		<g>
			<path fill="#FFFFFF" d="M13.165,18.691c-1.12,0-1.872-0.874-2.035-1.735c-0.159-0.837,0.168-1.688,0.498-2.16
				c0.335-0.484,1.042-1.078,1.928-1.164c0.074-0.007,0.15-0.013,0.222-0.013c0.754,0,1.455,0.402,1.79,1.023
				c0.279,0.516,0.358,1.212,0.211,1.861c-0.214,0.969-1.097,1.881-2.05,2.116C13.538,18.666,13.348,18.691,13.165,18.691z
				 M13.777,13.922c-0.062,0-0.128,0.003-0.193,0.008c-0.782,0.079-1.41,0.606-1.709,1.039c-0.318,0.457-0.582,1.235-0.447,1.932
				c0.137,0.74,0.779,1.489,1.737,1.489c0.161,0,0.323-0.02,0.493-0.062c0.838-0.208,1.639-1.039,1.826-1.89
				c0.131-0.574,0.056-1.206-0.18-1.653C15.021,14.259,14.422,13.922,13.777,13.922z"/>
		</g>
	</g>
	<g>
		<g>
			<path fill="#FFFFFF" d="M22.535,19.22c-0.331,0-0.576-0.549-0.622-0.657c-0.268-0.627-0.507-1.867-0.439-2.776
				c0.025-0.318,0.111-0.856,0.43-0.917c0.02-0.002,0.038-0.005,0.058-0.005c0.205,0,0.447,0.19,0.678,0.394
				c0.618,0.543,0.955,1.331,0.907,2.107c-0.031,0.546-0.221,1.062-0.549,1.489l-0.013,0.018c-0.132,0.173-0.274,0.337-0.437,0.348
				C22.543,19.22,22.54,19.22,22.535,19.22z M21.961,15.166c-0.053,0.018-0.158,0.247-0.186,0.644
				c-0.068,0.864,0.163,2.039,0.416,2.636c0.102,0.243,0.268,0.46,0.339,0.473c0.027-0.01,0.088-0.063,0.212-0.229l0.016-0.018
				c0.204-0.261,0.449-0.708,0.489-1.323c0.061-1.018-0.601-1.683-0.806-1.867C22.202,15.273,22.04,15.166,21.961,15.166z"/>
		</g>
	</g>
	<g>
		<g>
			<path fill="#FFFFFF" d="M9.642,19.281L9.642,19.281c-0.216-0.002-0.394-0.239-0.488-0.365c-0.262-0.356-0.531-0.976-0.531-1.559
				c-0.007-0.685,0.208-1.129,0.401-1.439c0.259-0.419,0.597-0.737,0.958-0.894c0.018-0.013,0.046-0.025,0.077-0.033
				c0.139-0.022,0.264,0.021,0.36,0.125c0.318,0.335,0.299,1.311,0.274,1.715c-0.046,0.812-0.297,1.682-0.62,2.156
				C10.025,19.055,9.855,19.281,9.642,19.281z M10.129,15.286c-0.005,0.005-0.01,0.007-0.015,0.01
				c-0.305,0.129-0.607,0.415-0.833,0.779c-0.257,0.417-0.366,0.8-0.358,1.28c0.005,0.51,0.247,1.075,0.476,1.379
				c0.157,0.214,0.223,0.242,0.244,0.244c0.03-0.002,0.116-0.068,0.18-0.163c0.3-0.433,0.529-1.238,0.572-2.001
				c0.033-0.606-0.013-1.3-0.193-1.493C10.17,15.291,10.147,15.286,10.129,15.286z"/>
		</g>
	</g>
	<g>
		<g>
			<path fill="#FFFFFF" d="M16.135,22.644c-0.025,0-0.051,0-0.076,0c-1.083-0.035-2.253-0.755-2.394-2.061
				c-0.076-0.713,0.287-1.384,0.492-1.637c0.341-0.43,1.05-0.879,1.868-0.912c0.043-0.003,0.084-0.003,0.127-0.003
				c0.715,0,1.389,0.267,1.852,0.733c0.446,0.457,0.795,1.293,0.553,2.134C18.272,21.892,17.231,22.644,16.135,22.644z
				 M16.152,18.33c-0.038,0-0.076,0-0.114,0c-0.725,0.034-1.346,0.425-1.646,0.801c-0.206,0.26-0.49,0.849-0.427,1.42
				c0.122,1.136,1.15,1.758,2.102,1.788c0.992,0.033,1.947-0.63,2.2-1.521c0.209-0.722-0.104-1.46-0.479-1.841
				C17.385,18.567,16.786,18.33,16.152,18.33z"/>
		</g>
	</g>
	<g>
		<g>
			<path fill="#FFFFFF" d="M19.645,23.354c-0.504,0-0.855-0.217-0.988-0.613c-0.165-0.482-0.025-1.079,0.04-1.315
				c0.161-0.546,0.57-1.224,1.045-1.728c0.398-0.418,0.767-0.681,1.16-0.814c0.136-0.048,0.229-0.064,0.414-0.088
				c0.043-0.005,0.086-0.005,0.128-0.005c0.316,0,0.735,0.146,0.938,0.849c0.124,0.442,0.124,1.136,0,1.578
				c-0.253,0.887-0.979,1.659-1.854,1.968C20.312,23.264,19.981,23.354,19.645,23.354z M21.443,19.091
				c-0.032,0-0.062,0.002-0.093,0.007c-0.18,0.018-0.245,0.03-0.35,0.068c-0.346,0.121-0.681,0.356-1.042,0.74
				c-0.437,0.462-0.828,1.106-0.973,1.604c-0.127,0.435-0.145,0.851-0.046,1.133c0.089,0.271,0.331,0.407,0.704,0.407
				c0.233,0,0.506-0.051,0.782-0.149c0.787-0.28,1.437-0.972,1.664-1.766c0.111-0.389,0.111-1.024,0-1.416
				C21.931,19.156,21.644,19.091,21.443,19.091z"/>
		</g>
	</g>
	<g>
		<g>
			<path fill="#FFFFFF" d="M12.624,23.368c-0.038,0-0.079-0.002-0.12-0.008c-1.097-0.084-2.11-0.892-2.471-1.967
				c-0.192-0.578-0.256-1.387,0.031-1.871c0.134-0.229,0.34-0.371,0.589-0.419c0.079-0.013,0.157-0.021,0.238-0.021
				c0.483,0,0.912,0.249,1.13,0.396c0.582,0.406,1.245,1.272,1.476,1.939c0.167,0.48,0.238,1.144-0.066,1.57
				C13.256,23.232,12.979,23.368,12.624,23.368z M10.891,19.383c-0.061,0-0.124,0.008-0.183,0.018
				c-0.17,0.03-0.292,0.122-0.383,0.271c-0.231,0.386-0.178,1.113-0.008,1.623c0.325,0.965,1.229,1.689,2.209,1.766
				c0.305,0.022,0.526-0.059,0.658-0.249c0.193-0.271,0.206-0.779,0.028-1.293c-0.208-0.607-0.833-1.425-1.364-1.79
				C11.664,19.601,11.293,19.383,10.891,19.383z"/>
		</g>
	</g>
	<g>
		<g>
			<path fill="#FFFFFF" d="M16.116,25.442c-0.914,0-1.565-0.434-1.949-0.795c-0.203-0.19-0.412-0.418-0.414-0.642
				c0-0.361,0.452-0.614,0.59-0.687c0.465-0.233,1.12-0.362,1.844-0.362c0.833,0,1.627,0.172,2.119,0.462l0.032,0.016l0.019,0.03
				c0.022,0.038,0.048,0.063,0.075,0.089c0.059,0.062,0.135,0.139,0.145,0.3c0.028,0.281-0.17,0.485-0.312,0.637
				c-0.025,0.021-0.043,0.038-0.059,0.061c-0.503,0.541-1.203,0.856-1.971,0.887C16.192,25.44,16.157,25.442,16.116,25.442z
				 M16.188,23.258c-0.676,0-1.285,0.118-1.712,0.331c-0.208,0.104-0.419,0.282-0.419,0.417c0,0.056,0.053,0.174,0.32,0.427
				c0.343,0.32,0.922,0.709,1.74,0.709c0.038,0,0.071-0.003,0.106-0.003c0.69-0.026,1.313-0.311,1.761-0.793
				c0.021-0.02,0.04-0.043,0.061-0.065c0.122-0.125,0.25-0.257,0.237-0.399c-0.009-0.056-0.02-0.068-0.067-0.118
				c-0.028-0.027-0.056-0.058-0.089-0.105C17.676,23.406,16.955,23.258,16.188,23.258z"/>
		</g>
	</g>
</g>
</svg>
