<?xml version="1.0" encoding="utf-8"?>
<!-- Generator: Adobe Illustrator 15.0.0, SVG Export Plug-In . SVG Version: 6.00 Build 0)  -->
<!DOCTYPE svg PUBLIC "-//W3C//DTD SVG 1.1//EN" "http://www.w3.org/Graphics/SVG/1.1/DTD/svg11.dtd">
<svg version="1.1" id="Layer_1" xmlns="http://www.w3.org/2000/svg" xmlns:xlink="http://www.w3.org/1999/xlink" x="0px" y="0px"
	 width="165.59px" height="165.59px" viewBox="0 0 165.59 165.59" enable-background="new 0 0 165.59 165.59" xml:space="preserve">
<g>
	<path fill="none" stroke="#FFFFFF" stroke-width="5" stroke-miterlimit="10" d="M132.975,125.494c0,1.169-0.947,2.113-2.113,2.113
		H34.482c-1.168,0-2.115-0.944-2.115-2.113V56.608c0-1.167,0.947-2.114,2.115-2.114h96.379c1.166,0,2.113,0.947,2.113,2.114V125.494
		L132.975,125.494z"/>
	<path fill="none" stroke="#FFFFFF" stroke-width="8" stroke-miterlimit="10" d="M59.339,55.608v-13.15
		c0-3.578,2.9-6.479,6.48-6.479h35.041c3.578,0,6.479,2.901,6.479,6.479v13.15"/>
	<circle fill="#FFFFFF" cx="129.686" cy="58.197" r="5.292"/>
	<circle fill="#FFFFFF" cx="35.906" cy="58.197" r="5.292"/>
	<circle fill="#FFFFFF" cx="129.686" cy="124.319" r="5.292"/>
	<circle fill="#FFFFFF" cx="35.906" cy="124.319" r="5.292"/>
	<g>
		<g>
			<polygon fill="#FFFFFF" points="84.926,74.884 84.926,92.061 76.399,92.061 			"/>
		</g>
		<g>
			<polygon fill="#FFFFFF" points="89.189,88.189 80.663,105.369 80.663,88.189 			"/>
		</g>
	</g>
	<circle fill="none" stroke="#FFFFFF" stroke-width="3" stroke-miterlimit="10" cx="82.794" cy="90.162" r="19.392"/>
</g>
</svg>
