<?xml version="1.0" encoding="utf-8"?>
<!-- Generator: Adobe Illustrator 15.0.0, SVG Export Plug-In . SVG Version: 6.00 Build 0)  -->
<!DOCTYPE svg PUBLIC "-//W3C//DTD SVG 1.1//EN" "http://www.w3.org/Graphics/SVG/1.1/DTD/svg11.dtd">
<svg version="1.1" id="Layer_1" xmlns="http://www.w3.org/2000/svg" xmlns:xlink="http://www.w3.org/1999/xlink" x="0px" y="0px"
	 width="162.187px" height="165.59px" viewBox="27.489 0 162.187 165.59" enable-background="new 27.489 0 162.187 165.59"
	 xml:space="preserve">
<g>
	<path fill="#424143" d="M108.582,1.222c-44.714,0-81.093,36.377-81.093,81.093c0,44.716,36.378,81.094,81.093,81.094
		c44.716,0,81.094-36.379,81.094-81.094C189.675,37.601,153.297,1.222,108.582,1.222 M178.375,80.812h-28.471
		c-0.33-9.198-3.675-17.636-9.08-24.358l10.201-10.203c1.761-1.76,1.761-4.618,0-6.382c-1.761-1.762-4.621-1.761-6.383,0
		l-10.2,10.202c-6.723-5.403-15.16-8.75-24.361-9.08v-28.47C147.386,13.314,177.583,43.508,178.375,80.812 M110.086,43.999
		c8.367,0.325,16.052,3.344,22.218,8.212L110.086,74.43V43.999z M107.079,77.438l-1.688,1.687c-0.493,0.492-0.831,1.072-1.046,1.688
		H70.269c0.773-19.952,16.856-36.037,36.81-36.809V77.438z M104.343,83.819c0.218,0.615,0.557,1.194,1.048,1.688
		c0.493,0.491,1.072,0.829,1.687,1.047v34.076c-19.955-0.777-36.036-16.859-36.811-36.812H104.343z M110.086,86.555
		c0.615-0.218,1.194-0.556,1.686-1.047l1.688-1.688h33.437c-0.773,19.953-16.856,36.034-36.81,36.812V86.555z M116.466,80.812
		l22.218-22.219c4.869,6.165,7.888,13.852,8.212,22.219H116.466z M107.079,12.521v28.47c-21.612,0.779-39.042,18.208-39.82,39.821
		H38.79C39.582,43.508,69.776,13.314,107.079,12.521 M38.79,83.819h28.471c0.777,21.613,18.207,39.042,39.819,39.818v28.471
		C69.776,151.317,39.582,121.122,38.79,83.819 M110.086,152.108v-28.471c21.611-0.776,39.04-18.205,39.819-39.818h28.471
		C177.583,121.122,147.386,151.317,110.086,152.108"/>
	<path fill="#3997D3" d="M126.209,28.365c2.963,0,5.363,2.403,5.363,5.367c0,2.959-2.4,5.363-5.363,5.363s-5.364-2.404-5.364-5.363
		C120.845,30.768,123.247,28.365,126.209,28.365"/>
	<path fill="#E56246" d="M87.236,65.918c2.529,0,4.576,2.051,4.576,4.575c0,2.527-2.048,4.577-4.576,4.577
		c-2.526,0-4.574-2.051-4.574-4.577S84.71,65.918,87.236,65.918"/>
	<path fill="#3997D3" d="M57.417,48.795c4.618,0,8.361,3.739,8.361,8.357s-3.743,8.365-8.361,8.365c-4.619,0-8.36-3.747-8.36-8.365
		S52.798,48.795,57.417,48.795"/>
</g>
</svg>
