<?xml version="1.0" encoding="utf-8"?>
<!-- Generator: Adobe Illustrator 15.0.0, SVG Export Plug-In . SVG Version: 6.00 Build 0)  -->
<!DOCTYPE svg PUBLIC "-//W3C//DTD SVG 1.1//EN" "http://www.w3.org/Graphics/SVG/1.1/DTD/svg11.dtd">
<svg version="1.1" id="Layer_1" xmlns="http://www.w3.org/2000/svg" xmlns:xlink="http://www.w3.org/1999/xlink" x="0px" y="0px"
	 width="115.226px" height="138.923px" viewBox="0 0 115.226 138.923" enable-background="new 0 0 115.226 138.923"
	 xml:space="preserve">
<g>
	<path fill="#424143" d="M57.612,12.849C26.396,12.849,1,38.245,1,69.462s25.396,56.612,56.612,56.612
		c31.218,0,56.613-25.396,56.613-56.612S88.83,12.849,57.612,12.849 M106.337,68.412H86.461c-0.231-6.421-2.566-12.312-6.339-17.005
		l7.121-7.123c1.229-1.229,1.229-3.224,0-4.455c-1.229-1.23-3.226-1.229-4.456,0l-7.12,7.122
		c-4.694-3.772-10.584-6.108-17.007-6.338V20.737C84.703,21.291,105.783,42.37,106.337,68.412 M58.663,42.713
		c5.841,0.227,11.206,2.334,15.511,5.733L58.663,63.957V42.713z M56.563,66.057l-1.178,1.178c-0.344,0.343-0.581,0.748-0.731,1.178
		H30.866c0.539-13.929,11.768-25.158,25.697-25.697V66.057z M54.653,70.512c0.152,0.429,0.389,0.834,0.732,1.179
		c0.344,0.343,0.748,0.579,1.177,0.731v23.789c-13.93-0.542-25.157-11.77-25.698-25.699H54.653z M58.663,72.422
		c0.43-0.152,0.833-0.389,1.177-0.731l1.177-1.179H84.36c-0.54,13.93-11.767,25.157-25.697,25.699V72.422z M63.117,68.412
		l15.511-15.511c3.398,4.304,5.506,9.67,5.732,15.511H63.117z M56.563,20.737v19.876c-15.088,0.543-27.256,12.711-27.799,27.799
		H8.889C9.442,42.37,30.521,21.291,56.563,20.737 M8.889,70.512h19.876c0.543,15.089,12.711,27.256,27.799,27.798v19.876
		C30.521,117.633,9.442,96.554,8.889,70.512 M58.663,118.186V98.31c15.087-0.542,27.254-12.709,27.798-27.798h19.876
		C105.783,96.554,84.703,117.633,58.663,118.186"/>
	<path fill="#3997D3" d="M69.919,31.799c2.068,0,3.744,1.677,3.744,3.746c0,2.066-1.676,3.744-3.744,3.744
		c-2.069,0-3.745-1.678-3.745-3.744C66.174,33.476,67.85,31.799,69.919,31.799"/>
	<path fill="#E56246" d="M42.711,58.015c1.765,0,3.194,1.432,3.194,3.194c0,1.764-1.43,3.195-3.194,3.195
		c-1.764,0-3.194-1.432-3.194-3.195C39.517,59.446,40.947,58.015,42.711,58.015"/>
	<path fill="#3997D3" d="M21.893,46.061c3.224,0,5.837,2.61,5.837,5.834s-2.613,5.84-5.837,5.84s-5.837-2.616-5.837-5.84
		S18.669,46.061,21.893,46.061"/>
</g>
</svg>
