<?xml version="1.0" encoding="utf-8"?>
<!-- Generator: Adobe Illustrator 15.0.0, SVG Export Plug-In . SVG Version: 6.00 Build 0)  -->
<!DOCTYPE svg PUBLIC "-//W3C//DTD SVG 1.1//EN" "http://www.w3.org/Graphics/SVG/1.1/DTD/svg11.dtd">
<svg version="1.1" id="Layer_1" xmlns="http://www.w3.org/2000/svg" xmlns:xlink="http://www.w3.org/1999/xlink" x="0px" y="0px"
	 width="53.5px" height="159.845px" viewBox="26.5 -49.156 53.5 159.845" enable-background="new 26.5 -49.156 53.5 159.845"
	 xml:space="preserve">
<g>
	<path fill="#3ABEEE" d="M60.782,39.747c-0.347,0.88-1.343,1.313-2.221,0.965c-0.881-0.348-1.312-1.343-0.966-2.223
		c0.348-0.879,1.344-1.312,2.222-0.964C60.696,37.872,61.13,38.867,60.782,39.747z"/>
	<path fill="#3ABEEE" d="M56.003,35.27c-0.348,0.88-1.343,1.312-2.222,0.964c-0.88-0.348-1.312-1.343-0.965-2.223
		c0.347-0.878,1.342-1.312,2.223-0.964C55.917,33.395,56.35,34.391,56.003,35.27z"/>
	<path fill="#3ABEEE" d="M62.08,29.925c-0.864,2.197-3.347,3.273-5.54,2.408c-2.197-0.865-3.275-3.349-2.409-5.543
		c0.869-2.196,3.351-3.271,5.546-2.407C61.867,25.249,62.946,27.732,62.08,29.925z"/>
	<path fill="#3ABEEE" d="M55.295,88.383c-0.414,1.051-1.603,1.568-2.653,1.154c-1.05-0.414-1.567-1.604-1.153-2.652
		c0.417-1.051,1.604-1.566,2.655-1.152C55.193,86.144,55.709,87.334,55.295,88.383z"/>
	<path fill="#3ABEEE" d="M62.796,11.812c-0.342,0.864-1.319,1.288-2.183,0.948c-0.866-0.341-1.288-1.319-0.948-2.184
		c0.341-0.864,1.318-1.289,2.183-0.948C62.711,9.969,63.137,10.949,62.796,11.812z"/>
	<path fill="#3ABEEE" d="M59.666,78.449c-0.551,0.77-1.619,0.947-2.391,0.396c-0.77-0.553-0.944-1.621-0.396-2.391
		c0.553-0.771,1.622-0.947,2.391-0.396C60.04,76.609,60.216,77.679,59.666,78.449z"/>
	<circle fill="#3ABEEE" cx="48.172" cy="54.577" r="1.713"/>
	<path fill="#3ABEEE" d="M64.923,69.15c-0.552,0.77-1.621,0.947-2.389,0.396c-0.771-0.553-0.947-1.621-0.396-2.391
		s1.62-0.945,2.391-0.395C65.297,67.312,65.473,68.383,64.923,69.15z"/>
	<path fill="#3ABEEE" d="M67.07,17.09c-0.347,0.879-1.342,1.311-2.221,0.965c-0.881-0.349-1.313-1.344-0.966-2.224
		c0.348-0.879,1.342-1.312,2.223-0.965C66.985,15.213,67.418,16.21,67.07,17.09z"/>
	<circle fill="#3ABEEE" cx="58.737" cy="18.484" r="3.934"/>
	<circle fill="#3ABEEE" cx="60.723" cy="51.676" r="5.668"/>
	<path fill="#3ABEEE" d="M60.803,42.483c-1.519,3.851-5.871,5.741-9.722,4.221c-3.849-1.519-5.738-5.872-4.22-9.722
		c1.52-3.848,5.872-5.738,9.721-4.22C60.433,34.282,62.321,38.635,60.803,42.483z"/>
	<path fill="#3ABEEE" d="M61.251,69.31c-1.302,3.297-5.025,4.914-8.32,3.613c-3.294-1.301-4.911-5.025-3.61-8.318
		c1.3-3.295,5.024-4.912,8.318-3.613C60.934,62.293,62.549,66.017,61.251,69.31z"/>
	<path fill="#3ABEEE" d="M59.865,23.501c-0.129,0.33-0.501,0.492-0.829,0.363c-0.33-0.131-0.493-0.501-0.362-0.833
		c0.129-0.329,0.501-0.49,0.832-0.361C59.834,22.799,59.996,23.171,59.865,23.501z"/>
	<path fill="#3ABEEE" d="M62.4,32.39c-0.131,0.329-0.505,0.493-0.832,0.363c-0.33-0.132-0.492-0.504-0.362-0.834
		c0.131-0.329,0.504-0.491,0.833-0.361S62.531,32.061,62.4,32.39z"/>
	<path fill="#3ABEEE" d="M45.856,39.969c-0.13,0.33-0.503,0.491-0.832,0.362c-0.331-0.132-0.492-0.503-0.362-0.834
		c0.13-0.329,0.502-0.491,0.833-0.361C45.824,39.265,45.985,39.638,45.856,39.969z"/>
	<path fill="#3ABEEE" d="M68.132,45.816c-0.163,0.413-0.631,0.617-1.042,0.455c-0.414-0.164-0.617-0.631-0.454-1.046
		c0.162-0.413,0.632-0.616,1.043-0.452C68.091,44.936,68.295,45.404,68.132,45.816z"/>
	<path fill="#3ABEEE" d="M65.683,46.423c-0.207,0.53-0.804,0.79-1.33,0.583c-0.529-0.21-0.789-0.807-0.581-1.335
		s0.808-0.788,1.334-0.577C65.632,45.299,65.892,45.896,65.683,46.423z"/>
	<path fill="#3ABEEE" d="M54.918,24.917c-0.348,0.883-1.345,1.317-2.227,0.972c-0.886-0.348-1.317-1.348-0.97-2.234
		c0.348-0.88,1.349-1.312,2.233-0.964C54.834,23.037,55.266,24.036,54.918,24.917z"/>
	<path fill="#3ABEEE" d="M62.426,4.945c-0.156,0.398-0.604,0.591-0.999,0.436c-0.397-0.156-0.592-0.605-0.436-1.002
		c0.156-0.396,0.605-0.59,1.002-0.435C62.388,4.1,62.582,4.548,62.426,4.945z"/>
	<path fill="#3ABEEE" d="M62.776,9.227c-0.122,0.314-0.477,0.467-0.787,0.344c-0.313-0.123-0.469-0.476-0.342-0.79
		c0.121-0.314,0.475-0.467,0.787-0.344C62.748,8.561,62.9,8.914,62.776,9.227z"/>
	<path fill="#3ABEEE" d="M59.5,12.419c-0.206,0.524-0.797,0.779-1.317,0.576c-0.522-0.208-0.778-0.8-0.573-1.321
		c0.206-0.522,0.797-0.778,1.321-0.571C59.451,11.306,59.708,11.897,59.5,12.419z"/>
	<path fill="#3ABEEE" d="M67.226,2.464c-0.207,0.523-0.798,0.779-1.318,0.574c-0.521-0.206-0.778-0.796-0.572-1.32
		c0.205-0.522,0.795-0.778,1.319-0.571C67.176,1.35,67.432,1.942,67.226,2.464z"/>
	<path fill="#3ABEEE" d="M54.43,3.111c-0.132,0.331-0.504,0.493-0.832,0.362c-0.331-0.13-0.492-0.5-0.362-0.833
		c0.129-0.329,0.503-0.491,0.833-0.36C54.396,2.409,54.559,2.783,54.43,3.111z"/>
	<circle fill="#3ABEEE" cx="62.047" cy="13.521" r="0.641"/>
	<path fill="#3ABEEE" d="M59.077,14.054c-0.114,0.288-0.44,0.428-0.726,0.315c-0.289-0.114-0.43-0.439-0.315-0.726
		c0.112-0.288,0.438-0.429,0.727-0.315C59.049,13.441,59.189,13.766,59.077,14.054z"/>
	<path fill="#3ABEEE" d="M54.765,19.678c-0.114,0.289-0.44,0.428-0.726,0.318c-0.289-0.115-0.43-0.44-0.317-0.728
		c0.114-0.288,0.439-0.429,0.728-0.315C54.736,19.066,54.877,19.39,54.765,19.678z"/>
	<path fill="#3ABEEE" d="M57.718,14.217c-0.146,0.369-0.562,0.549-0.928,0.405c-0.368-0.146-0.549-0.56-0.403-0.928
		c0.144-0.369,0.562-0.548,0.929-0.403C57.682,13.433,57.862,13.849,57.718,14.217z"/>
	<path fill="#3ABEEE" d="M62.809,22.06c-0.132,0.331-0.504,0.492-0.832,0.363c-0.331-0.132-0.492-0.503-0.362-0.834
		c0.129-0.33,0.503-0.491,0.834-0.361C62.776,21.358,62.938,21.73,62.809,22.06z"/>
	<path fill="#3ABEEE" d="M61.491,6.218c-0.14,0.327-0.515,0.481-0.838,0.346c-0.331-0.137-0.483-0.514-0.347-0.839
		c0.138-0.327,0.512-0.481,0.841-0.345C61.472,5.515,61.627,5.891,61.491,6.218z"/>
	<path fill="#3ABEEE" d="M52.121,75.205c-0.348,0.881-1.341,1.312-2.223,0.967c-0.88-0.348-1.311-1.344-0.964-2.225
		c0.348-0.879,1.341-1.312,2.222-0.965C52.037,73.33,52.468,74.326,52.121,75.205z"/>
	<path fill="#3ABEEE" d="M50.408,6.189C50.06,7.068,49.065,7.5,48.185,7.153c-0.879-0.348-1.312-1.342-0.964-2.224
		c0.346-0.879,1.341-1.312,2.221-0.963C50.325,4.315,50.755,5.309,50.408,6.189z"/>
	<path fill="#3ABEEE" d="M62.741,42.121c-0.142,0.363-0.552,0.539-0.911,0.398c-0.361-0.142-0.541-0.552-0.397-0.913
		c0.145-0.361,0.553-0.538,0.914-0.396C62.706,41.35,62.885,41.761,62.741,42.121z"/>
	<path fill="#3ABEEE" d="M76.366,46.11c-0.099,0.252-0.383,0.375-0.632,0.276c-0.251-0.099-0.374-0.381-0.274-0.634
		c0.1-0.25,0.383-0.372,0.633-0.273C76.341,45.576,76.465,45.86,76.366,46.11z"/>
	<path fill="#3ABEEE" d="M55.882,33.713c-0.13,0.33-0.502,0.492-0.832,0.363c-0.329-0.131-0.492-0.502-0.362-0.833
		c0.131-0.33,0.503-0.493,0.835-0.361C55.849,33.011,56.012,33.383,55.882,33.713z"/>
	<path fill="#3ABEEE" d="M50.708,32.395c-0.133,0.335-0.511,0.5-0.845,0.37c-0.336-0.133-0.501-0.512-0.367-0.849
		c0.132-0.334,0.512-0.5,0.847-0.368C50.675,31.681,50.84,32.06,50.708,32.395z"/>
	<path fill="#3ABEEE" d="M62.547,34.59c-0.261,0.66-1.007,0.984-1.662,0.724c-0.662-0.261-0.985-1.006-0.727-1.665
		c0.263-0.657,1.006-0.983,1.667-0.721C62.481,33.188,62.806,33.931,62.547,34.59z"/>
	<path fill="#3ABEEE" d="M53.863,27.156c-0.129,0.33-0.502,0.494-0.829,0.363c-0.331-0.13-0.493-0.502-0.362-0.833
		c0.129-0.328,0.503-0.49,0.833-0.36C53.833,26.455,53.996,26.828,53.863,27.156z"/>
	<path fill="#3ABEEE" d="M53.563,49.749c-0.346,0.881-1.342,1.314-2.221,0.966c-0.881-0.348-1.312-1.343-0.965-2.223
		c0.348-0.88,1.341-1.312,2.224-0.963C53.479,47.876,53.911,48.869,53.563,49.749z"/>
	<path fill="#3ABEEE" d="M55.405,57.699c-0.49,1.244-1.897,1.855-3.143,1.365c-1.243-0.494-1.852-1.896-1.361-3.143
		c0.489-1.242,1.894-1.853,3.139-1.362C55.284,55.05,55.896,56.457,55.405,57.699z"/>
	<circle fill="#3ABEEE" cx="67.73" cy="54.765" r="1.713"/>
	<path fill="#3ABEEE" d="M66.151,63.051c-0.547,1.383-2.111,2.062-3.495,1.518c-1.385-0.549-2.062-2.111-1.517-3.496
		c0.546-1.385,2.108-2.061,3.494-1.518C66.017,60.101,66.696,61.668,66.151,63.051z"/>
	<circle fill="#3ABEEE" cx="65.477" cy="10.221" r="1.713"/>
	<circle fill="#3ABEEE" cx="70.215" cy="49.438" r="3.933"/>
	<path fill="#3ABEEE" d="M46.008,53.8c-0.799,2.02-3.082,3.013-5.104,2.215c-2.02-0.798-3.012-3.081-2.213-5.104
		c0.797-2.021,3.08-3.013,5.102-2.214C45.813,49.496,46.804,51.778,46.008,53.8z"/>
	<path fill="#3ABEEE" d="M56.354,82.83c-0.796,2.02-3.079,3.014-5.101,2.215c-2.021-0.799-3.013-3.08-2.214-5.102
		c0.797-2.023,3.082-3.016,5.101-2.217C56.161,78.523,57.152,80.808,56.354,82.83z"/>
	<path fill="#3ABEEE" d="M56.426,8.015c-0.13,0.331-0.503,0.493-0.833,0.363c-0.329-0.131-0.491-0.501-0.361-0.833
		c0.13-0.33,0.504-0.491,0.832-0.362C56.394,7.313,56.556,7.686,56.426,8.015z"/>
	<circle fill="#3ABEEE" cx="64.166" cy="24.579" r="0.642"/>
	<path fill="#3ABEEE" d="M72.003,14.977c-0.13,0.33-0.503,0.491-0.83,0.363c-0.331-0.13-0.494-0.502-0.362-0.833
		c0.13-0.328,0.502-0.492,0.833-0.36C71.971,14.276,72.134,14.649,72.003,14.977z"/>
	<path fill="#3ABEEE" d="M59.898,9.872c-0.143,0.361-0.552,0.538-0.914,0.397c-0.362-0.143-0.539-0.553-0.396-0.916
		c0.143-0.36,0.551-0.539,0.914-0.396C59.864,9.099,60.042,9.509,59.898,9.872z"/>
	<path fill="#3ABEEE" d="M62.68,45.154c-0.248,0.631-0.961,0.94-1.591,0.691c-0.632-0.25-0.938-0.961-0.691-1.592
		c0.249-0.629,0.959-0.939,1.591-0.69C62.619,43.813,62.93,44.524,62.68,45.154z"/>
	<path fill="#3ABEEE" d="M53.465,30.079c-0.451,1.147-1.75,1.712-2.896,1.26c-1.151-0.454-1.712-1.752-1.259-2.9
		c0.454-1.147,1.748-1.71,2.898-1.256C53.354,27.637,53.917,28.931,53.465,30.079z"/>
	<circle fill="#3ABEEE" cx="57.19" cy="3.748" r="1.226"/>
	<path fill="#3ABEEE" d="M61.691,8.494C61.44,9.124,60.729,9.435,60.1,9.186c-0.63-0.249-0.94-0.962-0.691-1.592
		c0.248-0.629,0.96-0.939,1.591-0.688C61.63,7.155,61.938,7.865,61.691,8.494z"/>
	<path fill="#3ABEEE" d="M47.675,46.809c-0.387,0.979-1.494,1.462-2.474,1.076c-0.98-0.386-1.461-1.497-1.075-2.475
		c0.384-0.979,1.493-1.458,2.473-1.073C47.58,44.724,48.061,45.828,47.675,46.809z"/>
	<path fill="#3ABEEE" d="M42.745,46.975c-0.249,0.629-0.961,0.94-1.591,0.692c-0.63-0.251-0.94-0.963-0.691-1.592
		c0.248-0.631,0.96-0.938,1.591-0.689C42.685,45.635,42.994,46.346,42.745,46.975z"/>
	<circle fill="#3ABEEE" cx="49.476" cy="47.302" r="0.942"/>
	<path fill="#3ABEEE" d="M39.566,44.028c-0.249,0.627-0.96,0.939-1.591,0.69c-0.631-0.249-0.94-0.96-0.691-1.591
		c0.247-0.63,0.96-0.939,1.59-0.69C39.504,42.686,39.814,43.398,39.566,44.028z"/>
	<path fill="#3ABEEE" d="M68.241,59.699c-0.248,0.629-0.961,0.939-1.591,0.689c-0.63-0.248-0.94-0.961-0.69-1.59
		c0.247-0.631,0.961-0.939,1.59-0.689C68.181,58.359,68.49,59.07,68.241,59.699z"/>
	<path fill="#3ABEEE" d="M45.77,42.969c-0.333,0.842-1.285,1.257-2.126,0.924c-0.844-0.333-1.256-1.285-0.924-2.126
		c0.333-0.841,1.284-1.255,2.126-0.921C45.688,41.177,46.101,42.129,45.77,42.969z"/>
	<path fill="#3ABEEE" d="M47.189,35.683c-0.137,0.349-0.53,0.518-0.876,0.381c-0.348-0.137-0.52-0.53-0.38-0.878
		c0.137-0.347,0.529-0.518,0.877-0.38C47.156,34.944,47.327,35.336,47.189,35.683z"/>
	<path fill="#3ABEEE" d="M62.789,3.587c-0.083,0.211-0.321,0.316-0.531,0.232c-0.21-0.083-0.315-0.321-0.23-0.532
		c0.082-0.211,0.32-0.313,0.532-0.229C62.768,3.138,62.872,3.376,62.789,3.587z"/>
	<circle fill="#3ABEEE" cx="62.12" cy="5.97" r="0.409"/>
	<circle fill="#3ABEEE" cx="61.708" cy="3.498" r="0.25"/>
	<path fill="#3ABEEE" d="M62.872,4.231c-0.051,0.13-0.196,0.193-0.324,0.142c-0.13-0.051-0.192-0.197-0.141-0.326
		c0.05-0.128,0.195-0.192,0.325-0.14C62.86,3.957,62.923,4.103,62.872,4.231z"/>
	<circle fill="#3ABEEE" cx="62.528" cy="5.328" r="0.207"/>
	<circle fill="#3ABEEE" cx="61.708" cy="6.612" r="0.208"/>
	<circle fill="#3ABEEE" cx="62.48" cy="7.988" r="0.207"/>
	<circle fill="#3ABEEE" cx="58.557" cy="10.549" r="0.328"/>
	<circle fill="#3ABEEE" cx="54.45" cy="18.484" r="0.207"/>
	<path fill="#3ABEEE" d="M57.605,12.922c-0.077,0.19-0.29,0.286-0.479,0.209c-0.191-0.075-0.286-0.289-0.209-0.48
		c0.074-0.189,0.289-0.283,0.478-0.208C57.587,12.518,57.68,12.733,57.605,12.922z"/>
	<circle fill="#3ABEEE" cx="57.838" cy="13.289" r="0.208"/>
	<circle fill="#3ABEEE" cx="59.322" cy="10.683" r="0.207"/>
	<circle fill="#3ABEEE" cx="57.996" cy="10.89" r="0.208"/>
	<path fill="#3ABEEE" d="M59.959,13.451c-0.092,0.227-0.348,0.339-0.574,0.25c-0.229-0.091-0.341-0.349-0.251-0.575
		c0.09-0.228,0.349-0.338,0.575-0.249C59.937,12.966,60.047,13.223,59.959,13.451z"/>
	<path fill="#3ABEEE" d="M56.519,14.984c-0.072,0.179-0.271,0.267-0.448,0.198c-0.179-0.072-0.268-0.271-0.195-0.45
		c0.068-0.177,0.271-0.264,0.449-0.196C56.502,14.606,56.588,14.807,56.519,14.984z"/>
	<path fill="#3ABEEE" d="M60.877,14.374c-0.12,0.297-0.454,0.444-0.752,0.326c-0.3-0.117-0.445-0.454-0.326-0.751
		c0.116-0.298,0.454-0.443,0.752-0.326S60.994,14.076,60.877,14.374z"/>
	<path fill="#3ABEEE" d="M61.241,13.506c-0.071,0.179-0.271,0.267-0.449,0.197c-0.178-0.069-0.268-0.271-0.195-0.449
		c0.069-0.178,0.271-0.265,0.449-0.195C61.224,13.128,61.311,13.329,61.241,13.506z"/>
	<path fill="#3ABEEE" d="M62.552,15.086c-0.129,0.318-0.486,0.475-0.804,0.349c-0.321-0.126-0.478-0.487-0.35-0.804
		c0.124-0.319,0.484-0.475,0.804-0.349C62.521,14.407,62.677,14.767,62.552,15.086z"/>
	<path fill="#3ABEEE" d="M62.831,16.089c-0.092,0.227-0.348,0.339-0.574,0.25c-0.229-0.09-0.342-0.348-0.25-0.576
		c0.088-0.227,0.348-0.338,0.575-0.249C62.809,15.605,62.92,15.862,62.831,16.089z"/>
	<circle fill="#3ABEEE" cx="56.335" cy="11.194" r="0.208"/>
	<circle fill="#3ABEEE" cx="61.264" cy="14.163" r="0.207"/>
	<path fill="#3ABEEE" d="M59.644,14.239c-0.043,0.106-0.161,0.159-0.269,0.115c-0.106-0.042-0.159-0.163-0.117-0.268
		c0.042-0.106,0.163-0.16,0.27-0.116C59.634,14.01,59.685,14.131,59.644,14.239z"/>
	<path fill="#3ABEEE" d="M55.814,21.694c-0.044,0.106-0.163,0.159-0.27,0.116c-0.105-0.042-0.158-0.162-0.117-0.268
		c0.043-0.106,0.164-0.159,0.27-0.117C55.805,21.466,55.855,21.587,55.814,21.694z"/>
	<path fill="#3ABEEE" d="M55.917,24.051c-0.064,0.164-0.249,0.243-0.41,0.179c-0.165-0.065-0.246-0.25-0.181-0.412
		c0.063-0.164,0.25-0.243,0.413-0.178C55.902,23.703,55.982,23.886,55.917,24.051z"/>
	<circle fill="#3ABEEE" cx="61.57" cy="24.897" r="0.319"/>
	<circle fill="#3ABEEE" cx="62.627" cy="12.671" r="0.208"/>
	<circle fill="#3ABEEE" cx="60.196" cy="12.965" r="0.207"/>
	<circle fill="#3ABEEE" cx="62.528" cy="6.612" r="0.208"/>
	<path fill="#3ABEEE" d="M62.641,2.719c-0.05,0.128-0.195,0.192-0.324,0.141c-0.13-0.051-0.193-0.197-0.142-0.326
		c0.05-0.129,0.195-0.192,0.324-0.14C62.629,2.442,62.691,2.589,62.641,2.719z"/>
	<path fill="#3ABEEE" d="M60.405,1.681c-0.051,0.131-0.196,0.194-0.324,0.143c-0.132-0.051-0.194-0.198-0.143-0.327
		c0.05-0.128,0.195-0.192,0.325-0.14C60.393,1.406,60.455,1.553,60.405,1.681z"/>
	<path fill="#3ABEEE" d="M62.843,1.933c-0.051,0.128-0.196,0.192-0.324,0.141c-0.13-0.05-0.194-0.197-0.143-0.327
		c0.051-0.129,0.197-0.192,0.327-0.139C62.832,1.659,62.895,1.803,62.843,1.933z"/>
	<circle fill="#3ABEEE" cx="62.211" cy="7.229" r="0.409"/>
	<circle fill="#3ABEEE" cx="70.97" cy="52.945" r="0.371"/>
	<path fill="#3ABEEE" d="M72.148,54.193c-0.13,0.328-0.504,0.49-0.832,0.361c-0.329-0.132-0.492-0.503-0.36-0.834
		c0.13-0.329,0.502-0.491,0.833-0.357C72.117,53.49,72.277,53.863,72.148,54.193z"/>
	<circle fill="#3ABEEE" cx="76.229" cy="45.045" r="0.25"/>
	<circle fill="#3ABEEE" cx="75.425" cy="44.989" r="0.222"/>
	<path fill="#3ABEEE" d="M74.737,45.292c-0.045,0.114-0.173,0.17-0.286,0.125c-0.115-0.045-0.171-0.173-0.124-0.288
		c0.044-0.113,0.172-0.169,0.287-0.124C74.727,45.05,74.782,45.178,74.737,45.292z"/>
	<path fill="#3ABEEE" d="M74.177,46.062c-0.066,0.166-0.254,0.248-0.42,0.182c-0.167-0.065-0.249-0.256-0.183-0.421
		c0.065-0.167,0.254-0.249,0.422-0.182C74.159,45.705,74.242,45.895,74.177,46.062z"/>
	<path fill="#3ABEEE" d="M71.999,45.551c-0.06,0.149-0.228,0.224-0.376,0.166c-0.153-0.06-0.226-0.229-0.166-0.379
		c0.059-0.151,0.228-0.224,0.379-0.166C71.984,45.232,72.058,45.402,71.999,45.551z"/>
	<circle fill="#3ABEEE" cx="69.81" cy="45.044" r="0.291"/>
	<path fill="#3ABEEE" d="M69.041,45.471c-0.074,0.192-0.289,0.287-0.479,0.21c-0.191-0.075-0.286-0.29-0.209-0.482
		c0.074-0.193,0.288-0.286,0.48-0.209C69.024,45.067,69.117,45.282,69.041,45.471z"/>
	<path fill="#3ABEEE" d="M75.179,46.083c-0.082,0.211-0.32,0.316-0.529,0.231c-0.213-0.084-0.315-0.322-0.232-0.532
		c0.082-0.21,0.322-0.315,0.531-0.23C75.161,45.634,75.262,45.871,75.179,46.083z"/>
	<circle fill="#3ABEEE" cx="74.472" cy="49.228" r="0.211"/>
	<path fill="#3ABEEE" d="M73.521,45.726c-0.154,0.371-0.581,0.546-0.95,0.391c-0.374-0.155-0.546-0.582-0.391-0.954
		c0.153-0.372,0.58-0.545,0.953-0.39C73.505,44.929,73.678,45.354,73.521,45.726z"/>
	<path fill="#3ABEEE" d="M75.606,47.588C75.434,48,74.96,48.195,74.55,48.023c-0.414-0.172-0.606-0.648-0.435-1.061
		c0.172-0.409,0.646-0.606,1.059-0.432C75.586,46.702,75.78,47.175,75.606,47.588z"/>
	<path fill="#3ABEEE" d="M73.736,43.441c-0.099,0.235-0.368,0.347-0.602,0.247c-0.236-0.099-0.346-0.367-0.246-0.602
		c0.096-0.233,0.366-0.345,0.601-0.247C73.725,42.938,73.833,43.207,73.736,43.441z"/>
	<circle fill="#3ABEEE" cx="62.214" cy="36.333" r="0.409"/>
	<path fill="#3ABEEE" d="M62.675,37.897c-0.15,0.385-0.585,0.573-0.967,0.422c-0.385-0.151-0.575-0.586-0.422-0.969
		c0.151-0.382,0.584-0.573,0.967-0.42C62.638,37.079,62.823,37.514,62.675,37.897z"/>
	<circle fill="#3ABEEE" cx="59.709" cy="33.205" r="0.439"/>
	<path fill="#3ABEEE" d="M48.851,31.49c-0.082,0.21-0.321,0.314-0.53,0.231c-0.211-0.083-0.316-0.321-0.23-0.533
		c0.082-0.21,0.319-0.312,0.53-0.229C48.831,31.042,48.934,31.279,48.851,31.49z"/>
	<circle fill="#3ABEEE" cx="47.65" cy="34.52" r="0.409"/>
	<circle fill="#3ABEEE" cx="53.269" cy="21.618" r="0.409"/>
	<path fill="#3ABEEE" d="M54.049,31.526c-0.103,0.202-0.351,0.282-0.551,0.181c-0.202-0.104-0.282-0.35-0.179-0.553
		c0.103-0.202,0.349-0.283,0.551-0.18S54.151,31.323,54.049,31.526z"/>
	<circle fill="#3ABEEE" cx="51.388" cy="26.007" r="0.409"/>
	<path fill="#3ABEEE" d="M55.533,22.607c-0.101,0.2-0.35,0.281-0.55,0.179c-0.201-0.105-0.283-0.349-0.179-0.553
		c0.103-0.201,0.349-0.281,0.551-0.178C55.556,22.158,55.636,22.404,55.533,22.607z"/>
	<path fill="#3ABEEE" d="M55.008,21.276c-0.156,0.308-0.533,0.43-0.838,0.275c-0.309-0.158-0.431-0.533-0.273-0.84
		c0.158-0.307,0.532-0.429,0.841-0.273C55.042,20.594,55.162,20.969,55.008,21.276z"/>
	<path fill="#3ABEEE" d="M61.612,23.22c-0.156,0.306-0.532,0.429-0.836,0.274c-0.309-0.158-0.431-0.534-0.272-0.841
		c0.156-0.306,0.53-0.429,0.839-0.272C61.647,22.537,61.769,22.913,61.612,23.22z"/>
	<path fill="#3ABEEE" d="M62.578,23.71c-0.102,0.201-0.351,0.28-0.55,0.179c-0.203-0.103-0.285-0.348-0.18-0.552
		c0.103-0.201,0.35-0.281,0.55-0.179C62.602,23.26,62.68,23.507,62.578,23.71z"/>
	<path fill="#3ABEEE" d="M57.12,23.125c-0.163,0.318-0.554,0.444-0.869,0.285c-0.32-0.165-0.449-0.553-0.284-0.874
		c0.163-0.318,0.55-0.444,0.871-0.283C57.156,22.415,57.281,22.804,57.12,23.125z"/>
	<path fill="#3ABEEE" d="M49.138,33.485c-0.285,0.562-0.977,0.786-1.536,0.501c-0.564-0.288-0.791-0.978-0.501-1.542
		c0.289-0.562,0.976-0.786,1.54-0.499C49.202,32.232,49.423,32.921,49.138,33.485z"/>
	<path fill="#3ABEEE" d="M53.448,52.193c-0.135,0.264-0.459,0.368-0.722,0.235c-0.265-0.137-0.371-0.458-0.234-0.723
		c0.135-0.265,0.457-0.369,0.722-0.235C53.477,51.605,53.582,51.928,53.448,52.193z"/>
	<path fill="#3ABEEE" d="M48.947,51.708c-0.102,0.201-0.35,0.28-0.55,0.179c-0.203-0.105-0.284-0.35-0.18-0.553
		c0.104-0.2,0.349-0.283,0.551-0.178C48.97,51.258,49.05,51.505,48.947,51.708z"/>
	<circle fill="#3ABEEE" cx="45.259" cy="37.406" r="0.409"/>
	<circle fill="#3ABEEE" cx="43.241" cy="44.692" r="0.409"/>
	<path fill="#3ABEEE" d="M38.153,45.885c-0.101,0.202-0.349,0.282-0.549,0.18c-0.203-0.105-0.285-0.35-0.179-0.552
		c0.103-0.202,0.349-0.282,0.551-0.178C38.177,45.438,38.255,45.683,38.153,45.885z"/>
	<circle fill="#3ABEEE" cx="47.567" cy="51.522" r="0.409"/>
	<circle fill="#3ABEEE" cx="40.822" cy="58.313" r="0.409"/>
	<path fill="#3ABEEE" d="M40.332,59.992c-0.102,0.201-0.35,0.283-0.55,0.178c-0.202-0.102-0.284-0.348-0.179-0.551
		c0.103-0.201,0.349-0.281,0.551-0.178C40.355,59.543,40.436,59.789,40.332,59.992z"/>
	<path fill="#3ABEEE" d="M36.348,50.197c-0.102,0.201-0.35,0.281-0.549,0.18c-0.203-0.104-0.286-0.349-0.18-0.553
		c0.103-0.201,0.349-0.281,0.551-0.177C36.37,49.749,36.45,49.993,36.348,50.197z"/>
	<path fill="#3ABEEE" d="M40.105,55.985c0.015,0.267-0.19,0.497-0.455,0.512c-0.269,0.016-0.498-0.188-0.513-0.457
		c-0.016-0.267,0.19-0.494,0.457-0.511C39.861,55.513,40.089,55.718,40.105,55.985z"/>
	<path fill="#3ABEEE" d="M47.112,56.984c-0.102,0.203-0.349,0.283-0.55,0.18c-0.202-0.104-0.284-0.349-0.178-0.551
		c0.102-0.202,0.348-0.282,0.55-0.178C47.134,56.535,47.214,56.782,47.112,56.984z"/>
	<circle fill="#3ABEEE" cx="44.658" cy="56.799" r="0.41"/>
	<path fill="#3ABEEE" d="M51.961,53.014c-0.362,0.714-1.238,0.996-1.947,0.637c-0.717-0.364-1.004-1.238-0.635-1.954
		c0.363-0.713,1.235-0.996,1.95-0.633C52.042,51.427,52.321,52.297,51.961,53.014z"/>
	<path fill="#3ABEEE" d="M60.436,60.088c-0.35,0.688-1.193,0.961-1.877,0.613c-0.692-0.352-0.969-1.195-0.614-1.885
		c0.354-0.689,1.191-0.961,1.881-0.609C60.514,58.554,60.785,59.398,60.436,60.088z"/>
	<path fill="#3ABEEE" d="M65.042,57.896c-0.104,0.203-0.351,0.281-0.549,0.182c-0.204-0.104-0.284-0.35-0.182-0.555
		c0.104-0.201,0.35-0.281,0.552-0.178C65.063,57.447,65.144,57.695,65.042,57.896z"/>
	<circle fill="#3ABEEE" cx="66.691" cy="46.658" r="0.409"/>
	<circle fill="#3ABEEE" cx="65.786" cy="48.085" r="0.409"/>
	<path fill="#3ABEEE" d="M74.896,48.67c-0.101,0.2-0.349,0.281-0.55,0.18c-0.202-0.105-0.283-0.35-0.179-0.553
		c0.103-0.201,0.349-0.281,0.551-0.178C74.921,48.22,75,48.467,74.896,48.67z"/>
	<circle fill="#3ABEEE" cx="70.371" cy="54.766" r="0.409"/>
	<path fill="#3ABEEE" d="M67.984,57.394c-0.104,0.201-0.351,0.281-0.551,0.18c-0.202-0.104-0.283-0.348-0.18-0.553
		c0.104-0.2,0.35-0.281,0.551-0.179C68.007,56.945,68.085,57.193,67.984,57.394z"/>
	<path fill="#3ABEEE" d="M52.335,60.64c-0.101,0.201-0.35,0.281-0.549,0.18c-0.202-0.104-0.284-0.35-0.18-0.553
		c0.103-0.201,0.349-0.281,0.552-0.178C52.359,60.191,52.438,60.439,52.335,60.64z"/>
	<path fill="#3ABEEE" d="M56.925,57.896c-0.101,0.201-0.349,0.281-0.55,0.18c-0.201-0.105-0.283-0.35-0.179-0.553
		c0.104-0.203,0.349-0.281,0.551-0.178C56.948,57.447,57.027,57.695,56.925,57.896z"/>
	<path fill="#3ABEEE" d="M54.765,50.051c-0.102,0.202-0.351,0.283-0.55,0.181c-0.203-0.104-0.284-0.349-0.179-0.552
		c0.102-0.202,0.348-0.283,0.55-0.18C54.787,49.603,54.867,49.85,54.765,50.051z"/>
	<path fill="#3ABEEE" d="M55.584,48.305c-0.102,0.201-0.349,0.282-0.55,0.181c-0.202-0.104-0.283-0.351-0.179-0.554
		c0.103-0.2,0.349-0.281,0.552-0.178C55.607,47.856,55.687,48.103,55.584,48.305z"/>
	<path fill="#3ABEEE" d="M50.666,60.82c-0.202,0.396-0.69,0.557-1.084,0.354c-0.399-0.201-0.56-0.686-0.354-1.088
		c0.203-0.398,0.688-0.555,1.087-0.352C50.711,59.935,50.867,60.422,50.666,60.82z"/>
	<circle fill="#3ABEEE" cx="49.476" cy="62.352" r="0.409"/>
	<path fill="#3ABEEE" d="M32.382,61.515c-0.138,0.324-0.514,0.479-0.84,0.344c-0.328-0.137-0.482-0.514-0.344-0.842
		c0.137-0.326,0.513-0.48,0.84-0.342C32.364,60.81,32.518,61.187,32.382,61.515z"/>
	<circle fill="#3ABEEE" cx="36.747" cy="47.819" r="0.221"/>
	<circle fill="#3ABEEE" cx="44.877" cy="55.846" r="0.222"/>
	<path fill="#3ABEEE" d="M41.595,57.033c-0.126,0.324-0.495,0.484-0.815,0.355c-0.326-0.127-0.487-0.496-0.357-0.821
		c0.127-0.326,0.493-0.485,0.819-0.354C41.566,56.34,41.722,56.709,41.595,57.033z"/>
	<path fill="#3ABEEE" d="M39.092,56.037c-0.056,0.147-0.223,0.221-0.37,0.163c-0.148-0.058-0.22-0.226-0.161-0.371
		c0.058-0.148,0.225-0.221,0.372-0.164C39.079,55.724,39.151,55.89,39.092,56.037z"/>
	<path fill="#3ABEEE" d="M37.016,58.676c-0.045,0.115-0.174,0.172-0.288,0.127c-0.115-0.043-0.17-0.174-0.125-0.287
		c0.044-0.115,0.174-0.17,0.287-0.127C37.005,58.435,37.061,58.562,37.016,58.676z"/>
	<path fill="#3ABEEE" d="M39.327,55.398c-0.028,0.072-0.109,0.107-0.179,0.078c-0.073-0.029-0.107-0.107-0.078-0.18
		c0.027-0.072,0.107-0.105,0.179-0.078S39.355,55.325,39.327,55.398z"/>
	<path fill="#3ABEEE" d="M34.917,54.085c-0.028,0.073-0.108,0.107-0.178,0.078c-0.073-0.027-0.108-0.107-0.079-0.179
		c0.027-0.073,0.108-0.107,0.179-0.078C34.911,53.932,34.946,54.014,34.917,54.085z"/>
	<path fill="#3ABEEE" d="M38.26,53.204c-0.004,0.076-0.07,0.137-0.145,0.131c-0.079-0.003-0.136-0.07-0.13-0.146
		c0.004-0.076,0.068-0.136,0.146-0.13C38.208,53.06,38.266,53.127,38.26,53.204z"/>
	<path fill="#3ABEEE" d="M38.164,51.806c-0.005,0.083-0.076,0.147-0.158,0.141c-0.087-0.004-0.15-0.076-0.145-0.16
		c0.003-0.085,0.075-0.149,0.159-0.144C38.105,51.649,38.168,51.72,38.164,51.806z"/>
	<path fill="#3ABEEE" d="M35.217,51.603c-0.045,0.113-0.175,0.169-0.288,0.126c-0.114-0.045-0.17-0.174-0.124-0.289
		c0.045-0.114,0.174-0.168,0.288-0.125C35.206,51.361,35.26,51.489,35.217,51.603z"/>
	<path fill="#3ABEEE" d="M39.048,55.138c-0.083,0.213-0.322,0.318-0.533,0.232c-0.213-0.084-0.316-0.322-0.233-0.535
		c0.083-0.212,0.322-0.316,0.535-0.231C39.03,54.686,39.131,54.925,39.048,55.138z"/>
	<path fill="#3ABEEE" d="M39.569,48.921c-0.045,0.113-0.173,0.169-0.287,0.125c-0.115-0.045-0.17-0.174-0.125-0.288
		c0.045-0.114,0.174-0.168,0.288-0.126C39.559,48.678,39.615,48.806,39.569,48.921z"/>
	<circle fill="#3ABEEE" cx="76.721" cy="44.907" r="0.138"/>
	<circle fill="#3ABEEE" cx="74.94" cy="44.907" r="0.138"/>
	<circle fill="#3ABEEE" cx="74.94" cy="45.305" r="0.138"/>
	<circle fill="#3ABEEE" cx="73.093" cy="46.387" r="0.138"/>
	<path fill="#3ABEEE" d="M74.179,45.075c-0.051,0.128-0.196,0.193-0.322,0.141c-0.13-0.05-0.192-0.197-0.141-0.323
		c0.051-0.131,0.195-0.193,0.324-0.142C74.168,44.801,74.23,44.947,74.179,45.075z"/>
	<path fill="#3ABEEE" d="M71.882,44.968c-0.032,0.084-0.129,0.127-0.214,0.094c-0.087-0.034-0.128-0.132-0.094-0.217
		c0.032-0.085,0.129-0.129,0.214-0.094C71.876,44.785,71.916,44.882,71.882,44.968z"/>
	<path fill="#3ABEEE" d="M66.272,46.004c-0.031,0.086-0.13,0.129-0.214,0.095c-0.087-0.034-0.128-0.13-0.095-0.216
		c0.034-0.086,0.131-0.127,0.216-0.093C66.267,45.822,66.308,45.918,66.272,46.004z"/>
	<path fill="#3ABEEE" d="M69.394,45.027c-0.033,0.085-0.131,0.128-0.214,0.094c-0.088-0.033-0.13-0.131-0.095-0.215
		c0.033-0.087,0.129-0.129,0.215-0.095S69.428,44.94,69.394,45.027z"/>
	<path fill="#3ABEEE" d="M75.903,45.342c-0.028,0.071-0.108,0.105-0.179,0.077c-0.072-0.027-0.106-0.107-0.078-0.178
		c0.028-0.074,0.108-0.106,0.18-0.078C75.897,45.189,75.932,45.27,75.903,45.342z"/>
	<path fill="#3ABEEE" d="M75.47,45.48c-0.027,0.072-0.108,0.106-0.179,0.077c-0.072-0.027-0.106-0.107-0.077-0.18
		c0.027-0.073,0.107-0.106,0.179-0.078C75.465,45.327,75.499,45.408,75.47,45.48z"/>
	<path fill="#3ABEEE" d="M74.167,47.986c-0.028,0.073-0.109,0.106-0.18,0.077c-0.072-0.028-0.105-0.108-0.077-0.179
		c0.028-0.073,0.107-0.106,0.18-0.078C74.159,47.834,74.195,47.914,74.167,47.986z"/>
	<path fill="#3ABEEE" d="M75.943,46.785c-0.04,0.106-0.16,0.158-0.266,0.115c-0.105-0.042-0.159-0.162-0.115-0.267
		c0.039-0.107,0.16-0.16,0.267-0.117C75.936,46.558,75.987,46.678,75.943,46.785z"/>
	<path fill="#3ABEEE" d="M75.47,46.438c-0.027,0.071-0.108,0.106-0.179,0.078c-0.072-0.029-0.106-0.109-0.077-0.18
		c0.027-0.073,0.107-0.106,0.179-0.078C75.465,46.286,75.499,46.366,75.47,46.438z"/>
	<path fill="#3ABEEE" d="M73.977,47.353c-0.027,0.072-0.108,0.106-0.179,0.077c-0.072-0.028-0.106-0.108-0.078-0.179
		c0.027-0.072,0.108-0.107,0.18-0.078C73.97,47.2,74.005,47.281,73.977,47.353z"/>
	<circle fill="#3ABEEE" cx="74.295" cy="46.387" r="0.138"/>
	<path fill="#3ABEEE" d="M74.068,46.856c-0.079,0.203-0.307,0.302-0.506,0.222c-0.205-0.078-0.304-0.307-0.223-0.51
		c0.079-0.204,0.305-0.302,0.509-0.222C74.05,46.425,74.15,46.653,74.068,46.856z"/>
	<circle fill="#3ABEEE" cx="74.177" cy="45.473" r="0.138"/>
	<path fill="#3ABEEE" d="M68.454,42.559c-0.027,0.07-0.108,0.106-0.179,0.077c-0.073-0.028-0.106-0.107-0.078-0.179
		c0.027-0.073,0.107-0.106,0.181-0.078C68.448,42.406,68.483,42.488,68.454,42.559z"/>
	<path fill="#3ABEEE" d="M71.278,45.258c-0.064,0.167-0.254,0.25-0.419,0.183c-0.171-0.066-0.251-0.255-0.184-0.422
		c0.064-0.167,0.254-0.25,0.421-0.184C71.265,44.901,71.347,45.091,71.278,45.258z"/>
	<path fill="#3ABEEE" d="M71.479,43.518c-0.064,0.167-0.253,0.251-0.419,0.184c-0.17-0.066-0.251-0.255-0.184-0.421
		c0.065-0.169,0.254-0.251,0.421-0.185C71.467,43.161,71.548,43.35,71.479,43.518z"/>
	<path fill="#3ABEEE" d="M76.572,45.495c-0.028,0.071-0.108,0.106-0.179,0.078c-0.073-0.028-0.107-0.109-0.078-0.181
		c0.027-0.073,0.108-0.106,0.18-0.078S76.601,45.425,76.572,45.495z"/>
	<path fill="#3ABEEE" d="M31.977,53.051c0.099-0.251,0.382-0.373,0.631-0.276c0.252,0.102,0.375,0.383,0.276,0.634
		c-0.1,0.251-0.383,0.373-0.633,0.274C32.001,53.584,31.877,53.301,31.977,53.051z"/>
	<path fill="#3ABEEE" d="M34.993,56.77c0.074-0.188,0.286-0.279,0.473-0.205c0.188,0.075,0.28,0.287,0.205,0.472
		c-0.074,0.189-0.285,0.281-0.474,0.207C35.012,57.17,34.922,56.959,34.993,56.77z"/>
	<path fill="#3ABEEE" d="M35.701,57.164c0.049-0.129,0.194-0.193,0.322-0.141c0.13,0.051,0.192,0.197,0.141,0.324
		c-0.05,0.129-0.195,0.191-0.325,0.139C35.712,57.437,35.65,57.293,35.701,57.164z"/>
	<path fill="#3ABEEE" d="M35.312,56.158c0.049-0.129,0.196-0.194,0.322-0.141c0.13,0.05,0.192,0.196,0.14,0.323
		c-0.051,0.13-0.195,0.189-0.324,0.139C35.325,56.43,35.263,56.286,35.312,56.158z"/>
	<path fill="#3ABEEE" d="M35.924,55.034c0.05-0.127,0.196-0.193,0.323-0.139c0.13,0.049,0.191,0.195,0.14,0.322
		c-0.05,0.131-0.195,0.191-0.325,0.139C35.937,55.308,35.874,55.163,35.924,55.034z"/>
	<path fill="#3ABEEE" d="M36.997,58.22c0.084-0.213,0.328-0.318,0.54-0.234c0.216,0.084,0.321,0.326,0.235,0.543
		c-0.083,0.213-0.327,0.318-0.543,0.232C37.016,58.677,36.913,58.437,36.997,58.22z"/>
	<path fill="#3ABEEE" d="M39.003,56.898c0.073-0.184,0.28-0.274,0.464-0.201c0.186,0.074,0.276,0.283,0.202,0.467
		c-0.073,0.186-0.28,0.275-0.465,0.203C39.021,57.295,38.931,57.084,39.003,56.898z"/>
	<path fill="#3ABEEE" d="M35.992,55.777c0.128-0.328,0.5-0.492,0.828-0.361c0.333,0.131,0.496,0.502,0.363,0.832
		c-0.129,0.332-0.502,0.494-0.832,0.364C36.022,56.478,35.862,56.106,35.992,55.777z"/>
	<path fill="#3ABEEE" d="M37.239,52.439c0.092-0.233,0.357-0.348,0.586-0.256c0.235,0.091,0.35,0.354,0.257,0.587
		c-0.092,0.233-0.355,0.349-0.589,0.254C37.262,52.933,37.148,52.672,37.239,52.439z"/>
	<path fill="#3ABEEE" d="M37.679,56.644c0.134-0.317,0.499-0.467,0.815-0.333c0.319,0.134,0.468,0.498,0.334,0.817
		c-0.134,0.316-0.498,0.467-0.816,0.334C37.694,57.328,37.545,56.963,37.679,56.644z"/>
	<path fill="#3ABEEE" d="M36.305,53.819c0.218-0.517,0.812-0.76,1.329-0.545c0.517,0.217,0.76,0.811,0.543,1.33
		c-0.216,0.516-0.809,0.76-1.327,0.545C36.332,54.933,36.088,54.338,36.305,53.819z"/>
	<path fill="#3ABEEE" d="M34.77,57.306c0.028-0.07,0.107-0.107,0.178-0.078c0.073,0.029,0.107,0.107,0.078,0.182
		c-0.027,0.07-0.107,0.105-0.18,0.076C34.774,57.459,34.74,57.379,34.77,57.306z"/>
	<path fill="#3ABEEE" d="M39.979,57.248c0.028-0.068,0.107-0.107,0.179-0.076c0.072,0.029,0.107,0.107,0.077,0.18
		c-0.027,0.074-0.107,0.107-0.178,0.078C39.984,57.402,39.949,57.322,39.979,57.248z"/>
	<path fill="#3ABEEE" d="M40.185,55.962c0.027-0.071,0.108-0.106,0.177-0.077c0.074,0.029,0.108,0.106,0.079,0.18
		c-0.028,0.072-0.108,0.106-0.179,0.077C40.191,56.113,40.157,56.033,40.185,55.962z"/>
	<path fill="#3ABEEE" d="M39.839,56.681c0.027-0.072,0.108-0.105,0.178-0.077c0.074,0.025,0.107,0.108,0.079,0.179
		c-0.027,0.072-0.108,0.105-0.179,0.076C39.845,56.833,39.811,56.752,39.839,56.681z"/>
	<circle fill="#3ABEEE" cx="34.193" cy="55.487" r="0.138"/>
	<path fill="#3ABEEE" d="M37.993,55.349c0.027-0.072,0.108-0.105,0.179-0.078c0.072,0.027,0.107,0.109,0.078,0.182
		c-0.027,0.07-0.108,0.105-0.18,0.076C37.999,55.501,37.965,55.419,37.993,55.349z"/>
	<circle fill="#3ABEEE" cx="41.914" cy="56.525" r="0.138"/>
	<path fill="#3ABEEE" d="M36.309,56.978c0.027-0.071,0.108-0.107,0.178-0.077c0.073,0.028,0.107,0.108,0.079,0.181
		s-0.109,0.105-0.18,0.078C36.314,57.133,36.279,57.051,36.309,56.978z"/>
	<path fill="#3ABEEE" d="M37.251,56.445c0.028-0.069,0.108-0.105,0.178-0.076c0.073,0.029,0.107,0.107,0.079,0.181
		c-0.028,0.072-0.108,0.106-0.179,0.077C37.257,56.598,37.223,56.517,37.251,56.445z"/>
	<path fill="#3ABEEE" d="M35.804,56.681c0.027-0.072,0.108-0.105,0.178-0.077c0.073,0.025,0.107,0.108,0.079,0.179
		c-0.028,0.07-0.109,0.105-0.18,0.076C35.81,56.833,35.774,56.752,35.804,56.681z"/>
	<path fill="#3ABEEE" d="M35.555,55.564c0.028-0.07,0.108-0.104,0.179-0.076c0.074,0.029,0.107,0.107,0.078,0.18
		c-0.027,0.072-0.108,0.107-0.179,0.078C35.56,55.718,35.526,55.636,35.555,55.564z"/>
	<path fill="#3ABEEE" d="M38.043,55.927c0.04-0.1,0.152-0.151,0.251-0.108c0.102,0.04,0.151,0.152,0.111,0.252
		c-0.04,0.103-0.153,0.149-0.253,0.11C38.051,56.142,38.001,56.029,38.043,55.927z"/>
	<path fill="#3ABEEE" d="M37.338,55.64c0.063-0.164,0.247-0.244,0.406-0.18c0.166,0.066,0.245,0.248,0.179,0.409
		c-0.063,0.164-0.246,0.243-0.409,0.178C37.351,55.986,37.271,55.802,37.338,55.64z"/>
	<path fill="#3ABEEE" d="M36.69,56.976c0.072-0.187,0.279-0.276,0.46-0.203c0.187,0.073,0.277,0.281,0.202,0.465
		c-0.071,0.188-0.278,0.277-0.461,0.201C36.705,57.369,36.616,57.16,36.69,56.976z"/>
	<path fill="#3ABEEE" d="M48.917,89.742c0.215-0.539,0.825-0.803,1.361-0.59c0.54,0.213,0.804,0.824,0.593,1.363
		c-0.212,0.539-0.824,0.803-1.364,0.59C48.969,90.89,48.706,90.281,48.917,89.742z"/>
	<path fill="#3ABEEE" d="M52.23,90.492c0.186-0.465,0.71-0.693,1.172-0.512c0.465,0.186,0.693,0.713,0.51,1.174
		c-0.183,0.467-0.708,0.695-1.174,0.508C52.276,91.482,52.048,90.957,52.23,90.492z"/>
	<path fill="#3ABEEE" d="M48.78,94.914c0.208-0.496,0.778-0.73,1.273-0.525c0.499,0.209,0.731,0.779,0.522,1.279
		c-0.207,0.494-0.777,0.73-1.274,0.521C48.805,95.982,48.572,95.412,48.78,94.914z"/>
	<path fill="#3ABEEE" d="M50.497,92.402c0.271-0.682,1.044-1.021,1.73-0.752c0.686,0.271,1.022,1.049,0.752,1.732
		c-0.27,0.686-1.045,1.02-1.731,0.748C50.562,93.861,50.226,93.088,50.497,92.402z"/>
	<path fill="#3ABEEE" d="M48.882,97.523c0.095-0.248,0.378-0.369,0.625-0.271c0.249,0.096,0.37,0.379,0.271,0.625
		c-0.098,0.25-0.378,0.369-0.625,0.271C48.905,98.051,48.784,97.773,48.882,97.523z"/>
	<path fill="#3ABEEE" d="M48.867,99.023c0.097-0.254,0.384-0.375,0.635-0.277c0.253,0.1,0.377,0.385,0.277,0.637
		c-0.1,0.254-0.384,0.379-0.636,0.277C48.89,99.56,48.769,99.275,48.867,99.023z"/>
	<path fill="#3ABEEE" d="M50.046,97.748c0.051-0.131,0.199-0.195,0.329-0.143c0.132,0.051,0.197,0.199,0.142,0.328
		c-0.05,0.133-0.198,0.197-0.329,0.143C50.058,98.027,49.996,97.877,50.046,97.748z"/>
	<circle fill="#3ABEEE" cx="50.836" cy="95.644" r="0.184"/>
	<path fill="#3ABEEE" d="M49.136,93.252c0.12-0.301,0.458-0.447,0.754-0.33c0.302,0.117,0.448,0.455,0.329,0.756
		c-0.118,0.299-0.456,0.447-0.755,0.33C49.166,93.888,49.02,93.551,49.136,93.252z"/>
	<path fill="#3ABEEE" d="M50.354,94.246c0.051-0.129,0.197-0.193,0.324-0.141c0.13,0.049,0.194,0.195,0.143,0.324
		c-0.05,0.129-0.197,0.193-0.325,0.139C50.366,94.521,50.303,94.375,50.354,94.246z"/>
	<circle fill="#3ABEEE" cx="52.198" cy="89.92" r="0.207"/>
	<circle fill="#3ABEEE" cx="54.256" cy="89.92" r="0.207"/>
	<path fill="#3ABEEE" d="M53.086,92.015c0.043-0.105,0.163-0.16,0.269-0.115c0.106,0.043,0.159,0.164,0.116,0.268
		c-0.041,0.107-0.162,0.16-0.268,0.117C53.096,92.244,53.044,92.123,53.086,92.015z"/>
	<path fill="#3ABEEE" d="M50.39,91.23c0.042-0.104,0.162-0.158,0.269-0.115s0.16,0.164,0.117,0.27
		c-0.042,0.107-0.163,0.16-0.269,0.115C50.4,91.459,50.347,91.338,50.39,91.23z"/>
	<circle fill="#3ABEEE" cx="49.009" cy="92.769" r="0.207"/>
	<circle fill="#3ABEEE" cx="49.009" cy="94.15" r="0.207"/>
	<path fill="#3ABEEE" d="M54.009,94.978c0.042-0.107,0.164-0.16,0.27-0.119c0.106,0.045,0.159,0.164,0.115,0.27
		c-0.041,0.105-0.162,0.16-0.269,0.117C54.018,95.205,53.967,95.086,54.009,94.978z"/>
	<path fill="#3ABEEE" d="M48.886,96.652c0.061-0.152,0.234-0.227,0.388-0.166c0.155,0.061,0.23,0.232,0.168,0.387
		c-0.059,0.154-0.234,0.229-0.387,0.168C48.901,96.98,48.827,96.806,48.886,96.652z"/>
	<path fill="#3ABEEE" d="M50.69,96.09c0.082-0.203,0.31-0.305,0.512-0.223c0.204,0.078,0.305,0.307,0.223,0.51
		c-0.08,0.205-0.31,0.305-0.512,0.223C50.708,96.523,50.612,96.293,50.69,96.09z"/>
	<path fill="#3ABEEE" d="M48.943,98.388c0.037-0.098,0.148-0.145,0.247-0.105c0.099,0.037,0.148,0.15,0.107,0.248
		c-0.038,0.102-0.149,0.148-0.248,0.109C48.95,98.599,48.903,98.488,48.943,98.388z"/>
	<path fill="#3ABEEE" d="M49.515,98.347c0.066-0.172,0.26-0.258,0.432-0.189c0.174,0.066,0.26,0.262,0.189,0.436
		c-0.067,0.172-0.261,0.26-0.435,0.189C49.529,98.715,49.445,98.519,49.515,98.347z"/>
	<path fill="#3ABEEE" d="M48.888,99.896c0.049-0.129,0.196-0.189,0.323-0.137c0.13,0.047,0.194,0.195,0.143,0.32
		c-0.051,0.133-0.197,0.195-0.325,0.141C48.898,100.17,48.836,100.027,48.888,99.896z"/>
	<path fill="#3ABEEE" d="M48.777,100.531c0.051-0.129,0.197-0.191,0.325-0.141c0.129,0.051,0.194,0.197,0.142,0.324
		c-0.05,0.131-0.197,0.195-0.325,0.141C48.789,100.806,48.726,100.66,48.777,100.531z"/>
	<path fill="#3ABEEE" d="M49.083,91.74c0.137-0.35,0.535-0.523,0.884-0.385c0.35,0.141,0.525,0.535,0.383,0.891
		c-0.137,0.348-0.532,0.52-0.885,0.379C49.117,92.488,48.947,92.092,49.083,91.74z"/>
	<path fill="#3ABEEE" d="M50.942,90.863c0.094-0.234,0.362-0.352,0.598-0.258c0.239,0.094,0.355,0.361,0.261,0.598
		c-0.094,0.236-0.36,0.354-0.599,0.26C50.965,91.369,50.85,91.101,50.942,90.863z"/>
	<path fill="#3ABEEE" d="M50.153,87.849c0.092-0.236,0.362-0.354,0.598-0.26c0.238,0.094,0.355,0.361,0.259,0.6
		c-0.092,0.238-0.359,0.354-0.599,0.258C50.176,88.355,50.06,88.088,50.153,87.849z"/>
	<path fill="#3ABEEE" d="M50.871,94.765c0.116-0.297,0.455-0.441,0.751-0.328c0.299,0.121,0.445,0.457,0.326,0.754
		c-0.117,0.299-0.453,0.445-0.751,0.326C50.899,95.4,50.755,95.064,50.871,94.765z"/>
	<path fill="#3ABEEE" d="M49.622,96.656c0.123-0.316,0.484-0.471,0.799-0.348c0.316,0.127,0.474,0.486,0.347,0.803
		c-0.125,0.318-0.482,0.471-0.799,0.348C49.65,97.332,49.497,96.972,49.622,96.656z"/>
	<path fill="#3ABEEE" d="M52.364,93.592c-0.103,0.201-0.351,0.283-0.551,0.18c-0.201-0.102-0.283-0.348-0.179-0.553
		c0.104-0.201,0.349-0.283,0.551-0.176C52.387,93.142,52.467,93.39,52.364,93.592z"/>
	<path fill="#3ABEEE" d="M54.543,107.695c-0.103,0.203-0.351,0.285-0.55,0.18c-0.202-0.102-0.284-0.348-0.18-0.551
		c0.103-0.201,0.35-0.281,0.551-0.18C54.565,107.248,54.645,107.494,54.543,107.695z"/>
	<circle fill="#3ABEEE" cx="50.193" cy="97.718" r="0.409"/>
	<path fill="#3ABEEE" d="M46.591,109.22c-0.138,0.326-0.514,0.48-0.838,0.344c-0.329-0.137-0.482-0.512-0.346-0.838
		c0.137-0.326,0.512-0.48,0.84-0.346S46.728,108.892,46.591,109.22z"/>
	<circle fill="#3ABEEE" cx="50.957" cy="95.525" r="0.221"/>
	<path fill="#3ABEEE" d="M51.226,106.383c-0.045,0.115-0.174,0.17-0.287,0.127c-0.116-0.043-0.171-0.172-0.125-0.287
		c0.045-0.111,0.174-0.17,0.289-0.123C51.215,106.14,51.27,106.269,51.226,106.383z"/>
	<path fill="#3ABEEE" d="M49.127,101.791c-0.028,0.072-0.109,0.105-0.179,0.076c-0.072-0.027-0.107-0.105-0.078-0.178
		c0.027-0.074,0.108-0.105,0.179-0.08C49.12,101.638,49.155,101.72,49.127,101.791z"/>
	<path fill="#3ABEEE" d="M54.365,97.492c-0.004,0.076-0.069,0.137-0.145,0.129c-0.077-0.002-0.136-0.068-0.13-0.143
		c0.004-0.076,0.068-0.137,0.146-0.131C54.313,97.349,54.371,97.416,54.365,97.492z"/>
	<path fill="#3ABEEE" d="M54.271,96.095c-0.005,0.082-0.076,0.146-0.158,0.141c-0.086-0.006-0.148-0.076-0.144-0.16
		c0.003-0.084,0.075-0.148,0.158-0.145C54.211,95.937,54.275,96.01,54.271,96.095z"/>
	<path fill="#3ABEEE" d="M49.427,99.308c-0.045,0.113-0.174,0.17-0.288,0.127c-0.114-0.047-0.17-0.176-0.125-0.289
		s0.174-0.168,0.288-0.125C49.416,99.066,49.47,99.195,49.427,99.308z"/>
	<path fill="#3ABEEE" d="M46.187,100.756c0.1-0.25,0.382-0.373,0.631-0.273c0.252,0.1,0.375,0.381,0.276,0.635
		c-0.1,0.25-0.383,0.373-0.633,0.271C46.212,101.291,46.089,101.008,46.187,100.756z"/>
	<path fill="#3ABEEE" d="M49.204,104.478c0.074-0.189,0.286-0.281,0.473-0.207s0.278,0.287,0.204,0.473
		c-0.073,0.189-0.284,0.279-0.473,0.207C49.222,104.877,49.132,104.664,49.204,104.478z"/>
	<path fill="#3ABEEE" d="M49.911,104.869c0.05-0.129,0.195-0.191,0.322-0.137c0.13,0.047,0.192,0.193,0.141,0.322
		c-0.049,0.129-0.195,0.193-0.324,0.139C49.923,105.142,49.861,104.998,49.911,104.869z"/>
	<path fill="#3ABEEE" d="M49.524,103.863c0.049-0.129,0.195-0.191,0.322-0.139c0.13,0.049,0.193,0.197,0.141,0.324
		c-0.051,0.129-0.196,0.189-0.324,0.139C49.536,104.136,49.472,103.992,49.524,103.863z"/>
	<path fill="#3ABEEE" d="M51.208,105.927c0.083-0.215,0.327-0.318,0.539-0.236c0.216,0.084,0.32,0.326,0.236,0.543
		c-0.085,0.215-0.329,0.32-0.543,0.234C51.227,106.385,51.124,106.142,51.208,105.927z"/>
	<path fill="#3ABEEE" d="M52.197,102.572c0.073-0.184,0.28-0.275,0.464-0.199c0.187,0.072,0.276,0.279,0.202,0.465
		c-0.072,0.188-0.281,0.275-0.464,0.203C52.216,102.969,52.126,102.756,52.197,102.572z"/>
	<path fill="#3ABEEE" d="M53.347,96.726c0.093-0.232,0.355-0.348,0.585-0.256c0.236,0.092,0.352,0.354,0.257,0.588
		c-0.091,0.232-0.354,0.348-0.587,0.256C53.369,97.224,53.256,96.961,53.347,96.726z"/>
	<path fill="#3ABEEE" d="M52.81,98.883c0.07,0.031,0.101,0.111,0.068,0.182c-0.031,0.07-0.113,0.102-0.183,0.07
		c-0.071-0.033-0.102-0.115-0.069-0.184C52.656,98.881,52.738,98.851,52.81,98.883z"/>
	<path fill="#3ABEEE" d="M53.032,102.353c0.027-0.068,0.108-0.104,0.179-0.074c0.073,0.027,0.106,0.105,0.078,0.18
		c-0.027,0.072-0.107,0.105-0.179,0.074C53.039,102.508,53.004,102.426,53.032,102.353z"/>
	<path fill="#3ABEEE" d="M48.275,103.142c0.028-0.072,0.109-0.105,0.179-0.076c0.073,0.027,0.107,0.105,0.078,0.178
		c-0.027,0.07-0.108,0.105-0.179,0.078C48.282,103.295,48.247,103.215,48.275,103.142z"/>
	<path fill="#3ABEEE" d="M50.519,104.685c0.027-0.07,0.108-0.105,0.179-0.076c0.072,0.029,0.106,0.107,0.078,0.18
		c-0.028,0.074-0.108,0.105-0.18,0.078C50.525,104.838,50.489,104.756,50.519,104.685z"/>
	<path fill="#3ABEEE" d="M51.461,104.152c0.028-0.072,0.108-0.105,0.178-0.076c0.072,0.027,0.107,0.107,0.078,0.178
		c-0.027,0.074-0.107,0.107-0.18,0.078C51.467,104.304,51.433,104.224,51.461,104.152z"/>
	<circle fill="#3ABEEE" cx="50.143" cy="104.439" r="0.139"/>
	<circle fill="#3ABEEE" cx="49.894" cy="103.324" r="0.137"/>
	<path fill="#3ABEEE" d="M50.9,104.681c0.073-0.186,0.279-0.275,0.46-0.201c0.186,0.074,0.278,0.281,0.203,0.467
		c-0.07,0.186-0.278,0.275-0.461,0.199C50.916,105.074,50.828,104.867,50.9,104.681z"/>
</g>
</svg>
