<?xml version="1.0" encoding="utf-8"?>
<!-- Generator: Adobe Illustrator 15.0.0, SVG Export Plug-In . SVG Version: 6.00 Build 0)  -->
<!DOCTYPE svg PUBLIC "-//W3C//DTD SVG 1.1//EN" "http://www.w3.org/Graphics/SVG/1.1/DTD/svg11.dtd">
<svg version="1.1" id="Layer_1" xmlns="http://www.w3.org/2000/svg" xmlns:xlink="http://www.w3.org/1999/xlink" x="0px" y="0px"
	 width="585.664px" height="153.234px" viewBox="0 0 585.664 153.234" enable-background="new 0 0 585.664 153.234"
	 xml:space="preserve">
<g>
	
		<text transform="matrix(1 -0.0042 0.0042 1 109.9277 93.0632)" fill="#999999" font-family="'HelveticaNeue-Light'" font-size="57.7271">Radius Developers</text>
	<g>
		<g opacity="0.2">
			<path fill="#231F20" d="M60.94,65.184c-0.493-2.042-1.235-3.969-2.192-5.751l3.341-8.641c-1.748-2.228-3.781-4.204-6.039-5.877
				l-8.37,4.042c-1.979-0.929-4.095-1.59-6.295-1.956l-4.835-8.276c-1.333,0.034-2.681,0.152-4.035,0.361
				c-1.354,0.208-2.673,0.499-3.956,0.868l-2.123,9.347c-1.988,1.009-3.807,2.277-5.416,3.758l-9.198-1.338
				c-1.65,2.275-2.995,4.771-3.992,7.421l5.785,7.237c-0.377,1.988-0.506,4.049-0.362,6.146l-6.32,5.924
				c0.819,3.024,2.065,5.846,3.665,8.406l8.598-0.01c1.241,1.414,2.638,2.676,4.163,3.762l0.65,8.111
				c2.926,1.367,6.08,2.293,9.362,2.705l5.043-6.34c0.888-0.038,1.781-0.12,2.68-0.258c0.898-0.138,1.777-0.328,2.633-0.56
				l6.717,4.529c3.006-1.38,5.735-3.212,8.116-5.396l-1.82-7.931c1.127-1.494,2.079-3.117,2.838-4.84l8.203-2.575
				c0.756-2.922,1.096-5.987,0.968-9.12L60.94,65.184z M39.898,87.052c-9.06,1.393-17.534-4.822-18.928-13.88
				c-1.394-9.058,4.819-17.533,13.878-18.926c9.06-1.395,17.534,4.819,18.928,13.877C55.17,77.181,48.958,85.655,39.898,87.052z"/>
			<polygon fill="#231F20" points="43.914,68.244 39.876,68.244 39.876,55.633 31.796,71.907 35.837,71.907 35.837,84.517 			"/>
			<polygon fill="#231F20" points="80.064,91.071 78.101,91.071 78.101,84.936 74.17,92.854 76.136,92.854 76.136,98.987 			"/>
			<path fill="#231F20" d="M89.664,89.303c-0.268-1.108-0.671-2.156-1.191-3.126l1.815-4.696c-0.949-1.211-2.055-2.285-3.282-3.194
				l-4.55,2.197c-1.076-0.506-2.225-0.865-3.421-1.063l-2.627-4.498c-0.726,0.019-1.458,0.083-2.194,0.197
				c-0.736,0.114-1.453,0.271-2.15,0.472l-1.154,5.079c-1.08,0.549-2.069,1.237-2.943,2.043l-5-0.727
				c-0.897,1.237-1.628,2.592-2.17,4.032l3.145,3.935c-0.205,1.081-0.274,2.2-0.197,3.34l-3.435,3.221
				c0.445,1.643,1.123,3.177,1.992,4.567l4.674-0.005c0.674,0.769,1.433,1.455,2.262,2.045l0.353,4.41
				c1.591,0.742,3.305,1.245,5.089,1.469l2.742-3.445c0.482-0.021,0.967-0.065,1.456-0.14c0.488-0.077,0.965-0.18,1.432-0.304
				l3.65,2.459c1.634-0.749,3.118-1.745,4.411-2.931l-0.99-4.311c0.614-0.812,1.131-1.696,1.543-2.632l4.458-1.399
				c0.41-1.587,0.595-3.254,0.526-4.956L89.664,89.303z M78.227,101.189c-4.924,0.757-9.529-2.62-10.287-7.544
				c-0.757-4.925,2.619-9.53,7.543-10.287c4.924-0.758,9.53,2.619,10.288,7.542C86.528,95.825,83.151,100.43,78.227,101.189z"/>
		</g>
		<g>
			<path fill="#3BBDEE" d="M60.133,64.459c-0.494-2.042-1.235-3.969-2.192-5.752l3.341-8.64c-1.748-2.228-3.781-4.204-6.04-5.878
				l-8.369,4.043c-1.98-0.929-4.096-1.591-6.295-1.956l-4.834-8.276c-1.333,0.034-2.681,0.152-4.035,0.361
				c-1.354,0.208-2.673,0.5-3.956,0.869l-2.123,9.347c-1.988,1.009-3.807,2.277-5.416,3.758l-9.198-1.338
				c-1.65,2.275-2.996,4.771-3.992,7.42l5.784,7.237c-0.377,1.988-0.505,4.049-0.361,6.146l-6.32,5.925
				c0.819,3.024,2.065,5.845,3.665,8.406l8.599-0.01c1.241,1.414,2.637,2.676,4.163,3.762l0.65,8.111
				c2.926,1.366,6.08,2.292,9.362,2.705l5.043-6.341c0.888-0.038,1.781-0.119,2.679-0.257c0.898-0.139,1.776-0.328,2.634-0.561
				l6.716,4.529c3.006-1.38,5.735-3.211,8.116-5.395l-1.82-7.931c1.127-1.495,2.08-3.118,2.838-4.841l8.204-2.575
				c0.755-2.922,1.096-5.986,0.968-9.12L60.133,64.459z M39.09,86.326c-9.059,1.393-17.533-4.822-18.928-13.879
				c-1.395-9.058,4.818-17.533,13.878-18.927c9.06-1.395,17.534,4.819,18.927,13.877C54.362,76.456,48.149,84.93,39.09,86.326z"/>
			<polygon fill="#3FBCEC" points="43.106,67.519 39.069,67.519 39.069,54.908 30.988,71.182 35.029,71.182 35.029,83.792 			"/>
			<polygon fill="#3FBCEC" points="79.257,90.345 77.292,90.345 77.292,84.212 73.362,92.13 75.328,92.13 75.328,98.261 			"/>
			<path fill="#3BBDEE" d="M88.856,88.578c-0.268-1.107-0.672-2.155-1.191-3.125l1.816-4.697c-0.949-1.211-2.055-2.284-3.283-3.193
				l-4.55,2.197c-1.076-0.506-2.225-0.865-3.421-1.064L75.6,74.198c-0.726,0.018-1.458,0.083-2.193,0.197
				c-0.736,0.113-1.454,0.272-2.15,0.472l-1.154,5.079c-1.081,0.549-2.069,1.237-2.943,2.044l-4.999-0.728
				c-0.897,1.238-1.628,2.593-2.17,4.033l3.144,3.934c-0.206,1.081-0.274,2.201-0.197,3.34l-3.435,3.222
				c0.445,1.643,1.123,3.177,1.991,4.566l4.674-0.005c0.674,0.769,1.433,1.455,2.262,2.046l0.353,4.409
				c1.591,0.742,3.305,1.245,5.089,1.47l2.741-3.445c0.482-0.022,0.968-0.066,1.456-0.141c0.489-0.077,0.966-0.18,1.432-0.304
				l3.65,2.459c1.634-0.748,3.118-1.745,4.411-2.931l-0.99-4.311c0.614-0.812,1.132-1.695,1.543-2.631l4.459-1.4
				c0.41-1.587,0.595-3.253,0.526-4.956L88.856,88.578z M77.419,100.464c-4.924,0.758-9.529-2.62-10.287-7.543
				c-0.758-4.925,2.619-9.53,7.542-10.287c4.924-0.758,9.53,2.618,10.288,7.542C85.72,95.099,82.343,99.706,77.419,100.464z"/>
		</g>
	</g>
</g>
</svg>
