<?xml version="1.0" encoding="utf-8"?>
<!-- Generator: Adobe Illustrator 15.0.0, SVG Export Plug-In . SVG Version: 6.00 Build 0)  -->
<!DOCTYPE svg PUBLIC "-//W3C//DTD SVG 1.1//EN" "http://www.w3.org/Graphics/SVG/1.1/DTD/svg11.dtd">
<svg version="1.1" id="Layer_1" xmlns="http://www.w3.org/2000/svg" xmlns:xlink="http://www.w3.org/1999/xlink" x="0px" y="0px"
	 width="585.664px" height="153.234px" viewBox="0 0 585.664 153.234" enable-background="new 0 0 585.664 153.234"
	 xml:space="preserve">
<g>
	<path fill="#3ABEEE" d="M41.747,54.172c-0.477,1.21-1.846,1.806-3.053,1.327c-1.211-0.479-1.806-1.846-1.329-3.056
		c0.478-1.209,1.848-1.804,3.055-1.325C41.629,51.594,42.224,52.963,41.747,54.172z"/>
	<path fill="#3ABEEE" d="M35.175,48.016c-0.478,1.21-1.846,1.804-3.055,1.325c-1.209-0.478-1.804-1.846-1.326-3.056
		c0.477-1.208,1.845-1.804,3.056-1.325C35.057,45.438,35.652,46.807,35.175,48.016z"/>
	<path fill="#3ABEEE" d="M43.531,40.668c-1.188,3.021-4.602,4.5-7.617,3.311c-3.021-1.189-4.503-4.604-3.312-7.622
		c1.194-3.019,4.606-4.498,7.624-3.31C43.239,34.238,44.722,37.652,43.531,40.668z"/>
	<path fill="#3ABEEE" d="M34.202,121.04c-0.57,1.445-2.203,2.156-3.648,1.588c-1.444-0.57-2.155-2.205-1.586-3.648
		c0.573-1.443,2.206-2.152,3.65-1.584C34.062,117.962,34.772,119.596,34.202,121.04z"/>
	<path fill="#3ABEEE" d="M44.515,15.764c-0.469,1.188-1.814,1.771-3.002,1.304c-1.189-0.469-1.77-1.813-1.302-3.003
		c0.469-1.188,1.813-1.771,3-1.303C44.399,13.231,44.985,14.577,44.515,15.764z"/>
	<path fill="#3ABEEE" d="M40.212,107.382c-0.757,1.059-2.226,1.303-3.287,0.545c-1.058-0.76-1.299-2.229-0.543-3.287
		c0.758-1.059,2.229-1.301,3.286-0.543C40.727,104.852,40.968,106.325,40.212,107.382z"/>
	<circle fill="#3ABEEE" cx="24.408" cy="74.562" r="2.355"/>
	<path fill="#3ABEEE" d="M47.439,94.596c-0.758,1.059-2.228,1.303-3.285,0.547c-1.058-0.76-1.301-2.23-0.544-3.287
		c0.757-1.061,2.228-1.301,3.286-0.543C47.953,92.071,48.196,93.542,47.439,94.596z"/>
	<path fill="#3ABEEE" d="M50.392,23.02c-0.477,1.209-1.845,1.802-3.054,1.326c-1.211-0.479-1.805-1.848-1.328-3.057
		c0.478-1.209,1.846-1.805,3.056-1.327C50.275,20.44,50.869,21.81,50.392,23.02z"/>
	<circle fill="#3ABEEE" cx="38.935" cy="24.937" r="5.408"/>
	<circle fill="#3ABEEE" cx="41.664" cy="70.572" r="7.792"/>
	<path fill="#3ABEEE" d="M41.775,57.933c-2.088,5.295-8.073,7.894-13.368,5.804c-5.292-2.088-7.889-8.072-5.802-13.366
		c2.089-5.291,8.073-7.89,13.366-5.802C41.266,46.658,43.862,52.642,41.775,57.933z"/>
	<path fill="#3ABEEE" d="M42.39,94.817c-1.789,4.533-6.909,6.756-11.439,4.969c-4.529-1.789-6.752-6.91-4.964-11.438
		c1.787-4.529,6.908-6.753,11.438-4.967C41.954,85.169,44.176,90.292,42.39,94.817z"/>
	<path fill="#3ABEEE" d="M40.487,31.835c-0.179,0.453-0.689,0.676-1.142,0.499c-0.453-0.181-0.677-0.689-0.498-1.146
		c0.178-0.452,0.69-0.674,1.145-0.496C40.444,30.87,40.666,31.382,40.487,31.835z"/>
	<path fill="#3ABEEE" d="M43.971,44.057c-0.179,0.452-0.693,0.678-1.144,0.499c-0.454-0.182-0.677-0.692-0.498-1.146
		c0.18-0.452,0.692-0.675,1.146-0.496C43.928,43.093,44.15,43.605,43.971,44.057z"/>
	<path fill="#3ABEEE" d="M21.224,54.477c-0.179,0.453-0.692,0.676-1.144,0.498c-0.454-0.181-0.676-0.691-0.497-1.146
		c0.179-0.453,0.69-0.676,1.145-0.497C21.18,53.51,21.402,54.022,21.224,54.477z"/>
	<path fill="#3ABEEE" d="M51.851,62.515c-0.224,0.567-0.867,0.849-1.432,0.625c-0.57-0.226-0.849-0.867-0.625-1.438
		c0.223-0.567,0.869-0.847,1.434-0.622C51.795,61.305,52.075,61.949,51.851,62.515z"/>
	<path fill="#3ABEEE" d="M48.485,63.35c-0.285,0.728-1.106,1.085-1.831,0.801c-0.727-0.289-1.083-1.109-0.797-1.836
		c0.286-0.728,1.109-1.083,1.834-0.794C48.415,61.805,48.772,62.627,48.485,63.35z"/>
	<path fill="#3ABEEE" d="M33.684,33.782c-0.478,1.215-1.85,1.812-3.062,1.337c-1.218-0.479-1.812-1.854-1.333-3.071
		c0.477-1.21,1.854-1.805,3.071-1.326C33.568,31.197,34.161,32.571,33.684,33.782z"/>
	<path fill="#3ABEEE" d="M44.007,6.322c-0.215,0.548-0.831,0.812-1.374,0.6c-0.546-0.215-0.814-0.832-0.599-1.378
		c0.214-0.545,0.832-0.812,1.377-0.598C43.954,5.161,44.221,5.777,44.007,6.322z"/>
	<path fill="#3ABEEE" d="M44.489,12.21c-0.168,0.432-0.656,0.643-1.083,0.474c-0.431-0.169-0.644-0.655-0.471-1.086
		c0.168-0.432,0.653-0.643,1.083-0.473C44.45,11.295,44.658,11.78,44.489,12.21z"/>
	<path fill="#3ABEEE" d="M39.984,16.599c-0.284,0.72-1.096,1.07-1.811,0.791c-0.718-0.286-1.071-1.1-0.788-1.816
		c0.283-0.718,1.095-1.07,1.815-0.786C39.917,15.069,40.269,15.881,39.984,16.599z"/>
	<path fill="#3ABEEE" d="M50.605,2.911c-0.284,0.72-1.096,1.071-1.812,0.79c-0.717-0.284-1.07-1.096-0.787-1.815
		C48.288,1.167,49.1,0.815,49.82,1.1C50.537,1.381,50.889,2.193,50.605,2.911z"/>
	<path fill="#3ABEEE" d="M33.012,3.802C32.831,4.256,32.32,4.478,31.868,4.3c-0.455-0.179-0.677-0.688-0.498-1.146
		c0.178-0.452,0.691-0.675,1.145-0.495C32.967,2.837,33.19,3.35,33.012,3.802z"/>
	<circle fill="#3ABEEE" cx="43.485" cy="18.113" r="0.881"/>
	<path fill="#3ABEEE" d="M39.402,18.846c-0.157,0.396-0.605,0.588-0.997,0.434c-0.397-0.156-0.591-0.604-0.435-0.998
		c0.156-0.396,0.603-0.59,1-0.433C39.364,18.004,39.556,18.451,39.402,18.846z"/>
	<path fill="#3ABEEE" d="M33.472,26.579c-0.156,0.396-0.605,0.589-0.997,0.437c-0.397-0.157-0.591-0.604-0.436-1
		c0.157-0.396,0.604-0.59,1-0.433C33.434,25.737,33.627,26.183,33.472,26.579z"/>
	<path fill="#3ABEEE" d="M37.533,19.071c-0.2,0.507-0.771,0.755-1.275,0.557c-0.507-0.201-0.755-0.771-0.555-1.276
		c0.198-0.508,0.771-0.754,1.277-0.555C37.484,17.993,37.733,18.565,37.533,19.071z"/>
	<path fill="#3ABEEE" d="M44.532,29.853c-0.18,0.455-0.693,0.677-1.143,0.499c-0.455-0.181-0.677-0.691-0.498-1.146
		c0.178-0.454,0.691-0.675,1.145-0.496C44.488,28.888,44.711,29.4,44.532,29.853z"/>
	<path fill="#3ABEEE" d="M42.72,8.072c-0.19,0.449-0.707,0.662-1.152,0.476c-0.453-0.188-0.663-0.706-0.475-1.154
		c0.188-0.449,0.704-0.661,1.155-0.474C42.696,7.106,42.908,7.623,42.72,8.072z"/>
	<path fill="#3ABEEE" d="M29.838,102.921c-0.478,1.211-1.844,1.807-3.056,1.33c-1.21-0.479-1.803-1.848-1.326-3.059
		c0.478-1.209,1.843-1.805,3.055-1.326C29.723,100.344,30.314,101.712,29.838,102.921z"/>
	<path fill="#3ABEEE" d="M27.482,8.033c-0.479,1.209-1.846,1.803-3.056,1.325C23.217,8.88,22.623,7.513,23.1,6.302
		c0.476-1.209,1.844-1.804,3.054-1.324C27.367,5.456,27.959,6.823,27.482,8.033z"/>
	<path fill="#3ABEEE" d="M44.44,57.436c-0.195,0.499-0.759,0.74-1.253,0.547c-0.498-0.195-0.743-0.759-0.546-1.256
		c0.198-0.496,0.759-0.739,1.256-0.543C44.392,56.377,44.636,56.94,44.44,57.436z"/>
	<path fill="#3ABEEE" d="M63.173,62.921c-0.136,0.347-0.526,0.516-0.869,0.379c-0.345-0.136-0.514-0.524-0.377-0.872
		c0.136-0.344,0.526-0.512,0.87-0.375C63.139,62.186,63.308,62.577,63.173,62.921z"/>
	<path fill="#3ABEEE" d="M35.009,45.876c-0.179,0.453-0.691,0.676-1.144,0.499c-0.453-0.18-0.677-0.69-0.498-1.146
		c0.179-0.453,0.692-0.678,1.146-0.496C34.963,44.911,35.187,45.422,35.009,45.876z"/>
	<path fill="#3ABEEE" d="M27.894,44.064c-0.183,0.461-0.703,0.688-1.162,0.508c-0.462-0.183-0.689-0.704-0.505-1.167
		c0.181-0.46,0.704-0.688,1.165-0.506C27.849,43.082,28.076,43.603,27.894,44.064z"/>
	<path fill="#3ABEEE" d="M44.172,47.081c-0.358,0.907-1.384,1.354-2.286,0.995c-0.909-0.358-1.353-1.383-0.997-2.288
		c0.361-0.904,1.383-1.352,2.29-0.992C44.083,45.153,44.53,46.176,44.172,47.081z"/>
	<path fill="#3ABEEE" d="M32.233,36.861c-0.177,0.453-0.69,0.679-1.14,0.499c-0.455-0.18-0.678-0.691-0.498-1.146
		c0.178-0.45,0.691-0.674,1.145-0.495C32.192,35.896,32.416,36.409,32.233,36.861z"/>
	<path fill="#3ABEEE" d="M31.822,67.924c-0.476,1.21-1.845,1.806-3.055,1.327c-1.211-0.479-1.804-1.847-1.327-3.056
		c0.478-1.21,1.844-1.804,3.057-1.325C31.705,65.347,32.299,66.714,31.822,67.924z"/>
	<path fill="#3ABEEE" d="M34.353,78.854c-0.673,1.709-2.609,2.549-4.32,1.875c-1.71-0.678-2.546-2.607-1.872-4.318
		c0.673-1.709,2.605-2.549,4.317-1.874C34.188,75.211,35.027,77.145,34.353,78.854z"/>
	<circle fill="#3ABEEE" cx="51.299" cy="74.821" r="2.355"/>
	<path fill="#3ABEEE" d="M49.128,86.212c-0.751,1.9-2.902,2.834-4.805,2.086c-1.904-0.754-2.835-2.902-2.085-4.807
		s2.899-2.834,4.804-2.086C48.943,82.157,49.877,84.309,49.128,86.212z"/>
	<circle fill="#3ABEEE" cx="48.201" cy="13.576" r="2.355"/>
	<circle fill="#3ABEEE" cx="54.715" cy="67.495" r="5.408"/>
	<path fill="#3ABEEE" d="M21.433,73.492c-1.098,2.778-4.237,4.143-7.017,3.045c-2.778-1.096-4.141-4.236-3.044-7.016
		c1.096-2.778,4.235-4.144,7.015-3.045C21.165,67.575,22.527,70.714,21.433,73.492z"/>
	<path fill="#3ABEEE" d="M35.658,113.405c-1.095,2.777-4.234,4.143-7.014,3.045c-2.778-1.098-4.142-4.234-3.045-7.014
		c1.097-2.781,4.237-4.145,7.015-3.049C35.393,107.485,36.756,110.626,35.658,113.405z"/>
	<path fill="#3ABEEE" d="M35.757,10.544c-0.179,0.455-0.692,0.679-1.146,0.499c-0.453-0.18-0.676-0.689-0.496-1.146
		c0.178-0.453,0.691-0.675,1.144-0.497C35.713,9.579,35.935,10.092,35.757,10.544z"/>
	<circle fill="#3ABEEE" cx="46.399" cy="33.317" r="0.883"/>
	<path fill="#3ABEEE" d="M57.174,20.116c-0.179,0.453-0.691,0.675-1.142,0.499c-0.455-0.18-0.678-0.691-0.498-1.146
		c0.178-0.451,0.691-0.676,1.145-0.495C57.13,19.151,57.353,19.664,57.174,20.116z"/>
	<path fill="#3ABEEE" d="M40.532,13.096c-0.196,0.497-0.759,0.74-1.256,0.546c-0.499-0.196-0.743-0.761-0.545-1.259
		c0.197-0.495,0.758-0.74,1.258-0.545C40.484,12.034,40.729,12.597,40.532,13.096z"/>
	<path fill="#3ABEEE" d="M44.356,61.605c-0.342,0.867-1.322,1.292-2.188,0.95c-0.868-0.343-1.29-1.321-0.951-2.188
		c0.343-0.865,1.319-1.291,2.188-0.948C44.272,59.762,44.698,60.739,44.356,61.605z"/>
	<path fill="#3ABEEE" d="M31.685,40.879c-0.62,1.578-2.405,2.354-3.982,1.732c-1.583-0.624-2.354-2.409-1.731-3.987
		c0.623-1.577,2.403-2.351,3.985-1.728C31.532,37.521,32.308,39.302,31.685,40.879z"/>
	<circle fill="#3ABEEE" cx="36.809" cy="4.677" r="1.686"/>
	<path fill="#3ABEEE" d="M42.996,11.203c-0.343,0.865-1.322,1.293-2.188,0.951c-0.867-0.342-1.292-1.323-0.95-2.188
		c0.34-0.865,1.32-1.291,2.187-0.946C42.912,9.36,43.337,10.338,42.996,11.203z"/>
	<path fill="#3ABEEE" d="M23.724,63.881c-0.532,1.347-2.054,2.011-3.401,1.479c-1.347-0.531-2.009-2.059-1.477-3.403
		c0.528-1.347,2.052-2.005,3.4-1.475C23.594,61.014,24.256,62.533,23.724,63.881z"/>
	<path fill="#3ABEEE" d="M16.947,64.11c-0.343,0.864-1.322,1.292-2.188,0.951c-0.867-0.345-1.292-1.324-0.951-2.188
		c0.341-0.868,1.321-1.29,2.188-0.947C16.864,62.266,17.289,63.245,16.947,64.11z"/>
	<circle fill="#3ABEEE" cx="26.2" cy="64.558" r="1.295"/>
	<path fill="#3ABEEE" d="M12.576,60.057c-0.343,0.863-1.321,1.292-2.188,0.949c-0.867-0.342-1.292-1.321-0.95-2.188
		c0.34-0.866,1.32-1.291,2.187-0.948C12.491,58.213,12.917,59.191,12.576,60.057z"/>
	<path fill="#3ABEEE" d="M52.002,81.604c-0.341,0.863-1.321,1.291-2.188,0.947c-0.866-0.342-1.292-1.32-0.949-2.188
		c0.34-0.865,1.32-1.291,2.187-0.947C51.919,79.76,52.344,80.737,52.002,81.604z"/>
	<path fill="#3ABEEE" d="M21.105,58.602c-0.458,1.157-1.767,1.729-2.923,1.271c-1.161-0.458-1.727-1.767-1.271-2.924
		c0.459-1.156,1.765-1.726,2.923-1.267C20.992,56.138,21.561,57.446,21.105,58.602z"/>
	<path fill="#3ABEEE" d="M23.057,48.584c-0.188,0.479-0.729,0.712-1.205,0.524c-0.478-0.188-0.714-0.729-0.523-1.208
		c0.188-0.478,0.728-0.711,1.206-0.522C23.011,47.567,23.246,48.107,23.057,48.584z"/>
	<path fill="#3ABEEE" d="M44.505,4.456c-0.113,0.291-0.441,0.435-0.729,0.318c-0.29-0.114-0.434-0.441-0.317-0.73
		c0.113-0.29,0.44-0.432,0.731-0.315C44.477,3.839,44.619,4.166,44.505,4.456z"/>
	<circle fill="#3ABEEE" cx="43.585" cy="7.732" r="0.562"/>
	<circle fill="#3ABEEE" cx="43.02" cy="4.333" r="0.344"/>
	<path fill="#3ABEEE" d="M44.619,5.342C44.55,5.52,44.35,5.607,44.174,5.537c-0.179-0.07-0.265-0.271-0.194-0.448
		c0.069-0.178,0.269-0.265,0.447-0.193C44.603,4.965,44.69,5.166,44.619,5.342z"/>
	<circle fill="#3ABEEE" cx="44.146" cy="6.849" r="0.285"/>
	<circle fill="#3ABEEE" cx="43.02" cy="8.614" r="0.285"/>
	<circle fill="#3ABEEE" cx="44.082" cy="10.506" r="0.285"/>
	<circle fill="#3ABEEE" cx="38.687" cy="14.027" r="0.451"/>
	<circle fill="#3ABEEE" cx="33.041" cy="24.937" r="0.285"/>
	<path fill="#3ABEEE" d="M37.379,17.29c-0.105,0.262-0.399,0.393-0.659,0.288c-0.262-0.104-0.392-0.397-0.286-0.66
		c0.101-0.261,0.398-0.39,0.657-0.285C37.354,16.735,37.481,17.03,37.379,17.29z"/>
	<circle fill="#3ABEEE" cx="37.699" cy="17.795" r="0.286"/>
	<circle fill="#3ABEEE" cx="39.74" cy="14.212" r="0.284"/>
	<circle fill="#3ABEEE" cx="37.916" cy="14.497" r="0.285"/>
	<path fill="#3ABEEE" d="M40.615,18.017c-0.126,0.312-0.478,0.467-0.79,0.344c-0.315-0.125-0.468-0.479-0.344-0.791
		c0.122-0.312,0.478-0.465,0.79-0.342C40.584,17.351,40.736,17.704,40.615,18.017z"/>
	<path fill="#3ABEEE" d="M35.885,20.126c-0.099,0.246-0.374,0.366-0.618,0.271c-0.245-0.099-0.366-0.373-0.268-0.618
		c0.094-0.244,0.372-0.363,0.617-0.27C35.862,19.605,35.981,19.882,35.885,20.126z"/>
	<path fill="#3ABEEE" d="M41.877,19.287c-0.165,0.409-0.625,0.61-1.033,0.448c-0.412-0.16-0.613-0.624-0.449-1.033
		c0.159-0.41,0.624-0.609,1.033-0.448C41.838,18.415,42.038,18.877,41.877,19.287z"/>
	<path fill="#3ABEEE" d="M42.377,18.093c-0.098,0.246-0.373,0.367-0.617,0.271c-0.245-0.096-0.367-0.373-0.269-0.617
		c0.095-0.244,0.374-0.364,0.618-0.269C42.353,17.573,42.473,17.85,42.377,18.093z"/>
	<path fill="#3ABEEE" d="M44.179,20.265c-0.176,0.438-0.669,0.653-1.105,0.48c-0.442-0.173-0.657-0.67-0.481-1.105
		c0.17-0.438,0.667-0.653,1.105-0.479C44.137,19.332,44.351,19.827,44.179,20.265z"/>
	<path fill="#3ABEEE" d="M44.563,21.644c-0.126,0.312-0.477,0.467-0.789,0.344c-0.315-0.124-0.469-0.479-0.345-0.792
		c0.122-0.312,0.479-0.465,0.791-0.342C44.532,20.978,44.685,21.332,44.563,21.644z"/>
	<circle fill="#3ABEEE" cx="35.633" cy="14.915" r="0.286"/>
	<circle fill="#3ABEEE" cx="42.409" cy="18.996" r="0.285"/>
	<path fill="#3ABEEE" d="M40.182,19.101c-0.06,0.146-0.223,0.218-0.37,0.158c-0.147-0.058-0.219-0.224-0.161-0.369
		c0.057-0.146,0.224-0.219,0.37-0.159C40.168,18.787,40.239,18.953,40.182,19.101z"/>
	<path fill="#3ABEEE" d="M34.916,29.35c-0.06,0.146-0.224,0.218-0.37,0.159c-0.146-0.058-0.219-0.223-0.161-0.368
		c0.058-0.146,0.224-0.219,0.37-0.16C34.902,29.037,34.973,29.203,34.916,29.35z"/>
	<path fill="#3ABEEE" d="M35.057,32.591c-0.089,0.226-0.342,0.334-0.565,0.245c-0.227-0.089-0.338-0.343-0.247-0.566
		c0.087-0.226,0.344-0.334,0.567-0.245C35.036,32.112,35.147,32.365,35.057,32.591z"/>
	<circle fill="#3ABEEE" cx="42.83" cy="33.754" r="0.438"/>
	<circle fill="#3ABEEE" cx="44.282" cy="16.945" r="0.285"/>
	<circle fill="#3ABEEE" cx="40.942" cy="17.35" r="0.285"/>
	<circle fill="#3ABEEE" cx="44.146" cy="8.614" r="0.285"/>
	<path fill="#3ABEEE" d="M44.302,3.262c-0.07,0.176-0.27,0.264-0.446,0.192c-0.179-0.07-0.266-0.271-0.195-0.448
		c0.069-0.177,0.269-0.264,0.447-0.192C44.285,2.882,44.372,3.083,44.302,3.262z"/>
	<path fill="#3ABEEE" d="M41.228,1.836c-0.07,0.18-0.27,0.267-0.446,0.195c-0.18-0.07-0.267-0.271-0.195-0.448
		c0.068-0.177,0.269-0.265,0.447-0.192C41.211,1.458,41.297,1.659,41.228,1.836z"/>
	<path fill="#3ABEEE" d="M44.579,2.181c-0.069,0.176-0.27,0.264-0.445,0.193c-0.179-0.068-0.267-0.271-0.196-0.449
		c0.07-0.177,0.271-0.264,0.448-0.191C44.564,1.804,44.65,2.003,44.579,2.181z"/>
	<circle fill="#3ABEEE" cx="43.711" cy="9.463" r="0.562"/>
	<circle fill="#3ABEEE" cx="55.753" cy="72.317" r="0.51"/>
	<path fill="#3ABEEE" d="M57.373,74.033c-0.178,0.451-0.692,0.676-1.143,0.497c-0.453-0.181-0.677-0.691-0.496-1.146
		c0.179-0.451,0.691-0.675,1.146-0.492C57.331,73.067,57.55,73.58,57.373,74.033z"/>
	<circle fill="#3ABEEE" cx="62.985" cy="61.456" r="0.344"/>
	<circle fill="#3ABEEE" cx="61.879" cy="61.379" r="0.305"/>
	<path fill="#3ABEEE" d="M60.933,61.796c-0.061,0.156-0.238,0.233-0.394,0.172c-0.158-0.062-0.234-0.237-0.17-0.396
		c0.061-0.156,0.237-0.232,0.394-0.171C60.918,61.462,60.995,61.639,60.933,61.796z"/>
	<path fill="#3ABEEE" d="M60.162,62.854c-0.091,0.229-0.35,0.341-0.576,0.251c-0.231-0.09-0.344-0.353-0.251-0.58
		c0.089-0.229,0.348-0.342,0.578-0.25C60.139,62.364,60.253,62.624,60.162,62.854z"/>
	<path fill="#3ABEEE" d="M57.168,62.151c-0.081,0.205-0.313,0.308-0.518,0.228c-0.208-0.082-0.308-0.313-0.226-0.521
		c0.08-0.207,0.313-0.308,0.519-0.228C57.149,61.713,57.249,61.946,57.168,62.151z"/>
	<circle fill="#3ABEEE" cx="54.158" cy="61.455" r="0.4"/>
	<path fill="#3ABEEE" d="M53.102,62.042c-0.103,0.264-0.398,0.394-0.658,0.289c-0.265-0.104-0.393-0.399-0.288-0.663
		c0.102-0.265,0.396-0.393,0.661-0.287C53.078,61.486,53.206,61.782,53.102,62.042z"/>
	<path fill="#3ABEEE" d="M61.541,62.883c-0.114,0.29-0.442,0.435-0.729,0.318c-0.293-0.115-0.434-0.443-0.319-0.731
		c0.113-0.289,0.442-0.434,0.73-0.316C61.515,62.265,61.654,62.592,61.541,62.883z"/>
	<circle fill="#3ABEEE" cx="60.569" cy="67.207" r="0.29"/>
	<path fill="#3ABEEE" d="M59.262,62.392c-0.213,0.51-0.799,0.751-1.307,0.537c-0.513-0.214-0.75-0.8-0.537-1.312
		c0.211-0.511,0.799-0.75,1.31-0.536C59.239,61.297,59.477,61.881,59.262,62.392z"/>
	<path fill="#3ABEEE" d="M62.129,64.952c-0.239,0.566-0.89,0.834-1.454,0.598c-0.569-0.236-0.833-0.891-0.597-1.458
		c0.237-0.562,0.887-0.834,1.455-0.595C62.1,63.734,62.367,64.385,62.129,64.952z"/>
	<path fill="#3ABEEE" d="M59.556,59.251c-0.135,0.323-0.506,0.477-0.826,0.34c-0.325-0.136-0.476-0.505-0.34-0.827
		c0.134-0.321,0.504-0.475,0.828-0.34C59.54,58.559,59.69,58.929,59.556,59.251z"/>
	<circle fill="#3ABEEE" cx="43.715" cy="49.478" r="0.562"/>
	<path fill="#3ABEEE" d="M44.348,51.628c-0.206,0.529-0.804,0.788-1.329,0.581c-0.529-0.208-0.791-0.806-0.58-1.333
		c0.208-0.525,0.803-0.787,1.331-0.578C44.298,50.504,44.553,51.101,44.348,51.628z"/>
	<circle fill="#3ABEEE" cx="40.272" cy="45.177" r="0.603"/>
	<path fill="#3ABEEE" d="M25.342,42.819c-0.113,0.289-0.442,0.432-0.729,0.318c-0.29-0.114-0.434-0.441-0.316-0.732
		c0.113-0.289,0.439-0.43,0.729-0.315C25.314,42.203,25.455,42.529,25.342,42.819z"/>
	<circle fill="#3ABEEE" cx="23.691" cy="46.985" r="0.562"/>
	<circle fill="#3ABEEE" cx="31.416" cy="29.246" r="0.563"/>
	<path fill="#3ABEEE" d="M32.488,42.868c-0.14,0.277-0.481,0.388-0.756,0.249c-0.279-0.143-0.389-0.481-0.246-0.76
		c0.141-0.277,0.479-0.389,0.757-0.247C32.52,42.252,32.629,42.59,32.488,42.868z"/>
	<circle fill="#3ABEEE" cx="28.829" cy="35.281" r="0.562"/>
	<path fill="#3ABEEE" d="M34.53,30.606c-0.14,0.275-0.481,0.387-0.756,0.246c-0.278-0.144-0.389-0.479-0.247-0.76
		c0.142-0.277,0.48-0.387,0.758-0.245C34.561,29.989,34.671,30.327,34.53,30.606z"/>
	<path fill="#3ABEEE" d="M33.806,28.776c-0.214,0.424-0.733,0.591-1.151,0.378c-0.424-0.217-0.593-0.733-0.375-1.155
		c0.216-0.422,0.73-0.59,1.155-0.375C33.853,27.838,34.02,28.354,33.806,28.776z"/>
	<path fill="#3ABEEE" d="M42.889,31.45c-0.215,0.421-0.733,0.589-1.151,0.376c-0.424-0.217-0.592-0.733-0.375-1.156
		c0.216-0.422,0.73-0.59,1.154-0.375C42.936,30.51,43.103,31.027,42.889,31.45z"/>
	<path fill="#3ABEEE" d="M44.216,32.122c-0.141,0.276-0.481,0.386-0.756,0.246c-0.279-0.142-0.391-0.479-0.248-0.759
		c0.141-0.276,0.481-0.387,0.757-0.246C44.248,31.504,44.356,31.844,44.216,32.122z"/>
	<path fill="#3ABEEE" d="M36.711,31.318c-0.222,0.438-0.761,0.611-1.195,0.392c-0.44-0.227-0.617-0.761-0.39-1.201
		c0.224-0.438,0.757-0.61,1.198-0.389C36.762,30.342,36.934,30.878,36.711,31.318z"/>
	<path fill="#3ABEEE" d="M25.736,45.562c-0.392,0.772-1.342,1.08-2.111,0.689c-0.775-0.396-1.087-1.344-0.689-2.12
		c0.396-0.772,1.341-1.08,2.117-0.687C25.823,43.84,26.128,44.786,25.736,45.562z"/>
	<path fill="#3ABEEE" d="M31.662,71.284c-0.185,0.362-0.63,0.506-0.991,0.323c-0.364-0.188-0.51-0.63-0.323-0.993
		c0.186-0.364,0.628-0.508,0.992-0.323C31.702,70.475,31.846,70.919,31.662,71.284z"/>
	<path fill="#3ABEEE" d="M25.474,70.616c-0.14,0.276-0.481,0.387-0.756,0.246c-0.279-0.144-0.391-0.48-0.247-0.76
		c0.142-0.275,0.48-0.389,0.757-0.245C25.506,69.999,25.615,70.338,25.474,70.616z"/>
	<circle fill="#3ABEEE" cx="20.403" cy="50.952" r="0.563"/>
	<circle fill="#3ABEEE" cx="17.628" cy="60.97" r="0.563"/>
	<path fill="#3ABEEE" d="M10.634,62.611c-0.14,0.277-0.481,0.388-0.756,0.247c-0.279-0.144-0.391-0.48-0.246-0.759
		c0.141-0.277,0.479-0.388,0.757-0.245C10.666,61.996,10.774,62.334,10.634,62.611z"/>
	<circle fill="#3ABEEE" cx="23.576" cy="70.361" r="0.562"/>
	<circle fill="#3ABEEE" cx="14.302" cy="79.697" r="0.563"/>
	<path fill="#3ABEEE" d="M13.629,82.005c-0.14,0.277-0.481,0.391-0.756,0.246c-0.278-0.141-0.39-0.479-0.246-0.758
		c0.141-0.277,0.479-0.387,0.757-0.246C13.661,81.387,13.771,81.727,13.629,82.005z"/>
	<path fill="#3ABEEE" d="M8.152,68.539c-0.141,0.276-0.481,0.387-0.756,0.247c-0.279-0.142-0.392-0.479-0.247-0.76
		c0.141-0.277,0.479-0.387,0.757-0.244C8.182,67.923,8.292,68.26,8.152,68.539z"/>
	<path fill="#3ABEEE" d="M13.317,76.497c0.021,0.367-0.262,0.684-0.626,0.704c-0.37,0.021-0.685-0.259-0.705-0.628
		c-0.021-0.368,0.261-0.681,0.628-0.703C12.981,75.849,13.295,76.13,13.317,76.497z"/>
	<path fill="#3ABEEE" d="M22.95,77.872c-0.14,0.277-0.48,0.387-0.756,0.246c-0.278-0.142-0.391-0.479-0.246-0.758
		c0.141-0.277,0.479-0.387,0.757-0.244C22.981,77.254,23.091,77.593,22.95,77.872z"/>
	<circle fill="#3ABEEE" cx="19.576" cy="77.616" r="0.563"/>
	<path fill="#3ABEEE" d="M29.617,72.413c-0.498,0.981-1.702,1.369-2.676,0.876c-0.986-0.501-1.38-1.703-0.874-2.688
		c0.5-0.98,1.698-1.369,2.681-0.87C29.729,70.23,30.113,71.427,29.617,72.413z"/>
	<path fill="#3ABEEE" d="M41.269,82.137c-0.48,0.943-1.64,1.32-2.58,0.842c-0.951-0.482-1.331-1.643-0.844-2.59
		c0.486-0.947,1.638-1.322,2.587-0.838C41.377,80.03,41.75,81.188,41.269,82.137z"/>
	<path fill="#3ABEEE" d="M47.603,79.124c-0.142,0.279-0.482,0.387-0.756,0.25c-0.278-0.143-0.39-0.48-0.247-0.762
		c0.141-0.277,0.479-0.387,0.757-0.244C47.634,78.507,47.743,78.846,47.603,79.124z"/>
	<circle fill="#3ABEEE" cx="49.871" cy="63.673" r="0.562"/>
	<circle fill="#3ABEEE" cx="48.626" cy="65.636" r="0.563"/>
	<path fill="#3ABEEE" d="M61.152,66.439c-0.139,0.275-0.48,0.387-0.756,0.248c-0.278-0.145-0.389-0.481-0.246-0.761
		c0.141-0.276,0.48-0.387,0.757-0.244C61.185,65.822,61.294,66.161,61.152,66.439z"/>
	<circle fill="#3ABEEE" cx="54.93" cy="74.821" r="0.563"/>
	<path fill="#3ABEEE" d="M51.648,78.434c-0.142,0.277-0.482,0.387-0.757,0.248c-0.277-0.143-0.39-0.48-0.246-0.761
		c0.141-0.274,0.479-0.387,0.758-0.246C51.679,77.817,51.787,78.157,51.648,78.434z"/>
	<path fill="#3ABEEE" d="M30.133,82.897c-0.14,0.275-0.481,0.387-0.756,0.246c-0.278-0.143-0.39-0.48-0.246-0.76
		c0.141-0.277,0.479-0.387,0.758-0.244C30.165,82.28,30.274,82.62,30.133,82.897z"/>
	<path fill="#3ABEEE" d="M36.444,79.124c-0.14,0.277-0.48,0.387-0.757,0.248c-0.277-0.145-0.39-0.48-0.245-0.762
		c0.141-0.277,0.479-0.385,0.756-0.244C36.475,78.507,36.585,78.846,36.444,79.124z"/>
	<path fill="#3ABEEE" d="M33.472,68.339c-0.14,0.278-0.481,0.39-0.756,0.249c-0.279-0.143-0.39-0.48-0.246-0.759
		c0.141-0.277,0.479-0.389,0.757-0.247C33.504,67.722,33.613,68.062,33.472,68.339z"/>
	<path fill="#3ABEEE" d="M34.6,65.938c-0.141,0.275-0.481,0.388-0.756,0.248c-0.279-0.144-0.39-0.482-0.246-0.762
		c0.141-0.274,0.479-0.386,0.757-0.244C34.632,65.321,34.74,65.66,34.6,65.938z"/>
	<path fill="#3ABEEE" d="M27.836,83.145c-0.277,0.545-0.949,0.764-1.491,0.484c-0.548-0.277-0.77-0.943-0.486-1.494
		c0.279-0.549,0.946-0.764,1.494-0.484C27.899,81.927,28.113,82.596,27.836,83.145z"/>
	<circle fill="#3ABEEE" cx="26.201" cy="85.251" r="0.562"/>
	<path fill="#3ABEEE" d="M2.698,84.098c-0.19,0.447-0.707,0.66-1.154,0.475c-0.451-0.189-0.663-0.705-0.474-1.156
		c0.188-0.449,0.705-0.662,1.155-0.473C2.674,83.132,2.885,83.649,2.698,84.098z"/>
	<circle fill="#3ABEEE" cx="8.699" cy="65.27" r="0.304"/>
	<circle fill="#3ABEEE" cx="19.879" cy="76.307" r="0.304"/>
	<path fill="#3ABEEE" d="M15.365,77.936c-0.173,0.447-0.679,0.666-1.121,0.49c-0.448-0.176-0.669-0.682-0.49-1.129
		c0.175-0.448,0.678-0.667,1.126-0.487C15.325,76.984,15.54,77.492,15.365,77.936z"/>
	<path fill="#3ABEEE" d="M11.925,76.569c-0.078,0.202-0.308,0.303-0.509,0.224c-0.204-0.08-0.303-0.311-0.222-0.511
		c0.079-0.203,0.309-0.303,0.511-0.223C11.906,76.138,12.005,76.367,11.925,76.569z"/>
	<path fill="#3ABEEE" d="M9.07,80.196c-0.062,0.158-0.239,0.236-0.395,0.174c-0.158-0.061-0.234-0.238-0.172-0.396
		c0.061-0.156,0.239-0.232,0.395-0.174C9.055,79.866,9.131,80.042,9.07,80.196z"/>
	<path fill="#3ABEEE" d="M12.247,75.69c-0.038,0.1-0.149,0.146-0.245,0.106c-0.1-0.039-0.147-0.147-0.108-0.246
		c0.038-0.099,0.147-0.146,0.246-0.107C12.239,75.481,12.286,75.592,12.247,75.69z"/>
	<path fill="#3ABEEE" d="M6.183,73.885c-0.038,0.101-0.148,0.147-0.245,0.107c-0.101-0.038-0.148-0.148-0.108-0.246
		c0.038-0.101,0.149-0.146,0.246-0.106C6.175,73.676,6.223,73.787,6.183,73.885z"/>
	<path fill="#3ABEEE" d="M10.78,72.674c-0.006,0.104-0.096,0.188-0.199,0.181c-0.108-0.005-0.187-0.097-0.179-0.202
		c0.005-0.104,0.093-0.187,0.2-0.179C10.708,72.476,10.788,72.567,10.78,72.674z"/>
	<path fill="#3ABEEE" d="M10.648,70.752c-0.007,0.114-0.105,0.203-0.217,0.194c-0.119-0.007-0.206-0.104-0.198-0.22
		c0.004-0.117,0.103-0.205,0.218-0.197C10.568,70.536,10.654,70.635,10.648,70.752z"/>
	<path fill="#3ABEEE" d="M6.596,70.472c-0.062,0.155-0.24,0.232-0.395,0.173c-0.158-0.062-0.234-0.24-0.171-0.396
		c0.062-0.157,0.239-0.231,0.396-0.171C6.58,70.138,6.656,70.315,6.596,70.472z"/>
	<path fill="#3ABEEE" d="M11.864,75.334c-0.114,0.291-0.443,0.436-0.733,0.319c-0.293-0.115-0.435-0.445-0.32-0.737
		c0.115-0.292,0.443-0.434,0.735-0.317C11.839,74.712,11.978,75.042,11.864,75.334z"/>
	<path fill="#3ABEEE" d="M12.58,66.784c-0.061,0.155-0.237,0.232-0.394,0.172c-0.158-0.062-0.234-0.239-0.172-0.396
		s0.239-0.231,0.396-0.174C12.566,66.451,12.643,66.627,12.58,66.784z"/>
	<circle fill="#3ABEEE" cx="63.66" cy="61.266" r="0.19"/>
	<circle fill="#3ABEEE" cx="61.213" cy="61.266" r="0.19"/>
	<circle fill="#3ABEEE" cx="61.213" cy="61.814" r="0.19"/>
	<circle fill="#3ABEEE" cx="58.672" cy="63.301" r="0.19"/>
	<path fill="#3ABEEE" d="M60.165,61.498c-0.069,0.176-0.269,0.266-0.442,0.193c-0.179-0.069-0.265-0.271-0.193-0.444
		c0.068-0.18,0.267-0.265,0.445-0.195C60.15,61.12,60.236,61.321,60.165,61.498z"/>
	<path fill="#3ABEEE" d="M57.008,61.35c-0.045,0.115-0.179,0.175-0.294,0.129c-0.121-0.047-0.178-0.181-0.13-0.298
		c0.045-0.117,0.178-0.178,0.295-0.13C56.999,61.098,57.055,61.231,57.008,61.35z"/>
	<path fill="#3ABEEE" d="M49.295,62.774c-0.044,0.118-0.178,0.177-0.293,0.13c-0.121-0.047-0.177-0.179-0.131-0.297
		c0.046-0.119,0.179-0.175,0.296-0.128C49.286,62.524,49.343,62.656,49.295,62.774z"/>
	<path fill="#3ABEEE" d="M53.586,61.43c-0.046,0.117-0.18,0.176-0.295,0.129c-0.12-0.045-0.177-0.181-0.129-0.296
		c0.046-0.119,0.178-0.178,0.296-0.131S53.633,61.311,53.586,61.43z"/>
	<path fill="#3ABEEE" d="M62.536,61.863c-0.038,0.099-0.149,0.146-0.246,0.105c-0.099-0.037-0.146-0.146-0.106-0.244
		c0.038-0.102,0.148-0.146,0.246-0.107C62.527,61.654,62.575,61.765,62.536,61.863z"/>
	<path fill="#3ABEEE" d="M61.94,62.054c-0.038,0.099-0.148,0.146-0.244,0.105c-0.101-0.038-0.148-0.147-0.108-0.247
		c0.038-0.101,0.149-0.146,0.247-0.106C61.933,61.844,61.98,61.955,61.94,62.054z"/>
	<path fill="#3ABEEE" d="M60.148,65.499c-0.038,0.101-0.149,0.146-0.245,0.105c-0.1-0.038-0.147-0.148-0.107-0.246
		c0.038-0.101,0.148-0.146,0.247-0.107C60.139,65.29,60.187,65.4,60.148,65.499z"/>
	<path fill="#3ABEEE" d="M62.592,63.848c-0.056,0.146-0.221,0.217-0.366,0.158c-0.146-0.058-0.218-0.223-0.158-0.367
		c0.054-0.146,0.22-0.22,0.366-0.16C62.58,63.537,62.652,63.701,62.592,63.848z"/>
	<path fill="#3ABEEE" d="M61.94,63.371c-0.038,0.098-0.148,0.146-0.244,0.107c-0.101-0.04-0.148-0.149-0.108-0.248
		c0.038-0.101,0.149-0.146,0.247-0.107S61.98,63.272,61.94,63.371z"/>
	<path fill="#3ABEEE" d="M59.887,64.629c-0.038,0.1-0.149,0.146-0.245,0.106c-0.1-0.039-0.147-0.149-0.108-0.247
		c0.038-0.099,0.149-0.146,0.248-0.107C59.879,64.419,59.926,64.53,59.887,64.629z"/>
	<circle fill="#3ABEEE" cx="60.326" cy="63.301" r="0.19"/>
	<path fill="#3ABEEE" d="M60.014,63.946c-0.109,0.278-0.422,0.415-0.695,0.306c-0.282-0.107-0.419-0.422-0.307-0.701
		c0.109-0.279,0.42-0.415,0.699-0.305C59.989,63.353,60.126,63.667,60.014,63.946z"/>
	<circle fill="#3ABEEE" cx="60.162" cy="62.045" r="0.19"/>
	<path fill="#3ABEEE" d="M52.294,58.038c-0.038,0.097-0.148,0.146-0.245,0.106c-0.1-0.039-0.147-0.148-0.108-0.247
		c0.038-0.101,0.149-0.146,0.248-0.107C52.287,57.828,52.334,57.94,52.294,58.038z"/>
	<path fill="#3ABEEE" d="M56.177,61.749c-0.088,0.229-0.349,0.344-0.576,0.252c-0.234-0.092-0.345-0.351-0.252-0.58
		c0.089-0.23,0.349-0.344,0.579-0.253S56.272,61.519,56.177,61.749z"/>
	<path fill="#3ABEEE" d="M56.454,59.356c-0.089,0.229-0.349,0.345-0.576,0.253c-0.233-0.092-0.345-0.352-0.252-0.58
		c0.09-0.232,0.348-0.345,0.579-0.254S56.548,59.126,56.454,59.356z"/>
	<path fill="#3ABEEE" d="M63.456,62.075c-0.039,0.098-0.149,0.146-0.246,0.107c-0.1-0.039-0.147-0.149-0.107-0.248
		c0.038-0.101,0.148-0.146,0.246-0.107C63.447,61.866,63.495,61.977,63.456,62.075z"/>
	<path fill="#3ABEEE" d="M2.141,72.462c0.136-0.344,0.526-0.513,0.868-0.379c0.346,0.14,0.515,0.526,0.379,0.872
		c-0.137,0.344-0.526,0.513-0.871,0.377C2.175,73.196,2.005,72.806,2.141,72.462z"/>
	<path fill="#3ABEEE" d="M6.289,77.577c0.101-0.259,0.393-0.384,0.649-0.282c0.259,0.104,0.385,0.395,0.282,0.648
		c-0.101,0.261-0.391,0.386-0.651,0.284C6.314,78.126,6.191,77.835,6.289,77.577z"/>
	<path fill="#3ABEEE" d="M7.261,78.116c0.067-0.176,0.268-0.263,0.443-0.193c0.179,0.07,0.264,0.271,0.193,0.447
		c-0.069,0.176-0.268,0.262-0.446,0.191C7.277,78.493,7.192,78.294,7.261,78.116z"/>
	<path fill="#3ABEEE" d="M6.728,76.734c0.068-0.177,0.269-0.266,0.443-0.193c0.178,0.069,0.264,0.271,0.193,0.445
		c-0.07,0.178-0.269,0.261-0.446,0.19C6.744,77.109,6.66,76.911,6.728,76.734z"/>
	<path fill="#3ABEEE" d="M7.569,75.19c0.068-0.176,0.269-0.265,0.443-0.192c0.179,0.069,0.264,0.271,0.193,0.445
		c-0.069,0.179-0.268,0.264-0.446,0.191C7.585,75.567,7.5,75.368,7.569,75.19z"/>
	<path fill="#3ABEEE" d="M9.044,79.571c0.115-0.295,0.45-0.439,0.742-0.324c0.297,0.117,0.442,0.449,0.324,0.746
		c-0.115,0.293-0.45,0.439-0.747,0.32C9.07,80.2,8.928,79.868,9.044,79.571z"/>
	<path fill="#3ABEEE" d="M11.802,77.753c0.101-0.253,0.385-0.377,0.638-0.276c0.256,0.103,0.38,0.388,0.278,0.641
		c-0.1,0.255-0.385,0.38-0.64,0.278C11.827,78.296,11.702,78.008,11.802,77.753z"/>
	<path fill="#3ABEEE" d="M7.662,76.21c0.176-0.451,0.688-0.675,1.138-0.497c0.458,0.181,0.682,0.691,0.499,1.146
		c-0.178,0.456-0.691,0.678-1.143,0.499C7.703,77.176,7.483,76.665,7.662,76.21z"/>
	<path fill="#3ABEEE" d="M9.377,71.621c0.127-0.32,0.49-0.478,0.805-0.351c0.324,0.125,0.482,0.485,0.354,0.808
		c-0.126,0.319-0.488,0.479-0.81,0.349C9.408,72.302,9.252,71.942,9.377,71.621z"/>
	<path fill="#3ABEEE" d="M9.981,77.404c0.184-0.438,0.686-0.642,1.12-0.459c0.439,0.184,0.644,0.686,0.46,1.123
		c-0.184,0.437-0.685,0.643-1.122,0.459C10.002,78.343,9.797,77.842,9.981,77.404z"/>
	<path fill="#3ABEEE" d="M8.092,73.519c0.299-0.711,1.116-1.045,1.826-0.749c0.711,0.298,1.045,1.113,0.748,1.829
		c-0.297,0.709-1.113,1.046-1.825,0.749C8.129,75.05,7.794,74.232,8.092,73.519z"/>
	<path fill="#3ABEEE" d="M5.981,78.313c0.038-0.098,0.147-0.146,0.244-0.107c0.1,0.041,0.148,0.148,0.108,0.248
		c-0.038,0.098-0.148,0.146-0.247,0.107C5.988,78.524,5.941,78.413,5.981,78.313z"/>
	<path fill="#3ABEEE" d="M13.143,78.233c0.038-0.096,0.147-0.146,0.246-0.105c0.099,0.041,0.147,0.148,0.106,0.248
		c-0.037,0.1-0.147,0.146-0.245,0.107C13.15,78.444,13.102,78.335,13.143,78.233z"/>
	<path fill="#3ABEEE" d="M13.427,76.465c0.038-0.1,0.148-0.146,0.244-0.106c0.101,0.04,0.148,0.147,0.108,0.248
		c-0.039,0.1-0.149,0.146-0.247,0.105C13.435,76.674,13.388,76.562,13.427,76.465z"/>
	<path fill="#3ABEEE" d="M12.951,77.455c0.038-0.1,0.148-0.146,0.245-0.106c0.101,0.036,0.147,0.148,0.108,0.245
		c-0.038,0.1-0.149,0.146-0.246,0.106C12.959,77.663,12.912,77.552,12.951,77.455z"/>
	<circle fill="#3ABEEE" cx="5.189" cy="75.811" r="0.19"/>
	<path fill="#3ABEEE" d="M10.413,75.623c0.038-0.1,0.149-0.146,0.246-0.106c0.099,0.036,0.147,0.147,0.108,0.248
		c-0.038,0.097-0.149,0.146-0.247,0.104C10.421,75.832,10.374,75.719,10.413,75.623z"/>
	<circle fill="#3ABEEE" cx="15.803" cy="77.239" r="0.19"/>
	<path fill="#3ABEEE" d="M8.097,77.863c0.038-0.098,0.149-0.147,0.245-0.106c0.1,0.039,0.147,0.147,0.108,0.247
		c-0.038,0.1-0.149,0.146-0.247,0.108C8.105,78.075,8.057,77.962,8.097,77.863z"/>
	<path fill="#3ABEEE" d="M9.393,77.131c0.038-0.096,0.148-0.146,0.245-0.105c0.101,0.04,0.147,0.147,0.108,0.248
		c-0.038,0.1-0.149,0.146-0.246,0.106C9.401,77.34,9.354,77.229,9.393,77.131z"/>
	<path fill="#3ABEEE" d="M7.403,77.455c0.038-0.1,0.149-0.146,0.245-0.106c0.1,0.036,0.147,0.148,0.108,0.245
		C7.718,77.691,7.607,77.74,7.509,77.7C7.411,77.663,7.363,77.552,7.403,77.455z"/>
	<path fill="#3ABEEE" d="M7.061,75.92c0.038-0.1,0.148-0.146,0.245-0.106c0.101,0.039,0.148,0.147,0.108,0.248
		c-0.038,0.099-0.149,0.146-0.246,0.106C7.068,76.13,7.021,76.018,7.061,75.92z"/>
	<path fill="#3ABEEE" d="M10.482,76.418c0.054-0.137,0.208-0.206,0.344-0.149c0.141,0.055,0.208,0.21,0.153,0.349
		c-0.055,0.141-0.21,0.206-0.348,0.151C10.493,76.713,10.425,76.557,10.482,76.418z"/>
	<path fill="#3ABEEE" d="M9.512,76.022c0.087-0.227,0.339-0.334,0.559-0.247c0.228,0.091,0.337,0.343,0.246,0.562
		c-0.087,0.227-0.338,0.334-0.562,0.245C9.53,76.499,9.421,76.246,9.512,76.022z"/>
	<path fill="#3ABEEE" d="M8.622,77.859c0.099-0.255,0.384-0.38,0.633-0.278c0.257,0.102,0.381,0.385,0.278,0.639
		c-0.098,0.258-0.382,0.381-0.634,0.277C8.642,78.399,8.52,78.112,8.622,77.859z"/>
	<path fill="#3ABEEE" d="M25.432,122.909c0.296-0.742,1.134-1.104,1.872-0.812c0.742,0.293,1.105,1.133,0.815,1.875
		c-0.292,0.74-1.132,1.104-1.875,0.811C25.504,124.489,25.141,123.649,25.432,122.909z"/>
	<path fill="#3ABEEE" d="M29.989,123.94c0.254-0.641,0.976-0.953,1.61-0.703c0.64,0.256,0.954,0.979,0.702,1.613
		c-0.251,0.641-0.974,0.955-1.614,0.699C30.051,125.302,29.737,124.579,29.989,123.94z"/>
	<path fill="#3ABEEE" d="M25.244,130.02c0.287-0.684,1.071-1.004,1.75-0.723c0.687,0.287,1.006,1.072,0.719,1.758
		c-0.285,0.68-1.068,1.004-1.751,0.717C25.279,131.487,24.958,130.704,25.244,130.02z"/>
	<path fill="#3ABEEE" d="M27.604,126.567c0.372-0.939,1.437-1.406,2.379-1.035c0.943,0.373,1.405,1.441,1.034,2.381
		c-0.371,0.943-1.437,1.404-2.38,1.029C27.694,128.573,27.232,127.509,27.604,126.567z"/>
	<path fill="#3ABEEE" d="M25.384,133.608c0.131-0.342,0.521-0.508,0.858-0.375c0.342,0.133,0.51,0.521,0.374,0.859
		c-0.134,0.344-0.521,0.51-0.859,0.373C25.416,134.333,25.249,133.95,25.384,133.608z"/>
	<path fill="#3ABEEE" d="M25.363,135.669c0.134-0.348,0.528-0.516,0.873-0.381c0.348,0.139,0.519,0.529,0.381,0.877
		c-0.137,0.35-0.527,0.52-0.875,0.381C25.395,136.409,25.228,136.016,25.363,135.669z"/>
	<path fill="#3ABEEE" d="M26.985,133.917c0.071-0.182,0.274-0.27,0.452-0.195c0.181,0.068,0.27,0.271,0.196,0.451
		c-0.069,0.182-0.272,0.27-0.453,0.195C27.001,134.3,26.915,134.094,26.985,133.917z"/>
	<circle fill="#3ABEEE" cx="28.072" cy="131.023" r="0.253"/>
	<path fill="#3ABEEE" d="M25.733,127.733c0.165-0.412,0.629-0.613,1.037-0.453c0.415,0.162,0.617,0.627,0.453,1.039
		c-0.162,0.412-0.627,0.615-1.039,0.453C25.774,128.61,25.573,128.145,25.733,127.733z"/>
	<path fill="#3ABEEE" d="M27.408,129.102c0.07-0.178,0.27-0.268,0.445-0.195c0.179,0.068,0.267,0.271,0.196,0.447
		c-0.069,0.178-0.27,0.266-0.446,0.191C27.424,129.479,27.338,129.278,27.408,129.102z"/>
	<circle fill="#3ABEEE" cx="29.944" cy="123.153" r="0.285"/>
	<circle fill="#3ABEEE" cx="32.773" cy="123.153" r="0.285"/>
	<path fill="#3ABEEE" d="M31.165,126.034c0.058-0.145,0.223-0.219,0.369-0.158s0.219,0.225,0.16,0.369
		c-0.057,0.146-0.224,0.219-0.369,0.16C31.178,126.348,31.107,126.182,31.165,126.034z"/>
	<path fill="#3ABEEE" d="M27.458,124.956c0.058-0.145,0.223-0.217,0.37-0.158s0.219,0.225,0.16,0.371
		c-0.058,0.146-0.224,0.219-0.37,0.158C27.471,125.27,27.399,125.102,27.458,124.956z"/>
	<circle fill="#3ABEEE" cx="25.559" cy="127.071" r="0.285"/>
	<circle fill="#3ABEEE" cx="25.559" cy="128.971" r="0.285"/>
	<path fill="#3ABEEE" d="M32.433,130.108c0.058-0.146,0.225-0.221,0.37-0.164c0.147,0.062,0.22,0.227,0.16,0.371
		c-0.057,0.146-0.223,0.219-0.37,0.16C32.446,130.419,32.376,130.255,32.433,130.108z"/>
	<path fill="#3ABEEE" d="M25.39,132.409c0.084-0.209,0.322-0.312,0.534-0.229c0.213,0.084,0.316,0.32,0.231,0.533
		c-0.082,0.211-0.322,0.312-0.532,0.229C25.41,132.862,25.308,132.622,25.39,132.409z"/>
	<path fill="#3ABEEE" d="M27.87,131.637c0.113-0.279,0.426-0.422,0.704-0.309c0.28,0.109,0.419,0.424,0.306,0.703
		c-0.109,0.281-0.425,0.418-0.703,0.305C27.896,132.231,27.763,131.915,27.87,131.637z"/>
	<path fill="#3ABEEE" d="M25.468,134.798c0.051-0.135,0.204-0.199,0.339-0.146c0.136,0.053,0.204,0.207,0.148,0.342
		c-0.052,0.139-0.205,0.203-0.341,0.15C25.478,135.087,25.413,134.934,25.468,134.798z"/>
	<path fill="#3ABEEE" d="M26.254,134.741c0.091-0.236,0.358-0.355,0.594-0.262c0.24,0.092,0.358,0.359,0.26,0.6
		c-0.093,0.236-0.359,0.355-0.598,0.262C26.274,135.247,26.158,134.977,26.254,134.741z"/>
	<path fill="#3ABEEE" d="M25.392,136.87c0.068-0.176,0.269-0.262,0.444-0.189c0.179,0.066,0.267,0.27,0.196,0.441
		c-0.07,0.184-0.271,0.27-0.447,0.195C25.407,137.247,25.322,137.05,25.392,136.87z"/>
	<path fill="#3ABEEE" d="M25.24,137.743c0.07-0.178,0.27-0.264,0.446-0.193c0.178,0.068,0.267,0.271,0.195,0.445
		c-0.069,0.182-0.27,0.27-0.448,0.193C25.256,138.122,25.17,137.921,25.24,137.743z"/>
	<path fill="#3ABEEE" d="M25.661,125.655c0.189-0.479,0.736-0.719,1.215-0.529c0.482,0.193,0.722,0.736,0.527,1.225
		c-0.188,0.479-0.732,0.717-1.217,0.521C25.707,126.684,25.474,126.139,25.661,125.655z"/>
	<path fill="#3ABEEE" d="M28.217,124.45c0.128-0.322,0.498-0.484,0.822-0.354c0.328,0.129,0.489,0.496,0.358,0.822
		c-0.128,0.324-0.495,0.484-0.823,0.355C28.249,125.145,28.09,124.778,28.217,124.45z"/>
	<path fill="#3ABEEE" d="M27.132,120.307c0.127-0.326,0.498-0.486,0.822-0.359c0.327,0.131,0.489,0.498,0.356,0.824
		c-0.126,0.328-0.494,0.486-0.823,0.355C27.163,121.001,27.004,120.634,27.132,120.307z"/>
	<path fill="#3ABEEE" d="M28.119,129.817c0.16-0.41,0.625-0.607,1.033-0.451c0.41,0.166,0.612,0.627,0.448,1.035
		c-0.161,0.41-0.623,0.611-1.033,0.449C28.157,130.688,27.959,130.227,28.119,129.817z"/>
	<path fill="#3ABEEE" d="M26.401,132.415c0.169-0.436,0.666-0.648,1.099-0.479c0.435,0.174,0.652,0.668,0.477,1.104
		c-0.172,0.438-0.663,0.648-1.099,0.479C26.441,133.343,26.229,132.85,26.401,132.415z"/>
	<path fill="#3ABEEE" d="M30.172,128.202c-0.141,0.277-0.482,0.389-0.757,0.248c-0.277-0.141-0.39-0.479-0.246-0.76
		c0.143-0.277,0.479-0.391,0.758-0.244C30.203,127.585,30.313,127.925,30.172,128.202z"/>
	<path fill="#3ABEEE" d="M33.168,147.594c-0.141,0.277-0.482,0.391-0.756,0.246c-0.278-0.141-0.391-0.479-0.247-0.758
		c0.141-0.275,0.48-0.387,0.758-0.246C33.199,146.977,33.308,147.317,33.168,147.594z"/>
	<circle fill="#3ABEEE" cx="27.187" cy="133.874" r="0.562"/>
	<path fill="#3ABEEE" d="M22.235,149.688c-0.189,0.449-0.706,0.662-1.153,0.475c-0.451-0.188-0.663-0.703-0.475-1.154
		c0.188-0.447,0.704-0.658,1.154-0.475C22.212,148.721,22.423,149.239,22.235,149.688z"/>
	<circle fill="#3ABEEE" cx="28.237" cy="130.859" r="0.304"/>
	<path fill="#3ABEEE" d="M28.607,145.788c-0.062,0.158-0.239,0.234-0.394,0.176c-0.159-0.062-0.235-0.238-0.172-0.396
		c0.062-0.154,0.239-0.232,0.396-0.17C28.592,145.456,28.668,145.634,28.607,145.788z"/>
	<path fill="#3ABEEE" d="M25.721,139.475c-0.039,0.098-0.149,0.146-0.246,0.105c-0.099-0.039-0.147-0.146-0.107-0.246
		c0.037-0.102,0.148-0.146,0.246-0.109C25.712,139.266,25.76,139.378,25.721,139.475z"/>
	<path fill="#3ABEEE" d="M32.924,133.565c-0.006,0.104-0.096,0.188-0.199,0.178c-0.107-0.004-0.187-0.096-0.179-0.197
		c0.006-0.105,0.094-0.188,0.201-0.182C32.852,133.368,32.931,133.46,32.924,133.565z"/>
	<path fill="#3ABEEE" d="M32.793,131.643c-0.007,0.113-0.105,0.203-0.217,0.193c-0.119-0.008-0.205-0.104-0.198-0.219
		c0.005-0.117,0.103-0.205,0.218-0.199C32.711,131.427,32.8,131.526,32.793,131.643z"/>
	<path fill="#3ABEEE" d="M26.133,136.063c-0.062,0.154-0.239,0.232-0.395,0.172c-0.158-0.062-0.234-0.24-0.172-0.396
		s0.239-0.232,0.396-0.172C26.118,135.729,26.193,135.907,26.133,136.063z"/>
	<path fill="#3ABEEE" d="M21.678,138.052c0.137-0.344,0.526-0.514,0.868-0.377c0.346,0.139,0.515,0.525,0.379,0.873
		c-0.137,0.344-0.526,0.514-0.871,0.373C21.713,138.786,21.544,138.397,21.678,138.052z"/>
	<path fill="#3ABEEE" d="M25.827,143.169c0.102-0.26,0.393-0.385,0.65-0.283c0.258,0.102,0.384,0.395,0.281,0.65
		c-0.101,0.26-0.391,0.383-0.65,0.283C25.852,143.716,25.728,143.425,25.827,143.169z"/>
	<path fill="#3ABEEE" d="M26.799,143.706c0.068-0.176,0.269-0.262,0.443-0.188c0.179,0.066,0.265,0.268,0.194,0.443
		c-0.069,0.178-0.268,0.266-0.446,0.191C26.816,144.083,26.73,143.884,26.799,143.706z"/>
	<path fill="#3ABEEE" d="M26.267,142.323c0.068-0.176,0.268-0.262,0.443-0.189c0.178,0.066,0.265,0.27,0.194,0.445
		c-0.07,0.178-0.269,0.262-0.446,0.191C26.283,142.7,26.196,142.501,26.267,142.323z"/>
	<path fill="#3ABEEE" d="M28.582,145.161c0.114-0.295,0.45-0.438,0.742-0.322c0.296,0.115,0.44,0.447,0.324,0.746
		c-0.116,0.295-0.452,0.439-0.746,0.32C28.609,145.79,28.466,145.458,28.582,145.161z"/>
	<path fill="#3ABEEE" d="M29.943,140.55c0.101-0.254,0.385-0.379,0.638-0.275c0.256,0.1,0.38,0.385,0.278,0.641
		c-0.1,0.256-0.387,0.377-0.639,0.277C29.968,141.093,29.844,140.802,29.943,140.55z"/>
	<path fill="#3ABEEE" d="M31.523,132.512c0.128-0.32,0.489-0.479,0.805-0.352c0.324,0.125,0.482,0.486,0.353,0.807
		c-0.126,0.32-0.488,0.479-0.808,0.352C31.553,133.196,31.398,132.833,31.523,132.512z"/>
	<path fill="#3ABEEE" d="M30.785,135.475c0.096,0.043,0.138,0.154,0.094,0.25c-0.043,0.096-0.157,0.141-0.251,0.096
		c-0.098-0.043-0.14-0.156-0.096-0.252C30.574,135.473,30.687,135.432,30.785,135.475z"/>
	<path fill="#3ABEEE" d="M31.091,140.249c0.038-0.096,0.149-0.143,0.245-0.104c0.101,0.037,0.147,0.146,0.108,0.248
		c-0.038,0.098-0.148,0.145-0.246,0.104C31.1,140.46,31.052,140.348,31.091,140.249z"/>
	<path fill="#3ABEEE" d="M24.55,141.333c0.038-0.1,0.149-0.146,0.245-0.105c0.101,0.039,0.147,0.146,0.108,0.244
		c-0.038,0.1-0.149,0.146-0.246,0.107C24.559,141.542,24.511,141.43,24.55,141.333z"/>
	<path fill="#3ABEEE" d="M27.635,143.454c0.038-0.096,0.148-0.145,0.246-0.104c0.099,0.039,0.146,0.146,0.107,0.246
		c-0.039,0.102-0.149,0.146-0.247,0.107C27.643,143.665,27.594,143.552,27.635,143.454z"/>
	<path fill="#3ABEEE" d="M28.931,142.721c0.038-0.1,0.148-0.146,0.245-0.105c0.099,0.037,0.147,0.148,0.107,0.246
		c-0.037,0.102-0.147,0.146-0.246,0.105C28.939,142.93,28.891,142.821,28.931,142.721z"/>
	<circle fill="#3ABEEE" cx="27.117" cy="143.116" r="0.189"/>
	<circle fill="#3ABEEE" cx="26.775" cy="141.582" r="0.188"/>
	<path fill="#3ABEEE" d="M28.159,143.45c0.1-0.256,0.384-0.381,0.632-0.277c0.257,0.102,0.382,0.387,0.279,0.641
		c-0.097,0.256-0.382,0.379-0.634,0.275C28.18,143.989,28.059,143.704,28.159,143.45z"/>
</g>
<path fill="#231F20" d="M115.761,72.067l10.566,18.479h-9.719l-10.143-17.518h-7.741v17.518h-8.476v-42.38h18.477
	c9.889,0,14.833,4.068,14.833,12.205C123.559,66.492,120.96,70.391,115.761,72.067z M98.725,65.117h11.866
	c3.409-0.057,5.161-1.61,5.255-4.662c-0.094-2.787-1.817-4.238-5.17-4.352H98.725V65.117z"/>
<path fill="#231F20" d="M130.622,65.682c3.579-2.262,7.722-3.392,12.431-3.392c3.39,0,6.074,0.94,8.052,2.825
	c1.978,1.883,2.967,4.708,2.967,8.476v16.951h-7.911v-2.26c-2.298,1.508-4.37,2.26-6.216,2.26c-3.768,0-6.592-0.801-8.476-2.4
	c-1.884-1.602-2.826-3.812-2.826-6.641c0-2.635,0.89-4.991,2.67-7.062c1.78-2.071,4.657-3.106,8.631-3.106
	c1.827,0,3.899,0.563,6.216,1.693V72.18c-0.038-2.071-1.545-3.202-4.52-3.392c-3.391,0-6.028,0.563-7.911,1.694L130.622,65.682z
	 M146.161,82.069v-3.193c-0.753-1.45-2.543-2.174-5.368-2.174c-3.39,0.377-5.18,1.694-5.368,3.956
	c0.188,2.24,1.978,3.455,5.368,3.645C143.618,84.3,145.408,83.555,146.161,82.069z"/>
<path fill="#231F20" d="M187.946,48.193v42.351h-7.909v-2.26c-2.11,1.508-4.183,2.26-6.216,2.26c-4.332,0-7.77-1.412-10.312-4.236
	s-3.812-6.121-3.812-9.89c0-3.767,1.271-7.062,3.812-9.889c2.544-2.824,5.98-4.236,10.312-4.236
	c2.824,0.188,4.896,0.951,6.216,2.288V48.165L187.946,48.193z M180.037,78.96v-4.577c-0.377-3.165-2.354-5.02-5.933-5.564
	c-4.521,0.356-7.063,2.704-7.629,7.035c0.188,5.272,2.73,8.004,7.629,8.192C177.683,83.481,179.66,81.786,180.037,78.96z"/>
<path fill="#231F20" d="M195.745,52.671c0.753-0.763,1.771-1.145,3.051-1.145c1.355,0,2.41,0.382,3.164,1.145
	c0.753,0.765,1.13,1.709,1.13,2.839c0,1.132-0.377,2.072-1.13,2.826c-0.754,0.754-1.79,1.13-3.107,1.13
	c-1.319,0-2.354-0.376-3.107-1.13c-0.753-0.753-1.131-1.693-1.131-2.826C194.615,54.379,194.992,53.435,195.745,52.671z
	 M202.808,90.544V62.264h-7.912v28.279H202.808z"/>
<path fill="#231F20" d="M226.737,80.514V62.263h7.912v28.279h-7.912v-2.568c-1.902,1.693-4.162,2.543-6.78,2.543
	c-3.578,0-6.31-1.084-8.194-3.25c-1.883-2.166-2.824-4.66-2.824-7.486V62.263h7.91v15.537c0,1.887,0.471,3.346,1.413,4.381
	c0.942,1.035,2.364,1.582,4.267,1.639C224.167,83.708,225.569,82.606,226.737,80.514z"/>
<path fill="#231F20" d="M257.449,63.082c1.469,0.643,2.844,1.592,4.125,2.854l-4.408,4.973c-1.281-1.525-2.882-2.288-4.804-2.288
	c-1.902,0-3.174,0.354-3.814,1.062c-0.641,0.706-0.641,1.347,0,1.921c0.641,0.572,1.912,1.05,3.814,1.426
	c2.807,0.266,5.104,1.062,6.895,2.402c1.789,1.338,2.684,3.662,2.684,6.978c0,2.676-1.055,4.746-3.164,6.215
	c-2.109,1.471-4.567,2.205-7.373,2.205c-2.674,0-4.902-0.383-6.682-1.145c-1.779-0.766-3.312-1.785-4.592-3.064l4.379-4.945
	c1.28,1.525,3.268,2.412,5.961,2.656c2.166,0,3.565-0.354,4.197-1.061c0.63-0.707,0.725-1.414,0.281-2.119
	c-0.443-0.707-1.936-1.184-4.479-1.426c-2.298-0.266-4.402-0.973-6.314-2.12c-1.911-1.147-2.867-3.313-2.867-6.498
	c0-2.919,1.088-5.146,3.264-6.685c2.176-1.532,4.411-2.302,6.709-2.302C253.917,62.123,255.979,62.443,257.449,63.082z"/>
<g>
	<path fill="#999999" d="M274.612,90.207V48.051h16.233c13.106,0,19.66,7.031,19.66,21.094c0,14.042-6.554,21.062-19.66,21.062
		H274.612z M290.846,81.809c7.472-0.021,11.216-4.241,11.234-12.667c-0.02-8.428-3.764-12.641-11.234-12.641h-7.808v25.307
		L290.846,81.809L290.846,81.809z"/>
	<path fill="#999999" d="M317.415,76.164c0-4.119,1.312-7.489,3.933-10.111c2.62-2.619,5.99-3.932,10.11-3.932
		c4.118,0,7.396,1.312,9.829,3.932c2.436,2.622,3.65,5.992,3.65,10.111v2.811h-19.377c0.187,1.498,0.842,2.668,1.965,3.511
		c1.125,0.843,2.435,1.264,3.934,1.264c2.621,0,4.961-0.748,7.021-2.246l4.494,4.493c-2.062,2.811-5.898,4.213-11.517,4.213
		c-4.12,0-7.49-1.311-10.11-3.932C318.727,83.656,317.415,80.283,317.415,76.164z M335.391,69.844
		c-1.125-0.843-2.436-1.264-3.933-1.264c-1.499,0-2.81,0.421-3.933,1.264c-1.123,0.844-1.687,2.015-1.687,3.512h11.233
		C337.074,71.858,336.514,70.687,335.391,69.844z"/>
	<path fill="#999999" d="M356.764,62.121l6.602,17.553l6.738-17.553h7.979l-11.264,28.085h-6.739l-11.29-28.085H356.764z"/>
	<path fill="#999999" d="M381.703,76.164c0-4.119,1.311-7.489,3.932-10.111c2.621-2.619,5.991-3.932,10.111-3.932
		c4.118,0,7.396,1.312,9.829,3.932c2.435,2.622,3.649,5.992,3.649,10.111v2.811h-19.377c0.187,1.498,0.842,2.668,1.965,3.511
		c1.125,0.843,2.435,1.264,3.934,1.264c2.621,0,4.961-0.748,7.021-2.246l4.494,4.493c-2.06,2.811-5.896,4.213-11.515,4.213
		c-4.12,0-7.49-1.311-10.111-3.932S381.703,80.283,381.703,76.164z M399.678,69.844c-1.124-0.843-2.435-1.264-3.932-1.264
		c-1.499,0-2.809,0.421-3.934,1.264c-1.123,0.844-1.686,2.015-1.686,3.512h11.233C401.362,71.858,400.801,70.687,399.678,69.844z"/>
	<path fill="#999999" d="M415.405,90.207V48.078h7.862v42.128L415.405,90.207L415.405,90.207z"/>
	<path fill="#999999" d="M433.971,86.373c-2.732-2.742-4.101-6.146-4.101-10.209c0-4.082,1.366-7.489,4.101-10.223
		c2.733-2.733,6.143-4.102,10.225-4.102s7.487,1.367,10.224,4.102c2.733,2.732,4.101,6.142,4.101,10.223
		c0,4.082-1.365,7.49-4.101,10.226c-2.734,2.731-6.142,4.101-10.224,4.101S436.704,89.116,433.971,86.373z M444.166,83.691
		c2.134,0,3.865-0.717,5.195-2.148c1.329-1.433,1.994-3.216,1.994-5.351s-0.665-3.922-1.994-5.364
		c-1.33-1.442-3.071-2.163-5.226-2.163c-2.114,0-3.839,0.721-5.168,2.163c-1.33,1.442-1.994,3.229-1.994,5.364
		s0.664,3.918,1.994,5.351C440.299,82.974,442.031,83.691,444.166,83.691z"/>
	<path fill="#999999" d="M463.741,102.003V62.936l7.864-0.845v2.247c2.097-1.498,4.154-2.247,6.179-2.247
		c4.306,0,7.724,1.404,10.251,4.215c2.527,2.809,3.792,6.085,3.792,9.828c0,3.745-1.267,7.021-3.792,9.83
		c-2.527,2.811-5.945,4.215-10.251,4.215c-2.811-0.188-4.869-0.945-6.179-2.274v14.127L463.741,102.003z M471.605,73.608v4.55
		c0.372,3.146,2.34,4.99,5.896,5.533c4.494-0.355,7.021-2.688,7.583-6.994c-0.188-5.242-2.715-7.958-7.583-8.146
		C473.945,69.115,471.979,70.8,471.605,73.608z"/>
	<path fill="#999999" d="M495.955,76.164c0-4.119,1.311-7.489,3.932-10.111c2.621-2.619,5.991-3.932,10.111-3.932
		c4.118,0,7.396,1.312,9.829,3.932c2.435,2.622,3.649,5.992,3.649,10.111v2.811H504.1c0.188,1.498,0.845,2.668,1.968,3.511
		c1.124,0.843,2.434,1.264,3.933,1.264c2.621,0,4.961-0.748,7.021-2.246l4.493,4.493c-2.06,2.811-5.896,4.213-11.515,4.213
		c-4.12,0-7.49-1.311-10.111-3.932S495.955,80.283,495.955,76.164z M513.93,69.844c-1.124-0.843-2.435-1.264-3.932-1.264
		c-1.499,0-2.809,0.421-3.933,1.264c-1.123,0.844-1.687,2.015-1.687,3.512h11.233C515.614,71.858,515.053,70.687,513.93,69.844z"/>
	<path fill="#999999" d="M536.904,65.211c2.003-2.06,4.444-3.089,7.33-3.089c0.917,0,1.788,0.075,2.61,0.227l-1.234,7.751
		c-0.917-0.824-2.229-1.266-3.934-1.32c-1.909,0.131-3.501,1.517-4.772,4.157v17.271h-7.864V62.936l7.864-0.845V65.211
		L536.904,65.211z"/>
	<path fill="#999999" d="M567.882,62.907c1.461,0.637,2.827,1.583,4.103,2.837l-4.383,4.943c-1.272-1.519-2.863-2.275-4.773-2.275
		c-1.893,0-3.155,0.353-3.791,1.053c-0.637,0.702-0.637,1.341,0,1.91c0.636,0.572,1.898,1.044,3.791,1.418
		c2.79,0.265,5.074,1.06,6.854,2.389c1.778,1.328,2.668,3.642,2.668,6.937c0,2.659-1.049,4.719-3.146,6.179
		c-2.098,1.461-4.541,2.191-7.33,2.191c-2.659,0-4.873-0.38-6.643-1.138c-1.771-0.761-3.291-1.774-4.563-3.05l4.354-4.915
		c1.271,1.519,3.247,2.397,5.927,2.643c2.15,0,3.543-0.354,4.17-1.054c0.627-0.702,0.721-1.404,0.281-2.106
		c-0.44-0.702-1.926-1.175-4.451-1.418c-2.285-0.262-4.377-0.964-6.277-2.106c-1.898-1.142-2.851-3.295-2.851-6.459
		c0-2.9,1.081-5.114,3.243-6.643c2.161-1.525,4.386-2.289,6.671-2.289C564.371,61.953,566.422,62.271,567.882,62.907z"/>
</g>
</svg>
