<?xml version="1.0" encoding="utf-8"?>
<!-- Generator: Adobe Illustrator 15.0.0, SVG Export Plug-In . SVG Version: 6.00 Build 0)  -->
<!DOCTYPE svg PUBLIC "-//W3C//DTD SVG 1.1//EN" "http://www.w3.org/Graphics/SVG/1.1/DTD/svg11.dtd">
<svg version="1.1" id="Layer_1" xmlns="http://www.w3.org/2000/svg" xmlns:xlink="http://www.w3.org/1999/xlink" x="0px" y="0px"
	 width="102px" height="97.379px" viewBox="0 0 102 97.379" enable-background="new 0 0 102 97.379" xml:space="preserve">
<path fill="#333333" d="M61.849,95.136c0,1.24-1.004,2.243-2.242,2.243H36.687c-1.238,0-2.242-1.003-2.242-2.243V72.218
	c0-1.239,1.004-2.241,2.242-2.241h22.919c1.238,0,2.242,1.002,2.242,2.241V95.136L61.849,95.136z"/>
<path fill="#333333" d="M95.666,95.136c0,1.24-1.003,2.243-2.242,2.243H70.505c-1.238,0-2.242-1.003-2.242-2.243V72.218
	c0-1.239,1.004-2.241,2.242-2.241h22.917c1.24,0,2.243,1.002,2.243,2.241L95.666,95.136L95.666,95.136z"/>
<path fill="#333333" d="M27.403,95.136c0,1.24-1.004,2.243-2.242,2.243H2.242C1.005,97.379,0,96.376,0,95.136V72.218
	c0-1.239,1.005-2.241,2.242-2.241h22.919c1.238,0,2.242,1.002,2.242,2.241V95.136z"/>
<path fill="none" stroke="#333333" stroke-width="4" stroke-miterlimit="10" d="M49.757,56.242h29.521c1.595,0,2.89,0.628,2.89,1.4
	v14.321"/>
<path fill="none" stroke="#333333" stroke-width="4" stroke-miterlimit="10" d="M47.299,56.242H17.014
	c-1.636,0-2.963,0.628-2.963,1.4v14.321"/>
<line fill="none" stroke="#333333" stroke-width="4" stroke-miterlimit="10" x1="48.521" y1="34.956" x2="48.521" y2="73.409"/>
<path fill="#3ABEEE" d="M61.849,43.294c0,1.238-1.004,2.242-2.242,2.242H36.687c-1.238,0-2.242-1.004-2.242-2.242V20.376
	c0-1.239,1.004-2.243,2.242-2.243h22.919c1.238,0,2.242,1.004,2.242,2.243V43.294L61.849,43.294z"/>
</svg>
