<?xml version="1.0" encoding="utf-8"?>
<!-- Generator: Adobe Illustrator 15.0.0, SVG Export Plug-In . SVG Version: 6.00 Build 0)  -->
<!DOCTYPE svg PUBLIC "-//W3C//DTD SVG 1.1//EN" "http://www.w3.org/Graphics/SVG/1.1/DTD/svg11.dtd">
<svg version="1.1" id="Layer_1" xmlns="http://www.w3.org/2000/svg" xmlns:xlink="http://www.w3.org/1999/xlink" x="0px" y="0px"
	 width="282.557px" height="144.855px" viewBox="19.442 51.344 282.557 144.855"
	 enable-background="new 19.442 51.344 282.557 144.855" xml:space="preserve">
<g>
	<circle fill="#E56326" cx="55.76" cy="102.117" r="2.285"/>
	<path fill="#E56326" d="M51.508,96.98c-0.463,1.175-1.792,1.75-2.965,1.288c-1.173-0.464-1.75-1.792-1.287-2.968
		c0.462-1.172,1.79-1.749,2.965-1.286C51.395,94.479,51.972,95.806,51.508,96.98z"/>
	<path fill="#E56326" d="M59.62,89.849c-1.153,2.93-4.467,4.368-7.394,3.212c-2.932-1.156-4.37-4.471-3.215-7.398
		c1.158-2.93,4.472-4.366,7.4-3.211C59.336,83.606,60.775,86.92,59.62,89.849z"/>
	<circle fill="#E56326" cx="48.023" cy="166.863" r="2.732"/>
	<circle fill="#E56326" cx="58.483" cy="64.85" r="2.246"/>
	<circle fill="#E56326" cx="54.539" cy="153.274" r="2.286"/>
	<circle fill="#E56326" cx="41.057" cy="122.749" r="2.285"/>
	<circle fill="#E56326" cx="61.555" cy="140.866" r="2.286"/>
	<circle fill="#E56326" cx="64.153" cy="71.877" r="2.286"/>
	<circle fill="#E56326" cx="55.157" cy="74.578" r="5.25"/>
	<circle fill="#E56326" cx="57.808" cy="118.875" r="7.564"/>
	<path fill="#E56326" d="M57.916,106.606c-2.028,5.14-7.836,7.66-12.975,5.634c-5.138-2.028-7.658-7.837-5.633-12.975
		c2.027-5.137,7.836-7.658,12.972-5.632C57.419,95.661,59.94,101.471,57.916,106.606z"/>
	<path fill="#E56326" d="M58.511,142.412c-1.736,4.396-6.706,6.555-11.104,4.82c-4.396-1.734-6.554-6.707-4.818-11.104
		c1.734-4.396,6.706-6.555,11.104-4.819C58.089,133.047,60.245,138.016,58.511,142.412z"/>
	<path fill="#E56326" d="M56.666,81.273c-0.174,0.439-0.671,0.657-1.11,0.483c-0.44-0.173-0.657-0.67-0.482-1.113
		c0.173-0.438,0.67-0.653,1.112-0.48C56.623,80.336,56.838,80.835,56.666,81.273z"/>
	<path fill="#E56326" d="M60.046,93.138c-0.172,0.441-0.674,0.657-1.111,0.485c-0.441-0.174-0.656-0.673-0.483-1.115
		c0.175-0.438,0.672-0.653,1.112-0.48C60.003,92.202,60.22,92.698,60.046,93.138z"/>
	<circle fill="#E56326" cx="37.17" cy="102.938" r="0.855"/>
	<path fill="#E56326" d="M67.694,111.054c-0.217,0.553-0.841,0.825-1.39,0.606c-0.553-0.217-0.823-0.84-0.604-1.393
		c0.216-0.553,0.841-0.822,1.391-0.604C67.642,109.88,67.913,110.505,67.694,111.054z"/>
	<path fill="#E56326" d="M64.428,111.864c-0.276,0.706-1.074,1.055-1.778,0.777c-0.705-0.28-1.051-1.076-0.773-1.783
		c0.278-0.704,1.076-1.05,1.78-0.771C64.36,110.365,64.705,111.162,64.428,111.864z"/>
	<path fill="#E56326" d="M50.061,83.164c-0.462,1.181-1.795,1.759-2.972,1.298c-1.183-0.467-1.759-1.801-1.294-2.981
		c0.463-1.175,1.799-1.752,2.979-1.289C49.95,80.654,50.524,81.987,50.061,83.164z"/>
	<path fill="#E56326" d="M60.081,56.509c-0.207,0.53-0.805,0.79-1.333,0.581c-0.53-0.208-0.791-0.807-0.582-1.338
		c0.208-0.528,0.807-0.787,1.337-0.579C60.03,55.382,60.289,55.979,60.081,56.509z"/>
	<path fill="#E56326" d="M60.549,62.225c-0.163,0.417-0.637,0.622-1.05,0.457c-0.42-0.163-0.625-0.636-0.457-1.054
		c0.164-0.417,0.634-0.622,1.052-0.456C60.511,61.335,60.713,61.807,60.549,62.225z"/>
	<path fill="#E56326" d="M56.176,66.484c-0.276,0.7-1.063,1.04-1.757,0.768c-0.698-0.275-1.04-1.064-0.766-1.764
		c0.274-0.696,1.062-1.037,1.761-0.763C56.11,64.999,56.454,65.787,56.176,66.484z"/>
	<circle fill="#E56326" cx="65.224" cy="52.701" r="1.357"/>
	<path fill="#E56326" d="M49.408,54.063c-0.175,0.439-0.672,0.655-1.11,0.482c-0.441-0.173-0.656-0.671-0.483-1.112
		c0.173-0.439,0.671-0.654,1.112-0.48C49.365,53.126,49.58,53.623,49.408,54.063z"/>
	<circle fill="#E56326" cx="59.575" cy="67.953" r="0.856"/>
	<path fill="#E56326" d="M55.611,68.665c-0.151,0.382-0.586,0.571-0.967,0.422c-0.386-0.152-0.575-0.586-0.423-0.971
		c0.152-0.383,0.585-0.571,0.97-0.42C55.574,67.848,55.761,68.282,55.611,68.665z"/>
	<path fill="#E56326" d="M49.856,76.171c-0.151,0.384-0.587,0.572-0.967,0.423c-0.386-0.152-0.575-0.587-0.423-0.971
		c0.151-0.383,0.586-0.571,0.971-0.419C49.819,75.354,50.005,75.786,49.856,76.171z"/>
	<circle fill="#E56326" cx="52.908" cy="68.534" r="0.955"/>
	<path fill="#E56326" d="M60.591,79.351c-0.175,0.439-0.672,0.656-1.11,0.482c-0.441-0.173-0.656-0.671-0.484-1.112
		c0.175-0.439,0.672-0.655,1.113-0.48C60.549,78.412,60.764,78.911,60.591,79.351z"/>
	<path fill="#E56326" d="M58.833,58.207c-0.184,0.437-0.687,0.644-1.12,0.46c-0.438-0.183-0.644-0.686-0.461-1.121
		c0.184-0.436,0.684-0.643,1.121-0.458C58.809,57.27,59.015,57.771,58.833,58.207z"/>
	<path fill="#E56326" d="M46.329,150.276c-0.464,1.175-1.79,1.752-2.966,1.289c-1.175-0.466-1.751-1.792-1.287-2.967
		c0.463-1.173,1.789-1.751,2.964-1.287C46.217,147.775,46.791,149.103,46.329,150.276z"/>
	<path fill="#E56326" d="M44.041,58.169c-0.464,1.175-1.792,1.751-2.967,1.288c-1.175-0.465-1.75-1.791-1.286-2.966
		c0.462-1.175,1.789-1.752,2.963-1.288C43.929,55.668,44.503,56.995,44.041,58.169z"/>
	<path fill="#E56326" d="M60.501,106.124c-0.19,0.485-0.736,0.72-1.216,0.531c-0.482-0.19-0.721-0.737-0.53-1.22
		c0.191-0.481,0.736-0.718,1.219-0.527C60.455,105.097,60.692,105.644,60.501,106.124z"/>
	<path fill="#E56326" d="M78.684,111.447c-0.13,0.337-0.51,0.5-0.842,0.368c-0.334-0.133-0.499-0.511-0.366-0.846
		c0.132-0.333,0.509-0.496,0.844-0.363C78.652,110.734,78.817,111.116,78.684,111.447z"/>
	<path fill="#E56326" d="M51.347,94.902c-0.175,0.44-0.673,0.656-1.111,0.484c-0.44-0.174-0.657-0.672-0.483-1.111
		c0.173-0.44,0.672-0.656,1.112-0.482C51.304,93.966,51.519,94.462,51.347,94.902z"/>
	<circle fill="#E56326" cx="43.632" cy="92.825" r="0.871"/>
	<path fill="#E56326" d="M60.242,96.07c-0.349,0.882-1.344,1.314-2.221,0.966c-0.881-0.346-1.312-1.34-0.967-2.219
		c0.351-0.878,1.342-1.312,2.222-0.963C60.155,94.201,60.588,95.195,60.242,96.07z"/>
	<path fill="#E56326" d="M48.654,86.153c-0.173,0.438-0.671,0.655-1.108,0.482c-0.441-0.173-0.657-0.671-0.482-1.112
		c0.173-0.438,0.67-0.655,1.11-0.481C48.612,85.216,48.829,85.714,48.654,86.153z"/>
	<path fill="#E56326" d="M48.253,116.305c-0.461,1.174-1.791,1.75-2.965,1.288c-1.176-0.462-1.751-1.792-1.288-2.965
		c0.463-1.175,1.79-1.752,2.966-1.289C48.14,113.803,48.718,115.13,48.253,116.305z"/>
	<path fill="#E56326" d="M50.71,126.915c-0.653,1.66-2.533,2.477-4.194,1.822c-1.659-0.659-2.472-2.533-1.816-4.193
		c0.653-1.659,2.528-2.474,4.191-1.82C50.55,123.381,51.365,125.256,50.71,126.915z"/>
	<circle fill="#E56326" cx="67.159" cy="123" r="2.286"/>
	<path fill="#E56326" d="M65.052,134.058c-0.729,1.845-2.818,2.751-4.664,2.025c-1.849-0.731-2.753-2.82-2.025-4.666
		c0.728-1.845,2.815-2.753,4.663-2.025C64.873,130.12,65.779,132.211,65.052,134.058z"/>
	<circle fill="#E56326" cx="64.153" cy="63.55" r="2.287"/>
	<circle fill="#E56326" cx="70.476" cy="115.888" r="5.25"/>
	<circle fill="#E56326" cx="33.286" cy="119.784" r="5.249"/>
	<circle fill="#E56326" cx="47.095" cy="158.525" r="5.248"/>
	<circle fill="#E56326" cx="51.276" cy="60.292" r="0.857"/>
	<circle fill="#E56326" cx="62.403" cy="82.711" r="0.857"/>
	<path fill="#E56326" d="M72.862,69.898c-0.174,0.44-0.672,0.655-1.109,0.484c-0.441-0.175-0.659-0.671-0.482-1.112
		c0.173-0.439,0.669-0.655,1.11-0.482C72.821,68.962,73.037,69.459,72.862,69.898z"/>
	<circle fill="#E56326" cx="55.833" cy="62.739" r="0.94"/>
	<path fill="#E56326" d="M60.42,110.172c-0.331,0.841-1.282,1.254-2.123,0.923c-0.844-0.333-1.253-1.283-0.924-2.124
		c0.333-0.84,1.281-1.252,2.125-0.92C60.338,108.383,60.752,109.331,60.42,110.172z"/>
	<path fill="#E56326" d="M48.121,90.053c-0.603,1.53-2.336,2.286-3.866,1.684c-1.535-0.606-2.285-2.341-1.68-3.871
		c0.604-1.53,2.333-2.281,3.868-1.677C47.973,86.793,48.725,88.522,48.121,90.053z"/>
	<circle fill="#E56326" cx="53.093" cy="54.912" r="1.637"/>
	<circle fill="#E56326" cx="57.575" cy="60.646" r="1.637"/>
	<path fill="#E56326" d="M40.393,112.381c-0.518,1.306-1.996,1.95-3.301,1.433c-1.308-0.516-1.951-1.997-1.433-3.303
		c0.513-1.308,1.992-1.946,3.301-1.432C40.266,109.597,40.91,111.07,40.393,112.381z"/>
	<path fill="#E56326" d="M33.815,112.604c-0.333,0.84-1.283,1.255-2.124,0.923c-0.841-0.332-1.254-1.285-0.923-2.124
		c0.332-0.842,1.282-1.252,2.124-0.921C33.733,110.812,34.146,111.763,33.815,112.604z"/>
	<circle fill="#E56326" cx="42.796" cy="113.038" r="1.257"/>
	<circle fill="#E56326" cx="28.048" cy="108.068" r="1.638"/>
	<path fill="#E56326" d="M67.841,129.586c-0.33,0.837-1.281,1.252-2.123,0.921c-0.84-0.332-1.254-1.285-0.921-2.126
		c0.33-0.838,1.281-1.252,2.122-0.918C67.761,127.794,68.174,128.743,67.841,129.586z"/>
	<path fill="#E56326" d="M37.851,107.256c-0.445,1.126-1.716,1.677-2.839,1.233c-1.126-0.443-1.675-1.714-1.233-2.839
		c0.446-1.121,1.713-1.674,2.838-1.23C37.742,104.864,38.293,106.135,37.851,107.256z"/>
	<circle fill="#E56326" cx="38.906" cy="97.202" r="0.902"/>
	<circle fill="#E56326" cx="60.057" cy="54.496" r="0.546"/>
	<circle fill="#E56326" cx="59.671" cy="57.877" r="0.546"/>
	<circle fill="#E56326" cx="59.124" cy="54.579" r="0.333"/>
	<path fill="#E56326" d="M60.675,55.558c-0.067,0.172-0.261,0.257-0.433,0.189c-0.172-0.069-0.257-0.263-0.188-0.435
		c0.067-0.174,0.263-0.257,0.433-0.189C60.659,55.191,60.744,55.386,60.675,55.558z"/>
	<circle fill="#E56326" cx="60.216" cy="57.021" r="0.277"/>
	<circle fill="#E56326" cx="59.124" cy="58.733" r="0.277"/>
	<circle fill="#E56326" cx="60.154" cy="60.57" r="0.277"/>
	<circle fill="#E56326" cx="54.918" cy="63.988" r="0.439"/>
	<circle fill="#E56326" cx="49.438" cy="74.578" r="0.277"/>
	<path fill="#E56326" d="M53.647,67.154c-0.103,0.255-0.388,0.38-0.641,0.279c-0.254-0.101-0.379-0.388-0.277-0.641
		c0.098-0.253,0.388-0.377,0.638-0.277C53.623,66.615,53.746,66.902,53.647,67.154z"/>
	<circle fill="#E56326" cx="53.958" cy="67.644" r="0.277"/>
	<circle fill="#E56326" cx="55.939" cy="64.167" r="0.275"/>
	<circle fill="#E56326" cx="54.169" cy="64.443" r="0.276"/>
	<path fill="#E56326" d="M56.789,67.861c-0.122,0.304-0.463,0.454-0.767,0.333c-0.305-0.12-0.456-0.464-0.333-0.768
		c0.118-0.303,0.463-0.453,0.766-0.332C56.758,67.214,56.906,67.558,56.789,67.861z"/>
	<path fill="#E56326" d="M52.197,69.908c-0.095,0.238-0.362,0.355-0.6,0.262c-0.237-0.094-0.356-0.361-0.259-0.601
		c0.091-0.236,0.362-0.354,0.599-0.261C52.175,69.402,52.292,69.671,52.197,69.908z"/>
	<path fill="#E56326" d="M58.014,69.094c-0.159,0.396-0.607,0.593-1.002,0.437c-0.4-0.157-0.595-0.607-0.437-1.005
		c0.154-0.396,0.606-0.591,1.002-0.435C57.976,68.247,58.171,68.695,58.014,69.094z"/>
	<circle fill="#E56326" cx="58.067" cy="67.766" r="0.461"/>
	<path fill="#E56326" d="M60.249,70.043c-0.172,0.426-0.65,0.635-1.073,0.468c-0.429-0.169-0.638-0.65-0.468-1.076
		c0.165-0.425,0.647-0.633,1.073-0.465C60.208,69.136,60.416,69.617,60.249,70.043z"/>
	<path fill="#E56326" d="M60.62,71.381c-0.122,0.305-0.462,0.453-0.764,0.334c-0.307-0.119-0.457-0.465-0.335-0.769
		c0.117-0.304,0.464-0.452,0.767-0.331C60.591,70.734,60.739,71.077,60.62,71.381z"/>
	<circle fill="#E56326" cx="51.953" cy="64.85" r="0.276"/>
	<circle fill="#E56326" cx="58.531" cy="68.811" r="0.276"/>
	<circle fill="#E56326" cx="56.111" cy="68.811" r="0.276"/>
	<circle fill="#E56326" cx="50.999" cy="78.759" r="0.276"/>
	<circle fill="#E56326" cx="50.999" cy="81.851" r="0.425"/>
	<circle fill="#E56326" cx="58.938" cy="83.137" r="0.424"/>
	<circle fill="#E56326" cx="60.348" cy="66.819" r="0.277"/>
	<circle fill="#E56326" cx="57.104" cy="67.213" r="0.276"/>
	<circle fill="#E56326" cx="60.216" cy="58.733" r="0.277"/>
	<circle fill="#E56326" cx="60.057" cy="53.415" r="0.334"/>
	<path fill="#E56326" d="M57.384,52.154c-0.069,0.172-0.263,0.257-0.433,0.188c-0.175-0.067-0.259-0.262-0.19-0.435
		c0.067-0.172,0.262-0.256,0.434-0.188C57.368,51.788,57.451,51.981,57.384,52.154z"/>
	<path fill="#E56326" d="M60.637,52.489c-0.067,0.172-0.263,0.257-0.432,0.189c-0.173-0.069-0.257-0.263-0.19-0.436
		c0.068-0.173,0.263-0.257,0.435-0.188C60.621,52.123,60.705,52.316,60.637,52.489z"/>
	<circle fill="#E56326" cx="59.794" cy="59.557" r="0.545"/>
	<circle fill="#E56326" cx="71.483" cy="120.569" r="0.495"/>
	<path fill="#E56326" d="M73.054,122.234c-0.173,0.438-0.671,0.655-1.109,0.483c-0.44-0.175-0.657-0.672-0.481-1.111
		c0.174-0.44,0.67-0.655,1.112-0.48C73.014,121.298,73.227,121.794,73.054,122.234z"/>
	<circle fill="#E56326" cx="78.503" cy="110.028" r="0.334"/>
	<circle fill="#E56326" cx="77.429" cy="109.952" r="0.296"/>
	<circle fill="#E56326" cx="76.238" cy="110.248" r="0.295"/>
	<path fill="#E56326" d="M75.763,111.384c-0.088,0.221-0.34,0.33-0.559,0.244c-0.224-0.089-0.333-0.34-0.244-0.562
		c0.087-0.225,0.338-0.332,0.561-0.242C75.741,110.907,75.851,111.16,75.763,111.384z"/>
	<path fill="#E56326" d="M72.855,110.701c-0.078,0.199-0.303,0.299-0.501,0.22c-0.203-0.08-0.3-0.306-0.22-0.505
		c0.078-0.201,0.304-0.298,0.504-0.219C72.837,110.276,72.935,110.501,72.855,110.701z"/>
	<circle fill="#E56326" cx="69.935" cy="110.025" r="0.389"/>
	<path fill="#E56326" d="M68.911,110.597c-0.101,0.253-0.388,0.381-0.64,0.279c-0.258-0.1-0.381-0.389-0.279-0.644
		c0.1-0.256,0.386-0.38,0.642-0.277C68.885,110.056,69.01,110.343,68.911,110.597z"/>
	<path fill="#E56326" d="M77.102,111.411c-0.11,0.28-0.428,0.419-0.708,0.309c-0.284-0.111-0.422-0.43-0.309-0.71
		c0.109-0.283,0.427-0.422,0.709-0.309C77.074,110.811,77.211,111.129,77.102,111.411z"/>
	<circle fill="#E56326" cx="76.158" cy="115.609" r="0.281"/>
	<path fill="#E56326" d="M74.889,110.935c-0.207,0.494-0.775,0.73-1.269,0.521c-0.498-0.206-0.729-0.775-0.52-1.272
		c0.203-0.494,0.773-0.73,1.271-0.521C74.867,109.872,75.096,110.438,74.889,110.935z"/>
	<path fill="#E56326" d="M77.673,113.421c-0.232,0.55-0.864,0.81-1.411,0.58c-0.553-0.231-0.809-0.864-0.581-1.414
		c0.232-0.548,0.862-0.81,1.413-0.579C77.643,112.237,77.903,112.87,77.673,113.421z"/>
	<path fill="#E56326" d="M75.175,107.886c-0.131,0.313-0.49,0.461-0.802,0.33c-0.316-0.132-0.461-0.49-0.332-0.805
		c0.13-0.311,0.49-0.458,0.803-0.328C75.159,107.215,75.306,107.573,75.175,107.886z"/>
	<circle fill="#E56326" cx="59.798" cy="98.398" r="0.546"/>
	<path fill="#E56326" d="M60.413,100.487c-0.201,0.514-0.781,0.764-1.291,0.563c-0.514-0.203-0.769-0.781-0.563-1.295
		c0.204-0.512,0.779-0.764,1.293-0.561C60.365,99.396,60.612,99.976,60.413,100.487z"/>
	<circle fill="#E56326" cx="56.457" cy="94.224" r="0.585"/>
	<circle fill="#E56326" cx="41.457" cy="91.736" r="0.546"/>
	<circle fill="#E56326" cx="40.362" cy="95.979" r="0.546"/>
	<circle fill="#E56326" cx="47.858" cy="78.76" r="0.546"/>
	<circle fill="#E56326" cx="48.413" cy="91.736" r="0.546"/>
	<circle fill="#E56326" cx="45.348" cy="84.62" r="0.546"/>
	<circle fill="#E56326" cx="50.396" cy="79.832" r="0.546"/>
	<path fill="#E56326" d="M50.179,78.305c-0.208,0.409-0.711,0.571-1.118,0.367c-0.41-0.212-0.576-0.714-0.365-1.123
		c0.21-0.41,0.709-0.573,1.122-0.364C50.225,77.393,50.386,77.894,50.179,78.305z"/>
	<path fill="#E56326" d="M58.995,80.9c-0.207,0.409-0.71,0.571-1.118,0.364c-0.412-0.208-0.575-0.711-0.365-1.121
		c0.209-0.409,0.709-0.572,1.12-0.363C59.041,79.989,59.203,80.488,58.995,80.9z"/>
	<path fill="#E56326" d="M60.284,81.553c-0.137,0.268-0.467,0.374-0.734,0.238c-0.271-0.137-0.378-0.466-0.239-0.736
		c0.137-0.269,0.466-0.376,0.735-0.238C60.315,80.952,60.42,81.282,60.284,81.553z"/>
	<path fill="#E56326" d="M53,80.772c-0.215,0.425-0.739,0.593-1.16,0.378c-0.426-0.219-0.6-0.738-0.379-1.164
		c0.218-0.425,0.735-0.595,1.164-0.379C53.049,79.824,53.216,80.345,53,80.772z"/>
	<path fill="#E56326" d="M42.346,94.599c-0.379,0.751-1.304,1.048-2.048,0.67c-0.753-0.384-1.056-1.303-0.669-2.057
		c0.384-0.752,1.3-1.049,2.054-0.666C42.43,92.928,42.727,93.846,42.346,94.599z"/>
	<circle fill="#E56326" cx="47.461" cy="119.241" r="0.716"/>
	<circle fill="#E56326" cx="41.604" cy="118.669" r="0.547"/>
	<circle fill="#E56326" cx="37.17" cy="99.83" r="0.547"/>
	<circle fill="#E56326" cx="34.476" cy="109.554" r="0.547"/>
	<circle fill="#E56326" cx="27.201" cy="110.899" r="0.547"/>
	<circle fill="#E56326" cx="40.25" cy="118.671" r="0.545"/>
	<path fill="#E56326" d="M31.247,127.186c0.302,0,0.546,0.245,0.546,0.545c0,0.305-0.245,0.548-0.546,0.548
		s-0.547-0.243-0.547-0.548C30.7,127.431,30.945,127.186,31.247,127.186z"/>
	<circle fill="#E56326" cx="30.107" cy="129.724" r="0.546"/>
	<circle fill="#E56326" cx="24.791" cy="116.653" r="0.547"/>
	<path fill="#E56326" d="M30.292,124.627c0.02,0.356-0.254,0.664-0.609,0.683c-0.359,0.019-0.666-0.252-0.683-0.611
		c-0.021-0.358,0.252-0.66,0.609-0.681C29.965,123.997,30.27,124.27,30.292,124.627z"/>
	<circle fill="#E56326" cx="39.155" cy="125.712" r="0.545"/>
	<circle fill="#E56326" cx="36.367" cy="125.712" r="0.545"/>
	<path fill="#E56326" d="M46.112,120.661c-0.483,0.954-1.651,1.329-2.599,0.851c-0.957-0.486-1.338-1.653-0.847-2.607
		c0.486-0.953,1.649-1.329,2.602-0.844C46.222,118.544,46.595,119.704,46.112,120.661z"/>
	<path fill="#E56326" d="M57.424,130.101c-0.466,0.917-1.593,1.284-2.506,0.818c-0.921-0.469-1.292-1.594-0.818-2.516
		c0.472-0.918,1.59-1.281,2.511-0.812C57.528,128.057,57.891,129.18,57.424,130.101z"/>
	<path fill="#E56326" d="M63.572,127.175c-0.138,0.271-0.468,0.377-0.735,0.241c-0.271-0.137-0.379-0.468-0.24-0.736
		c0.137-0.271,0.465-0.376,0.736-0.239C63.602,126.577,63.708,126.908,63.572,127.175z"/>
	<circle fill="#E56326" cx="65.773" cy="112.178" r="0.546"/>
	<circle fill="#E56326" cx="64.565" cy="114.083" r="0.547"/>
	<path fill="#E56326" d="M76.725,114.865c-0.135,0.268-0.467,0.374-0.734,0.239c-0.27-0.139-0.378-0.468-0.239-0.738
		c0.137-0.268,0.465-0.375,0.735-0.237C76.756,114.266,76.861,114.593,76.725,114.865z"/>
	<circle fill="#E56326" cx="70.685" cy="123" r="0.546"/>
	<circle fill="#E56326" cx="67.011" cy="126.259" r="0.546"/>
	<circle fill="#E56326" cx="46.128" cy="130.591" r="0.546"/>
	<circle fill="#E56326" cx="52.253" cy="126.928" r="0.546"/>
	<circle fill="#E56326" cx="49.37" cy="116.459" r="0.545"/>
	<path fill="#E56326" d="M50.949,114.376c-0.137,0.27-0.465,0.377-0.733,0.241c-0.27-0.139-0.378-0.469-0.239-0.738
		c0.137-0.268,0.465-0.375,0.735-0.237C50.98,113.779,51.086,114.106,50.949,114.376z"/>
	<path fill="#E56326" d="M44.384,131.08c-0.268,0.529-0.921,0.741-1.448,0.473c-0.532-0.27-0.747-0.918-0.471-1.451
		c0.27-0.531,0.917-0.74,1.45-0.472C44.445,129.899,44.654,130.548,44.384,131.08z"/>
	<circle fill="#E56326" cx="42.797" cy="133.125" r="0.546"/>
	<path fill="#E56326" d="M19.983,132.006c-0.185,0.436-0.686,0.642-1.12,0.459c-0.438-0.183-0.643-0.685-0.46-1.122
		c0.183-0.435,0.684-0.64,1.121-0.457C19.959,131.065,20.165,131.568,19.983,132.006z"/>
	<circle fill="#E56326" cx="25.809" cy="113.729" r="0.296"/>
	<circle fill="#E56326" cx="36.661" cy="124.443" r="0.294"/>
	<path fill="#E56326" d="M32.279,126.024c-0.168,0.436-0.659,0.646-1.088,0.478c-0.435-0.173-0.648-0.662-0.475-1.094
		c0.169-0.438,0.657-0.648,1.092-0.476C32.24,125.101,32.449,125.592,32.279,126.024z"/>
	<circle fill="#E56326" cx="28.585" cy="124.557" r="0.382"/>
	<circle fill="#E56326" cx="25.895" cy="128.11" r="0.294"/>
	<path fill="#E56326" d="M29.253,123.844c-0.038,0.096-0.145,0.142-0.237,0.104c-0.099-0.039-0.143-0.145-0.105-0.238
		c0.037-0.098,0.143-0.143,0.238-0.106C29.245,123.64,29.291,123.749,29.253,123.844z"/>
	<path fill="#E56326" d="M23.365,122.092c-0.036,0.093-0.143,0.141-0.237,0.104c-0.098-0.036-0.142-0.144-0.105-0.239
		c0.037-0.097,0.144-0.142,0.239-0.104C23.359,121.889,23.404,121.995,23.365,122.092z"/>
	<path fill="#E56326" d="M27.828,120.915c-0.005,0.103-0.092,0.182-0.193,0.174c-0.105-0.006-0.181-0.093-0.174-0.196
		c0.006-0.103,0.091-0.18,0.194-0.175C27.758,120.724,27.835,120.812,27.828,120.915z"/>
	<path fill="#E56326" d="M27.7,119.05c-0.007,0.11-0.102,0.197-0.21,0.19c-0.115-0.007-0.201-0.102-0.192-0.213
		c0.004-0.114,0.101-0.2,0.212-0.193C27.622,118.84,27.706,118.938,27.7,119.05z"/>
	<circle fill="#E56326" cx="23.492" cy="118.67" r="0.295"/>
	<path fill="#E56326" d="M28.88,123.498c-0.111,0.281-0.43,0.421-0.712,0.31c-0.285-0.111-0.422-0.433-0.31-0.716
		c0.111-0.285,0.43-0.419,0.712-0.309C28.856,122.895,28.991,123.214,28.88,123.498z"/>
	<circle fill="#E56326" cx="29.302" cy="115.088" r="0.295"/>
	<circle fill="#E56326" cx="79.157" cy="109.841" r="0.184"/>
	<circle fill="#E56326" cx="76.784" cy="109.841" r="0.184"/>
	<circle fill="#E56326" cx="76.784" cy="110.374" r="0.184"/>
	<circle fill="#E56326" cx="74.316" cy="111.818" r="0.184"/>
	<path fill="#E56326" d="M75.765,110.066c-0.066,0.172-0.26,0.255-0.427,0.188c-0.174-0.069-0.259-0.262-0.19-0.432
		c0.068-0.174,0.26-0.257,0.433-0.19C75.752,109.7,75.835,109.896,75.765,110.066z"/>
	<path fill="#E56326" d="M72.701,109.924c-0.045,0.112-0.174,0.171-0.286,0.125c-0.117-0.045-0.174-0.174-0.126-0.289
		c0.045-0.114,0.173-0.17,0.287-0.125C72.693,109.679,72.746,109.809,72.701,109.924z"/>
	<path fill="#E56326" d="M65.214,111.307c-0.043,0.114-0.174,0.17-0.285,0.125c-0.118-0.046-0.173-0.173-0.126-0.289
		c0.047-0.116,0.173-0.17,0.287-0.125C65.205,111.062,65.261,111.191,65.214,111.307z"/>
	<path fill="#E56326" d="M69.38,110.001c-0.045,0.115-0.175,0.171-0.287,0.128c-0.116-0.047-0.173-0.176-0.125-0.29
		c0.045-0.115,0.173-0.172,0.287-0.126C69.37,109.758,69.424,109.886,69.38,110.001z"/>
	<path fill="#E56326" d="M78.067,110.422c-0.038,0.095-0.145,0.141-0.239,0.104c-0.096-0.038-0.142-0.145-0.104-0.24
		c0.037-0.097,0.144-0.142,0.238-0.104C78.059,110.218,78.104,110.327,78.067,110.422z"/>
	<path fill="#E56326" d="M77.488,110.606c-0.037,0.097-0.143,0.143-0.236,0.104c-0.098-0.037-0.142-0.146-0.105-0.238
		c0.038-0.098,0.144-0.144,0.24-0.106C77.482,110.402,77.527,110.511,77.488,110.606z"/>
	<path fill="#E56326" d="M75.749,113.952c-0.038,0.095-0.145,0.143-0.238,0.103c-0.096-0.036-0.143-0.144-0.105-0.238
		c0.037-0.095,0.145-0.143,0.24-0.105C75.741,113.747,75.785,113.855,75.749,113.952z"/>
	<path fill="#E56326" d="M78.122,112.349c-0.054,0.141-0.214,0.212-0.355,0.155c-0.142-0.056-0.212-0.215-0.154-0.358
		c0.052-0.143,0.213-0.212,0.355-0.155C78.11,112.046,78.179,112.205,78.122,112.349z"/>
	<path fill="#E56326" d="M77.488,111.886c-0.037,0.095-0.143,0.142-0.236,0.104c-0.098-0.038-0.142-0.145-0.105-0.24
		c0.038-0.096,0.144-0.143,0.24-0.104C77.48,111.683,77.527,111.789,77.488,111.886z"/>
	<path fill="#E56326" d="M75.496,113.107c-0.039,0.095-0.145,0.142-0.237,0.104c-0.098-0.039-0.143-0.146-0.105-0.24
		c0.037-0.097,0.144-0.142,0.239-0.105C75.489,112.903,75.534,113.012,75.496,113.107z"/>
	<circle fill="#E56326" cx="75.922" cy="111.818" r="0.184"/>
	<path fill="#E56326" d="M75.619,112.443c-0.106,0.27-0.411,0.402-0.674,0.298c-0.274-0.108-0.406-0.412-0.299-0.681
		c0.106-0.273,0.408-0.403,0.679-0.297C75.595,111.867,75.727,112.174,75.619,112.443z"/>
	<circle fill="#E56326" cx="75.763" cy="110.599" r="0.185"/>
	<path fill="#E56326" d="M68.126,106.708c-0.038,0.096-0.144,0.144-0.237,0.104c-0.097-0.036-0.143-0.143-0.104-0.237
		c0.037-0.097,0.144-0.144,0.238-0.107C68.119,106.507,68.164,106.612,68.126,106.708z"/>
	<path fill="#E56326" d="M71.896,110.312c-0.086,0.223-0.339,0.333-0.559,0.245c-0.228-0.09-0.335-0.34-0.245-0.564
		c0.087-0.226,0.338-0.334,0.562-0.246C71.878,109.836,71.986,110.087,71.896,110.312z"/>
	<path fill="#E56326" d="M72.164,107.989c-0.087,0.224-0.339,0.333-0.56,0.245c-0.227-0.089-0.335-0.341-0.244-0.562
		c0.087-0.227,0.338-0.337,0.562-0.248C72.146,107.512,72.255,107.766,72.164,107.989z"/>
	<path fill="#E56326" d="M78.96,110.627c-0.039,0.095-0.145,0.143-0.239,0.105c-0.097-0.038-0.142-0.146-0.104-0.241
		c0.035-0.096,0.144-0.142,0.238-0.104C78.95,110.425,78.997,110.531,78.96,110.627z"/>
	<path fill="#E56326" d="M19.442,120.71c0.132-0.335,0.511-0.498,0.843-0.367c0.336,0.133,0.5,0.511,0.368,0.846
		c-0.133,0.334-0.512,0.497-0.846,0.366C19.476,121.424,19.311,121.043,19.442,120.71z"/>
	<path fill="#E56326" d="M23.47,125.677c0.097-0.252,0.381-0.373,0.629-0.275c0.252,0.098,0.374,0.382,0.274,0.631
		c-0.098,0.252-0.379,0.372-0.631,0.275C23.493,126.209,23.374,125.927,23.47,125.677z"/>
	<path fill="#E56326" d="M24.414,126.198c0.065-0.17,0.259-0.254,0.429-0.188c0.173,0.069,0.256,0.262,0.187,0.433
		c-0.067,0.172-0.26,0.256-0.433,0.188C24.429,126.564,24.345,126.369,24.414,126.198z"/>
	<path fill="#E56326" d="M23.896,124.858c0.066-0.174,0.261-0.258,0.431-0.19c0.173,0.069,0.255,0.264,0.188,0.434
		c-0.068,0.174-0.262,0.255-0.433,0.188C23.911,125.221,23.829,125.027,23.896,124.858z"/>
	<path fill="#E56326" d="M24.711,123.359c0.067-0.172,0.262-0.256,0.431-0.188c0.173,0.067,0.256,0.262,0.188,0.432
		c-0.067,0.174-0.261,0.256-0.433,0.188C24.728,123.725,24.645,123.53,24.711,123.359z"/>
	<path fill="#E56326" d="M26.143,127.61c0.111-0.286,0.436-0.426,0.719-0.315c0.288,0.114,0.428,0.436,0.314,0.725
		c-0.111,0.286-0.437,0.427-0.725,0.313C26.169,128.221,26.031,127.897,26.143,127.61z"/>
	<path fill="#E56326" d="M28.821,125.847c0.097-0.248,0.373-0.367,0.617-0.271c0.25,0.098,0.37,0.376,0.271,0.621
		c-0.098,0.248-0.375,0.368-0.622,0.271C28.845,126.372,28.723,126.092,28.821,125.847z"/>
	<path fill="#E56326" d="M24.801,124.349c0.172-0.439,0.668-0.656,1.105-0.483c0.444,0.175,0.662,0.672,0.484,1.11
		c-0.172,0.442-0.67,0.659-1.109,0.485C24.842,125.285,24.628,124.79,24.801,124.349z"/>
	<path fill="#E56326" d="M26.467,119.894c0.125-0.311,0.476-0.462,0.781-0.34c0.313,0.122,0.467,0.475,0.342,0.784
		c-0.123,0.31-0.474,0.461-0.785,0.339C26.497,120.556,26.345,120.205,26.467,119.894z"/>
	<path fill="#E56326" d="M27.052,125.509c0.178-0.425,0.666-0.624,1.087-0.446c0.425,0.177,0.625,0.663,0.447,1.088
		c-0.177,0.424-0.665,0.623-1.088,0.446C27.072,126.42,26.875,125.934,27.052,125.509z"/>
	<path fill="#E56326" d="M25.22,121.736c0.291-0.688,1.084-1.016,1.772-0.728c0.689,0.29,1.015,1.085,0.726,1.774
		c-0.289,0.688-1.081,1.017-1.772,0.726C25.255,123.223,24.93,122.429,25.22,121.736z"/>
	<path fill="#E56326" d="M23.17,126.391c0.037-0.095,0.143-0.142,0.237-0.104c0.097,0.038,0.144,0.145,0.104,0.239
		c-0.036,0.097-0.144,0.142-0.238,0.105C23.177,126.594,23.131,126.485,23.17,126.391z"/>
	<circle fill="#E56326" cx="30.292" cy="126.381" r="0.184"/>
	<path fill="#E56326" d="M30.398,124.596c0.038-0.097,0.144-0.143,0.238-0.106c0.097,0.04,0.143,0.146,0.104,0.241
		c-0.038,0.096-0.145,0.143-0.239,0.104C30.406,124.796,30.359,124.69,30.398,124.596z"/>
	<path fill="#E56326" d="M29.935,125.557c0.038-0.096,0.145-0.143,0.238-0.105c0.098,0.037,0.143,0.146,0.105,0.24
		c-0.037,0.096-0.144,0.143-0.239,0.103C29.943,125.759,29.898,125.651,29.935,125.557z"/>
	<circle fill="#E56326" cx="22.402" cy="123.961" r="0.185"/>
	<path fill="#E56326" d="M27.473,123.778c0.036-0.096,0.143-0.142,0.237-0.105c0.096,0.038,0.143,0.146,0.105,0.241
		c-0.038,0.095-0.145,0.142-0.24,0.104C27.48,123.98,27.434,123.873,27.473,123.778z"/>
	<circle fill="#E56326" cx="32.705" cy="125.347" r="0.184"/>
	<path fill="#E56326" d="M25.225,125.952c0.037-0.093,0.144-0.142,0.237-0.102c0.097,0.036,0.143,0.143,0.105,0.238
		c-0.037,0.096-0.145,0.142-0.239,0.105C25.232,126.158,25.186,126.05,25.225,125.952z"/>
	<path fill="#E56326" d="M26.482,125.242c0.037-0.096,0.144-0.142,0.237-0.104c0.098,0.039,0.143,0.146,0.105,0.24
		c-0.037,0.097-0.145,0.143-0.239,0.104C26.489,125.445,26.443,125.337,26.482,125.242z"/>
	<path fill="#E56326" d="M24.55,125.557c0.038-0.096,0.144-0.143,0.237-0.105c0.097,0.037,0.143,0.146,0.105,0.24
		c-0.037,0.096-0.145,0.143-0.24,0.103C24.559,125.759,24.513,125.651,24.55,125.557z"/>
	<path fill="#E56326" d="M24.218,124.067c0.036-0.095,0.144-0.143,0.237-0.106c0.098,0.038,0.143,0.146,0.105,0.241
		c-0.037,0.096-0.144,0.142-0.239,0.104C24.226,124.27,24.18,124.162,24.218,124.067z"/>
	<path fill="#E56326" d="M27.539,124.55c0.052-0.134,0.203-0.2,0.333-0.146c0.138,0.053,0.203,0.203,0.15,0.338
		c-0.053,0.135-0.205,0.2-0.338,0.147C27.55,124.837,27.484,124.685,27.539,124.55z"/>
	<path fill="#E56326" d="M26.597,124.166c0.084-0.22,0.33-0.325,0.542-0.238c0.221,0.085,0.328,0.33,0.238,0.548
		c-0.084,0.218-0.327,0.323-0.545,0.236C26.615,124.627,26.511,124.383,26.597,124.166z"/>
	<path fill="#E56326" d="M25.732,125.949c0.097-0.247,0.373-0.368,0.615-0.271c0.25,0.097,0.37,0.373,0.27,0.62
		c-0.095,0.249-0.371,0.367-0.615,0.271C25.754,126.473,25.635,126.194,25.732,125.949z"/>
	<path fill="#E56326" d="M42.051,169.678c0.287-0.721,1.101-1.073,1.817-0.791c0.72,0.286,1.073,1.101,0.791,1.82
		c-0.283,0.72-1.099,1.073-1.82,0.788C42.121,171.212,41.767,170.397,42.051,169.678z"/>
	<path fill="#E56326" d="M46.474,170.681c0.247-0.622,0.948-0.926,1.564-0.683c0.62,0.248,0.926,0.948,0.681,1.566
		c-0.245,0.622-0.946,0.925-1.567,0.68C46.535,172.001,46.23,171.3,46.474,170.681z"/>
	<path fill="#E56326" d="M41.868,176.582c0.279-0.663,1.04-0.975,1.699-0.7c0.666,0.278,0.976,1.04,0.698,1.705
		c-0.276,0.661-1.036,0.972-1.7,0.695C41.902,178.005,41.59,177.246,41.868,176.582z"/>
	<circle fill="#E56326" cx="45.816" cy="173.883" r="1.78"/>
	<path fill="#E56326" d="M42.004,180.064c0.127-0.331,0.506-0.494,0.834-0.364c0.332,0.13,0.494,0.506,0.363,0.835
		c-0.131,0.333-0.506,0.494-0.834,0.364C42.036,180.769,41.873,180.396,42.004,180.064z"/>
	<path fill="#E56326" d="M41.983,182.064c0.13-0.337,0.514-0.501,0.847-0.369c0.338,0.134,0.504,0.514,0.369,0.85
		c-0.132,0.339-0.512,0.503-0.849,0.371C42.014,182.782,41.853,182.402,41.983,182.064z"/>
	<path fill="#E56326" d="M43.559,180.363c0.068-0.175,0.266-0.26,0.438-0.192c0.175,0.069,0.262,0.267,0.19,0.441
		c-0.067,0.175-0.265,0.259-0.438,0.191C43.574,180.736,43.49,180.535,43.559,180.363z"/>
	<circle fill="#E56326" cx="44.614" cy="177.556" r="0.246"/>
	<path fill="#E56326" d="M42.344,174.36c0.16-0.397,0.612-0.595,1.006-0.438c0.402,0.158,0.599,0.607,0.439,1.008
		c-0.156,0.4-0.608,0.599-1.009,0.439C42.383,175.212,42.188,174.762,42.344,174.36z"/>
	<circle fill="#E56326" cx="44.28" cy="175.812" r="0.335"/>
	<circle fill="#E56326" cx="46.431" cy="169.916" r="0.277"/>
	<circle fill="#E56326" cx="49.177" cy="169.916" r="0.277"/>
	<circle fill="#E56326" cx="47.873" cy="172.814" r="0.277"/>
	<circle fill="#E56326" cx="44.273" cy="171.768" r="0.276"/>
	<circle fill="#E56326" cx="42.175" cy="173.719" r="0.276"/>
	<circle fill="#E56326" cx="42.175" cy="175.563" r="0.276"/>
	<circle fill="#E56326" cx="49.104" cy="176.766" r="0.277"/>
	<path fill="#E56326" d="M42.011,178.9c0.081-0.204,0.312-0.307,0.519-0.225c0.207,0.082,0.307,0.314,0.224,0.52
		c-0.078,0.205-0.312,0.306-0.517,0.225C42.029,179.34,41.931,179.108,42.011,178.9z"/>
	<path fill="#E56326" d="M44.417,178.151c0.108-0.271,0.414-0.406,0.683-0.297c0.271,0.104,0.407,0.412,0.297,0.683
		c-0.105,0.271-0.413,0.403-0.682,0.297C44.442,178.729,44.313,178.422,44.417,178.151z"/>
	<circle fill="#E56326" cx="42.322" cy="181.313" r="0.255"/>
	<path fill="#E56326" d="M42.849,181.164c0.088-0.232,0.347-0.346,0.577-0.255c0.232,0.091,0.348,0.352,0.252,0.583
		c-0.09,0.229-0.35,0.343-0.582,0.251C42.868,181.655,42.756,181.395,42.849,181.164z"/>
	<path fill="#E56326" d="M42.012,183.232c0.066-0.173,0.261-0.257,0.431-0.19c0.174,0.068,0.259,0.264,0.19,0.433
		c-0.068,0.174-0.263,0.258-0.434,0.19C42.027,183.598,41.945,183.403,42.012,183.232z"/>
	<path fill="#E56326" d="M41.864,184.077c0.068-0.171,0.263-0.256,0.433-0.187c0.174,0.066,0.259,0.261,0.189,0.433
		c-0.067,0.174-0.262,0.256-0.434,0.188C41.88,184.444,41.796,184.25,41.864,184.077z"/>
	<path fill="#E56326" d="M42.273,172.346c0.184-0.469,0.715-0.699,1.181-0.517c0.468,0.188,0.702,0.716,0.511,1.186
		c-0.182,0.467-0.71,0.697-1.18,0.511C42.317,173.344,42.091,172.814,42.273,172.346z"/>
	<circle fill="#E56326" cx="45.327" cy="171.401" r="0.615"/>
	<path fill="#E56326" d="M43.701,167.152c0.124-0.315,0.483-0.472,0.798-0.348c0.317,0.127,0.475,0.485,0.346,0.8
		c-0.123,0.318-0.48,0.474-0.8,0.347C43.731,167.827,43.577,167.472,43.701,167.152z"/>
	<path fill="#E56326" d="M44.66,176.385c0.154-0.398,0.606-0.593,1.002-0.438c0.397,0.159,0.595,0.606,0.435,1.005
		c-0.157,0.398-0.605,0.593-1.003,0.436C44.696,177.229,44.503,176.781,44.66,176.385z"/>
	<path fill="#E56326" d="M42.991,178.904c0.164-0.42,0.645-0.63,1.067-0.464c0.422,0.167,0.631,0.646,0.461,1.068
		c-0.167,0.425-0.644,0.632-1.066,0.464C43.031,179.805,42.825,179.327,42.991,178.904z"/>
	<circle fill="#E56326" cx="46.166" cy="174.568" r="0.546"/>
	<circle fill="#E56326" cx="49.072" cy="193.393" r="0.547"/>
	<circle fill="#E56326" cx="43.755" cy="180.322" r="0.547"/>
	<circle fill="#E56326" cx="38.158" cy="195.343" r="0.856"/>
	<circle fill="#E56326" cx="44.774" cy="177.396" r="0.294"/>
	<circle fill="#E56326" cx="44.858" cy="191.777" r="0.296"/>
	<path fill="#E56326" d="M42.331,185.759c-0.038,0.095-0.143,0.143-0.238,0.104c-0.096-0.039-0.141-0.144-0.104-0.239
		c0.037-0.099,0.143-0.143,0.239-0.105S42.37,185.663,42.331,185.759z"/>
	<path fill="#E56326" d="M49.323,180.021c-0.006,0.103-0.094,0.182-0.193,0.173c-0.105-0.004-0.182-0.091-0.174-0.192
		c0.006-0.104,0.092-0.183,0.195-0.176C49.254,179.831,49.33,179.92,49.323,180.021z"/>
	<path fill="#E56326" d="M49.196,178.156c-0.006,0.114-0.102,0.199-0.21,0.19c-0.116-0.007-0.2-0.102-0.192-0.213
		c0.005-0.112,0.1-0.199,0.212-0.192C49.117,177.948,49.203,178.045,49.196,178.156z"/>
	<circle fill="#E56326" cx="42.456" cy="182.338" r="0.295"/>
	<path fill="#E56326" d="M38.407,184.378c0.133-0.334,0.511-0.499,0.843-0.368c0.336,0.133,0.499,0.511,0.368,0.848
		c-0.133,0.332-0.512,0.497-0.846,0.363C38.441,185.091,38.277,184.712,38.407,184.378z"/>
	<circle fill="#E56326" cx="42.886" cy="189.522" r="0.486"/>
	<path fill="#E56326" d="M43.378,189.867c0.067-0.171,0.26-0.256,0.429-0.188c0.173,0.067,0.256,0.259,0.188,0.433
		c-0.067,0.171-0.261,0.255-0.433,0.188C43.395,190.232,43.31,190.037,43.378,189.867z"/>
	<path fill="#E56326" d="M42.861,188.524c0.067-0.172,0.261-0.255,0.43-0.188c0.173,0.068,0.256,0.262,0.188,0.435
		c-0.067,0.171-0.261,0.252-0.432,0.186C42.876,188.89,42.793,188.696,42.861,188.524z"/>
	<path fill="#E56326" d="M45.107,191.277c0.111-0.286,0.437-0.426,0.72-0.314c0.288,0.115,0.428,0.438,0.314,0.723
		c-0.111,0.289-0.437,0.429-0.725,0.315C45.135,191.89,44.996,191.566,45.107,191.277z"/>
	<path fill="#E56326" d="M46.43,186.802c0.098-0.246,0.374-0.367,0.619-0.27c0.249,0.098,0.369,0.375,0.27,0.622
		c-0.097,0.247-0.375,0.365-0.621,0.268C46.454,187.329,46.334,187.05,46.43,186.802z"/>
	<path fill="#E56326" d="M47.963,178.999c0.125-0.309,0.476-0.46,0.78-0.339c0.315,0.123,0.468,0.476,0.343,0.784
		c-0.122,0.312-0.474,0.462-0.784,0.34C47.992,179.663,47.842,179.312,47.963,178.999z"/>
	<circle fill="#E56326" cx="47.17" cy="182.045" r="0.184"/>
	<path fill="#E56326" d="M47.545,186.51c0.037-0.094,0.145-0.14,0.237-0.103c0.098,0.036,0.143,0.144,0.105,0.241
		c-0.037,0.096-0.144,0.141-0.238,0.101C47.553,186.714,47.506,186.607,47.545,186.51z"/>
	<path fill="#E56326" d="M41.195,187.561c0.037-0.095,0.144-0.143,0.237-0.104c0.098,0.038,0.144,0.144,0.106,0.238
		c-0.038,0.096-0.145,0.143-0.239,0.107C41.203,187.765,41.157,187.656,41.195,187.561z"/>
	<circle fill="#E56326" cx="44.36" cy="189.689" r="0.185"/>
	<path fill="#E56326" d="M45.447,188.909c0.036-0.094,0.144-0.141,0.238-0.102c0.097,0.036,0.143,0.144,0.104,0.238
		c-0.037,0.098-0.143,0.142-0.239,0.105C45.454,189.114,45.408,189.006,45.447,188.909z"/>
	<circle fill="#E56326" cx="43.687" cy="189.292" r="0.184"/>
	<circle fill="#E56326" cx="43.355" cy="187.802" r="0.185"/>
	<path fill="#E56326" d="M44.697,189.616c0.098-0.245,0.374-0.367,0.614-0.269c0.25,0.097,0.371,0.373,0.27,0.618
		c-0.094,0.248-0.37,0.368-0.615,0.271C44.719,190.142,44.6,189.863,44.697,189.616z"/>
</g>
<g>
	<g>
		<path fill="#231F20" d="M119.039,101.03l8.234,14.399h-7.574l-7.905-13.651h-6.033v13.651h-6.605V82.404h14.399
			c7.706,0,11.56,3.17,11.56,9.511C125.115,96.686,123.09,99.724,119.039,101.03z M105.762,95.614h9.248
			c2.656-0.044,4.021-1.255,4.095-3.633c-0.074-2.172-1.417-3.302-4.029-3.391h-9.313V95.614z"/>
		<path fill="#231F20" d="M130.619,96.055c2.789-1.762,6.018-2.643,9.688-2.643c2.642,0,4.733,0.734,6.274,2.202
			c1.542,1.468,2.312,3.669,2.312,6.605v13.21h-6.165v-1.762c-1.791,1.175-3.406,1.762-4.844,1.762
			c-2.936,0-5.137-0.624-6.604-1.872c-1.469-1.246-2.202-2.972-2.202-5.173c0-2.056,0.693-3.89,2.081-5.505s3.629-2.422,6.726-2.422
			c1.424,0,3.039,0.44,4.844,1.321v-0.661c-0.03-1.614-1.204-2.495-3.523-2.642c-2.642,0-4.697,0.44-6.165,1.321L130.619,96.055z
			 M142.729,108.824v-2.487c-0.587-1.131-1.981-1.696-4.184-1.696c-2.642,0.294-4.037,1.321-4.183,3.084
			c0.146,1.746,1.541,2.692,4.183,2.84C140.748,110.564,142.142,109.984,142.729,108.824z"/>
		<path fill="#231F20" d="M175.292,82.425v33.004h-6.164v-1.762c-1.645,1.175-3.259,1.762-4.845,1.762
			c-3.376,0-6.055-1.101-8.036-3.303c-1.981-2.201-2.972-4.77-2.972-7.706s0.991-5.505,2.972-7.707
			c1.981-2.202,4.66-3.303,8.036-3.303c2.201,0.147,3.817,0.741,4.845,1.784V82.404L175.292,82.425z M169.128,106.402v-3.566
			c-0.294-2.466-1.835-3.912-4.624-4.338c-3.522,0.279-5.505,2.106-5.945,5.483c0.147,4.111,2.129,6.238,5.945,6.385
			C167.293,109.926,168.834,108.604,169.128,106.402z"/>
		<path fill="#231F20" d="M181.37,85.915c0.586-0.594,1.379-0.891,2.377-0.891c1.058,0,1.879,0.297,2.467,0.891
			c0.586,0.595,0.881,1.333,0.881,2.213c0,0.88-0.295,1.615-0.881,2.202c-0.588,0.587-1.395,0.88-2.422,0.88
			s-1.836-0.293-2.422-0.88c-0.588-0.587-0.881-1.321-0.881-2.202C180.489,87.248,180.782,86.51,181.37,85.915z M186.874,115.43
			V93.39h-6.164v22.04H186.874z"/>
		<path fill="#231F20" d="M205.523,107.613V93.39h6.164v22.04h-6.164v-2.004c-1.483,1.322-3.245,1.982-5.285,1.982
			c-2.789,0-4.917-0.845-6.385-2.532c-1.468-1.688-2.202-3.634-2.202-5.835V93.39h6.165v12.109c0,1.469,0.366,2.606,1.101,3.413
			c0.734,0.808,1.843,1.234,3.325,1.277C203.519,110.101,204.612,109.242,205.523,107.613z"/>
		<path fill="#231F20" d="M229.455,94.029c1.146,0.499,2.216,1.241,3.215,2.224l-3.435,3.875c-0.998-1.189-2.245-1.783-3.743-1.783
			c-1.483,0-2.474,0.275-2.972,0.826c-0.499,0.55-0.499,1.049,0,1.497c0.498,0.448,1.488,0.818,2.972,1.112
			c2.188,0.206,3.978,0.83,5.372,1.872s2.092,2.854,2.092,5.438c0,2.085-0.821,3.698-2.466,4.843
			c-1.645,1.146-3.56,1.719-5.747,1.719c-2.083,0-3.82-0.298-5.206-0.892c-1.388-0.596-2.58-1.392-3.578-2.39l3.412-3.853
			c0.999,1.188,2.547,1.879,4.646,2.069c1.688,0,2.777-0.275,3.27-0.825c0.491-0.552,0.564-1.102,0.221-1.651
			c-0.346-0.551-1.509-0.922-3.49-1.112c-1.792-0.205-3.432-0.756-4.921-1.651c-1.49-0.896-2.235-2.583-2.235-5.064
			c0-2.275,0.848-4.011,2.544-5.207c1.695-1.196,3.438-1.794,5.228-1.794C226.703,93.28,228.311,93.53,229.455,94.029z"/>
		<path fill="#231F20" d="M99.157,155.593v-33.026h2.202l20.696,20.695v-20.695h6.605v33.026h-2.422l-20.476-20.477v20.477H99.157z"
			/>
		<path fill="#231F20" d="M133.833,144.584c0-3.229,1.027-5.871,3.083-7.927c2.055-2.055,4.697-3.082,7.926-3.082
			c3.229,0,5.797,1.027,7.706,3.082c1.908,2.056,2.862,4.697,2.862,7.927v2.201h-15.192c0.146,1.175,0.661,2.092,1.541,2.753
			c0.881,0.66,1.908,0.99,3.083,0.99c2.055,0,3.889-0.586,5.504-1.762l3.523,3.523c-1.615,2.201-4.624,3.303-9.027,3.303
			c-3.229,0-5.872-1.027-7.926-3.082C134.861,150.455,133.833,147.812,133.833,144.584z M147.925,139.63
			c-0.88-0.66-1.908-0.991-3.082-0.991c-1.175,0-2.202,0.331-3.083,0.991c-0.88,0.66-1.321,1.577-1.321,2.752h8.807
			C149.246,141.207,148.806,140.29,147.925,139.63z"/>
		<path fill="#231F20" d="M170.207,155.593c-2.495,0-4.478-0.697-5.945-2.092s-2.201-3.192-2.201-5.395v-9.534h-3.303v-4.975h3.303
			v-5.968l6.187-0.66v6.628h3.303v4.975h-3.303v8.652c0,1.176,0.246,2.001,0.738,2.479c0.491,0.477,1.126,0.715,1.904,0.715
			c0.235,0,0.785-0.096,1.651-0.286l1.299,4.426C172.783,155.247,171.571,155.593,170.207,155.593z"/>
		<path fill="#231F20" d="M190.639,144.562l-3.303,11.031h-5.504l-5.901-22.04h5.791l3.412,13.012l3.303-13.012h4.559l3.148,13.232
			l3.391-13.232h5.79l-5.879,22.04h-5.504L190.639,144.562z"/>
		<path fill="#231F20" d="M211.666,152.587c-2.144-2.15-3.215-4.818-3.215-8.003c0-3.199,1.071-5.871,3.215-8.015
			c2.143-2.144,4.813-3.214,8.014-3.214s5.871,1.07,8.014,3.214c2.144,2.144,3.216,4.815,3.216,8.015c0,3.2-1.072,5.871-3.216,8.014
			c-2.143,2.144-4.813,3.215-8.014,3.215S213.809,154.737,211.666,152.587z M219.658,150.484c1.673,0,3.03-0.562,4.072-1.685
			c1.042-1.122,1.563-2.521,1.563-4.194c0-1.673-0.521-3.074-1.563-4.205s-2.407-1.695-4.095-1.695
			c-1.659,0-3.009,0.564-4.051,1.695c-1.043,1.131-1.564,2.532-1.564,4.205c0,1.674,0.521,3.072,1.564,4.194
			C216.627,149.923,217.984,150.484,219.658,150.484z"/>
		<path fill="#231F20" d="M240.772,135.997c1.571-1.614,3.485-2.422,5.746-2.422c0.72,0,1.401,0.059,2.048,0.176l-0.969,6.077
			c-0.72-0.646-1.747-0.99-3.082-1.036c-1.497,0.104-2.746,1.19-3.743,3.26v13.541h-6.165v-21.38l6.165-0.66V135.997z"/>
		<path fill="#231F20" d="M253.19,122.566h6.604v18.692l6.32-7.684h7.419l-8.234,9.886l10.437,12.132h-8.587l-7.354-8.785v8.785
			h-6.604V122.566z"/>
		<path fill="#231F20" d="M291.479,134.19c1.145,0.5,2.216,1.241,3.215,2.226l-3.435,3.874c-0.998-1.188-2.246-1.783-3.744-1.783
			c-1.482,0-2.473,0.274-2.972,0.825s-0.499,1.051,0,1.497c0.499,0.448,1.489,0.819,2.972,1.112
			c2.188,0.206,3.978,0.829,5.373,1.871c1.395,1.043,2.092,2.855,2.092,5.438c0,2.085-0.822,3.699-2.466,4.844
			c-1.645,1.146-3.56,1.718-5.747,1.718c-2.084,0-3.819-0.298-5.206-0.892c-1.388-0.595-2.58-1.391-3.578-2.389l3.412-3.853
			c0.998,1.188,2.546,1.878,4.646,2.069c1.688,0,2.776-0.275,3.269-0.826s0.565-1.101,0.221-1.651
			c-0.346-0.551-1.509-0.922-3.489-1.111c-1.792-0.206-3.432-0.756-4.922-1.651c-1.489-0.896-2.234-2.583-2.234-5.065
			c0-2.274,0.848-4.01,2.544-5.206c1.694-1.196,3.438-1.795,5.229-1.795C288.727,133.442,290.333,133.692,291.479,134.19z"/>
	</g>
</g>
</svg>
