<?xml version="1.0" encoding="utf-8"?>
<!-- Generator: Adobe Illustrator 15.0.0, SVG Export Plug-In . SVG Version: 6.00 Build 0)  -->
<!DOCTYPE svg PUBLIC "-//W3C//DTD SVG 1.1//EN" "http://www.w3.org/Graphics/SVG/1.1/DTD/svg11.dtd">
<svg version="1.1" id="Layer_1" xmlns="http://www.w3.org/2000/svg" xmlns:xlink="http://www.w3.org/1999/xlink" x="0px" y="0px"
	 width="550.328px" height="153.234px" viewBox="120.015 193.395 550.328 153.234"
	 enable-background="new 120.015 193.395 550.328 153.234" xml:space="preserve">
<g>
	<path fill="#E56326" d="M159.537,249.569c-0.477,1.21-1.846,1.804-3.053,1.327c-1.211-0.478-1.806-1.845-1.329-3.055
		c0.478-1.209,1.848-1.804,3.055-1.326C159.419,246.992,160.014,248.36,159.537,249.569z"/>
	<path fill="#E56326" d="M152.965,243.413c-0.478,1.21-1.846,1.804-3.055,1.327c-1.209-0.478-1.804-1.846-1.326-3.056
		c0.477-1.208,1.845-1.803,3.056-1.325C152.847,240.835,153.442,242.204,152.965,243.413z"/>
	<path fill="#E56326" d="M161.321,236.065c-1.188,3.019-4.602,4.5-7.617,3.309c-3.021-1.19-4.503-4.605-3.312-7.622
		c1.194-3.017,4.606-4.498,7.624-3.308C161.029,229.635,162.512,233.049,161.321,236.065z"/>
	<path fill="#E56326" d="M151.992,316.438c-0.57,1.445-2.203,2.156-3.648,1.586c-1.444-0.572-2.155-2.205-1.586-3.65
		c0.573-1.443,2.206-2.152,3.65-1.584C151.852,313.359,152.562,314.994,151.992,316.438z"/>
	<path fill="#E56326" d="M162.305,211.161c-0.469,1.189-1.814,1.773-3.002,1.304c-1.189-0.469-1.77-1.814-1.302-3.003
		c0.469-1.187,1.813-1.771,3-1.303C162.189,208.628,162.775,209.974,162.305,211.161z"/>
	<path fill="#E56326" d="M158.002,302.778c-0.757,1.058-2.226,1.301-3.287,0.545c-1.058-0.759-1.299-2.23-0.543-3.288
		c0.758-1.058,2.229-1.3,3.286-0.543C158.517,300.25,158.758,301.721,158.002,302.778z"/>
	<circle fill="#E56326" cx="142.198" cy="269.959" r="2.355"/>
	<path fill="#E56326" d="M165.229,289.994c-0.758,1.059-2.228,1.302-3.285,0.546c-1.058-0.758-1.301-2.23-0.544-3.287
		c0.757-1.059,2.228-1.3,3.286-0.542C165.743,287.468,165.986,288.939,165.229,289.994z"/>
	<path fill="#E56326" d="M168.182,218.417c-0.477,1.209-1.845,1.802-3.054,1.326c-1.211-0.478-1.805-1.846-1.328-3.055
		c0.478-1.209,1.846-1.804,3.056-1.327C168.065,215.837,168.659,217.207,168.182,218.417z"/>
	<circle fill="#E56326" cx="156.725" cy="220.334" r="5.408"/>
	<circle fill="#E56326" cx="159.454" cy="265.969" r="7.792"/>
	<path fill="#E56326" d="M159.565,253.33c-2.088,5.295-8.073,7.893-13.368,5.804c-5.292-2.088-7.889-8.073-5.802-13.367
		c2.089-5.291,8.073-7.889,13.366-5.801C159.056,242.055,161.652,248.039,159.565,253.33z"/>
	<path fill="#E56326" d="M160.18,290.215c-1.789,4.532-6.909,6.755-11.439,4.967c-4.529-1.788-6.752-6.91-4.964-11.438
		c1.787-4.529,6.908-6.752,11.438-4.965C159.744,280.566,161.966,285.688,160.18,290.215z"/>
	<path fill="#E56326" d="M158.277,227.232c-0.179,0.453-0.689,0.676-1.142,0.499c-0.453-0.18-0.677-0.691-0.498-1.147
		c0.178-0.452,0.69-0.674,1.145-0.496C158.234,226.267,158.456,226.779,158.277,227.232z"/>
	<path fill="#E56326" d="M161.761,239.454c-0.179,0.454-0.693,0.678-1.144,0.499c-0.454-0.18-0.677-0.692-0.498-1.146
		c0.18-0.452,0.692-0.674,1.146-0.496C161.718,238.49,161.94,239.002,161.761,239.454z"/>
	<path fill="#E56326" d="M139.014,249.874c-0.179,0.453-0.692,0.676-1.144,0.498c-0.454-0.179-0.676-0.692-0.497-1.146
		c0.179-0.453,0.69-0.675,1.145-0.497C138.97,248.908,139.192,249.419,139.014,249.874z"/>
	<path fill="#E56326" d="M169.641,257.912c-0.224,0.569-0.867,0.849-1.432,0.625c-0.57-0.224-0.849-0.867-0.625-1.437
		c0.223-0.567,0.869-0.846,1.434-0.622C169.585,256.702,169.865,257.346,169.641,257.912z"/>
	<path fill="#E56326" d="M166.275,258.747c-0.285,0.727-1.106,1.085-1.831,0.801c-0.727-0.289-1.083-1.11-0.797-1.836
		c0.286-0.726,1.109-1.083,1.834-0.794C166.205,257.202,166.562,258.024,166.275,258.747z"/>
	<path fill="#E56326" d="M151.474,229.179c-0.478,1.215-1.85,1.812-3.062,1.337c-1.218-0.48-1.812-1.855-1.333-3.071
		c0.477-1.21,1.854-1.805,3.071-1.328C151.358,226.594,151.951,227.968,151.474,229.179z"/>
	<path fill="#E56326" d="M161.797,201.719c-0.215,0.547-0.831,0.814-1.374,0.599c-0.546-0.215-0.814-0.832-0.599-1.378
		c0.214-0.545,0.832-0.812,1.377-0.597C161.744,200.558,162.011,201.174,161.797,201.719z"/>
	<path fill="#E56326" d="M162.279,207.607c-0.168,0.43-0.656,0.641-1.083,0.472c-0.431-0.169-0.644-0.655-0.471-1.086
		c0.168-0.43,0.653-0.641,1.083-0.471C162.24,206.692,162.448,207.177,162.279,207.607z"/>
	<path fill="#E56326" d="M157.774,211.996c-0.284,0.72-1.096,1.072-1.811,0.791c-0.718-0.286-1.071-1.098-0.788-1.817
		c0.283-0.717,1.095-1.07,1.815-0.786C157.707,210.466,158.059,211.278,157.774,211.996z"/>
	<path fill="#E56326" d="M168.395,198.308c-0.284,0.72-1.096,1.072-1.812,0.79c-0.717-0.284-1.07-1.095-0.787-1.815
		c0.282-0.719,1.094-1.071,1.814-0.786C168.327,196.778,168.679,197.59,168.395,198.308z"/>
	<path fill="#E56326" d="M150.802,199.2c-0.181,0.453-0.692,0.675-1.144,0.497c-0.455-0.179-0.677-0.69-0.498-1.145
		c0.178-0.453,0.691-0.675,1.145-0.496C150.757,198.234,150.98,198.747,150.802,199.2z"/>
	<circle fill="#E56326" cx="161.275" cy="213.51" r="0.881"/>
	<path fill="#E56326" d="M157.192,214.243c-0.157,0.395-0.605,0.588-0.997,0.434c-0.397-0.157-0.591-0.604-0.435-0.999
		c0.156-0.395,0.603-0.589,1-0.432C157.154,213.401,157.346,213.848,157.192,214.243z"/>
	<path fill="#E56326" d="M151.262,221.976c-0.156,0.396-0.605,0.589-0.997,0.435c-0.397-0.157-0.591-0.604-0.436-1
		c0.157-0.394,0.604-0.588,1-0.431C151.224,221.134,151.417,221.58,151.262,221.976z"/>
	<path fill="#E56326" d="M155.323,214.468c-0.2,0.506-0.771,0.754-1.275,0.556c-0.507-0.201-0.755-0.771-0.555-1.278
		c0.198-0.506,0.771-0.754,1.277-0.553C155.274,213.39,155.523,213.962,155.323,214.468z"/>
	<path fill="#E56326" d="M162.322,225.25c-0.18,0.455-0.693,0.677-1.143,0.499c-0.455-0.179-0.677-0.692-0.498-1.145
		c0.178-0.454,0.691-0.675,1.145-0.496C162.278,224.285,162.501,224.797,162.322,225.25z"/>
	<path fill="#E56326" d="M160.51,203.469c-0.19,0.449-0.707,0.662-1.152,0.475c-0.453-0.19-0.663-0.706-0.475-1.156
		c0.188-0.449,0.704-0.661,1.155-0.472C160.486,202.503,160.698,203.02,160.51,203.469z"/>
	<path fill="#E56326" d="M147.628,298.318c-0.478,1.211-1.844,1.805-3.056,1.329c-1.21-0.48-1.803-1.847-1.326-3.057
		c0.478-1.21,1.843-1.805,3.055-1.327C147.513,295.742,148.104,297.109,147.628,298.318z"/>
	<path fill="#E56326" d="M145.272,203.43c-0.479,1.209-1.846,1.803-3.056,1.326c-1.209-0.479-1.803-1.846-1.326-3.056
		c0.476-1.209,1.844-1.804,3.054-1.326C145.157,200.853,145.749,202.22,145.272,203.43z"/>
	<path fill="#E56326" d="M162.23,252.833c-0.195,0.499-0.759,0.742-1.253,0.547c-0.498-0.196-0.743-0.759-0.546-1.256
		c0.198-0.496,0.759-0.739,1.256-0.543C162.182,251.774,162.426,252.337,162.23,252.833z"/>
	<path fill="#E56326" d="M180.963,258.318c-0.136,0.345-0.526,0.514-0.869,0.379c-0.345-0.136-0.514-0.526-0.377-0.872
		c0.136-0.344,0.526-0.512,0.87-0.375C180.929,257.583,181.098,257.974,180.963,258.318z"/>
	<path fill="#E56326" d="M152.799,241.273c-0.179,0.453-0.691,0.676-1.144,0.499c-0.453-0.179-0.677-0.692-0.498-1.146
		c0.179-0.453,0.692-0.676,1.146-0.496C152.753,240.308,152.977,240.819,152.799,241.273z"/>
	<path fill="#E56326" d="M145.684,239.461c-0.183,0.461-0.703,0.688-1.162,0.508c-0.462-0.183-0.689-0.705-0.505-1.167
		c0.181-0.46,0.704-0.688,1.165-0.506C145.639,238.479,145.866,239,145.684,239.461z"/>
	<path fill="#E56326" d="M161.962,242.478c-0.358,0.908-1.384,1.352-2.286,0.995c-0.909-0.358-1.353-1.382-0.997-2.288
		c0.361-0.904,1.383-1.351,2.29-0.992C161.873,240.55,162.32,241.573,161.962,242.478z"/>
	<path fill="#E56326" d="M150.023,232.258c-0.177,0.453-0.69,0.678-1.14,0.499c-0.455-0.18-0.678-0.692-0.498-1.147
		c0.178-0.452,0.691-0.674,1.145-0.495C149.982,231.293,150.206,231.806,150.023,232.258z"/>
	<path fill="#E56326" d="M149.612,263.321c-0.476,1.21-1.845,1.804-3.055,1.327c-1.211-0.478-1.804-1.846-1.327-3.055
		c0.478-1.21,1.844-1.804,3.057-1.326C149.495,260.744,150.089,262.111,149.612,263.321z"/>
	<path fill="#E56326" d="M152.143,274.251c-0.673,1.709-2.609,2.55-4.32,1.876c-1.71-0.677-2.546-2.609-1.872-4.319
		c0.673-1.709,2.605-2.548,4.317-1.874C151.978,270.608,152.817,272.543,152.143,274.251z"/>
	<circle fill="#E56326" cx="169.089" cy="270.218" r="2.355"/>
	<path fill="#E56326" d="M166.918,281.609c-0.751,1.901-2.902,2.834-4.805,2.085c-1.904-0.753-2.835-2.904-2.085-4.806
		s2.899-2.835,4.804-2.086C166.733,277.554,167.667,279.707,166.918,281.609z"/>
	<circle fill="#E56326" cx="165.991" cy="208.973" r="2.355"/>
	<circle fill="#E56326" cx="172.505" cy="262.892" r="5.408"/>
	<path fill="#E56326" d="M139.223,268.889c-1.098,2.779-4.237,4.144-7.017,3.045c-2.778-1.095-4.141-4.236-3.044-7.015
		c1.096-2.779,4.235-4.142,7.015-3.045C138.955,262.972,140.317,266.111,139.223,268.889z"/>
	<path fill="#E56326" d="M153.448,308.802c-1.095,2.778-4.234,4.142-7.014,3.046c-2.778-1.098-4.142-4.236-3.045-7.015
		c1.097-2.78,4.237-4.143,7.015-3.048C153.183,302.882,154.546,306.023,153.448,308.802z"/>
	<path fill="#E56326" d="M153.547,205.941c-0.179,0.455-0.692,0.677-1.146,0.499c-0.453-0.179-0.676-0.691-0.496-1.146
		c0.178-0.453,0.691-0.675,1.144-0.497C153.503,204.976,153.725,205.489,153.547,205.941z"/>
	<circle fill="#E56326" cx="164.189" cy="228.714" r="0.883"/>
	<path fill="#E56326" d="M174.964,215.513c-0.179,0.454-0.691,0.675-1.142,0.499c-0.455-0.179-0.678-0.691-0.498-1.146
		c0.178-0.453,0.691-0.676,1.145-0.497C174.92,214.548,175.143,215.061,174.964,215.513z"/>
	<path fill="#E56326" d="M158.322,208.493c-0.196,0.499-0.759,0.742-1.256,0.546c-0.499-0.196-0.743-0.759-0.545-1.257
		c0.197-0.497,0.758-0.742,1.258-0.545C158.274,207.431,158.519,207.994,158.322,208.493z"/>
	<path fill="#E56326" d="M162.146,257.002c-0.342,0.867-1.322,1.292-2.188,0.95c-0.868-0.341-1.29-1.321-0.951-2.187
		c0.343-0.865,1.319-1.291,2.188-0.948C162.062,255.159,162.488,256.136,162.146,257.002z"/>
	<path fill="#E56326" d="M149.475,236.276c-0.62,1.578-2.405,2.355-3.982,1.733c-1.583-0.624-2.354-2.41-1.731-3.988
		c0.623-1.577,2.403-2.35,3.985-1.727C149.322,232.918,150.098,234.7,149.475,236.276z"/>
	<circle fill="#E56326" cx="154.599" cy="200.074" r="1.686"/>
	<path fill="#E56326" d="M160.786,206.6c-0.343,0.866-1.322,1.293-2.188,0.952c-0.867-0.342-1.292-1.324-0.95-2.188
		c0.34-0.867,1.32-1.291,2.187-0.948C160.702,204.757,161.127,205.735,160.786,206.6z"/>
	<path fill="#E56326" d="M141.514,259.278c-0.532,1.345-2.054,2.009-3.401,1.478c-1.347-0.532-2.009-2.057-1.477-3.404
		c0.528-1.346,2.052-2.005,3.4-1.474C141.384,256.411,142.046,257.93,141.514,259.278z"/>
	<path fill="#E56326" d="M134.737,259.507c-0.343,0.864-1.322,1.292-2.188,0.951c-0.867-0.343-1.292-1.324-0.951-2.189
		c0.341-0.868,1.321-1.29,2.188-0.947C134.654,257.663,135.079,258.642,134.737,259.507z"/>
	<circle fill="#E56326" cx="143.99" cy="259.955" r="1.295"/>
	<path fill="#E56326" d="M130.366,255.454c-0.343,0.865-1.321,1.292-2.188,0.951c-0.867-0.342-1.292-1.323-0.95-2.188
		c0.34-0.867,1.32-1.291,2.187-0.949C130.281,253.61,130.707,254.588,130.366,255.454z"/>
	<path fill="#E56326" d="M169.792,277.001c-0.341,0.865-1.321,1.292-2.188,0.949c-0.866-0.341-1.292-1.322-0.949-2.188
		c0.34-0.865,1.32-1.291,2.187-0.946C169.709,275.157,170.134,276.135,169.792,277.001z"/>
	<path fill="#E56326" d="M138.895,253.999c-0.458,1.159-1.767,1.728-2.923,1.27c-1.161-0.458-1.727-1.766-1.271-2.924
		c0.459-1.156,1.765-1.725,2.923-1.266C138.782,251.535,139.351,252.843,138.895,253.999z"/>
	<path fill="#E56326" d="M140.847,243.981c-0.188,0.479-0.729,0.712-1.205,0.525c-0.478-0.188-0.714-0.729-0.523-1.208
		c0.188-0.476,0.728-0.711,1.206-0.523C140.801,242.964,141.036,243.504,140.847,243.981z"/>
	<path fill="#E56326" d="M162.295,199.853c-0.113,0.291-0.441,0.433-0.729,0.319c-0.29-0.115-0.434-0.442-0.317-0.731
		c0.113-0.29,0.44-0.431,0.731-0.317C162.267,199.236,162.409,199.563,162.295,199.853z"/>
	<circle fill="#E56326" cx="161.375" cy="203.129" r="0.562"/>
	<circle fill="#E56326" cx="160.81" cy="199.73" r="0.344"/>
	<path fill="#E56326" d="M162.409,200.739c-0.069,0.178-0.269,0.265-0.445,0.195c-0.179-0.07-0.265-0.271-0.194-0.448
		c0.069-0.178,0.269-0.265,0.447-0.195C162.393,200.362,162.48,200.563,162.409,200.739z"/>
	<circle fill="#E56326" cx="161.936" cy="202.246" r="0.285"/>
	<circle fill="#E56326" cx="160.81" cy="204.011" r="0.285"/>
	<circle fill="#E56326" cx="161.872" cy="205.903" r="0.285"/>
	<circle fill="#E56326" cx="156.477" cy="209.424" r="0.451"/>
	<circle fill="#E56326" cx="150.831" cy="220.334" r="0.285"/>
	<path fill="#E56326" d="M155.169,212.687c-0.105,0.262-0.399,0.391-0.659,0.288c-0.262-0.103-0.392-0.399-0.286-0.66
		c0.101-0.261,0.398-0.389,0.657-0.285C155.144,212.132,155.271,212.427,155.169,212.687z"/>
	<circle fill="#E56326" cx="155.489" cy="213.192" r="0.286"/>
	<circle fill="#E56326" cx="157.53" cy="209.609" r="0.284"/>
	<circle fill="#E56326" cx="155.706" cy="209.894" r="0.285"/>
	<path fill="#E56326" d="M158.405,213.414c-0.126,0.313-0.478,0.467-0.79,0.344c-0.315-0.125-0.468-0.478-0.344-0.791
		c0.122-0.312,0.478-0.465,0.79-0.342C158.374,212.748,158.526,213.101,158.405,213.414z"/>
	<path fill="#E56326" d="M153.675,215.523c-0.099,0.246-0.374,0.366-0.618,0.27c-0.245-0.097-0.366-0.373-0.268-0.618
		c0.094-0.245,0.372-0.364,0.617-0.268C153.652,215.002,153.771,215.279,153.675,215.523z"/>
	<path fill="#E56326" d="M159.667,214.684c-0.165,0.41-0.625,0.611-1.033,0.449c-0.412-0.161-0.613-0.624-0.449-1.034
		c0.159-0.41,0.624-0.609,1.033-0.448C159.628,213.812,159.828,214.274,159.667,214.684z"/>
	<path fill="#E56326" d="M160.167,213.49c-0.098,0.246-0.373,0.367-0.617,0.269c-0.245-0.096-0.367-0.373-0.269-0.618
		c0.095-0.244,0.374-0.364,0.618-0.268C160.143,212.97,160.263,213.247,160.167,213.49z"/>
	<path fill="#E56326" d="M161.969,215.662c-0.176,0.439-0.669,0.655-1.105,0.482c-0.442-0.173-0.657-0.67-0.481-1.107
		c0.17-0.439,0.667-0.653,1.105-0.479C161.927,214.729,162.141,215.224,161.969,215.662z"/>
	<path fill="#E56326" d="M162.353,217.041c-0.126,0.313-0.477,0.467-0.789,0.344c-0.315-0.124-0.469-0.478-0.345-0.792
		c0.122-0.312,0.479-0.465,0.791-0.342C162.322,216.375,162.475,216.729,162.353,217.041z"/>
	<circle fill="#E56326" cx="153.423" cy="210.312" r="0.286"/>
	<circle fill="#E56326" cx="160.199" cy="214.393" r="0.285"/>
	<path fill="#E56326" d="M157.972,214.498c-0.06,0.146-0.223,0.218-0.37,0.16c-0.147-0.058-0.219-0.224-0.161-0.371
		c0.057-0.146,0.224-0.217,0.37-0.159C157.958,214.184,158.029,214.35,157.972,214.498z"/>
	<path fill="#E56326" d="M152.706,224.747c-0.06,0.146-0.224,0.218-0.37,0.161c-0.146-0.058-0.219-0.223-0.161-0.37
		c0.058-0.146,0.224-0.217,0.37-0.16C152.692,224.434,152.763,224.6,152.706,224.747z"/>
	<path fill="#E56326" d="M152.847,227.988c-0.089,0.224-0.342,0.334-0.565,0.245c-0.227-0.089-0.338-0.343-0.247-0.568
		c0.087-0.224,0.344-0.334,0.567-0.245C152.826,227.509,152.937,227.762,152.847,227.988z"/>
	<circle fill="#E56326" cx="160.62" cy="229.151" r="0.438"/>
	<circle fill="#E56326" cx="162.072" cy="212.342" r="0.285"/>
	<circle fill="#E56326" cx="158.732" cy="212.747" r="0.285"/>
	<circle fill="#E56326" cx="161.936" cy="204.011" r="0.285"/>
	<path fill="#E56326" d="M162.092,198.659c-0.07,0.176-0.27,0.264-0.446,0.194c-0.179-0.07-0.266-0.271-0.195-0.448
		c0.069-0.177,0.269-0.264,0.447-0.194C162.075,198.279,162.162,198.48,162.092,198.659z"/>
	<path fill="#E56326" d="M159.018,197.233c-0.07,0.178-0.27,0.265-0.446,0.195c-0.18-0.07-0.267-0.271-0.195-0.448
		c0.068-0.177,0.269-0.264,0.447-0.194C159.001,196.855,159.087,197.056,159.018,197.233z"/>
	<path fill="#E56326" d="M162.369,197.578c-0.069,0.176-0.27,0.264-0.445,0.195c-0.179-0.07-0.267-0.271-0.196-0.449
		c0.07-0.177,0.271-0.264,0.448-0.193C162.354,197.201,162.44,197.4,162.369,197.578z"/>
	<circle fill="#E56326" cx="161.501" cy="204.86" r="0.562"/>
	<circle fill="#E56326" cx="173.543" cy="267.714" r="0.51"/>
	<path fill="#E56326" d="M175.163,269.43c-0.178,0.452-0.692,0.676-1.143,0.498c-0.453-0.181-0.677-0.692-0.496-1.146
		c0.179-0.453,0.691-0.675,1.146-0.494C175.121,268.464,175.34,268.977,175.163,269.43z"/>
	<circle fill="#E56326" cx="180.775" cy="256.853" r="0.344"/>
	<circle fill="#E56326" cx="179.669" cy="256.776" r="0.305"/>
	<path fill="#E56326" d="M178.723,257.193c-0.061,0.156-0.238,0.234-0.394,0.172c-0.158-0.062-0.234-0.239-0.17-0.396
		c0.061-0.157,0.237-0.233,0.394-0.171C178.708,256.859,178.785,257.036,178.723,257.193z"/>
	<path fill="#E56326" d="M177.952,258.251c-0.091,0.229-0.35,0.341-0.576,0.251c-0.231-0.09-0.344-0.351-0.251-0.58
		c0.089-0.23,0.348-0.342,0.578-0.25C177.929,257.761,178.043,258.021,177.952,258.251z"/>
	<path fill="#E56326" d="M174.958,257.548c-0.081,0.205-0.313,0.307-0.518,0.227c-0.208-0.082-0.308-0.315-0.226-0.52
		c0.08-0.207,0.313-0.306,0.519-0.226C174.939,257.11,175.039,257.343,174.958,257.548z"/>
	<circle fill="#E56326" cx="171.948" cy="256.852" r="0.4"/>
	<path fill="#E56326" d="M170.892,257.439c-0.103,0.262-0.398,0.392-0.658,0.289c-0.265-0.103-0.393-0.401-0.288-0.663
		c0.102-0.264,0.396-0.392,0.661-0.287C170.868,256.883,170.996,257.179,170.892,257.439z"/>
	<path fill="#E56326" d="M179.331,258.28c-0.114,0.29-0.442,0.433-0.729,0.318c-0.293-0.115-0.434-0.443-0.319-0.731
		c0.113-0.291,0.442-0.434,0.73-0.318C179.305,257.662,179.444,257.989,179.331,258.28z"/>
	<circle fill="#E56326" cx="178.359" cy="262.604" r="0.29"/>
	<path fill="#E56326" d="M177.052,257.789c-0.213,0.51-0.799,0.751-1.307,0.537c-0.513-0.212-0.75-0.798-0.537-1.311
		c0.211-0.51,0.799-0.75,1.31-0.536C177.029,256.694,177.267,257.278,177.052,257.789z"/>
	<path fill="#E56326" d="M179.919,260.349c-0.239,0.567-0.89,0.834-1.454,0.598c-0.569-0.238-0.833-0.891-0.597-1.458
		c0.237-0.564,0.887-0.834,1.455-0.595C179.89,259.131,180.157,259.782,179.919,260.349z"/>
	<path fill="#E56326" d="M177.346,254.648c-0.135,0.323-0.506,0.475-0.826,0.34c-0.325-0.136-0.476-0.505-0.34-0.829
		c0.134-0.321,0.504-0.473,0.828-0.338C177.33,253.956,177.48,254.326,177.346,254.648z"/>
	<circle fill="#E56326" cx="161.505" cy="244.875" r="0.562"/>
	<path fill="#E56326" d="M162.138,247.025c-0.206,0.529-0.804,0.788-1.329,0.581c-0.529-0.208-0.791-0.805-0.58-1.333
		c0.208-0.527,0.803-0.787,1.331-0.578C162.088,245.901,162.343,246.498,162.138,247.025z"/>
	<circle fill="#E56326" cx="158.062" cy="240.574" r="0.603"/>
	<path fill="#E56326" d="M143.132,238.216c-0.113,0.289-0.442,0.431-0.729,0.318c-0.29-0.114-0.434-0.441-0.316-0.732
		c0.113-0.29,0.439-0.43,0.729-0.316C143.104,237.6,143.245,237.926,143.132,238.216z"/>
	<circle fill="#E56326" cx="141.481" cy="242.382" r="0.562"/>
	<circle fill="#E56326" cx="149.206" cy="224.643" r="0.563"/>
	<path fill="#E56326" d="M150.278,238.265c-0.14,0.278-0.481,0.388-0.756,0.249c-0.279-0.142-0.389-0.481-0.246-0.759
		c0.141-0.278,0.479-0.387,0.757-0.247C150.31,237.649,150.419,237.987,150.278,238.265z"/>
	<circle fill="#E56326" cx="146.619" cy="230.679" r="0.562"/>
	<path fill="#E56326" d="M152.32,226.003c-0.14,0.277-0.481,0.386-0.756,0.246c-0.278-0.142-0.389-0.48-0.247-0.758
		s0.48-0.387,0.758-0.247C152.351,225.386,152.461,225.724,152.32,226.003z"/>
	<path fill="#E56326" d="M151.596,224.173c-0.214,0.423-0.733,0.59-1.151,0.378c-0.424-0.217-0.593-0.734-0.375-1.156
		c0.216-0.422,0.73-0.59,1.155-0.375C151.643,223.235,151.81,223.751,151.596,224.173z"/>
	<path fill="#E56326" d="M160.679,226.847c-0.215,0.421-0.733,0.589-1.151,0.376c-0.424-0.216-0.592-0.733-0.375-1.156
		c0.216-0.422,0.73-0.59,1.154-0.375C160.726,225.907,160.893,226.424,160.679,226.847z"/>
	<path fill="#E56326" d="M162.006,227.519c-0.141,0.277-0.481,0.386-0.756,0.246c-0.279-0.141-0.391-0.48-0.248-0.758
		c0.141-0.277,0.481-0.387,0.757-0.246C162.038,226.901,162.146,227.241,162.006,227.519z"/>
	<path fill="#E56326" d="M154.501,226.715c-0.222,0.438-0.761,0.611-1.195,0.391c-0.44-0.226-0.617-0.761-0.39-1.201
		c0.224-0.438,0.757-0.612,1.198-0.389C154.552,225.739,154.724,226.275,154.501,226.715z"/>
	<path fill="#E56326" d="M143.526,240.959c-0.392,0.774-1.342,1.08-2.111,0.691c-0.775-0.396-1.087-1.344-0.689-2.12
		c0.396-0.774,1.341-1.08,2.117-0.686C143.613,239.237,143.918,240.183,143.526,240.959z"/>
	<path fill="#E56326" d="M149.452,266.681c-0.185,0.363-0.63,0.506-0.991,0.324c-0.364-0.187-0.51-0.63-0.323-0.994
		c0.186-0.364,0.628-0.507,0.992-0.323C149.492,265.872,149.636,266.316,149.452,266.681z"/>
	<path fill="#E56326" d="M143.264,266.013c-0.14,0.277-0.481,0.387-0.756,0.247c-0.279-0.142-0.391-0.481-0.247-0.76
		c0.142-0.276,0.48-0.387,0.757-0.245C143.296,265.396,143.405,265.735,143.264,266.013z"/>
	<circle fill="#E56326" cx="138.193" cy="246.349" r="0.563"/>
	<circle fill="#E56326" cx="135.418" cy="256.367" r="0.563"/>
	<path fill="#E56326" d="M128.424,258.008c-0.14,0.277-0.481,0.387-0.756,0.247c-0.279-0.142-0.391-0.481-0.246-0.759
		c0.141-0.277,0.479-0.386,0.757-0.245C128.456,257.393,128.564,257.731,128.424,258.008z"/>
	<circle fill="#E56326" cx="141.366" cy="265.758" r="0.562"/>
	<circle fill="#E56326" cx="132.092" cy="275.094" r="0.563"/>
	<path fill="#E56326" d="M131.419,277.402c-0.14,0.276-0.481,0.388-0.756,0.245c-0.278-0.14-0.39-0.479-0.246-0.758
		c0.141-0.277,0.479-0.386,0.757-0.245C131.451,276.784,131.561,277.124,131.419,277.402z"/>
	<path fill="#E56326" d="M125.942,263.936c-0.141,0.277-0.481,0.387-0.756,0.247c-0.279-0.141-0.392-0.481-0.247-0.759
		c0.141-0.278,0.479-0.387,0.757-0.245C125.972,263.32,126.082,263.657,125.942,263.936z"/>
	<path fill="#E56326" d="M131.107,271.894c0.021,0.367-0.262,0.683-0.626,0.704c-0.37,0.02-0.685-0.259-0.705-0.629
		c-0.021-0.368,0.261-0.68,0.628-0.703C130.771,271.246,131.085,271.527,131.107,271.894z"/>
	<path fill="#E56326" d="M140.74,273.269c-0.14,0.277-0.48,0.386-0.756,0.246c-0.278-0.141-0.391-0.479-0.246-0.757
		c0.141-0.278,0.479-0.388,0.757-0.245C140.771,272.651,140.881,272.99,140.74,273.269z"/>
	<circle fill="#E56326" cx="137.366" cy="273.013" r="0.563"/>
	<path fill="#E56326" d="M147.407,267.81c-0.498,0.982-1.702,1.369-2.676,0.876c-0.986-0.501-1.38-1.703-0.874-2.688
		c0.5-0.981,1.698-1.369,2.681-0.87C147.519,265.627,147.903,266.825,147.407,267.81z"/>
	<path fill="#E56326" d="M159.059,277.534c-0.48,0.945-1.64,1.322-2.58,0.843c-0.951-0.483-1.331-1.642-0.844-2.59
		c0.486-0.948,1.638-1.322,2.587-0.837C159.167,275.427,159.54,276.585,159.059,277.534z"/>
	<path fill="#E56326" d="M165.393,274.521c-0.142,0.279-0.482,0.387-0.756,0.249c-0.278-0.142-0.39-0.482-0.247-0.76
		c0.141-0.278,0.479-0.388,0.757-0.246C165.424,273.904,165.533,274.243,165.393,274.521z"/>
	<circle fill="#E56326" cx="167.661" cy="259.07" r="0.562"/>
	<circle fill="#E56326" cx="166.416" cy="261.033" r="0.563"/>
	<path fill="#E56326" d="M178.942,261.836c-0.139,0.277-0.48,0.386-0.756,0.248c-0.278-0.143-0.389-0.482-0.246-0.759
		c0.141-0.278,0.48-0.387,0.757-0.246C178.975,261.219,179.084,261.558,178.942,261.836z"/>
	<circle fill="#E56326" cx="172.72" cy="270.218" r="0.563"/>
	<path fill="#E56326" d="M169.438,273.832c-0.142,0.279-0.482,0.387-0.757,0.248c-0.277-0.142-0.39-0.481-0.246-0.759
		c0.141-0.276,0.479-0.387,0.758-0.246C169.469,273.215,169.577,273.553,169.438,273.832z"/>
	<path fill="#E56326" d="M147.923,278.295c-0.14,0.276-0.481,0.386-0.756,0.245c-0.278-0.14-0.39-0.48-0.246-0.758
		c0.141-0.278,0.479-0.387,0.758-0.245C147.955,277.677,148.064,278.017,147.923,278.295z"/>
	<path fill="#E56326" d="M154.234,274.521c-0.14,0.277-0.48,0.387-0.757,0.247c-0.277-0.143-0.39-0.481-0.245-0.76
		c0.141-0.278,0.479-0.386,0.756-0.245C154.265,273.903,154.375,274.244,154.234,274.521z"/>
	<path fill="#E56326" d="M151.262,263.736c-0.14,0.278-0.481,0.388-0.756,0.249c-0.279-0.142-0.39-0.482-0.246-0.759
		c0.141-0.277,0.479-0.388,0.757-0.247C151.294,263.119,151.403,263.459,151.262,263.736z"/>
	<path fill="#E56326" d="M152.39,261.335c-0.141,0.277-0.481,0.387-0.756,0.248c-0.279-0.142-0.39-0.483-0.246-0.76
		c0.141-0.276,0.479-0.386,0.757-0.246C152.422,260.718,152.53,261.057,152.39,261.335z"/>
	<path fill="#E56326" d="M145.626,278.543c-0.277,0.545-0.949,0.762-1.491,0.486c-0.548-0.279-0.77-0.946-0.486-1.494
		c0.279-0.549,0.946-0.764,1.494-0.487C145.689,277.325,145.903,277.994,145.626,278.543z"/>
	<circle fill="#E56326" cx="143.991" cy="280.648" r="0.563"/>
	<path fill="#E56326" d="M120.488,279.495c-0.19,0.45-0.707,0.663-1.154,0.475c-0.451-0.189-0.663-0.706-0.474-1.157
		c0.188-0.449,0.705-0.661,1.155-0.471C120.464,278.529,120.675,279.046,120.488,279.495z"/>
	<circle fill="#E56326" cx="126.489" cy="260.667" r="0.304"/>
	<circle fill="#E56326" cx="137.669" cy="271.704" r="0.304"/>
	<path fill="#E56326" d="M133.155,273.334c-0.173,0.448-0.679,0.666-1.121,0.491c-0.448-0.176-0.669-0.681-0.49-1.128
		c0.175-0.45,0.678-0.667,1.126-0.489C133.115,272.381,133.33,272.889,133.155,273.334z"/>
	<path fill="#E56326" d="M129.715,271.966c-0.078,0.202-0.308,0.302-0.509,0.223c-0.204-0.08-0.303-0.31-0.222-0.511
		c0.079-0.203,0.309-0.302,0.511-0.222C129.696,271.535,129.795,271.764,129.715,271.966z"/>
	<path fill="#E56326" d="M126.86,275.594c-0.062,0.158-0.239,0.235-0.395,0.173c-0.158-0.061-0.234-0.239-0.172-0.397
		c0.061-0.156,0.239-0.233,0.395-0.172C126.845,275.262,126.921,275.439,126.86,275.594z"/>
	<path fill="#E56326" d="M130.037,271.087c-0.038,0.099-0.149,0.148-0.245,0.108c-0.1-0.039-0.147-0.149-0.108-0.246
		c0.038-0.099,0.147-0.147,0.246-0.109S130.076,270.989,130.037,271.087z"/>
	<path fill="#E56326" d="M123.973,269.282c-0.038,0.099-0.148,0.147-0.245,0.107c-0.101-0.038-0.148-0.148-0.108-0.246
		c0.038-0.1,0.149-0.148,0.246-0.108C123.965,269.073,124.013,269.184,123.973,269.282z"/>
	<path fill="#E56326" d="M128.57,268.071c-0.006,0.105-0.096,0.186-0.199,0.179c-0.108-0.005-0.187-0.095-0.179-0.202
		c0.005-0.105,0.093-0.185,0.2-0.179C128.498,267.873,128.578,267.964,128.57,268.071z"/>
	<path fill="#E56326" d="M128.438,266.149c-0.007,0.114-0.105,0.203-0.217,0.195c-0.119-0.007-0.206-0.104-0.198-0.22
		c0.004-0.117,0.103-0.205,0.218-0.197C128.358,265.933,128.444,266.033,128.438,266.149z"/>
	<path fill="#E56326" d="M124.386,265.869c-0.062,0.157-0.24,0.234-0.395,0.173c-0.158-0.062-0.234-0.24-0.171-0.397
		c0.062-0.157,0.239-0.233,0.396-0.171C124.37,265.535,124.446,265.712,124.386,265.869z"/>
	<path fill="#E56326" d="M129.654,270.731c-0.114,0.291-0.443,0.434-0.733,0.32c-0.293-0.116-0.435-0.446-0.32-0.738
		c0.115-0.292,0.443-0.433,0.735-0.319C129.629,270.109,129.768,270.439,129.654,270.731z"/>
	<path fill="#E56326" d="M130.37,262.181c-0.061,0.156-0.237,0.233-0.394,0.172c-0.158-0.063-0.234-0.239-0.172-0.397
		c0.062-0.156,0.239-0.232,0.396-0.172C130.356,261.848,130.433,262.024,130.37,262.181z"/>
	<circle fill="#E56326" cx="181.45" cy="256.663" r="0.19"/>
	<circle fill="#E56326" cx="179.003" cy="256.663" r="0.19"/>
	<circle fill="#E56326" cx="179.003" cy="257.211" r="0.19"/>
	<circle fill="#E56326" cx="176.462" cy="258.698" r="0.19"/>
	<path fill="#E56326" d="M177.955,256.895c-0.069,0.176-0.269,0.264-0.442,0.194c-0.179-0.07-0.265-0.269-0.193-0.445
		c0.068-0.179,0.267-0.264,0.445-0.195C177.94,256.517,178.026,256.718,177.955,256.895z"/>
	<path fill="#E56326" d="M174.798,256.747c-0.045,0.117-0.179,0.175-0.294,0.129c-0.121-0.047-0.178-0.179-0.13-0.298
		c0.045-0.117,0.178-0.176,0.295-0.128C174.789,256.495,174.845,256.628,174.798,256.747z"/>
	<path fill="#E56326" d="M167.085,258.171c-0.044,0.118-0.178,0.176-0.293,0.13c-0.121-0.047-0.177-0.179-0.131-0.297
		c0.046-0.119,0.179-0.175,0.296-0.128C167.076,257.921,167.133,258.053,167.085,258.171z"/>
	<path fill="#E56326" d="M171.376,256.827c-0.046,0.119-0.18,0.176-0.295,0.129c-0.12-0.045-0.177-0.179-0.129-0.296
		c0.046-0.119,0.178-0.176,0.296-0.129C171.366,256.576,171.423,256.708,171.376,256.827z"/>
	<path fill="#E56326" d="M180.326,257.26c-0.038,0.098-0.149,0.147-0.246,0.107c-0.099-0.039-0.146-0.148-0.106-0.246
		c0.038-0.1,0.148-0.147,0.246-0.108C180.317,257.051,180.365,257.162,180.326,257.26z"/>
	<path fill="#E56326" d="M179.73,257.451c-0.038,0.099-0.148,0.146-0.244,0.107c-0.101-0.038-0.148-0.149-0.108-0.247
		c0.038-0.1,0.149-0.146,0.247-0.108C179.723,257.241,179.77,257.352,179.73,257.451z"/>
	<path fill="#E56326" d="M177.938,260.896c-0.038,0.099-0.149,0.146-0.245,0.106c-0.1-0.038-0.147-0.149-0.107-0.246
		c0.038-0.099,0.148-0.147,0.247-0.108C177.929,260.687,177.977,260.797,177.938,260.896z"/>
	<path fill="#E56326" d="M180.382,259.245c-0.056,0.146-0.221,0.217-0.366,0.16c-0.146-0.058-0.218-0.223-0.158-0.369
		c0.054-0.147,0.22-0.218,0.366-0.16C180.37,258.934,180.442,259.098,180.382,259.245z"/>
	<path fill="#E56326" d="M179.73,258.768c-0.038,0.098-0.148,0.146-0.244,0.108c-0.101-0.04-0.148-0.15-0.108-0.248
		c0.038-0.099,0.149-0.146,0.247-0.108C179.723,258.558,179.77,258.669,179.73,258.768z"/>
	<path fill="#E56326" d="M177.677,260.026c-0.038,0.098-0.149,0.146-0.245,0.107c-0.1-0.039-0.147-0.15-0.108-0.247
		c0.038-0.099,0.149-0.147,0.248-0.108C177.669,259.816,177.716,259.927,177.677,260.026z"/>
	<circle fill="#E56326" cx="178.116" cy="258.698" r="0.19"/>
	<path fill="#E56326" d="M177.804,259.343c-0.109,0.278-0.422,0.415-0.695,0.305c-0.282-0.109-0.419-0.422-0.307-0.701
		c0.109-0.281,0.42-0.415,0.699-0.305C177.779,258.75,177.916,259.064,177.804,259.343z"/>
	<circle fill="#E56326" cx="177.952" cy="257.442" r="0.19"/>
	<path fill="#E56326" d="M170.084,253.435c-0.038,0.097-0.148,0.146-0.245,0.107c-0.1-0.039-0.147-0.149-0.108-0.247
		c0.038-0.099,0.149-0.146,0.248-0.108C170.077,253.225,170.124,253.337,170.084,253.435z"/>
	<path fill="#E56326" d="M173.967,257.146c-0.088,0.23-0.349,0.344-0.576,0.252c-0.234-0.092-0.345-0.35-0.252-0.58
		c0.089-0.232,0.349-0.344,0.579-0.253C173.948,256.656,174.062,256.916,173.967,257.146z"/>
	<path fill="#E56326" d="M174.244,254.753c-0.089,0.23-0.349,0.344-0.576,0.253c-0.233-0.092-0.345-0.35-0.252-0.58
		c0.09-0.233,0.348-0.345,0.579-0.254C174.226,254.262,174.338,254.523,174.244,254.753z"/>
	<path fill="#E56326" d="M181.246,257.472c-0.039,0.098-0.149,0.146-0.246,0.108c-0.1-0.039-0.147-0.15-0.107-0.248
		c0.038-0.099,0.148-0.147,0.246-0.108C181.237,257.263,181.285,257.374,181.246,257.472z"/>
	<path fill="#E56326" d="M119.931,267.859c0.136-0.344,0.526-0.513,0.868-0.379c0.346,0.138,0.515,0.527,0.379,0.872
		c-0.137,0.344-0.526,0.513-0.871,0.377C119.965,268.593,119.795,268.203,119.931,267.859z"/>
	<path fill="#E56326" d="M124.079,272.974c0.101-0.258,0.393-0.383,0.649-0.282c0.259,0.102,0.385,0.393,0.282,0.649
		c-0.101,0.26-0.391,0.384-0.651,0.283C124.104,273.523,123.981,273.232,124.079,272.974z"/>
	<path fill="#E56326" d="M125.051,273.513c0.067-0.175,0.268-0.262,0.443-0.193c0.179,0.07,0.264,0.269,0.193,0.446
		c-0.069,0.176-0.268,0.263-0.446,0.192C125.067,273.89,124.982,273.69,125.051,273.513z"/>
	<path fill="#E56326" d="M124.518,272.131c0.068-0.177,0.269-0.264,0.443-0.194c0.178,0.07,0.264,0.269,0.193,0.446
		c-0.07,0.178-0.269,0.261-0.446,0.192C124.534,272.506,124.45,272.308,124.518,272.131z"/>
	<path fill="#E56326" d="M125.359,270.587c0.068-0.176,0.269-0.263,0.443-0.193c0.179,0.07,0.264,0.269,0.193,0.446
		c-0.069,0.178-0.268,0.263-0.446,0.193C125.375,270.964,125.29,270.765,125.359,270.587z"/>
	<path fill="#E56326" d="M126.834,274.968c0.115-0.294,0.45-0.44,0.742-0.324c0.297,0.117,0.442,0.449,0.324,0.745
		c-0.115,0.294-0.45,0.44-0.747,0.322C126.86,275.597,126.718,275.265,126.834,274.968z"/>
	<path fill="#E56326" d="M129.592,273.15c0.101-0.253,0.385-0.377,0.638-0.278c0.256,0.102,0.38,0.388,0.278,0.64
		c-0.1,0.255-0.385,0.379-0.64,0.279C129.617,273.692,129.492,273.405,129.592,273.15z"/>
	<path fill="#E56326" d="M125.452,271.607c0.176-0.451,0.688-0.675,1.138-0.497c0.458,0.179,0.682,0.692,0.499,1.144
		c-0.178,0.456-0.691,0.678-1.143,0.499C125.493,272.573,125.273,272.062,125.452,271.607z"/>
	<path fill="#E56326" d="M127.167,267.018c0.127-0.32,0.49-0.477,0.805-0.35c0.324,0.125,0.482,0.487,0.354,0.807
		c-0.126,0.32-0.488,0.477-0.81,0.349C127.198,267.7,127.042,267.339,127.167,267.018z"/>
	<path fill="#E56326" d="M127.771,272.802c0.184-0.437,0.686-0.643,1.12-0.46c0.439,0.184,0.644,0.686,0.46,1.123
		c-0.184,0.437-0.685,0.642-1.122,0.459C127.792,273.742,127.587,273.239,127.771,272.802z"/>
	<path fill="#E56326" d="M125.882,268.916c0.299-0.711,1.116-1.045,1.826-0.749c0.711,0.298,1.045,1.115,0.748,1.829
		c-0.297,0.709-1.113,1.046-1.825,0.749C125.919,270.447,125.584,269.629,125.882,268.916z"/>
	<path fill="#E56326" d="M123.771,273.711c0.038-0.097,0.147-0.147,0.244-0.109c0.1,0.041,0.148,0.149,0.108,0.248
		c-0.038,0.099-0.148,0.146-0.247,0.108C123.778,273.921,123.731,273.81,123.771,273.711z"/>
	<path fill="#E56326" d="M130.933,273.631c0.038-0.096,0.147-0.146,0.246-0.106c0.099,0.04,0.147,0.148,0.106,0.247
		c-0.037,0.099-0.147,0.147-0.245,0.108C130.94,273.842,130.892,273.731,130.933,273.631z"/>
	<path fill="#E56326" d="M131.217,271.862c0.038-0.1,0.148-0.147,0.244-0.108c0.101,0.04,0.148,0.149,0.108,0.248
		c-0.039,0.099-0.149,0.146-0.247,0.107C131.225,272.071,131.178,271.959,131.217,271.862z"/>
	<path fill="#E56326" d="M130.741,272.852c0.038-0.099,0.148-0.146,0.245-0.108c0.101,0.038,0.147,0.15,0.108,0.247
		c-0.038,0.098-0.149,0.146-0.246,0.106C130.749,273.06,130.702,272.949,130.741,272.852z"/>
	<circle fill="#E56326" cx="122.979" cy="271.208" r="0.19"/>
	<path fill="#E56326" d="M128.203,271.02c0.038-0.099,0.149-0.146,0.246-0.108c0.099,0.038,0.147,0.149,0.108,0.248
		c-0.038,0.097-0.149,0.146-0.247,0.106C128.211,271.229,128.164,271.117,128.203,271.02z"/>
	<circle fill="#E56326" cx="133.593" cy="272.636" r="0.19"/>
	<path fill="#E56326" d="M125.887,273.261c0.038-0.098,0.149-0.148,0.245-0.107c0.1,0.039,0.147,0.148,0.108,0.247
		c-0.038,0.098-0.149,0.146-0.247,0.109C125.895,273.472,125.847,273.359,125.887,273.261z"/>
	<path fill="#E56326" d="M127.183,272.528c0.038-0.097,0.148-0.146,0.245-0.107c0.101,0.04,0.147,0.149,0.108,0.248
		c-0.038,0.099-0.149,0.146-0.246,0.108C127.191,272.737,127.144,272.627,127.183,272.528z"/>
	<path fill="#E56326" d="M125.193,272.852c0.038-0.099,0.149-0.146,0.245-0.108c0.1,0.038,0.147,0.15,0.108,0.247
		c-0.038,0.098-0.149,0.146-0.247,0.106C125.201,273.06,125.153,272.949,125.193,272.852z"/>
	<path fill="#E56326" d="M124.851,271.317c0.038-0.099,0.148-0.146,0.245-0.108c0.101,0.039,0.148,0.149,0.108,0.248
		c-0.038,0.098-0.149,0.146-0.246,0.108C124.858,271.527,124.811,271.415,124.851,271.317z"/>
	<path fill="#E56326" d="M128.272,271.815c0.054-0.137,0.208-0.206,0.344-0.151c0.141,0.055,0.208,0.21,0.153,0.348
		c-0.055,0.141-0.21,0.207-0.348,0.152C128.283,272.11,128.215,271.954,128.272,271.815z"/>
	<path fill="#E56326" d="M127.302,271.419c0.087-0.225,0.339-0.334,0.559-0.247c0.228,0.09,0.337,0.342,0.246,0.564
		c-0.087,0.225-0.338,0.334-0.562,0.245C127.32,271.896,127.211,271.643,127.302,271.419z"/>
	<path fill="#E56326" d="M126.412,273.257c0.099-0.255,0.384-0.38,0.633-0.279c0.257,0.1,0.381,0.385,0.278,0.638
		c-0.098,0.256-0.382,0.379-0.634,0.277C126.432,273.796,126.31,273.51,126.412,273.257z"/>
	<path fill="#E56326" d="M143.222,318.307c0.296-0.744,1.134-1.107,1.872-0.814c0.742,0.293,1.105,1.133,0.815,1.875
		c-0.292,0.742-1.132,1.105-1.875,0.812C143.294,319.887,142.931,319.047,143.222,318.307z"/>
	<path fill="#E56326" d="M147.779,319.338c0.254-0.639,0.976-0.953,1.61-0.703c0.64,0.256,0.954,0.979,0.702,1.613
		c-0.251,0.641-0.974,0.955-1.614,0.701C147.841,320.699,147.527,319.977,147.779,319.338z"/>
	<path fill="#E56326" d="M143.034,325.418c0.287-0.682,1.071-1.004,1.75-0.721c0.687,0.287,1.006,1.072,0.719,1.756
		c-0.285,0.68-1.068,1.004-1.751,0.717C143.069,326.885,142.748,326.102,143.034,325.418z"/>
	<path fill="#E56326" d="M145.394,321.965c0.372-0.941,1.437-1.406,2.379-1.035c0.943,0.373,1.405,1.441,1.034,2.381
		c-0.371,0.943-1.437,1.404-2.38,1.029C145.484,323.971,145.022,322.906,145.394,321.965z"/>
	<path fill="#E56326" d="M143.174,329.006c0.131-0.342,0.521-0.508,0.858-0.375c0.342,0.133,0.51,0.521,0.374,0.861
		c-0.134,0.342-0.521,0.508-0.859,0.373C143.206,329.73,143.039,329.348,143.174,329.006z"/>
	<path fill="#E56326" d="M143.153,331.066c0.134-0.348,0.528-0.516,0.873-0.381c0.348,0.139,0.519,0.529,0.381,0.877
		c-0.137,0.348-0.527,0.518-0.875,0.381C143.185,331.807,143.018,331.414,143.153,331.066z"/>
	<path fill="#E56326" d="M144.775,329.314c0.071-0.182,0.274-0.27,0.452-0.197c0.181,0.07,0.27,0.273,0.196,0.453
		c-0.069,0.18-0.272,0.268-0.453,0.195C144.791,329.697,144.705,329.492,144.775,329.314z"/>
	<circle fill="#E56326" cx="145.862" cy="326.421" r="0.253"/>
	<path fill="#E56326" d="M143.523,323.131c0.165-0.412,0.629-0.613,1.037-0.453c0.415,0.162,0.617,0.627,0.453,1.039
		c-0.162,0.412-0.627,0.615-1.039,0.453C143.564,324.008,143.363,323.543,143.523,323.131z"/>
	<path fill="#E56326" d="M145.198,324.5c0.07-0.176,0.27-0.266,0.445-0.195c0.179,0.068,0.267,0.271,0.196,0.447
		c-0.069,0.178-0.27,0.266-0.446,0.193C145.214,324.877,145.128,324.676,145.198,324.5z"/>
	<circle fill="#E56326" cx="147.734" cy="318.551" r="0.285"/>
	<circle fill="#E56326" cx="150.563" cy="318.551" r="0.285"/>
	<path fill="#E56326" d="M148.955,321.432c0.058-0.145,0.223-0.219,0.369-0.16s0.219,0.223,0.16,0.371
		c-0.057,0.146-0.224,0.217-0.369,0.16C148.968,321.746,148.897,321.58,148.955,321.432z"/>
	<path fill="#E56326" d="M145.248,320.354c0.058-0.145,0.223-0.217,0.37-0.16s0.219,0.223,0.16,0.371
		c-0.058,0.146-0.224,0.217-0.37,0.16C145.261,320.668,145.189,320.5,145.248,320.354z"/>
	<circle fill="#E56326" cx="143.349" cy="322.469" r="0.285"/>
	<circle fill="#E56326" cx="143.349" cy="324.369" r="0.285"/>
	<path fill="#E56326" d="M150.223,325.506c0.058-0.148,0.225-0.221,0.37-0.164c0.147,0.061,0.22,0.225,0.16,0.371
		c-0.057,0.146-0.223,0.219-0.37,0.16C150.236,325.816,150.166,325.652,150.223,325.506z"/>
	<path fill="#E56326" d="M143.18,327.807c0.084-0.209,0.322-0.316,0.534-0.23c0.213,0.084,0.316,0.322,0.231,0.535
		c-0.082,0.211-0.322,0.314-0.532,0.23C143.2,328.26,143.098,328.02,143.18,327.807z"/>
	<path fill="#E56326" d="M145.66,327.035c0.113-0.279,0.426-0.42,0.704-0.307c0.28,0.109,0.419,0.424,0.306,0.703
		c-0.109,0.281-0.425,0.418-0.703,0.305C145.686,327.629,145.553,327.312,145.66,327.035z"/>
	<path fill="#E56326" d="M143.258,330.195c0.051-0.135,0.204-0.201,0.339-0.148c0.136,0.053,0.204,0.207,0.148,0.342
		c-0.052,0.137-0.205,0.203-0.341,0.15C143.268,330.484,143.203,330.332,143.258,330.195z"/>
	<path fill="#E56326" d="M144.044,330.139c0.091-0.238,0.358-0.357,0.594-0.262c0.24,0.092,0.358,0.361,0.26,0.6
		c-0.093,0.236-0.359,0.354-0.598,0.26C144.064,330.645,143.948,330.375,144.044,330.139z"/>
	<path fill="#E56326" d="M143.182,332.268c0.068-0.176,0.269-0.262,0.444-0.193c0.179,0.07,0.267,0.27,0.196,0.445
		c-0.07,0.18-0.271,0.266-0.447,0.195C143.197,332.645,143.112,332.447,143.182,332.268z"/>
	<path fill="#E56326" d="M143.03,333.141c0.07-0.178,0.27-0.264,0.446-0.195c0.178,0.07,0.267,0.271,0.195,0.447
		c-0.069,0.18-0.27,0.266-0.448,0.193C143.046,333.52,142.96,333.318,143.03,333.141z"/>
	<path fill="#E56326" d="M143.451,321.053c0.189-0.48,0.736-0.719,1.215-0.531c0.482,0.195,0.722,0.738,0.527,1.223
		c-0.188,0.48-0.732,0.717-1.217,0.525C143.497,322.082,143.264,321.537,143.451,321.053z"/>
	<path fill="#E56326" d="M146.007,319.848c0.128-0.324,0.498-0.486,0.822-0.357c0.328,0.129,0.489,0.498,0.358,0.824
		c-0.128,0.326-0.495,0.486-0.823,0.357C146.039,320.543,145.88,320.176,146.007,319.848z"/>
	<path fill="#E56326" d="M144.922,315.705c0.127-0.326,0.498-0.486,0.822-0.359c0.327,0.131,0.489,0.498,0.356,0.824
		c-0.126,0.328-0.494,0.488-0.823,0.357C144.953,316.398,144.794,316.031,144.922,315.705z"/>
	<path fill="#E56326" d="M145.909,325.215c0.16-0.41,0.625-0.609,1.033-0.451c0.41,0.166,0.612,0.627,0.448,1.035
		c-0.161,0.41-0.623,0.611-1.033,0.449S145.749,325.625,145.909,325.215z"/>
	<path fill="#E56326" d="M144.191,327.812c0.169-0.436,0.666-0.65,1.099-0.48c0.435,0.174,0.652,0.668,0.477,1.104
		c-0.172,0.436-0.663,0.648-1.099,0.477C144.231,328.74,144.019,328.248,144.191,327.812z"/>
	<path fill="#E56326" d="M147.962,323.6c-0.141,0.277-0.482,0.387-0.757,0.248c-0.277-0.141-0.39-0.482-0.246-0.76
		c0.143-0.277,0.479-0.389,0.758-0.244C147.993,322.982,148.103,323.322,147.962,323.6z"/>
	<path fill="#E56326" d="M150.958,342.992c-0.141,0.277-0.482,0.389-0.756,0.246c-0.278-0.141-0.391-0.479-0.247-0.758
		c0.141-0.277,0.48-0.387,0.758-0.246C150.989,342.375,151.098,342.715,150.958,342.992z"/>
	<circle fill="#E56326" cx="144.977" cy="329.271" r="0.562"/>
	<path fill="#E56326" d="M140.025,345.086c-0.189,0.449-0.706,0.662-1.153,0.475c-0.451-0.189-0.663-0.705-0.475-1.156
		c0.188-0.449,0.704-0.66,1.154-0.473C140.002,344.119,140.213,344.637,140.025,345.086z"/>
	<circle fill="#E56326" cx="146.027" cy="326.257" r="0.304"/>
	<path fill="#E56326" d="M146.397,341.186c-0.062,0.158-0.239,0.234-0.394,0.174c-0.159-0.062-0.235-0.24-0.172-0.398
		c0.062-0.154,0.239-0.232,0.396-0.17C146.382,340.854,146.458,341.031,146.397,341.186z"/>
	<path fill="#E56326" d="M143.511,334.873c-0.039,0.098-0.149,0.146-0.246,0.107c-0.099-0.039-0.147-0.148-0.107-0.246
		c0.037-0.102,0.148-0.146,0.246-0.111C143.502,334.664,143.55,334.775,143.511,334.873z"/>
	<path fill="#E56326" d="M150.714,328.963c-0.006,0.105-0.096,0.186-0.199,0.178c-0.107-0.004-0.187-0.096-0.179-0.199
		c0.006-0.107,0.094-0.188,0.201-0.18C150.642,328.766,150.721,328.857,150.714,328.963z"/>
	<path fill="#E56326" d="M150.583,327.041c-0.007,0.115-0.105,0.203-0.217,0.195c-0.119-0.008-0.205-0.104-0.198-0.219
		c0.005-0.117,0.103-0.205,0.218-0.199C150.501,326.824,150.59,326.924,150.583,327.041z"/>
	<path fill="#E56326" d="M143.923,331.461c-0.062,0.156-0.239,0.234-0.395,0.172c-0.158-0.062-0.234-0.24-0.172-0.396
		c0.062-0.158,0.239-0.234,0.396-0.172C143.908,331.127,143.983,331.305,143.923,331.461z"/>
	<path fill="#E56326" d="M139.468,333.449c0.137-0.344,0.526-0.514,0.868-0.377c0.346,0.137,0.515,0.525,0.379,0.873
		c-0.137,0.342-0.526,0.512-0.871,0.373C139.503,334.184,139.334,333.795,139.468,333.449z"/>
	<path fill="#E56326" d="M143.617,338.566c0.102-0.26,0.393-0.385,0.65-0.283c0.258,0.1,0.384,0.393,0.281,0.65
		c-0.101,0.26-0.391,0.383-0.65,0.283C143.642,339.113,143.518,338.822,143.617,338.566z"/>
	<path fill="#E56326" d="M144.589,339.104c0.068-0.176,0.269-0.262,0.443-0.191c0.179,0.068,0.265,0.268,0.194,0.445
		c-0.069,0.176-0.268,0.264-0.446,0.193C144.606,339.48,144.52,339.281,144.589,339.104z"/>
	<path fill="#E56326" d="M144.057,337.721c0.068-0.176,0.268-0.262,0.443-0.191c0.178,0.068,0.265,0.268,0.194,0.447
		c-0.07,0.176-0.269,0.26-0.446,0.191C144.073,338.098,143.986,337.898,144.057,337.721z"/>
	<path fill="#E56326" d="M146.372,340.559c0.114-0.295,0.45-0.439,0.742-0.324c0.296,0.117,0.44,0.449,0.324,0.746
		c-0.116,0.295-0.452,0.441-0.746,0.322C146.399,341.188,146.256,340.855,146.372,340.559z"/>
	<path fill="#E56326" d="M147.733,335.947c0.101-0.254,0.385-0.379,0.638-0.277c0.256,0.1,0.38,0.385,0.278,0.641
		c-0.1,0.254-0.387,0.377-0.639,0.277C147.758,336.49,147.634,336.201,147.733,335.947z"/>
	<path fill="#E56326" d="M149.313,327.91c0.128-0.32,0.489-0.477,0.805-0.35c0.324,0.125,0.482,0.486,0.353,0.807
		c-0.126,0.32-0.488,0.477-0.808,0.35C149.343,328.594,149.188,328.23,149.313,327.91z"/>
	<path fill="#E56326" d="M148.575,330.873c0.096,0.043,0.138,0.156,0.094,0.25c-0.043,0.096-0.157,0.141-0.251,0.096
		c-0.098-0.043-0.14-0.156-0.096-0.252C148.364,330.871,148.477,330.83,148.575,330.873z"/>
	<path fill="#E56326" d="M148.881,335.646c0.038-0.096,0.149-0.143,0.245-0.105c0.101,0.037,0.147,0.148,0.108,0.248
		c-0.038,0.098-0.148,0.145-0.246,0.105C148.89,335.857,148.842,335.746,148.881,335.646z"/>
	<path fill="#E56326" d="M142.34,336.73c0.038-0.1,0.149-0.146,0.245-0.107c0.101,0.039,0.147,0.148,0.108,0.244
		c-0.038,0.1-0.149,0.148-0.246,0.109C142.349,336.939,142.301,336.828,142.34,336.73z"/>
	<path fill="#E56326" d="M145.425,338.852c0.038-0.096,0.148-0.145,0.246-0.107c0.099,0.039,0.146,0.148,0.107,0.246
		c-0.039,0.102-0.149,0.148-0.247,0.111C145.433,339.062,145.384,338.951,145.425,338.852z"/>
	<path fill="#E56326" d="M146.721,338.119c0.038-0.098,0.148-0.145,0.245-0.105c0.099,0.037,0.147,0.148,0.107,0.246
		c-0.037,0.1-0.147,0.145-0.246,0.107C146.729,338.328,146.681,338.219,146.721,338.119z"/>
	<circle fill="#E56326" cx="144.907" cy="338.513" r="0.19"/>
	<circle fill="#E56326" cx="144.565" cy="336.979" r="0.189"/>
	<path fill="#E56326" d="M145.949,338.848c0.1-0.256,0.384-0.381,0.632-0.279c0.257,0.1,0.382,0.385,0.279,0.639
		c-0.097,0.256-0.382,0.379-0.634,0.277C145.97,339.387,145.849,339.102,145.949,338.848z"/>
</g>
<g enable-background="new    ">
	<path fill="#231F20" d="M233.551,267.464l10.566,18.478h-9.719l-10.143-17.517h-7.741v17.517h-8.476v-42.379h18.477
		c9.889,0,14.833,4.069,14.833,12.205C241.349,261.889,238.75,265.788,233.551,267.464z M216.515,260.514h11.866
		c3.409-0.056,5.161-1.61,5.255-4.662c-0.094-2.787-1.817-4.238-5.17-4.351h-11.951V260.514z"/>
	<path fill="#231F20" d="M248.412,261.079c3.579-2.26,7.722-3.39,12.431-3.39c3.39,0,6.074,0.941,8.052,2.825
		c1.978,1.883,2.967,4.708,2.967,8.476v16.951h-7.911v-2.26c-2.298,1.507-4.37,2.26-6.216,2.26c-3.768,0-6.592-0.801-8.476-2.402
		c-1.884-1.601-2.826-3.814-2.826-6.639c0-2.636,0.89-4.991,2.67-7.063c1.78-2.072,4.657-3.107,8.631-3.107
		c1.827,0,3.899,0.564,6.216,1.694v-0.847c-0.038-2.071-1.545-3.202-4.52-3.39c-3.391,0-6.028,0.564-7.911,1.695L248.412,261.079z
		 M263.951,277.466v-3.193c-0.753-1.45-2.543-2.175-5.368-2.175c-3.39,0.377-5.18,1.695-5.368,3.955
		c0.188,2.242,1.978,3.457,5.368,3.645C261.408,279.697,263.198,278.953,263.951,277.466z"/>
	<path fill="#231F20" d="M305.737,243.59v42.351h-7.91v-2.26c-2.11,1.507-4.182,2.26-6.216,2.26c-4.332,0-7.769-1.413-10.312-4.238
		c-2.542-2.825-3.813-6.121-3.813-9.889c0-3.766,1.272-7.063,3.813-9.888c2.544-2.825,5.98-4.237,10.312-4.237
		c2.825,0.188,4.897,0.951,6.216,2.288v-16.415L305.737,243.59z M297.827,274.357v-4.577c-0.377-3.165-2.355-5.019-5.933-5.566
		c-4.521,0.358-7.063,2.704-7.629,7.035c0.188,5.274,2.731,8.005,7.629,8.193C295.472,278.878,297.45,277.183,297.827,274.357z"/>
	<path fill="#231F20" d="M313.535,248.068c0.753-0.763,1.771-1.144,3.051-1.144c1.356,0,2.41,0.381,3.164,1.144
		c0.753,0.763,1.13,1.709,1.13,2.839s-0.377,2.072-1.13,2.826c-0.754,0.754-1.79,1.13-3.107,1.13c-1.32,0-2.355-0.376-3.108-1.13
		c-0.753-0.753-1.13-1.695-1.13-2.826S312.782,248.832,313.535,248.068z M320.598,285.941V257.66h-7.912v28.281H320.598z"/>
	<path fill="#231F20" d="M344.528,275.912V257.66h7.911v28.281h-7.911v-2.571c-1.903,1.696-4.163,2.543-6.781,2.543
		c-3.578,0-6.31-1.083-8.194-3.249c-1.883-2.166-2.824-4.661-2.824-7.487V257.66h7.91v15.539c0,1.884,0.471,3.344,1.413,4.379
		c0.942,1.037,2.364,1.582,4.267,1.639C341.957,279.104,343.36,278.003,344.528,275.912z"/>
	<path fill="#231F20" d="M375.239,258.479c1.469,0.641,2.844,1.592,4.125,2.854l-4.408,4.972c-1.281-1.525-2.882-2.288-4.803-2.288
		c-1.903,0-3.174,0.353-3.815,1.06c-0.641,0.706-0.641,1.347,0,1.921s1.912,1.05,3.815,1.426c2.806,0.265,5.104,1.064,6.894,2.402
		c1.789,1.338,2.684,3.664,2.684,6.978c0,2.675-1.055,4.747-3.164,6.215c-2.11,1.47-4.568,2.205-7.374,2.205
		c-2.674,0-4.902-0.382-6.682-1.145c-1.779-0.763-3.311-1.784-4.591-3.065l4.379-4.944c1.28,1.525,3.268,2.411,5.961,2.655
		c2.166,0,3.565-0.353,4.197-1.06c0.63-0.706,0.724-1.413,0.281-2.119c-0.443-0.706-1.935-1.181-4.478-1.426
		c-2.298-0.264-4.403-0.97-6.314-2.119c-1.912-1.148-2.868-3.314-2.868-6.498c0-2.919,1.088-5.147,3.264-6.683
		c2.175-1.534,4.411-2.302,6.709-2.302C371.707,257.52,373.769,257.84,375.239,258.479z"/>
</g>
<g enable-background="new    ">
	<path fill="#231F20" d="M399.17,285.435v-42.38h2.826l26.558,26.559v-26.559h8.476v42.38h-3.108l-26.274-26.275v26.275H399.17z"/>
	<path fill="#231F20" d="M443.669,271.308c0-4.143,1.318-7.533,3.955-10.17c2.637-2.637,6.027-3.955,10.171-3.955
		s7.439,1.318,9.889,3.955c2.447,2.637,3.673,6.027,3.673,10.17v2.826h-19.494c0.188,1.507,0.848,2.684,1.978,3.532
		c1.13,0.847,2.447,1.271,3.955,1.271c2.637,0,4.99-0.753,7.062-2.26l4.521,4.52c-2.073,2.826-5.934,4.239-11.584,4.239
		c-4.144,0-7.534-1.318-10.171-3.956S443.669,275.453,443.669,271.308z M461.749,264.952c-1.129-0.848-2.448-1.271-3.954-1.271
		c-1.508,0-2.825,0.423-3.955,1.271s-1.696,2.025-1.696,3.532h11.302C463.445,266.977,462.88,265.799,461.749,264.952z"/>
	<path fill="#231F20" d="M490.342,285.435c-3.202,0-5.745-0.894-7.627-2.684c-1.886-1.79-2.826-4.097-2.826-6.922v-12.233h-4.238
		v-6.385h4.238v-7.657l7.938-0.847v8.504h4.239v6.385h-4.239v11.104c0,1.507,0.314,2.566,0.947,3.178
		c0.631,0.613,1.444,0.919,2.444,0.919c0.3,0,1.006-0.123,2.118-0.368l1.667,5.68C493.648,284.993,492.093,285.435,490.342,285.435z
		"/>
	<path fill="#231F20" d="M516.561,271.281l-4.238,14.154h-7.062l-7.574-28.281h7.432l4.38,16.697l4.237-16.697h5.849l4.04,16.979
		l4.35-16.979h7.432l-7.543,28.281h-7.063L516.561,271.281z"/>
	<path fill="#231F20" d="M543.542,281.578c-2.751-2.759-4.125-6.183-4.125-10.27c0-4.105,1.374-7.533,4.125-10.284
		c2.749-2.75,6.179-4.125,10.283-4.125c4.106,0,7.534,1.375,10.285,4.125c2.75,2.75,4.124,6.178,4.124,10.284
		c0,4.106-1.374,7.534-4.124,10.285c-2.751,2.75-6.179,4.125-10.285,4.125C549.721,285.718,546.291,284.338,543.542,281.578z
		 M553.798,278.881c2.146,0,3.889-0.721,5.227-2.162c1.338-1.44,2.006-3.235,2.006-5.382s-0.668-3.946-2.006-5.396
		s-3.089-2.176-5.254-2.176c-2.13,0-3.861,0.726-5.199,2.176s-2.006,3.249-2.006,5.396s0.668,3.941,2.006,5.382
		C549.909,278.16,551.65,278.881,553.798,278.881z"/>
	<path fill="#231F20" d="M580.893,260.29c2.015-2.071,4.473-3.107,7.373-3.107c0.923,0,1.799,0.075,2.628,0.226l-1.242,7.798
		c-0.924-0.829-2.242-1.272-3.957-1.328c-1.921,0.131-3.521,1.525-4.802,4.182v17.375h-7.911v-27.434l7.911-0.847V260.29z"/>
	<path fill="#231F20" d="M596.826,243.055h8.477v23.987l8.108-9.86h9.521l-10.567,12.685l13.393,15.567h-11.02l-9.436-11.273v11.273
		h-8.477V243.055z"/>
	<path fill="#231F20" d="M645.958,257.973c1.47,0.641,2.845,1.592,4.126,2.854l-4.408,4.972c-1.281-1.525-2.881-2.289-4.804-2.289
		c-1.902,0-3.174,0.353-3.812,1.06c-0.641,0.706-0.641,1.347,0,1.921c0.639,0.574,1.91,1.05,3.812,1.427
		c2.807,0.264,5.104,1.063,6.894,2.401c1.79,1.338,2.686,3.664,2.686,6.978c0,2.675-1.057,4.747-3.165,6.215
		c-2.109,1.47-4.567,2.205-7.374,2.205c-2.675,0-4.901-0.382-6.681-1.145c-1.781-0.762-3.312-1.784-4.592-3.065l4.379-4.944
		c1.281,1.525,3.268,2.411,5.961,2.655c2.166,0,3.564-0.353,4.195-1.059c0.632-0.707,0.725-1.413,0.283-2.12
		c-0.442-0.707-1.936-1.181-4.479-1.426c-2.297-0.264-4.403-0.97-6.314-2.119c-1.912-1.148-2.867-3.314-2.867-6.498
		c0-2.92,1.088-5.147,3.263-6.682c2.176-1.535,4.413-2.303,6.711-2.303C642.427,257.013,644.489,257.333,645.958,257.973z"/>
</g>
</svg>
