<?xml version="1.0" encoding="utf-8"?>
<!-- Generator: Adobe Illustrator 15.0.0, SVG Export Plug-In . SVG Version: 6.00 Build 0)  -->
<!DOCTYPE svg PUBLIC "-//W3C//DTD SVG 1.1//EN" "http://www.w3.org/Graphics/SVG/1.1/DTD/svg11.dtd">
<svg version="1.1" id="Layer_1" xmlns="http://www.w3.org/2000/svg" xmlns:xlink="http://www.w3.org/1999/xlink" x="0px" y="0px"
	 width="75.958px" height="101.326px" viewBox="0 0 75.958 101.326" enable-background="new 0 0 75.958 101.326"
	 xml:space="preserve">
<path fill="#333333" d="M57.34,61.888c-12.431,12.431-32.584,12.43-45.014,0.001c-12.432-12.432-12.431-32.584,0-45.015"/>
<path fill="#333333" d="M35.902,42.07c-1.111,1.111-2.462,1.562-3.019,1.006l0,0c-0.555-0.556-0.104-1.906,1.007-3.017l9.949-9.95
	c1.111-1.11,2.462-1.561,3.018-1.006l0,0c0.556,0.556,0.105,1.907-1.006,3.018L35.902,42.07z"/>
<circle fill="#333333" cx="45.778" cy="30.108" r="6.418"/>
<g>
	<path fill="#3DBEEE" d="M71.998,27.624c-0.005-2.755-0.488-5.591-1.562-8.393c-1.073-2.805-2.704-5.646-5.451-8.381
		c-2.747-2.731-5.607-4.349-8.413-5.391c-2.812-1.047-5.633-1.498-8.39-1.509C48.199,2.633,48.16,1.317,48.193,0
		c3.242,0.024,6.537,0.524,9.787,1.766c2.462,0.939,4.88,2.189,7.346,4.121c0.406,0.32,0.825,0.65,1.227,1.011
		c3.857,3.464,6.239,7.307,7.604,10.945c1.056,2.817,1.646,5.693,1.765,8.555c0.015,0.279,0.02,0.601,0.021,0.924
		c0,0.085,0.023,0.292,0.013,0.302c-0.04,0.046-0.402,0.002-0.499-0.001C74.312,27.628,73.118,27.65,71.998,27.624"/>
</g>
<g>
	<path fill="#3DBEEE" d="M64.105,27.66c-0.037-1.837-0.335-3.719-1.057-5.601c-0.714-1.864-1.8-3.772-3.622-5.581
		c-1.812-1.805-3.74-2.934-5.612-3.609c-1.889-0.681-3.769-1.017-5.599-0.999c-0.019-1.311-0.002-2.624-0.02-3.937
		c2.227-0.039,4.489,0.341,6.742,1.139c2.253,0.796,4.506,2.067,6.741,4.097c1.249,1.131,2.322,2.469,3.088,3.629
		c2.174,3.276,3.079,6.634,3.246,9.948c0.006,0.138,0.025,0.278,0.027,0.452c0.004,0.111,0.01,0.434,0.001,0.442
		c-0.035,0.042-0.441,0.001-0.498,0.002C66.37,27.645,65.26,27.682,64.105,27.66"/>
</g>
<g>
	<path fill="#3DBEEE" d="M60.129,27.663c-1.313,0.037-2.627,0.017-3.942,0.02c-0.077-1.816-0.532-3.801-2.339-5.599
		c-1.801-1.792-3.797-2.261-5.615-2.294c-0.001-1.323-0.023-2.642,0.003-3.961c2.613,0.059,5.375,0.701,7.998,3.082
		c1.526,1.38,2.492,2.96,3.054,4.38C59.878,24.79,60.131,26.264,60.129,27.663"/>
</g>
<g>
	<rect x="14.159" y="57.826" fill="#333333" width="5.667" height="35"/>
</g>
<path fill="#333333" d="M0,101.324c0-4.693,7.609-8.499,16.997-8.499s16.997,3.805,16.997,8.499"/>
</svg>
