<?xml version="1.0" encoding="utf-8"?>
<!-- Generator: Adobe Illustrator 15.0.0, SVG Export Plug-In . SVG Version: 6.00 Build 0)  -->
<!DOCTYPE svg PUBLIC "-//W3C//DTD SVG 1.1//EN" "http://www.w3.org/Graphics/SVG/1.1/DTD/svg11.dtd">
<svg version="1.1" id="Layer_1" xmlns="http://www.w3.org/2000/svg" xmlns:xlink="http://www.w3.org/1999/xlink" x="0px" y="0px"
	 width="545.564px" height="553.472px" viewBox="0 0 545.564 553.472" enable-background="new 0 0 545.564 553.472"
	 xml:space="preserve">
<g>
	<path fill="#E66246" d="M326.015,105.005c-0.857,3.225-1.733,6.441-2.649,9.643c50.234,15.73,93.262,53.078,114.223,105.677
		c36.94,92.701-8.423,198.171-101.123,235.112c-92.7,36.94-198.171-8.423-235.112-101.123
		c-24.432-61.31-12.854-128.198,24.601-177.159c-0.964-4.191-1.856-8.407-2.673-12.646
		c-43.657,52.144-58.108,126.026-31.218,193.507c38.982,97.823,150.281,145.693,248.104,106.711
		c97.822-38.981,145.692-150.28,106.71-248.103C424.713,161.003,379.166,121.545,326.015,105.005z"/>
</g>
<g>
	<path fill="#E66246" d="M437.966,196.994c-2.882,1.682-5.771,3.345-8.678,4.97c24.535,46.573,28.719,103.394,6.5,155.474
		c-39.157,91.786-145.688,134.602-237.474,95.444c-91.786-39.158-134.602-145.688-95.443-237.475
		c25.898-60.705,81.267-99.978,142.348-108.294c2.271-3.652,4.61-7.27,7.021-10.853c-67.723,6.201-130.062,48.408-158.566,115.223
		c-41.322,96.858,3.86,209.275,100.717,250.597c96.856,41.321,209.274-3.861,250.596-100.719
		C468.48,306.291,463.999,246.196,437.966,196.994z"/>
</g>
<path fill="#3397D3" d="M168.173,401.748 M251.673,455.391c-24.095-2.783-45.878,14.494-48.662,38.587
	c-2.783,24.093,14.495,45.879,38.589,48.66c24.093,2.778,45.878-14.495,48.657-38.587
	C293.039,479.956,275.767,458.173,251.673,455.391z M325.654,406.869c-19.428-2.242-37.002,11.689-39.245,31.124
	c-2.244,19.433,11.691,37.004,31.124,39.249c19.434,2.242,37.004-11.693,39.247-31.125S345.094,409.113,325.654,406.869z
	 M280.584,398.343c-24.094-2.783-45.878,14.493-48.658,38.588c-2.783,24.091,14.493,45.877,38.587,48.657
	c24.09,2.78,45.875-14.491,48.657-38.585S304.678,401.125,280.584,398.343z M308.615,472.682
	c-18.251-2.108-34.757,10.979-36.864,29.231s10.983,34.756,29.233,36.862c18.251,2.107,34.758-10.98,36.863-29.231
	C339.956,491.293,326.867,474.788,308.615,472.682z M231.302,403.648c-18.252-2.109-34.757,10.98-36.865,29.23
	c-2.107,18.253,10.981,34.758,29.234,36.865c18.253,2.107,34.756-10.98,36.862-29.23
	C262.641,422.261,249.555,405.757,231.302,403.648z M199.876,451.536c-14.114-1.628-26.877,8.491-28.506,22.606
	c-1.63,14.114,8.489,26.879,22.604,28.51c14.117,1.628,26.878-8.492,28.507-22.609C224.112,465.93,213.99,453.167,199.876,451.536z
	 M351.088,464.766c-13.865-3.096-27.618,5.632-30.719,19.5c-3.094,13.865,5.635,27.617,19.502,30.716
	c13.867,3.096,27.619-5.633,30.716-19.5C373.684,481.616,364.955,467.863,351.088,464.766z M369.098,432.281
	c-14.113-1.631-26.877,8.492-28.506,22.606c-1.631,14.114,8.492,26.879,22.604,28.507c14.114,1.631,26.878-8.492,28.507-22.607
	C393.334,446.673,383.213,433.912,369.098,432.281z"/>
<g>
	<path fill="#FFFFFF" d="M277.875,510.864c-22.972,0-41.662-18.689-41.662-41.661c0-22.971,18.69-41.659,41.662-41.659
		s41.66,18.688,41.66,41.659C319.535,492.174,300.848,510.864,277.875,510.864z M277.875,436.279
		c-18.155,0-32.927,14.77-32.927,32.924c0,18.155,14.771,32.926,32.927,32.926c18.155,0,32.925-14.771,32.925-32.926
		C310.801,451.048,296.03,436.279,277.875,436.279z"/>
</g>
<g>
	<polyline fill="#FFFFFF" points="248.953,496.517 235.926,511.054 264.536,502.916 	"/>
</g>
<g>
	<g>
		<polygon fill="#FFFFFF" points="281.549,442.942 281.549,472.537 266.853,472.537 		"/>
	</g>
	<g>
		<polygon fill="#FFFFFF" points="288.896,465.871 274.203,495.463 274.203,465.871 		"/>
	</g>
</g>
<circle fill="#B4DAAA" cx="482.424" cy="287.415" r="63.14"/>
<text transform="matrix(1 0 0 1 437.8311 296.231)" font-family="'nevis-Bold'" font-size="26.4722">Partner</text>
<g>
	<path fill="#E56246" d="M283.758,22.228c0,6.019-4.887,10.904-10.904,10.904c-6.023,0-10.902-4.885-10.902-10.904
		c0-6.02,4.878-10.9,10.902-10.9C278.871,11.328,283.758,16.208,283.758,22.228z"/>
	<path fill="#E56246" d="M300.008,40.146c0-2.578-1.86-4.667-4.163-4.667h-44.481c-2.307,0-4.171,2.089-4.171,4.667
		c0,0.047,0.006,0.089,0.006,0.146c0,0.041-0.006,0.086-0.006,0.13v33.52c0,2.338,1.903,4.236,4.243,4.236
		c2.349,0,4.246-1.898,4.246-4.236V44.799h2.497V79.34v6.865v46.117c0,3.703,2.994,6.692,6.685,6.692
		c3.689,0,6.687-2.989,6.687-6.692V86.205h4.029v46.117c0,3.703,2.995,6.692,6.685,6.692c3.697,0,6.686-2.989,6.686-6.692V86.205
		V79.34V44.799h2.449v29.142c0,2.338,1.928,4.236,4.308,4.236s4.301-1.898,4.301-4.236v-33.52c0-0.043-0.004-0.089-0.004-0.13
		C300.004,40.245,300.008,40.193,300.008,40.146z"/>
</g>
<path fill="#3997D3" d="M320.653,51.478c-0.75-1.546-1.789-3.007-3.146-4.29c-1.361-1.281-3.05-2.438-5.332-3.232
	c-2.282-0.789-4.324-0.922-6.183-0.75c-1.863,0.173-3.565,0.686-5.116,1.424c-0.35-0.745-0.728-1.474-1.067-2.22
	c1.831-0.867,3.818-1.477,5.98-1.658c1.633-0.138,3.332-0.09,5.236,0.324c0.321,0.071,0.644,0.145,0.965,0.239
	c3.102,0.899,5.484,2.415,7.232,4.087c1.353,1.3,2.467,2.753,3.304,4.327c0.082,0.154,0.175,0.331,0.268,0.513
	c0.018,0.046,0.082,0.159,0.082,0.168c-0.009,0.035-0.226,0.108-0.281,0.131C321.955,50.859,321.294,51.193,320.653,51.478"/>
<path fill="#3997D3" d="M316.232,53.638c-0.515-1.024-1.196-2.001-2.107-2.859c-0.91-0.856-2.032-1.633-3.546-2.155
	c-1.505-0.524-2.898-0.633-4.128-0.509c-1.246,0.129-2.392,0.451-3.413,0.957c-0.367-0.733-0.718-1.474-1.077-2.206
	c1.238-0.628,2.614-1.025,4.096-1.184c1.477-0.166,3.082-0.06,4.89,0.471c1.008,0.299,1.974,0.759,2.72,1.205
	c2.106,1.251,3.523,2.889,4.513,4.709c0.041,0.074,0.088,0.149,0.138,0.246c0.032,0.062,0.124,0.242,0.12,0.249
	c-0.01,0.034-0.248,0.122-0.28,0.135C317.502,53.014,316.886,53.334,316.232,53.638"/>
<path fill="#3997D3" d="M314.002,54.715c-0.732,0.377-1.474,0.72-2.214,1.076c-0.532-0.999-1.324-1.99-2.824-2.509
	c-1.5-0.521-2.742-0.244-3.777,0.229c-0.354-0.743-0.731-1.474-1.072-2.224c1.491-0.674,3.212-1.062,5.327-0.435
	c1.234,0.363,2.2,0.989,2.903,1.635C313.081,53.167,313.619,53.928,314.002,54.715"/>
<g>
	<g>
		<g>
			<g>
				<g>
					<path fill="#424143" d="M310.197,58.271c3.26,1.141,4.971,4.704,3.83,7.964l-4.125,11.794c-1.14,3.26-4.704,4.98-7.964,3.839
						l-5.893-2.062c-3.26-1.141-4.979-4.705-3.839-7.964l4.124-11.794c1.141-3.26,4.705-4.98,7.965-3.84L310.197,58.271z
						 M311.081,65.208c0.57-1.625-0.295-3.412-1.91-3.982l-2.224-0.779l-3.688-1.283c-1.616-0.57-3.402,0.285-3.973,1.92
						l-4.125,11.794l5.161,1.806l6.634,2.319L311.081,65.208z M301.549,78.419c0.295-0.836-0.152-1.758-0.998-2.053
						c-0.836-0.295-1.748,0.152-2.053,0.988c-0.285,0.846,0.152,1.758,0.998,2.053C300.332,79.702,301.254,79.265,301.549,78.419z"
						/>
					<path fill="#E6E7E8" d="M309.171,61.227c1.615,0.57,2.48,2.357,1.91,3.982l-4.124,11.794l-6.634-2.319l0.494-1.416l5.322-5.797
						l-1.464-0.513l1.844-5.284l0.428-1.226L309.171,61.227z"/>
					<path fill="#E6E7E8" d="M306.947,60.447l-0.428,1.226l-5.322,5.797l1.464,0.513l-1.844,5.284l-0.494,1.416l-5.161-1.806
						l4.125-11.794c0.57-1.635,2.356-2.49,3.973-1.92L306.947,60.447z"/>
					<polygon fill="#3997D3" points="306.52,61.673 304.676,66.958 303.202,66.444 302.661,67.984 301.197,67.471 					"/>
					<polygon fill="#3997D3" points="306.14,67.471 300.817,73.268 302.661,67.984 304.134,68.497 304.676,66.958 					"/>
					<polygon fill="#3997D3" points="304.676,66.958 304.134,68.497 302.661,67.984 303.202,66.444 					"/>
				</g>
			</g>
		</g>
	</g>
</g>
<g>
	<path fill="#E66246" d="M189.581,430.51c-1.286-2.456-3.536-2.539-4.999-0.185l-17.54,28.217c-1.463,2.354-0.393,4.335,2.378,4.4
		l32.58,0.78c2.771,0.065,3.986-1.889,2.7-4.345L189.581,430.51z"/>
</g>
<g>
	<path fill="#E66246" d="M426.825,342.093c-2.274,1.585-2.073,3.827,0.446,4.982l30.201,13.847c2.52,1.155,4.35-0.155,4.066-2.913
		l-3.329-32.419c-0.283-2.758-2.375-3.717-4.649-2.132L426.825,342.093z"/>
</g>
<g>
	<path fill="#E66246" d="M320.018,129.364c1.734,2.162,3.958,1.81,4.941-0.782l11.776-31.064c0.983-2.592-0.448-4.33-3.181-3.861
		l-32.121,5.508c-2.732,0.469-3.548,2.621-1.813,4.783L320.018,129.364z"/>
</g>
<g>
	<path d="M78.66,199.239c3.035,2.252,6.101,4.445,9.196,6.583c-0.331,0.967-0.652,1.939-0.966,2.914
		c-5.116-0.208-10.256-0.295-15.411-0.262c0.337-1.141,0.684-2.278,1.041-3.41c3.492,0.088,6.976,0.229,10.448,0.422
		c-2.884-1.958-5.744-3.966-8.58-6.021c0.381-1.082,0.77-2.16,1.17-3.234c3.48,0.271,6.948,0.594,10.404,0.967
		c-2.797-2.065-5.569-4.173-8.315-6.328c0.446-1.093,0.903-2.18,1.367-3.262c3.952,3.303,7.966,6.506,12.039,9.608
		c-0.38,0.944-0.752,1.892-1.116,2.844C86.193,199.722,82.434,199.449,78.66,199.239z"/>
	<path d="M81.468,185.934c-0.125-0.374-0.085-0.789,0.12-1.242c0.218-0.48,0.51-0.795,0.875-0.948
		c0.364-0.152,0.725-0.145,1.083,0.022c0.357,0.166,0.595,0.436,0.713,0.808c0.118,0.373,0.072,0.788-0.136,1.245
		c-0.209,0.459-0.491,0.766-0.849,0.922c-0.358,0.157-0.716,0.155-1.078-0.005C81.836,186.577,81.592,186.31,81.468,185.934z
		 M94.602,189.019c-2.987-1.387-5.975-2.774-8.961-4.161c-0.422,0.908-0.836,1.819-1.243,2.736c3.01,1.338,6.02,2.674,9.03,4.013
		C93.811,190.741,94.203,189.878,94.602,189.019z"/>
	<path d="M88.958,180.501c-0.307-1.002-0.208-2,0.299-2.976c0.163-0.31,0.339-0.591,0.533-0.844c0.729,0.562,1.46,1.123,2.193,1.682
		c-0.415,0.171-0.781,0.536-1.092,1.098c-0.288,0.661-0.123,1.416,0.495,2.256c1.809,0.907,3.619,1.812,5.427,2.72
		c-0.424,0.845-0.84,1.694-1.25,2.547c-2.879-1.383-5.759-2.766-8.64-4.149c0.345-0.944,0.696-1.885,1.056-2.823
		C88.305,180.174,88.631,180.338,88.958,180.501z"/>
	<path d="M94.725,177.745c-1.274-0.684-2.089-1.676-2.422-2.987c-0.332-1.311-0.109-2.661,0.673-4.019
		c0.782-1.358,1.818-2.196,3.081-2.504c1.264-0.311,2.511-0.075,3.744,0.683c0.281,0.171,0.561,0.344,0.842,0.517
		c-1.242,2.022-2.445,4.072-3.606,6.147c0.494,0.196,0.969,0.188,1.428-0.024c0.461-0.211,0.825-0.553,1.097-1.026
		c0.477-0.828,0.681-1.693,0.616-2.611c0.732-0.202,1.465-0.398,2.196-0.587c0.455,1.152,0.164,2.583-0.844,4.332
		c-0.739,1.284-1.729,2.116-2.994,2.508C97.272,178.563,96.002,178.43,94.725,177.745z M96.069,170.82
		c-0.468,0.213-0.844,0.564-1.125,1.051c-0.281,0.488-0.397,0.991-0.345,1.502c0.049,0.513,0.306,0.896,0.765,1.153
		c0.681-1.216,1.377-2.423,2.086-3.622C96.999,170.637,96.537,170.607,96.069,170.82z"/>
	<path d="M105.182,169.615c-4.171-2.636-8.344-5.273-12.514-7.912c0.546-0.864,1.101-1.724,1.66-2.58
		c4.127,2.707,8.255,5.412,12.383,8.117C106.195,168.029,105.686,168.819,105.182,169.615z"/>
	<path d="M103.962,162.464c-1.199-0.81-1.909-1.878-2.11-3.214c-0.199-1.334,0.157-2.651,1.07-3.921
		c0.913-1.268,2.026-1.994,3.313-2.173c1.288-0.179,2.505,0.182,3.654,1.061c0.262,0.199,0.523,0.399,0.786,0.598
		c-1.438,1.884-2.839,3.797-4.199,5.739c0.471,0.245,0.944,0.286,1.423,0.122c0.479-0.162,0.875-0.465,1.193-0.907
		c0.556-0.773,0.845-1.612,0.872-2.531c0.748-0.125,1.496-0.245,2.243-0.36c0.337,1.192-0.096,2.583-1.272,4.217
		c-0.864,1.199-1.93,1.925-3.227,2.184C106.412,163.537,105.163,163.274,103.962,162.464z M105.989,155.726
		c-0.487,0.164-0.897,0.475-1.224,0.93c-0.328,0.456-0.491,0.942-0.493,1.456c-0.001,0.514,0.216,0.922,0.646,1.224
		c0.799-1.138,1.611-2.266,2.436-3.384C106.93,155.638,106.475,155.562,105.989,155.726z"/>
	<path d="M111.404,144.87c0.527-0.278,1.115-0.458,1.761-0.537c0.083,0.795,0.171,1.587,0.266,2.375
		c-0.714,0.021-1.3,0.311-1.754,0.864c-0.45,0.547-0.652,0.993-0.609,1.333c0.041,0.341,0.216,0.481,0.521,0.422
		c0.306-0.058,0.729-0.319,1.277-0.778c0.729-0.742,1.489-1.213,2.27-1.415c0.783-0.2,1.613,0.081,2.492,0.834
		c0.711,0.608,1.012,1.367,0.918,2.274c-0.096,0.907-0.458,1.744-1.09,2.517c-0.604,0.737-1.203,1.273-1.808,1.606
		c-0.604,0.332-1.223,0.542-1.859,0.629c-0.132-0.768-0.258-1.538-0.381-2.311c0.707-0.032,1.396-0.399,2.076-1.1
		c0.494-0.607,0.722-1.073,0.677-1.407c-0.044-0.333-0.212-0.516-0.504-0.551c-0.292-0.033-0.768,0.277-1.419,0.941
		c-0.601,0.591-1.272,1.035-2.021,1.334c-0.749,0.297-1.561,0.109-2.437-0.576c-0.803-0.628-1.167-1.428-1.079-2.401
		c0.088-0.974,0.409-1.8,0.958-2.472C110.293,145.677,110.877,145.15,111.404,144.87z"/>
	<path d="M117.954,137.484c0.542-0.25,1.139-0.397,1.789-0.441c0.04,0.796,0.084,1.593,0.135,2.387
		c-0.714-0.018-1.316,0.239-1.799,0.767c-0.479,0.523-0.705,0.957-0.681,1.299c0.023,0.342,0.189,0.491,0.498,0.449
		c0.309-0.041,0.747-0.277,1.317-0.708c0.77-0.702,1.555-1.131,2.345-1.289c0.793-0.159,1.606,0.167,2.444,0.967
		c0.676,0.646,0.935,1.42,0.792,2.322c-0.146,0.902-0.554,1.717-1.228,2.455c-0.643,0.704-1.271,1.206-1.892,1.505
		c-0.623,0.298-1.252,0.474-1.891,0.527c-0.09-0.773-0.174-1.549-0.253-2.328c0.707,0.006,1.416-0.324,2.132-0.986
		c0.527-0.579,0.779-1.032,0.753-1.368c-0.025-0.334-0.183-0.528-0.473-0.578c-0.29-0.05-0.783,0.234-1.469,0.863
		c-0.632,0.558-1.328,0.965-2.092,1.222c-0.765,0.257-1.565,0.024-2.403-0.708c-0.767-0.671-1.086-1.488-0.946-2.456
		c0.142-0.968,0.508-1.776,1.093-2.416C116.799,138.229,117.412,137.735,117.954,137.484z"/>
	<path d="M132.693,136.294c-3.382-3.6-6.763-7.199-10.145-10.798c1.54-1.446,3.105-2.868,4.696-4.263
		c3.878-3.386,7.464-3.037,10.541,0.815c3.088,3.865,2.765,7.233-0.771,10.321C135.551,133.654,134.111,134.962,132.693,136.294z
		 M135.069,130.151c2.047-1.801,2.16-3.808,0.268-6.092c-1.895-2.269-3.964-2.492-6.133-0.594c-0.752,0.66-1.5,1.327-2.241,1.999
		c1.99,2.197,3.982,4.393,5.973,6.589C133.642,131.414,134.353,130.78,135.069,130.151z"/>
	<path d="M139.635,118.949c0.581-1.449,1.597-2.72,3.039-3.781c1.038-0.764,2.062-1.091,3.054-0.987
		c0.992,0.104,1.863,0.702,2.616,1.778c1.132,1.618,2.265,3.235,3.397,4.853c-0.778,0.543-1.55,1.093-2.317,1.65
		c-0.155-0.213-0.309-0.427-0.463-0.64c-0.363,0.914-0.804,1.566-1.337,1.962c-1.083,0.808-2.057,1.203-2.936,1.176
		c-0.879-0.027-1.626-0.424-2.233-1.201c-0.568-0.725-0.819-1.575-0.741-2.55c0.078-0.976,0.709-1.919,1.9-2.807
		c0.547-0.408,1.287-0.709,2.217-0.896c-0.057-0.08-0.115-0.159-0.174-0.24c-0.435-0.577-1.126-0.567-2.063,0.044
		c-1.024,0.756-1.693,1.513-2.01,2.254C140.936,119.358,140.286,119.152,139.635,118.949z M147.685,120.066
		c-0.218-0.301-0.436-0.602-0.654-0.903c-0.522-0.248-1.208-0.064-2.045,0.557c-0.927,0.853-1.172,1.623-0.75,2.291
		c0.53,0.583,1.304,0.524,2.333-0.159C147.393,121.241,147.766,120.648,147.685,120.066z"/>
	<path d="M157.681,116.835c-0.973,0.623-1.91,0.863-2.825,0.72c-0.914-0.144-1.649-0.621-2.2-1.441
		c-0.793-1.183-1.587-2.366-2.381-3.548c-0.442,0.296-0.882,0.595-1.321,0.895c-0.42-0.614-0.84-1.227-1.26-1.841
		c0.444-0.303,0.891-0.606,1.338-0.906c-0.498-0.74-0.994-1.481-1.491-2.221c0.793-0.653,1.596-1.299,2.404-1.939
		c0.538,0.832,1.077,1.663,1.615,2.495c0.452-0.293,0.907-0.583,1.362-0.873c0.398,0.628,0.797,1.256,1.195,1.884
		c-0.45,0.285-0.898,0.572-1.346,0.862c0.703,1.085,1.405,2.171,2.107,3.257c0.286,0.442,0.585,0.689,0.895,0.743
		c0.31,0.055,0.618-0.015,0.928-0.212c0.092-0.059,0.287-0.234,0.586-0.524c0.524,0.451,1.047,0.903,1.569,1.357
		C158.605,116.064,158.213,116.495,157.681,116.835z"/>
	<path d="M156.221,107.504c0.749-1.381,1.912-2.537,3.478-3.437c1.128-0.648,2.191-0.864,3.17-0.653
		c0.979,0.211,1.78,0.901,2.408,2.056c0.944,1.734,1.889,3.468,2.832,5.202c-0.842,0.458-1.679,0.922-2.511,1.394
		c-0.13-0.229-0.259-0.458-0.389-0.687c-0.469,0.871-0.987,1.472-1.564,1.81c-1.178,0.688-2.196,0.976-3.072,0.853
		c-0.875-0.123-1.574-0.598-2.092-1.438c-0.484-0.784-0.636-1.658-0.444-2.623c0.191-0.963,0.932-1.834,2.226-2.59
		c0.594-0.346,1.37-0.566,2.321-0.651c-0.048-0.086-0.096-0.172-0.145-0.257c-0.369-0.623-1.062-0.687-2.07-0.181
		c-1.11,0.644-1.868,1.325-2.271,2.028C157.473,108.053,156.849,107.778,156.221,107.504z M164.139,109.49
		c-0.184-0.323-0.367-0.647-0.549-0.97c-0.493-0.304-1.2-0.196-2.11,0.333c-1.026,0.75-1.36,1.489-1.016,2.201
		c0.462,0.638,1.243,0.664,2.35,0.095C163.708,110.629,164.153,110.08,164.139,109.49z"/>
</g>
<g>
	<path d="M80.773,346.633c-3.857,0.976-7.716,1.951-11.573,2.925c0.71,2.812,1.486,5.597,2.326,8.357
		c-0.873,0.265-1.747,0.531-2.622,0.797c-1.171-3.854-2.22-7.756-3.143-11.703c4.764-1.11,9.528-2.226,14.292-3.338
		C80.284,344.663,80.524,345.65,80.773,346.633z"/>
	<path d="M71.203,361.566c0.582-1.303,1.557-2.158,2.907-2.582c1.357-0.427,2.644-0.291,3.863,0.385
		c1.22,0.677,2.066,1.716,2.562,3.139c0.496,1.419,0.478,2.759-0.058,4.042c-0.538,1.284-1.46,2.189-2.787,2.7
		c-1.328,0.507-2.625,0.448-3.886-0.209c-1.263-0.656-2.167-1.745-2.69-3.248C70.588,364.287,70.62,362.87,71.203,361.566z
		 M73.345,365.001c0.271,0.777,0.729,1.321,1.372,1.63c0.642,0.31,1.312,0.334,2.012,0.08c0.698-0.256,1.195-0.707,1.5-1.346
		c0.301-0.641,0.321-1.337,0.055-2.097c-0.26-0.748-0.707-1.276-1.339-1.59c-0.636-0.315-1.307-0.356-2.012-0.121
		c-0.707,0.231-1.217,0.668-1.527,1.31C73.095,363.513,73.073,364.225,73.345,365.001z"/>
	<path d="M75.409,373.48c0.352-1.312,1.145-2.2,2.359-2.675c0.304-0.119,0.607-0.237,0.911-0.358
		c1.213-0.475,2.392-0.371,3.537,0.29c1.144,0.662,1.98,1.622,2.524,2.894c0.649,1.518,0.7,2.991,0.148,4.457
		c-0.733-0.433-1.465-0.866-2.195-1.311c0.283-0.812,0.274-1.567-0.028-2.272c-0.273-0.644-0.749-1.103-1.433-1.388
		c-0.684-0.283-1.356-0.296-2.021-0.025c-0.665,0.274-1.145,0.738-1.434,1.401c-0.291,0.661-0.282,1.361,0.029,2.087
		c0.311,0.727,0.866,1.27,1.663,1.621c-0.16,0.851-0.313,1.703-0.46,2.561c-1.485-0.589-2.587-1.692-3.272-3.298
		C75.166,376.127,75.058,374.792,75.409,373.48z"/>
	<path d="M86.288,379.947c1.269,0.856,2.274,2.043,3.047,3.573c0.556,1.103,0.715,2.119,0.475,3.063
		c-0.242,0.945-0.934,1.728-2.085,2.339c-1.727,0.921-3.454,1.841-5.182,2.758c-0.475-0.894-0.945-1.792-1.407-2.694
		c0.233-0.12,0.465-0.239,0.698-0.358c-0.867-0.547-1.457-1.145-1.773-1.778c-0.643-1.301-0.862-2.404-0.669-3.295
		c0.19-0.891,0.737-1.539,1.624-1.951c0.827-0.386,1.707-0.426,2.64-0.131c0.934,0.296,1.714,1.102,2.369,2.424
		c0.3,0.607,0.47,1.382,0.513,2.328c0.087-0.044,0.175-0.091,0.262-0.135c0.633-0.339,0.727-1.012,0.292-2.024
		c-0.558-1.12-1.158-1.91-1.813-2.371C85.612,381.107,85.948,380.526,86.288,379.947z M83.751,387.648
		c0.327-0.167,0.654-0.337,0.982-0.504c0.319-0.481,0.237-1.19-0.235-2.139c-0.681-1.079-1.383-1.487-2.12-1.21
		c-0.667,0.399-0.751,1.197-0.237,2.38C82.62,387.138,83.162,387.628,83.751,387.648z"/>
	<path d="M86.264,398.333c-0.623-1.061-0.839-2.065-0.654-2.995c0.185-0.932,0.71-1.634,1.564-2.11
		c1.233-0.688,2.466-1.377,3.7-2.063c-0.253-0.455-0.506-0.909-0.755-1.368c0.647-0.354,1.294-0.704,1.941-1.059
		c0.246,0.452,0.496,0.903,0.746,1.35c0.772-0.43,1.543-0.861,2.315-1.29c0.547,0.78,1.102,1.556,1.661,2.324
		c-0.849,0.493-1.699,0.984-2.549,1.478c0.258,0.444,0.518,0.886,0.78,1.331c-0.634,0.373-1.27,0.749-1.904,1.125
		c-0.265-0.449-0.528-0.897-0.789-1.348c-1.108,0.642-2.216,1.286-3.327,1.929c-0.452,0.261-0.709,0.549-0.771,0.862
		c-0.064,0.312,0,0.632,0.193,0.961c0.056,0.097,0.231,0.306,0.519,0.626c-0.456,0.516-0.909,1.033-1.361,1.552
		C87.042,399.349,86.605,398.916,86.264,398.333z"/>
	<path d="M99.472,394.847c0.364,0.093,0.669,0.331,0.91,0.717c0.254,0.41,0.344,0.797,0.264,1.165
		c-0.079,0.366-0.282,0.656-0.612,0.866c-0.33,0.213-0.679,0.274-1.045,0.185c-0.365-0.091-0.676-0.337-0.929-0.742
		c-0.252-0.403-0.339-0.792-0.258-1.159c0.078-0.367,0.287-0.654,0.62-0.857C98.756,394.815,99.105,394.76,99.472,394.847z
		 M89.743,404.027c2.754-1.753,5.51-3.507,8.264-5.259c-0.515-0.811-1.023-1.621-1.525-2.438c-2.782,1.708-5.565,3.414-8.347,5.122
		C88.663,402.314,89.201,403.171,89.743,404.027z"/>
	<path d="M92.819,406.305c0.216-1.402,0.929-2.482,2.114-3.255c1.192-0.777,2.465-0.996,3.813-0.684
		c1.351,0.312,2.439,1.075,3.289,2.3c0.853,1.222,1.189,2.507,1.011,3.883c-0.177,1.372-0.825,2.49-1.968,3.338
		c-1.141,0.847-2.404,1.139-3.792,0.853c-1.385-0.287-2.543-1.08-3.443-2.376C92.944,409.067,92.604,407.707,92.819,406.305z
		 M95.783,409.003c0.464,0.667,1.05,1.063,1.749,1.185c0.699,0.122,1.351-0.036,1.955-0.471c0.604-0.433,0.964-0.999,1.087-1.693
		c0.122-0.693-0.043-1.363-0.5-2.019c-0.447-0.642-1.015-1.026-1.707-1.153c-0.694-0.125-1.349,0.013-1.966,0.43
		c-0.617,0.414-0.993,0.971-1.122,1.669C95.15,407.648,95.317,408.333,95.783,409.003z"/>
	<path d="M105.135,415.009c-1.632,1.28-3.263,2.562-4.895,3.84c-0.625-0.794-1.243-1.596-1.855-2.401
		c2.523-1.915,5.046-3.829,7.57-5.741c0.657,0.706,1.32,1.405,1.988,2.099c-0.233,0.185-0.466,0.368-0.699,0.549
		c0.891,0.186,1.63,0.646,2.228,1.386c0.817,1.013,1.161,2.012,1.028,3.021c-0.134,1.011-0.567,1.834-1.314,2.468
		c-1.543,1.307-3.085,2.612-4.63,3.918c-0.654-0.773-1.302-1.549-1.943-2.333c1.388-1.137,2.776-2.275,4.164-3.41
		c0.504-0.412,0.786-0.869,0.844-1.363c0.058-0.497-0.125-1.022-0.547-1.583C106.666,415.013,106.022,414.863,105.135,415.009z"/>
	<path d="M111.497,431.892c3.552-3.366,7.104-6.738,10.657-10.106c1.325,1.397,2.675,2.775,4.049,4.128
		c3.321,3.256,3.444,6.61,0.163,10.261c-3.261,3.634-6.826,3.774-10.468,0.204C114.405,434.907,112.938,433.412,111.497,431.892z
		 M117.951,434.294c2.042,1.995,4.103,1.891,6.109-0.248c2.001-2.15,2.004-4.14,0.077-6.034c-0.673-0.662-1.34-1.327-2.001-2.003
		c-2.095,2.061-4.191,4.121-6.289,6.178C116.543,432.896,117.244,433.597,117.951,434.294z"/>
	<path d="M129.69,437.431c1.508,0.277,2.91,0.963,4.238,2.062c0.957,0.791,1.515,1.663,1.678,2.626
		c0.161,0.967-0.155,1.961-0.964,2.984c-1.212,1.534-2.424,3.072-3.637,4.609c-0.802-0.633-1.598-1.274-2.387-1.92
		c0.164-0.201,0.33-0.404,0.494-0.605c-1.016-0.156-1.799-0.47-2.346-0.928c-1.116-0.937-1.763-1.86-1.945-2.754
		c-0.183-0.895,0.056-1.708,0.702-2.442c0.604-0.684,1.395-1.073,2.368-1.179c0.974-0.099,2.017,0.326,3.151,1.279
		c0.523,0.437,0.989,1.081,1.413,1.933c0.064-0.077,0.125-0.151,0.186-0.229c0.443-0.562,0.256-1.219-0.551-1.975
		c-0.964-0.806-1.833-1.29-2.621-1.451C129.54,438.768,129.613,438.097,129.69,437.431z M130.475,445.518
		c0.233-0.284,0.465-0.571,0.698-0.854c0.098-0.57-0.266-1.191-1.083-1.872c-1.062-0.719-1.869-0.812-2.433-0.263
		c-0.451,0.634-0.207,1.399,0.746,2.282C129.233,445.502,129.927,445.736,130.475,445.518z"/>
	<path d="M137.143,454.352c-1.009-0.73-1.618-1.569-1.827-2.502c-0.212-0.931-0.016-1.784,0.575-2.565
		c0.853-1.124,1.708-2.249,2.56-3.376c-0.419-0.316-0.835-0.637-1.253-0.956c0.451-0.584,0.902-1.168,1.352-1.751
		c0.411,0.318,0.824,0.63,1.236,0.946c0.534-0.704,1.069-1.408,1.602-2.113c0.822,0.501,1.648,0.993,2.479,1.478
		c-0.581,0.794-1.161,1.585-1.74,2.378c0.419,0.306,0.84,0.613,1.262,0.917c-0.43,0.6-0.859,1.197-1.29,1.795
		c-0.428-0.305-0.854-0.618-1.278-0.928c-0.758,1.035-1.515,2.069-2.271,3.102c-0.31,0.422-0.428,0.788-0.357,1.104
		c0.07,0.315,0.26,0.581,0.572,0.81c0.093,0.066,0.339,0.188,0.735,0.367c-0.208,0.66-0.413,1.316-0.616,1.976
		C138.276,454.978,137.695,454.75,137.143,454.352z"/>
	<path d="M145.219,449.52c1.538,0.112,3.019,0.646,4.475,1.598c1.048,0.685,1.709,1.491,1.984,2.436s0.076,1.972-0.613,3.082
		c-1.031,1.659-2.064,3.322-3.097,4.985c-0.876-0.546-1.747-1.098-2.613-1.653c0.142-0.221,0.284-0.438,0.424-0.659
		c-1.033-0.046-1.855-0.271-2.454-0.671c-1.225-0.812-1.978-1.664-2.263-2.533c-0.287-0.872-0.144-1.709,0.417-2.512
		c0.522-0.748,1.267-1.219,2.228-1.43c0.962-0.209,2.052,0.106,3.296,0.933c0.572,0.381,1.116,0.97,1.64,1.772
		c0.053-0.081,0.105-0.163,0.158-0.246c0.377-0.611,0.112-1.246-0.782-1.911c-1.059-0.696-1.982-1.087-2.788-1.162
		C145.225,450.872,145.219,450.197,145.219,449.52z M146.947,457.499c0.198-0.308,0.399-0.619,0.599-0.928
		c0.031-0.581-0.406-1.157-1.301-1.751c-1.146-0.601-1.963-0.605-2.463,0.003c-0.375,0.683-0.042,1.418,1.011,2.196
		C145.702,457.616,146.423,457.776,146.947,457.499z"/>
</g>
<g>
	<path d="M396.548,451.722c1.987,3.201,3.974,6.401,5.959,9.604c2.334-1.449,4.624-2.947,6.873-4.498
		c0.489,0.713,0.981,1.425,1.472,2.137c-3.142,2.163-6.361,4.229-9.658,6.194c-2.368-3.98-4.741-7.959-7.11-11.937
		C394.91,452.729,395.732,452.23,396.548,451.722z"/>
	<path d="M412.768,456.074c-1.344-0.151-2.394-0.786-3.165-1.882c-0.774-1.103-1.021-2.303-0.761-3.596
		c0.26-1.295,0.955-2.357,2.097-3.213c1.138-0.854,2.352-1.223,3.663-1.107c1.313,0.116,2.395,0.689,3.236,1.74
		c0.837,1.052,1.157,2.238,0.926,3.564c-0.229,1.33-0.952,2.458-2.158,3.361C415.397,455.847,414.109,456.224,412.768,456.074z
		 M415.252,453.155c0.623-0.468,0.983-1.037,1.076-1.706c0.096-0.667-0.074-1.279-0.505-1.838c-0.431-0.556-0.98-0.874-1.644-0.967
		c-0.665-0.088-1.298,0.095-1.908,0.552c-0.6,0.45-0.948,1.004-1.05,1.664c-0.102,0.666,0.052,1.281,0.468,1.851
		c0.411,0.57,0.952,0.906,1.619,1.002C413.98,453.808,414.629,453.623,415.252,453.155z"/>
	<path d="M422.309,448.859c-1.285,0.06-2.313-0.4-3.09-1.359c-0.194-0.24-0.388-0.479-0.585-0.72
		c-0.777-0.958-1.021-2.053-0.753-3.274s0.896-2.252,1.888-3.106c1.182-1.021,2.497-1.491,3.978-1.413
		c-0.18,0.785-0.361,1.57-0.552,2.356c-0.814-0.022-1.494,0.202-2.043,0.677c-0.502,0.432-0.78,0.992-0.841,1.69
		c-0.059,0.698,0.122,1.31,0.556,1.831c0.439,0.521,0.995,0.82,1.677,0.892c0.681,0.071,1.309-0.138,1.875-0.626
		s0.896-1.145,0.984-1.966c0.813-0.101,1.627-0.205,2.441-0.32c-0.104,1.511-0.783,2.821-2.036,3.899
		C424.767,448.319,423.594,448.8,422.309,448.859z"/>
	<path d="M425.022,437.189c0.408-1.391,1.19-2.639,2.35-3.773c0.835-0.819,1.706-1.254,2.627-1.308
		c0.922-0.054,1.827,0.347,2.708,1.208c1.326,1.295,2.652,2.59,3.976,3.886c-0.67,0.684-1.345,1.366-2.026,2.043
		c-0.176-0.177-0.351-0.352-0.525-0.527c-0.244,0.938-0.614,1.643-1.095,2.109c-0.989,0.953-1.922,1.469-2.781,1.549
		c-0.857,0.085-1.599-0.223-2.227-0.904c-0.585-0.636-0.873-1.417-0.874-2.344c-0.001-0.929,0.502-1.862,1.506-2.832
		c0.463-0.445,1.113-0.821,1.954-1.132c-0.064-0.065-0.133-0.132-0.197-0.196c-0.487-0.475-1.121-0.366-1.91,0.315
		c-0.85,0.825-1.391,1.593-1.619,2.317C426.262,437.465,425.642,437.33,425.022,437.189z M432.698,437.268
		c-0.245-0.247-0.492-0.493-0.736-0.741c-0.526-0.149-1.143,0.129-1.862,0.825c-0.778,0.924-0.945,1.675-0.483,2.261
		c0.551,0.485,1.296,0.333,2.214-0.47C432.562,438.435,432.851,437.806,432.698,437.268z"/>
	<path d="M441.616,431.935c-0.777,0.866-1.622,1.35-2.514,1.449c-0.895,0.102-1.679-0.172-2.354-0.806
		c-0.974-0.915-1.95-1.83-2.923-2.746c-0.339,0.358-0.675,0.717-1.019,1.073c-0.506-0.481-1.006-0.966-1.511-1.447
		c0.338-0.352,0.673-0.706,1.003-1.059c-0.608-0.574-1.219-1.145-1.828-1.719c0.548-0.719,1.087-1.44,1.62-2.166
		c0.689,0.625,1.377,1.251,2.064,1.875c0.327-0.36,0.651-0.721,0.978-1.084c0.52,0.465,1.041,0.931,1.562,1.396
		c-0.329,0.366-0.659,0.732-0.989,1.097c0.896,0.816,1.795,1.63,2.694,2.448c0.364,0.333,0.699,0.482,0.999,0.449
		s0.57-0.182,0.812-0.45c0.071-0.079,0.209-0.297,0.416-0.648c0.595,0.263,1.193,0.524,1.79,0.782
		C442.311,430.942,442.046,431.461,441.616,431.935z"/>
	<path d="M434.683,421.019c-0.021-0.355,0.106-0.698,0.385-1.026c0.299-0.347,0.621-0.539,0.978-0.572
		c0.352-0.034,0.672,0.065,0.955,0.304c0.288,0.237,0.442,0.534,0.468,0.89c0.022,0.354-0.11,0.706-0.403,1.051
		c-0.292,0.344-0.617,0.533-0.973,0.565c-0.353,0.035-0.673-0.072-0.95-0.313C434.858,421.674,434.71,421.375,434.683,421.019z
		 M445.757,427.163c-2.372-1.982-4.746-3.965-7.116-5.946c-0.583,0.697-1.17,1.388-1.762,2.075c2.338,2.02,4.677,4.041,7.016,6.061
		C444.521,428.629,445.141,427.898,445.757,427.163z"/>
	<path d="M446.93,423.734c-1.328,0.207-2.507-0.126-3.544-0.975c-1.043-0.852-1.605-1.938-1.71-3.243
		c-0.106-1.309,0.269-2.511,1.13-3.629c0.858-1.118,1.922-1.792,3.214-2.025c1.288-0.234,2.482,0.029,3.575,0.818
		c1.092,0.786,1.719,1.842,1.857,3.176c0.138,1.331-0.244,2.604-1.155,3.788C449.385,422.829,448.256,423.527,446.93,423.734z
		 M448.514,420.287c0.469-0.611,0.658-1.254,0.566-1.919c-0.091-0.666-0.42-1.208-0.984-1.628c-0.565-0.421-1.179-0.583-1.841-0.494
		c-0.661,0.088-1.217,0.43-1.678,1.03c-0.449,0.587-0.635,1.209-0.551,1.87c0.086,0.661,0.398,1.213,0.951,1.65
		c0.552,0.438,1.161,0.618,1.829,0.533C447.472,421.247,448.042,420.899,448.514,420.287z"/>
	<path d="M451.249,410.125c1.623,1.104,3.247,2.208,4.868,3.315c-0.537,0.79-1.083,1.577-1.635,2.362
		c-2.451-1.728-4.901-3.455-7.351-5.184c0.447-0.796,0.889-1.595,1.323-2.396c0.232,0.156,0.465,0.315,0.695,0.474
		c-0.088-0.856,0.114-1.656,0.61-2.408c0.68-1.028,1.481-1.624,2.432-1.795c0.95-0.169,1.817-0.014,2.604,0.478
		c1.621,1.018,3.242,2.034,4.863,3.053c-0.51,0.813-1.024,1.618-1.548,2.423c-1.424-0.926-2.849-1.852-4.271-2.778
		c-0.517-0.337-1.009-0.459-1.472-0.37c-0.465,0.09-0.886,0.406-1.271,0.947C450.812,408.743,450.861,409.367,451.249,410.125z"/>
	<path d="M464.656,399.542c-4.058-2.237-8.119-4.477-12.177-6.715c0.881-1.597,1.736-3.211,2.562-4.839
		c1.984-3.931,4.976-5.005,9.211-3.091c4.214,1.899,5.364,5.076,3.188,9.388C466.541,396.052,465.613,397.806,464.656,399.542z
		 M464.971,393.029c1.215-2.414,0.528-4.244-1.977-5.44c-2.514-1.188-4.309-0.621-5.466,1.66c-0.405,0.799-0.812,1.591-1.233,2.382
		c2.461,1.299,4.921,2.599,7.379,3.9C464.113,394.701,464.546,393.868,464.971,393.029z"/>
	<path d="M464.434,381.537c-0.183-1.439,0.033-2.9,0.643-4.414c0.439-1.091,1.067-1.844,1.889-2.269
		c0.825-0.422,1.813-0.423,2.969,0.015c1.732,0.652,3.468,1.307,5.202,1.959c-0.342,0.904-0.69,1.807-1.048,2.704
		c-0.228-0.09-0.458-0.182-0.688-0.271c0.15,0.961,0.093,1.758-0.163,2.384c-0.524,1.275-1.173,2.123-1.927,2.544
		c-0.755,0.423-1.557,0.439-2.405,0.067c-0.79-0.348-1.368-0.95-1.742-1.798c-0.368-0.851-0.285-1.913,0.249-3.211
		c0.244-0.597,0.692-1.202,1.339-1.828c-0.088-0.036-0.173-0.068-0.261-0.101c-0.634-0.239-1.173,0.117-1.622,1.062
		c-0.452,1.101-0.64,2.023-0.559,2.779C465.683,381.29,465.056,381.416,464.434,381.537z M471.504,378.508
		c-0.322-0.129-0.649-0.256-0.97-0.384c-0.543,0.075-0.999,0.581-1.379,1.514c-0.344,1.164-0.197,1.919,0.461,2.271
		c0.702,0.225,1.322-0.216,1.845-1.328C471.846,379.633,471.858,378.941,471.504,378.508z"/>
	<path d="M477.561,369.958c-0.369,1.121-0.952,1.91-1.732,2.368c-0.779,0.458-1.604,0.526-2.479,0.217
		c-1.259-0.447-2.52-0.896-3.78-1.341c-0.165,0.47-0.335,0.937-0.503,1.403c-0.657-0.238-1.312-0.478-1.969-0.716
		c0.171-0.462,0.332-0.924,0.499-1.389c-0.788-0.278-1.577-0.559-2.366-0.838c0.217-0.886,0.424-1.771,0.622-2.66
		c0.884,0.296,1.764,0.592,2.646,0.887c0.155-0.466,0.311-0.934,0.466-1.4c0.663,0.215,1.325,0.432,1.988,0.648
		c-0.152,0.474-0.312,0.947-0.47,1.419c1.15,0.388,2.301,0.773,3.45,1.158c0.469,0.16,0.833,0.161,1.098,0.007
		c0.265-0.153,0.449-0.401,0.565-0.748c0.034-0.103,0.073-0.358,0.121-0.769c0.655-0.002,1.307-0.005,1.959-0.012
		C477.801,368.757,477.762,369.346,477.561,369.958z"/>
	<path d="M470.884,364.059c-0.34-1.42-0.283-2.91,0.158-4.495c0.316-1.143,0.855-1.97,1.628-2.489
		c0.774-0.521,1.757-0.636,2.956-0.333c1.793,0.455,3.59,0.91,5.387,1.365c-0.241,0.946-0.488,1.891-0.741,2.831
		c-0.24-0.064-0.478-0.13-0.717-0.192c0.256,0.944,0.288,1.752,0.099,2.405c-0.381,1.339-0.934,2.263-1.636,2.77
		c-0.705,0.509-1.501,0.62-2.386,0.344c-0.825-0.257-1.463-0.794-1.93-1.601c-0.464-0.807-0.492-1.881-0.104-3.24
		c0.179-0.625,0.554-1.286,1.128-1.988c-0.088-0.024-0.177-0.049-0.268-0.073c-0.659-0.163-1.155,0.258-1.5,1.255
		c-0.324,1.154-0.412,2.101-0.248,2.849C472.102,363.666,471.495,363.864,470.884,364.059z M477.587,360.21
		c-0.335-0.092-0.673-0.182-1.009-0.273c-0.533,0.139-0.928,0.698-1.207,1.675c-0.212,1.207,0.018,1.945,0.71,2.222
		c0.724,0.145,1.292-0.369,1.691-1.541C478.05,361.3,477.987,360.604,477.587,360.21z"/>
</g>
<circle fill="#FFFFFF" cx="86.427" cy="297.015" r="20.232"/>
<g>
	<g>
		<path fill="#FFFFFF" d="M141.243,290.08c0,27.969-22.078,50.64-49.31,50.64c-27.241,0-49.315-22.671-49.315-50.64
			c0-27.967,22.074-50.637,49.315-50.637C119.165,239.442,141.243,262.113,141.243,290.08z"/>
		<g>
			<path fill="#3997D3" d="M93.304,343.641c-29.992,0-54.396-24.39-54.396-54.403c0-29.999,24.404-54.395,54.396-54.395
				c30.004,0,54.408,24.396,54.408,54.395C147.712,319.251,123.308,343.641,93.304,343.641z M93.304,245.105
				c-24.331,0-44.141,19.806-44.141,44.133c0,24.346,19.811,44.153,44.141,44.153c24.347,0,44.149-19.808,44.149-44.153
				C137.454,264.911,117.651,245.105,93.304,245.105z"/>
		</g>
	</g>
	<g>
		<path fill="#3997D3" d="M43.492,226.67c-4.096,0.478-8.227,1.677-12.206,3.738c-3.979,2.071-7.935,4.981-11.537,9.526
			c-3.591,4.546-5.507,9.066-6.585,13.412c-1.082,4.358-1.265,8.619-0.819,12.716c-1.964,0.203-3.915,0.483-5.872,0.663
			c-0.517-4.833-0.327-9.816,0.972-14.858c0.979-3.808,2.43-7.619,4.874-11.607c0.415-0.671,0.836-1.342,1.303-1.996
			c4.49-6.316,9.806-10.515,14.977-13.154c4.014-2.036,8.188-3.412,12.414-4.063c0.413-0.064,0.888-0.135,1.374-0.201
			c0.116-0.004,0.425-0.06,0.444-0.053c0.072,0.048,0.065,0.596,0.076,0.741C43.118,223.233,43.352,224.995,43.492,226.67"/>
		<path fill="#3997D3" d="M44.889,238.394c-2.726,0.356-5.479,1.127-8.143,2.514c-2.658,1.386-5.305,3.313-7.684,6.33
			c-2.378,2.995-3.725,6.066-4.417,8.949c-0.692,2.926-0.868,5.776-0.529,8.489c-1.953,0.252-3.908,0.46-5.849,0.696
			c-0.445-3.301-0.257-6.733,0.555-10.214c0.791-3.478,2.299-7.03,4.933-10.705c1.473-2.046,3.279-3.872,4.879-5.208
			c4.5-3.784,9.33-5.699,14.235-6.502c0.199-0.035,0.409-0.08,0.667-0.117c0.165-0.024,0.644-0.089,0.657-0.075
			c0.069,0.05,0.081,0.658,0.085,0.742C44.48,235.024,44.718,236.675,44.889,238.394"/>
		<path fill="#3997D3" d="M45.566,244.298c0.276,1.958,0.465,3.908,0.688,5.867c-2.682,0.416-5.554,1.427-7.916,4.413
			c-2.365,2.989-2.721,6.021-2.466,8.739c-1.961,0.215-3.918,0.491-5.887,0.671c-0.348-3.911,0.132-8.116,3.227-12.412
			c1.799-2.508,3.979-4.202,5.999-5.285C41.331,245.161,43.48,244.543,45.566,244.298"/>
	</g>
	<text transform="matrix(1 0 0 1 77.5513 285.4414)"><tspan x="0" y="0" fill="#3397D3" font-family="'nevis-Bold'" font-size="19.1138">MR</tspan><tspan x="-18.349" y="22.937" fill="#3397D3" font-family="'nevis-Bold'" font-size="19.1138">Beacon</tspan></text>
</g>
<g>
	<path fill="#E66246" d="M110.811,236.271c1.795-2.112,1.029-4.229-1.702-4.704l-32.734-5.691c-2.731-0.475-4.166,1.259-3.189,3.854
		l11.484,30.499c0.977,2.594,3.245,2.988,5.04,0.876L110.811,236.271z"/>
</g>
<g>
	<path d="M333.707,86.595c-0.936-1.563-1.165-3.233-0.651-5.018c0.507-1.742,1.595-3.021,3.289-3.808
		c1.691-0.787,3.552-0.866,5.529-0.225c1.997,0.647,3.521,1.775,4.543,3.352c-0.819,0.379-1.635,0.763-2.444,1.151
		c-0.708-0.969-1.674-1.656-2.894-2.051c-1.242-0.397-2.359-0.367-3.33,0.085c-0.972,0.452-1.616,1.219-1.94,2.292
		c-0.342,1.151-0.236,2.178,0.297,3.083c0.538,0.904,1.401,1.545,2.6,1.933c1.196,0.388,2.334,0.41,3.425,0.06
		c0.39,0.796,0.772,1.595,1.148,2.393c-1.722,0.615-3.504,0.613-5.39,0.001C336.027,89.232,334.642,88.16,333.707,86.595z"/>
	<path d="M351.612,91.525c0.683-1.724,1.366-3.451,2.049-5.175c0.829,0.328,1.655,0.661,2.479,0.999
		c-1.09,2.662-2.181,5.321-3.272,7.981c-0.792-0.324-1.586-0.644-2.383-0.959c0.097-0.243,0.192-0.486,0.289-0.729
		c-0.766,0.253-1.544,0.227-2.339-0.079c-1.086-0.417-1.804-1.036-2.151-1.869c-0.35-0.833-0.382-1.653-0.087-2.465
		c0.61-1.672,1.221-3.345,1.831-5.018c0.84,0.306,1.676,0.616,2.512,0.933c-0.559,1.477-1.118,2.955-1.677,4.432
		c-0.204,0.538-0.215,1.008-0.038,1.415c0.177,0.407,0.556,0.728,1.129,0.97C350.468,92.122,351.02,91.976,351.612,91.525z"/>
	<path d="M363.1,90.619c0.371,0.381,0.67,0.836,0.899,1.365c-0.657,0.254-1.313,0.511-1.968,0.771c-0.197-0.6-0.59-1.03-1.177-1.29
		c-0.58-0.257-1.015-0.329-1.296-0.216c-0.281,0.111-0.359,0.292-0.234,0.537c0.126,0.247,0.455,0.548,0.985,0.909
		c0.821,0.45,1.414,0.986,1.784,1.603c0.37,0.617,0.34,1.385-0.085,2.303c-0.339,0.741-0.916,1.17-1.723,1.295
		c-0.81,0.125-1.626,0.004-2.456-0.361c-0.792-0.35-1.406-0.743-1.847-1.184c-0.439-0.441-0.776-0.922-1.009-1.443
		c0.632-0.28,1.269-0.556,1.907-0.83c0.203,0.593,0.692,1.098,1.469,1.52c0.646,0.284,1.107,0.372,1.385,0.259
		c0.275-0.112,0.393-0.296,0.349-0.552c-0.046-0.256-0.434-0.589-1.17-0.994c-0.659-0.377-1.209-0.85-1.652-1.42
		c-0.442-0.57-0.479-1.302-0.101-2.196c0.347-0.82,0.946-1.306,1.805-1.448c0.856-0.142,1.643-0.057,2.353,0.256
		C362.136,89.864,362.73,90.237,363.1,90.619z"/>
	<path d="M366.374,101.434c-0.927-0.459-1.544-1.061-1.858-1.818c-0.313-0.756-0.289-1.523,0.08-2.302
		c0.535-1.124,1.068-2.247,1.602-3.371c-0.424-0.201-0.85-0.402-1.277-0.601c0.274-0.589,0.55-1.176,0.824-1.766
		c0.431,0.202,0.86,0.404,1.29,0.608c0.333-0.703,0.669-1.406,1.002-2.109c0.85,0.309,1.697,0.621,2.543,0.94
		c-0.381,0.777-0.761,1.553-1.142,2.33c0.427,0.208,0.851,0.418,1.274,0.63c-0.288,0.581-0.579,1.161-0.869,1.743
		c-0.421-0.209-0.842-0.418-1.264-0.625c-0.498,1.014-0.995,2.027-1.49,3.042c-0.204,0.412-0.253,0.747-0.151,1.005
		c0.105,0.259,0.301,0.46,0.59,0.604c0.088,0.045,0.312,0.112,0.67,0.208c-0.098,0.597-0.196,1.194-0.295,1.791
		C367.389,101.788,366.881,101.685,366.374,101.434z"/>
	<path d="M370.353,102.131c-0.404-1.157-0.332-2.292,0.234-3.402c0.569-1.115,1.449-1.842,2.648-2.165
		c1.201-0.323,2.417-0.158,3.629,0.495c1.213,0.652,2.019,1.577,2.409,2.755c0.39,1.18,0.266,2.313-0.353,3.402
		c-0.618,1.089-1.524,1.776-2.709,2.074c-1.186,0.298-2.351,0.133-3.514-0.493C371.536,104.171,370.758,103.289,370.353,102.131z
		 M373.68,102.957c0.613,0.331,1.216,0.408,1.809,0.232c0.594-0.175,1.05-0.548,1.366-1.121c0.317-0.573,0.39-1.16,0.215-1.761
		c-0.176-0.6-0.58-1.073-1.214-1.413c-0.622-0.335-1.234-0.411-1.833-0.226c-0.598,0.184-1.048,0.567-1.353,1.148
		c-0.304,0.58-0.361,1.167-0.183,1.759C372.669,102.167,373.065,102.626,373.68,102.957z"/>
	<path d="M383.27,104.345c-0.938,1.581-1.877,3.161-2.816,4.743c-0.728-0.433-1.458-0.861-2.192-1.285
		c1.396-2.416,2.793-4.831,4.188-7.245c0.807,0.365,1.61,0.736,2.411,1.112c-0.131,0.22-0.261,0.441-0.392,0.661
		c0.765-0.134,1.545,0.038,2.329,0.516c1.022,0.622,1.625,1.384,1.805,2.277c0.932-0.196,1.989,0.079,3.152,0.828
		c1.004,0.649,1.582,1.426,1.739,2.323c0.156,0.896-0.011,1.701-0.49,2.417c-0.989,1.48-1.98,2.961-2.972,4.44
		c-0.703-0.47-1.406-0.935-2.114-1.397c0.861-1.324,1.726-2.646,2.59-3.971c0.312-0.48,0.438-0.929,0.377-1.347
		c-0.062-0.417-0.354-0.804-0.875-1.158c-0.453-0.25-1.002-0.224-1.641,0.079c-0.12,0.134-0.231,0.279-0.328,0.435
		c-0.906,1.433-1.811,2.866-2.715,4.299c-0.716-0.452-1.434-0.899-2.154-1.343c0.827-1.346,1.654-2.69,2.482-4.036
		c0.3-0.49,0.415-0.942,0.34-1.359c-0.072-0.415-0.375-0.795-0.904-1.134C384.579,103.931,383.972,103.979,383.27,104.345z"/>
	<path d="M393.912,112.554c0.711-1.043,1.652-1.656,2.829-1.822c1.177-0.165,2.334,0.152,3.458,0.955
		c1.123,0.802,1.775,1.776,1.953,2.905c0.175,1.129-0.122,2.198-0.877,3.212c-0.172,0.23-0.345,0.46-0.517,0.69
		c-1.693-1.262-3.406-2.499-5.139-3.712c-0.211,0.413-0.242,0.829-0.094,1.25c0.151,0.421,0.424,0.773,0.82,1.057
		c0.692,0.494,1.442,0.753,2.256,0.778c0.123,0.659,0.243,1.317,0.359,1.975c-1.051,0.295-2.296-0.089-3.767-1.14
		c-1.08-0.771-1.738-1.719-1.979-2.864C392.974,114.694,393.201,113.599,393.912,112.554z M399.882,114.376
		c-0.151-0.428-0.429-0.787-0.833-1.077c-0.405-0.289-0.835-0.436-1.289-0.438c-0.451-0.003-0.812,0.185-1.075,0.561
		c1.013,0.709,2.019,1.427,3.017,2.152C399.971,115.203,400.031,114.803,399.882,114.376z"/>
	<path d="M406.844,117.819c0.916-0.089,1.756,0.167,2.511,0.768c0.239,0.192,0.455,0.392,0.64,0.599
		c-0.604,0.533-1.206,1.066-1.808,1.601c-0.08-0.388-0.335-0.765-0.768-1.127c-0.522-0.362-1.201-0.353-2.029,0.029
		c-1.085,1.395-2.169,2.79-3.254,4.184c-0.664-0.518-1.333-1.031-2.006-1.542c1.687-2.221,3.371-4.444,5.056-6.667
		c0.752,0.461,1.5,0.927,2.245,1.398C407.234,117.315,407.039,117.567,406.844,117.819z"/>
	<path d="M410.902,131.078c2.824-3.251,5.645-6.503,8.468-9.756c2.66,2.305,5.264,4.672,7.81,7.1
		c-0.555,0.582-1.11,1.163-1.665,1.746c-1.832-1.749-3.696-3.467-5.586-5.151c-0.611,0.686-1.223,1.373-1.834,2.058
		c1.399,1.248,2.782,2.513,4.15,3.795c-0.548,0.585-1.097,1.168-1.645,1.753c-1.353-1.269-2.722-2.52-4.105-3.753
		c-0.651,0.731-1.303,1.463-1.955,2.194c1.818,1.619,3.606,3.269,5.368,4.95c-0.556,0.581-1.11,1.163-1.667,1.746
		C415.849,135.476,413.401,133.247,410.902,131.078z"/>
	<path d="M425.741,137.426c-1.294,1.291-2.586,2.581-3.88,3.871c-0.594-0.596-1.193-1.188-1.796-1.776
		c1.95-1.994,3.9-3.988,5.85-5.983c0.687,0.552,1.37,1.106,2.052,1.666c-0.186,0.185-0.37,0.37-0.557,0.554
		c0.812,0.08,1.525,0.433,2.136,1.056c0.831,0.851,1.224,1.737,1.176,2.644c-0.047,0.908-0.39,1.656-1.015,2.247
		c-1.295,1.225-2.588,2.449-3.883,3.672c-0.578-0.611-1.16-1.22-1.748-1.826c1.135-1.099,2.27-2.199,3.405-3.297
		c0.413-0.4,0.624-0.821,0.635-1.263c0.01-0.443-0.196-0.894-0.624-1.353C427.087,137.276,426.502,137.205,425.741,137.426z"/>
	<path d="M439.299,147.862c-1.943,1.661-3.887,3.322-5.831,4.982c-0.919,0.782-1.929,1.151-3.026,1.117
		c-1.101-0.034-2.035-0.454-2.815-1.264c-0.131-0.123-0.261-0.244-0.393-0.365c-1.116-1.302-1.663-2.602-1.638-3.926
		c0.579-0.008,1.158-0.016,1.74-0.02c0.107,0.796,0.451,1.56,1.034,2.295c0.638,0.712,1.225,1.054,1.773,1.024
		c0.548-0.031,1.017-0.215,1.404-0.554c0.108-0.095,0.218-0.189,0.324-0.284c-0.834-0.169-1.546-0.584-2.139-1.248
		c-0.924-1.032-1.34-2.057-1.241-3.095c0.098-1.036,0.625-2.008,1.592-2.91c0.925-0.861,1.945-1.285,3.063-1.258
		c1.119,0.028,2.169,0.579,3.13,1.654c0.667,0.833,0.969,1.571,0.906,2.207c0.195-0.172,0.393-0.345,0.589-0.517
		C438.287,146.42,438.794,147.139,439.299,147.862z M433.947,149.051c0.35-0.306,0.7-0.613,1.052-0.919
		c0.645-0.729,0.641-1.592-0.021-2.585c-1.072-1.125-2.168-1.261-3.269-0.421c-1.145,1.132-1.205,2.296-0.196,3.512
		C432.41,149.386,433.219,149.527,433.947,149.051z"/>
	<path d="M440.035,149.932c1.289,0.465,2.437,1.312,3.422,2.533c0.709,0.88,1.041,1.762,0.995,2.633
		c-0.047,0.871-0.527,1.658-1.434,2.364c-1.358,1.06-2.718,2.119-4.079,3.179c-0.518-0.667-1.042-1.33-1.568-1.989
		c0.181-0.143,0.36-0.287,0.539-0.431c-0.819-0.29-1.414-0.66-1.787-1.118c-0.762-0.935-1.15-1.784-1.165-2.562
		c-0.013-0.777,0.306-1.445,0.966-2.001c0.613-0.518,1.35-0.76,2.207-0.719c0.86,0.042,1.71,0.568,2.535,1.581
		c0.381,0.466,0.675,1.105,0.88,1.914c0.067-0.053,0.135-0.106,0.203-0.161c0.486-0.404,0.445-1.008-0.127-1.809
		c-0.708-0.87-1.394-1.432-2.055-1.688C439.726,151.084,439.881,150.508,440.035,149.932z M439.391,157.038
		c0.256-0.203,0.509-0.406,0.761-0.608c0.194-0.467,0.001-1.062-0.579-1.778c-0.789-0.788-1.47-0.98-2.041-0.589
		c-0.488,0.484-0.405,1.165,0.241,2.049C438.346,156.821,438.884,157.131,439.391,157.038z"/>
	<path d="M452.217,164.548c-2.096,1.465-4.189,2.931-6.285,4.396c-0.989,0.693-2.03,0.959-3.123,0.818
		c-1.094-0.143-1.984-0.653-2.686-1.538c-0.118-0.133-0.237-0.268-0.355-0.401c-0.989-1.409-1.411-2.757-1.261-4.075
		c0.579,0.047,1.157,0.098,1.735,0.149c0.031,0.805,0.303,1.6,0.814,2.391c0.567,0.773,1.12,1.171,1.669,1.195
		c0.549,0.023,1.033-0.114,1.453-0.416c0.116-0.083,0.233-0.167,0.351-0.25c-0.817-0.251-1.485-0.733-2.015-1.455
		c-0.823-1.119-1.139-2.181-0.942-3.207c0.197-1.024,0.814-1.941,1.862-2.745c1.003-0.769,2.06-1.091,3.174-0.954
		c1.112,0.137,2.106,0.789,2.964,1.955c0.584,0.897,0.813,1.663,0.689,2.29c0.214-0.152,0.428-0.305,0.638-0.458
		C451.344,163.008,451.782,163.777,452.217,164.548z M446.77,165.208c0.376-0.272,0.756-0.543,1.134-0.815
		c0.712-0.663,0.793-1.524,0.227-2.578c-0.962-1.229-2.041-1.47-3.217-0.741c-1.25,1.017-1.422,2.171-0.531,3.482
		C445.203,165.39,445.997,165.609,446.77,165.208z"/>
	<path d="M449.675,167.986c1.038-0.718,2.138-0.95,3.296-0.677c1.159,0.271,2.128,0.988,2.892,2.146
		c0.763,1.159,1.021,2.307,0.782,3.427c-0.239,1.121-0.901,2.012-1.973,2.686c-0.241,0.154-0.484,0.306-0.727,0.459
		c-1.133-1.799-2.291-3.58-3.475-5.342c-0.348,0.308-0.526,0.686-0.537,1.136c-0.012,0.448,0.119,0.875,0.387,1.285
		c0.471,0.714,1.079,1.229,1.832,1.547c-0.122,0.662-0.244,1.322-0.372,1.98c-1.088-0.106-2.116-0.921-3.114-2.438
		c-0.732-1.113-1.008-2.238-0.823-3.395C448.028,169.646,448.634,168.705,449.675,167.986z M454.601,171.855
		c0.012-0.455-0.119-0.892-0.395-1.309c-0.274-0.417-0.625-0.71-1.048-0.878c-0.422-0.167-0.824-0.121-1.205,0.134
		c0.69,1.031,1.373,2.067,2.047,3.109C454.387,172.661,454.588,172.311,454.601,171.855z"/>
	<path d="M458.12,178.873c-1.578,0.945-3.152,1.892-4.729,2.837c-0.438-0.729-0.879-1.455-1.325-2.178
		c2.375-1.464,4.75-2.928,7.123-4.391c0.537,0.707,1.07,1.417,1.599,2.13c-0.218,0.131-0.438,0.263-0.656,0.395
		c0.736,0.248,1.343,0.771,1.811,1.568c0.607,1.038,0.777,2,0.514,2.875c0.918,0.275,1.721,1.024,2.394,2.246
		c0.579,1.055,0.725,2.023,0.438,2.891c-0.285,0.87-0.812,1.502-1.574,1.904c-1.575,0.832-3.148,1.664-4.724,2.496
		c-0.398-0.754-0.802-1.506-1.21-2.256c1.389-0.755,2.775-1.509,4.164-2.264c0.505-0.275,0.828-0.61,0.972-1.01
		c0.141-0.398,0.067-0.881-0.226-1.444c-0.283-0.439-0.78-0.679-1.487-0.719c-0.169,0.06-0.335,0.136-0.496,0.227
		c-1.477,0.831-2.953,1.663-4.431,2.496c-0.415-0.743-0.84-1.482-1.266-2.218c1.367-0.792,2.735-1.584,4.101-2.376
		c0.497-0.288,0.813-0.632,0.944-1.035c0.132-0.401,0.046-0.881-0.263-1.435C459.469,179.133,458.912,178.884,458.12,178.873z"/>
	<path d="M463.638,191.238c1.122-0.582,2.243-0.67,3.361-0.248c1.118,0.423,1.994,1.266,2.609,2.523
		c0.617,1.256,0.733,2.439,0.358,3.527c-0.377,1.089-1.146,1.894-2.291,2.426c-0.26,0.121-0.52,0.242-0.782,0.364
		c-0.904-1.948-1.836-3.88-2.796-5.794c-0.384,0.262-0.606,0.617-0.674,1.064c-0.065,0.446,0.011,0.89,0.227,1.333
		c0.381,0.776,0.923,1.37,1.629,1.787c-0.198,0.646-0.405,1.29-0.611,1.93c-1.07-0.248-1.99-1.198-2.795-2.844
		c-0.593-1.207-0.728-2.366-0.4-3.498C461.798,192.679,462.517,191.819,463.638,191.238z M468.061,195.746
		c0.067-0.452-0.01-0.906-0.231-1.359c-0.222-0.453-0.533-0.792-0.935-1.014c-0.398-0.223-0.804-0.23-1.215-0.023
		c0.561,1.118,1.111,2.243,1.654,3.374C467.748,196.523,467.991,196.199,468.061,195.746z"/>
	<path d="M470.68,203.274c-1.673,0.734-3.346,1.467-5.021,2.2c-0.344-0.787-0.694-1.571-1.046-2.354
		c2.539-1.15,5.08-2.301,7.62-3.452c0.448,0.777,0.891,1.558,1.326,2.343c-0.238,0.106-0.479,0.21-0.717,0.315
		c0.731,0.381,1.274,0.984,1.622,1.803c0.477,1.117,0.527,2.104,0.157,2.944c-0.367,0.842-0.956,1.42-1.753,1.745
		c-1.651,0.669-3.302,1.339-4.952,2.008c-0.324-0.799-0.652-1.594-0.987-2.389c1.458-0.612,2.914-1.224,4.371-1.835
		c0.529-0.223,0.879-0.54,1.046-0.955c0.169-0.413,0.137-0.92-0.102-1.515C471.996,203.641,471.474,203.354,470.68,203.274z"/>
	<path d="M470.215,216.75c-0.363-0.983-0.404-1.858-0.116-2.632c0.286-0.773,0.827-1.319,1.63-1.632
		c1.161-0.452,2.318-0.903,3.478-1.354c-0.172-0.445-0.348-0.889-0.524-1.332c0.604-0.24,1.209-0.479,1.812-0.719
		c0.176,0.446,0.354,0.895,0.528,1.343c0.724-0.283,1.45-0.564,2.175-0.848c0.412,0.818,0.818,1.64,1.22,2.465
		c-0.809,0.304-1.619,0.608-2.428,0.912c0.169,0.451,0.338,0.904,0.505,1.356c-0.61,0.224-1.22,0.449-1.829,0.673
		c-0.164-0.449-0.332-0.898-0.499-1.344c-1.058,0.396-2.112,0.793-3.17,1.191c-0.432,0.16-0.697,0.373-0.799,0.634
		c-0.102,0.26-0.095,0.546,0.021,0.855c0.034,0.094,0.15,0.3,0.347,0.622c-0.479,0.371-0.957,0.741-1.439,1.109
		C470.719,217.721,470.417,217.29,470.215,216.75z"/>
</g>
</svg>
