<?xml version="1.0" encoding="utf-8"?>
<!-- Generator: Adobe Illustrator 15.0.0, SVG Export Plug-In . SVG Version: 6.00 Build 0)  -->
<!DOCTYPE svg PUBLIC "-//W3C//DTD SVG 1.1//EN" "http://www.w3.org/Graphics/SVG/1.1/DTD/svg11.dtd">
<svg version="1.1" id="Layer_1" xmlns="http://www.w3.org/2000/svg" xmlns:xlink="http://www.w3.org/1999/xlink" x="0px" y="0px"
	 width="551.972px" height="543.817px" viewBox="0 0 551.972 543.817" enable-background="new 0 0 551.972 543.817"
	 xml:space="preserve">
<line fill="none" stroke="#3997D3" stroke-width="5" stroke-miterlimit="10" x1="72.023" y1="300.63" x2="36.246" y2="274.645"/>
<line fill="none" stroke="#C14E9D" stroke-width="5" stroke-miterlimit="10" x1="87.807" y1="303.6" x2="101.638" y2="261.6"/>
<g>
	<path fill="#E66246" d="M382.566,138.966c-1.99,2.678-3.995,5.342-6.031,7.977c40.843,33.209,66.987,83.832,66.987,140.453
		c0,99.79-81.185,180.975-180.974,180.975c-99.79,0-180.975-81.185-180.975-180.975c0-65.998,35.516-123.849,88.435-155.466
		c0.657-4.25,1.388-8.497,2.199-12.737C112.35,151.471,71.574,214.755,71.574,287.396c0,105.304,85.671,190.975,190.975,190.975
		c105.303,0,190.974-85.671,190.974-190.975C453.522,227.523,425.818,174.007,382.566,138.966z"/>
</g>
<path fill="#3397D3" d="M157.036,402.633 M240.536,456.277c-24.095-2.783-45.878,14.494-48.662,38.587
	c-2.783,24.093,14.495,45.879,38.589,48.66c24.093,2.778,45.878-14.495,48.657-38.587
	C281.902,480.841,264.629,459.059,240.536,456.277z M314.517,407.754c-19.428-2.242-37.002,11.689-39.245,31.124
	c-2.244,19.433,11.691,37.004,31.124,39.249c19.434,2.242,37.004-11.693,39.247-31.125S333.957,409.999,314.517,407.754z
	 M269.447,399.229c-24.094-2.783-45.878,14.493-48.658,38.588c-2.783,24.091,14.493,45.877,38.587,48.657
	c24.09,2.78,45.875-14.491,48.657-38.585S293.541,402.01,269.447,399.229z M297.478,473.568
	c-18.251-2.108-34.757,10.979-36.864,29.231s10.983,34.756,29.233,36.862c18.251,2.107,34.758-10.98,36.863-29.231
	C328.819,492.179,315.73,475.673,297.478,473.568z M220.165,404.534c-18.252-2.109-34.757,10.98-36.865,29.23
	c-2.107,18.253,10.981,34.758,29.234,36.865c18.253,2.107,34.756-10.98,36.862-29.23
	C251.504,423.147,238.417,406.643,220.165,404.534z M188.739,452.421c-14.114-1.628-26.877,8.491-28.506,22.606
	c-1.63,14.114,8.489,26.879,22.604,28.51c14.117,1.628,26.878-8.492,28.507-22.609C212.975,466.816,202.853,454.052,188.739,452.421
	z M339.951,465.652c-13.865-3.096-27.618,5.632-30.719,19.5c-3.094,13.865,5.635,27.617,19.502,30.716
	c13.867,3.096,27.619-5.633,30.716-19.5C362.546,482.501,353.818,468.749,339.951,465.652z M357.96,433.167
	c-14.113-1.631-26.877,8.492-28.506,22.606c-1.631,14.114,8.492,26.879,22.604,28.507c14.114,1.631,26.878-8.492,28.507-22.607
	C382.197,447.559,372.076,434.797,357.96,433.167z"/>
<g>
	<path fill="#FFFFFF" d="M266.738,511.75c-22.972,0-41.662-18.689-41.662-41.661c0-22.971,18.69-41.659,41.662-41.659
		s41.66,18.688,41.66,41.659C308.398,493.06,289.71,511.75,266.738,511.75z M266.738,437.165c-18.155,0-32.927,14.77-32.927,32.924
		c0,18.155,14.771,32.926,32.927,32.926c18.155,0,32.925-14.771,32.925-32.926C299.664,451.934,284.893,437.165,266.738,437.165z"/>
</g>
<g>
	<polyline fill="#FFFFFF" points="237.815,497.403 224.789,511.94 253.398,503.801 	"/>
</g>
<g>
	<g>
		<polygon fill="#FFFFFF" points="270.412,443.828 270.412,473.422 255.716,473.422 		"/>
	</g>
	<g>
		<polygon fill="#FFFFFF" points="277.759,466.756 263.065,496.349 263.065,466.756 		"/>
	</g>
</g>
<circle fill="#A5D5F3" cx="499.91" cy="278.298" r="40.73"/>
<g>
	<path fill="#636467" d="M176.576,29.307c0,5.573-4.52,10.09-10.085,10.09c-5.573,0-10.088-4.517-10.088-10.09
		c0-5.566,4.516-10.084,10.088-10.084C172.056,19.222,176.576,23.741,176.576,29.307z"/>
	<path fill="#636467" d="M191.619,45.884c0-2.381-1.727-4.316-3.857-4.316h-41.157c-2.134,0-3.858,1.935-3.858,4.316
		c0,0.045,0.007,0.095,0.007,0.136c0,0.04-0.007,0.08-0.007,0.121v31.019c0,2.159,1.759,3.913,3.921,3.913
		c2.174,0,3.93-1.754,3.93-3.913V50.194h2.31v31.964v6.344v42.679c0,3.419,2.772,6.19,6.188,6.19c3.413,0,6.189-2.771,6.189-6.19
		V88.501h3.726v42.679c0,3.419,2.773,6.19,6.189,6.19c3.416,0,6.185-2.771,6.185-6.19V88.501v-6.344V50.194h2.26v26.967
		c0,2.159,1.791,3.913,3.983,3.913c2.207,0,3.99-1.754,3.99-3.913V46.142c0-0.041-0.005-0.081-0.007-0.121
		C191.614,45.979,191.619,45.929,191.619,45.884z"/>
</g>
<g>
	<path fill="#9FA2A4" stroke="#B1B4B5" stroke-width="0.25" stroke-miterlimit="10" d="M335.063,23.818
		c0,5.567-4.522,10.089-10.091,10.089c-5.566,0-10.087-4.522-10.087-10.089s4.521-10.087,10.087-10.087
		C330.541,13.731,335.063,18.25,335.063,23.818z"/>
	<path fill="#9FA2A4" stroke="#B1B4B5" stroke-width="0.25" stroke-miterlimit="10" d="M350.102,40.395
		c0-2.383-1.724-4.318-3.86-4.318h-41.155c-2.131,0-3.858,1.935-3.858,4.318c0,0.046,0.006,0.092,0.008,0.139
		c-0.002,0.036-0.008,0.075-0.008,0.117v31.021c0,2.158,1.76,3.914,3.926,3.914c2.172,0,3.926-1.755,3.926-3.914V44.707h2.311
		v31.958v6.348v42.676c0,3.417,2.772,6.193,6.188,6.193c3.417,0,6.187-2.775,6.187-6.193V83.013h3.729v42.676
		c0,3.417,2.771,6.193,6.188,6.193c3.415,0,6.185-2.775,6.185-6.193V83.013v-6.348V44.707h2.264v26.964
		c0,2.158,1.788,3.914,3.984,3.914c2.205,0,3.988-1.755,3.988-3.914V40.65c0-0.042-0.01-0.081-0.01-0.117
		C350.092,40.487,350.102,40.441,350.102,40.395z"/>
</g>
<g>
	<path fill="#636467" d="M381.759,77.129l-3.497-32.588c-0.214-2.011-1.726-3.509-3.535-3.64c-0.354-0.14-0.738-0.215-1.135-0.215
		h-39.674c-0.991,0-1.888,0.479-2.555,1.253c-1.094,0.607-1.896,1.769-2.056,3.202l-3.614,32.569
		c-0.255,2.275,1.227,4.344,3.299,4.618c2.074,0.274,3.96-1.337,4.214-3.61l3.213-28.908h3.245l-5.124,52.505h8.949v33.176
		c0,3.618,1.968,6.548,4.388,6.548c2.431,0,4.393-2.93,4.393-6.548v-33.176h4.344v33.176c0,3.618,1.962,6.548,4.379,6.548
		c2.428,0,4.392-2.93,4.392-6.548v-33.176h7.521l-5.121-52.505h3.311l3.037,28.308c0.24,2.273,2.149,3.896,4.258,3.622
		C380.495,81.466,382.008,79.401,381.759,77.129z"/>
	<path fill="#636467" d="M364.398,26.662c0,5.898-4.78,10.674-10.674,10.674c-5.896,0-10.669-4.775-10.669-10.674
		c0-5.896,4.773-10.669,10.669-10.669C359.618,15.993,364.398,20.767,364.398,26.662z"/>
</g>
<g>
	<path fill="#9FA2A4" stroke="#B1B4B5" stroke-width="0.25" stroke-miterlimit="10" d="M211.624,27.878
		c0,5.568-4.521,10.09-10.086,10.09c-5.574,0-10.093-4.522-10.093-10.09c0-5.566,4.519-10.085,10.093-10.085
		C207.103,17.793,211.624,22.312,211.624,27.878z"/>
	<path fill="#9FA2A4" stroke="#B1B4B5" stroke-width="0.25" stroke-miterlimit="10" d="M226.664,44.456
		c0-2.383-1.731-4.318-3.86-4.318h-41.155c-2.128,0-3.859,1.935-3.859,4.318c0,0.045,0.008,0.092,0.008,0.138
		c0,0.037-0.008,0.076-0.008,0.118v31.02c0,2.158,1.763,3.913,3.93,3.913c2.17,0,3.923-1.755,3.923-3.913V48.768h2.309v31.959v6.347
		v42.675c0,3.418,2.769,6.193,6.187,6.193c3.423,0,6.194-2.775,6.194-6.193V87.074h3.729v42.675c0,3.418,2.764,6.193,6.181,6.193
		c3.419,0,6.187-2.775,6.187-6.193V87.074v-6.347V48.768h2.266v26.965c0,2.158,1.784,3.913,3.984,3.913
		c2.198,0,3.985-1.755,3.985-3.913v-31.02c0-0.042-0.003-0.082-0.013-0.118C226.661,44.548,226.664,44.501,226.664,44.456z"/>
</g>
<g>
	<path fill="#636467" d="M299.112,21.145c0,6.071-4.923,11-10.999,11c-6.072,0-10.994-4.929-10.994-11
		c0-6.073,4.922-10.995,10.994-10.995C294.189,10.15,299.112,15.072,299.112,21.145z"/>
	<path fill="#636467" d="M315.514,39.218c0-2.6-1.885-4.704-4.204-4.704h-44.876c-2.326,0-4.206,2.104-4.206,4.704
		c0,0.05,0.004,0.1,0.008,0.151c-0.004,0.036-0.008,0.083-0.008,0.128v33.82c0,2.356,1.918,4.271,4.282,4.271
		c2.366,0,4.278-1.914,4.278-4.271v-29.4h2.523v34.847v6.923v46.528c0,3.73,3.015,6.748,6.742,6.748
		c3.727,0,6.746-3.017,6.746-6.748V85.688h4.063v46.528c0,3.73,3.022,6.748,6.744,6.748c3.731,0,6.745-3.017,6.745-6.748V85.688
		v-6.923V43.917h2.479v29.4c0,2.356,1.94,4.271,4.34,4.271c2.4,0,4.343-1.914,4.343-4.271v-33.82c0-0.045-0.009-0.092-0.009-0.128
		C315.505,39.321,315.514,39.268,315.514,39.218z"/>
</g>
<g>
	<path fill="#9FA2A4" stroke="#B1B4B5" stroke-width="0.25" stroke-miterlimit="10" d="M256.521,17.897
		c0,6.08-4.93,11.012-11.008,11.012c-6.073,0-11.005-4.932-11.005-11.012c0-6.07,4.933-11.002,11.005-11.002
		C251.591,6.895,256.521,11.827,256.521,17.897z"/>
	<path fill="#9FA2A4" stroke="#B1B4B5" stroke-width="0.25" stroke-miterlimit="10" d="M272.932,35.985
		c0-2.6-1.883-4.708-4.204-4.708h-44.909c-2.325,0-4.21,2.108-4.21,4.708c0,0.045,0.007,0.1,0.01,0.149
		c-0.003,0.037-0.01,0.088-0.01,0.126v33.845c0,2.364,1.924,4.275,4.279,4.275c2.375,0,4.289-1.912,4.289-4.275V40.683h2.519V75.56
		v6.928v46.56c0,3.734,3.025,6.751,6.75,6.751c3.729,0,6.75-3.017,6.75-6.751v-46.56h4.073v46.56c0,3.734,3.018,6.751,6.751,6.751
		c3.727,0,6.745-3.017,6.745-6.751v-46.56V75.56V40.683h2.471v29.423c0,2.364,1.952,4.275,4.348,4.275
		c2.404,0,4.35-1.912,4.35-4.275V36.261c0-0.038-0.006-0.089-0.006-0.126C272.926,36.086,272.932,36.031,272.932,35.985z"/>
</g>
<g>
	<path fill="#E56246" d="M272.621,23.114c0,6.019-4.887,10.904-10.904,10.904c-6.023,0-10.902-4.885-10.902-10.904
		c0-6.02,4.878-10.9,10.902-10.9C267.734,12.214,272.621,17.094,272.621,23.114z"/>
	<path fill="#E56246" d="M288.871,41.032c0-2.578-1.86-4.667-4.163-4.667h-44.481c-2.307,0-4.171,2.089-4.171,4.667
		c0,0.047,0.006,0.089,0.006,0.146c0,0.041-0.006,0.086-0.006,0.13v33.52c0,2.338,1.903,4.236,4.243,4.236
		c2.349,0,4.246-1.898,4.246-4.236V45.685h2.497v34.541v6.865v46.117c0,3.703,2.994,6.692,6.685,6.692
		c3.689,0,6.687-2.989,6.687-6.692V87.091h4.029v46.117c0,3.703,2.995,6.692,6.685,6.692c3.697,0,6.686-2.989,6.686-6.692V87.091
		v-6.865V45.685h2.449v29.142c0,2.338,1.928,4.236,4.308,4.236s4.301-1.898,4.301-4.236v-33.52c0-0.043-0.004-0.089-0.004-0.13
		C288.867,41.13,288.871,41.079,288.871,41.032z"/>
</g>
<g>
	<path fill="#636467" d="M240.3,74.66l-3.499-32.587c-0.213-2.012-1.726-3.51-3.536-3.642c-0.354-0.14-0.736-0.214-1.134-0.214
		h-39.677c-0.989,0-1.885,0.478-2.556,1.254c-1.088,0.608-1.891,1.768-2.052,3.202l-3.618,32.566
		c-0.25,2.276,1.231,4.345,3.304,4.619c2.074,0.276,3.958-1.337,4.214-3.609l3.207-28.907h3.248l-5.124,52.503h8.949v33.177
		c0,3.618,1.963,6.548,4.39,6.548c2.43,0,4.395-2.93,4.395-6.548V99.845h4.338v33.177c0,3.618,1.961,6.548,4.382,6.548
		c2.428,0,4.39-2.93,4.39-6.548V99.845h7.522l-5.123-52.503h3.31l3.043,28.307c0.238,2.274,2.148,3.897,4.257,3.622
		C239.034,78.995,240.545,76.932,240.3,74.66z"/>
	<path fill="#636467" d="M222.938,24.193c0,5.896-4.777,10.674-10.67,10.674c-5.9,0-10.674-4.778-10.674-10.674
		c0-5.896,4.774-10.671,10.674-10.671C218.161,13.522,222.938,18.298,222.938,24.193z"/>
</g>
<path fill="#3997D3" d="M309.516,52.364c-0.75-1.546-1.789-3.007-3.146-4.29c-1.361-1.281-3.05-2.438-5.332-3.232
	c-2.282-0.789-4.324-0.922-6.183-0.75c-1.863,0.173-3.565,0.686-5.116,1.424c-0.35-0.745-0.728-1.474-1.067-2.22
	c1.831-0.867,3.818-1.477,5.98-1.658c1.633-0.138,3.332-0.09,5.236,0.324c0.321,0.071,0.644,0.145,0.965,0.239
	c3.102,0.899,5.484,2.415,7.232,4.087c1.353,1.3,2.467,2.753,3.304,4.327c0.082,0.154,0.175,0.331,0.268,0.513
	c0.018,0.046,0.082,0.159,0.082,0.168c-0.009,0.035-0.226,0.108-0.281,0.131C310.818,51.745,310.157,52.079,309.516,52.364"/>
<path fill="#3997D3" d="M305.095,54.524c-0.515-1.024-1.196-2.001-2.107-2.859c-0.91-0.856-2.032-1.633-3.546-2.155
	c-1.505-0.524-2.898-0.633-4.128-0.509c-1.246,0.129-2.392,0.451-3.413,0.957c-0.367-0.733-0.718-1.474-1.077-2.206
	c1.238-0.628,2.614-1.025,4.096-1.184c1.477-0.166,3.082-0.06,4.89,0.471c1.008,0.299,1.974,0.759,2.72,1.205
	c2.106,1.251,3.523,2.889,4.513,4.709c0.041,0.074,0.088,0.149,0.138,0.246c0.032,0.062,0.124,0.242,0.12,0.249
	c-0.01,0.034-0.248,0.122-0.28,0.135C306.365,53.9,305.749,54.22,305.095,54.524"/>
<path fill="#3997D3" d="M302.865,55.601c-0.732,0.377-1.474,0.72-2.214,1.076c-0.532-0.999-1.324-1.99-2.824-2.509
	c-1.5-0.521-2.742-0.244-3.777,0.229c-0.354-0.743-0.731-1.474-1.072-2.224c1.491-0.674,3.212-1.062,5.327-0.435
	c1.234,0.363,2.2,0.989,2.903,1.635C301.944,54.052,302.482,54.813,302.865,55.601"/>
<g>
	<g>
		<g>
			<g>
				<g>
					<path fill="#E6E7E8" d="M298.034,62.112c1.615,0.57,2.48,2.357,1.91,3.982l-4.124,11.794l-6.634-2.319l0.494-1.416l5.322-5.797
						l-1.464-0.513l1.844-5.284l0.428-1.226L298.034,62.112z"/>
					<path fill="#E6E7E8" d="M295.81,61.333l-0.428,1.226l-5.322,5.797l1.464,0.513l-1.844,5.284l-0.494,1.416l-5.161-1.806
						l4.125-11.794c0.57-1.635,2.356-2.49,3.973-1.92L295.81,61.333z"/>
					<polygon fill="#3997D3" points="295.382,62.559 293.539,67.843 292.065,67.33 291.524,68.87 290.06,68.356 					"/>
					<polygon fill="#3997D3" points="295.002,68.356 289.68,74.154 291.524,68.87 292.997,69.383 293.539,67.843 					"/>
					<polygon fill="#3997D3" points="293.539,67.843 292.997,69.383 291.524,68.87 292.065,67.33 					"/>
					<path fill="#424143" d="M290.801,82.754l-5.893-2.062c-3.26-1.141-4.979-4.705-3.839-7.964l4.124-11.794
						c1.141-3.26,4.705-4.98,7.965-3.84l5.901,2.062c3.26,1.141,4.971,4.704,3.83,7.964l-4.125,11.794
						C297.625,82.175,294.061,83.895,290.801,82.754z M290.412,79.305c0.295-0.836-0.152-1.758-0.998-2.053
						c-0.836-0.295-1.748,0.152-2.053,0.988c-0.285,0.846,0.152,1.758,0.998,2.053C289.195,80.587,290.117,80.15,290.412,79.305z
						 M289.186,75.57l6.634,2.319l4.124-11.794c0.57-1.625-0.295-3.412-1.91-3.982l-2.224-0.779l-3.688-1.283
						c-1.616-0.57-3.402,0.285-3.973,1.92l-4.125,11.794L289.186,75.57z"/>
				</g>
			</g>
		</g>
	</g>
</g>
<g>
	<path fill="#E66246" d="M178.444,431.396c-1.286-2.456-3.536-2.539-4.999-0.185l-17.54,28.217c-1.463,2.354-0.393,4.335,2.378,4.4
		l32.58,0.78c2.771,0.065,3.986-1.889,2.7-4.345L178.444,431.396z"/>
</g>
<g>
	<path fill="#E66246" d="M372.516,161.561c0.648,2.695,2.811,3.324,4.804,1.397l23.887-23.09c1.993-1.927,1.438-4.108-1.233-4.848
		l-31.408-8.697c-2.672-0.74-4.326,0.86-3.678,3.555L372.516,161.561z"/>
</g>
<g>
	<path d="M62.767,216.148c3.178,2.046,6.382,4.032,9.611,5.959c-0.266,0.987-0.523,1.978-0.771,2.972
		c-5.119,0.132-10.253,0.385-15.394,0.759c0.26-1.161,0.532-2.318,0.813-3.471c3.49-0.144,6.975-0.233,10.453-0.271
		c-3.007-1.763-5.994-3.578-8.959-5.44c0.308-1.104,0.625-2.207,0.953-3.305c3.491,0.04,6.973,0.132,10.446,0.276
		c-2.927-1.875-5.833-3.796-8.715-5.764c0.373-1.12,0.756-2.234,1.148-3.345c4.162,3.034,8.379,5.964,12.647,8.79
		c-0.316,0.967-0.625,1.938-0.925,2.912C70.314,216.131,66.545,216.107,62.767,216.148z"/>
	<path d="M64.688,202.686c-0.149-0.365-0.137-0.782,0.038-1.247c0.186-0.493,0.456-0.827,0.811-1.004
		c0.353-0.176,0.714-0.192,1.083-0.049c0.367,0.142,0.623,0.396,0.765,0.759c0.142,0.364,0.124,0.781-0.053,1.251
		c-0.178,0.472-0.439,0.796-0.787,0.976c-0.346,0.18-0.704,0.202-1.076,0.066C65.097,203.303,64.836,203.053,64.688,202.686z
		 M77.997,204.895c-3.072-1.187-6.146-2.373-9.218-3.559c-0.361,0.934-0.713,1.871-1.059,2.812c3.092,1.136,6.184,2.271,9.276,3.406
		C77.322,206.665,77.656,205.778,77.997,204.895z"/>
	<path d="M71.801,196.77c-0.373-0.98-0.34-1.981,0.102-2.989c0.141-0.32,0.299-0.612,0.476-0.878c0.765,0.513,1.532,1.024,2.3,1.533
		c-0.403,0.198-0.744,0.587-1.017,1.168c-0.243,0.678-0.029,1.421,0.643,2.218c1.865,0.785,3.73,1.569,5.595,2.354
		c-0.367,0.872-0.726,1.746-1.078,2.625c-2.965-1.189-5.93-2.378-8.896-3.568c0.281-0.965,0.57-1.927,0.867-2.887
		C71.128,196.486,71.464,196.628,71.801,196.77z"/>
	<path d="M77.374,193.637c-1.317-0.598-2.196-1.533-2.615-2.82c-0.417-1.286-0.285-2.647,0.406-4.054
		c0.69-1.407,1.669-2.311,2.908-2.703c1.241-0.394,2.501-0.241,3.781,0.434c0.292,0.153,0.583,0.306,0.874,0.46
		c-1.105,2.1-2.17,4.226-3.191,6.373c0.505,0.163,0.979,0.124,1.424-0.119c0.446-0.242,0.787-0.607,1.026-1.097
		c0.421-0.858,0.568-1.735,0.441-2.646c0.717-0.25,1.436-0.494,2.153-0.731c0.53,1.12,0.334,2.565-0.556,4.377
		c-0.652,1.33-1.585,2.226-2.822,2.701C79.969,194.285,78.693,194.236,77.374,193.637z M78.256,186.639
		c-0.453,0.243-0.805,0.619-1.053,1.123c-0.248,0.505-0.33,1.014-0.245,1.521c0.083,0.509,0.365,0.875,0.84,1.1
		c0.599-1.258,1.213-2.509,1.841-3.752C79.171,186.395,78.709,186.395,78.256,186.639z"/>
	<path d="M87.27,184.833c-4.337-2.354-8.674-4.709-13.011-7.065c0.488-0.898,0.984-1.793,1.486-2.684
		c4.298,2.427,8.595,4.854,12.893,7.28C88.175,183.183,87.719,184.005,87.27,184.833z"/>
	<path d="M85.579,177.778c-1.25-0.729-2.029-1.747-2.318-3.067c-0.287-1.318-0.02-2.656,0.808-3.984
		c0.827-1.326,1.89-2.124,3.162-2.388c1.273-0.263,2.512,0.017,3.716,0.817c0.274,0.181,0.549,0.364,0.823,0.545
		c-1.311,1.975-2.581,3.977-3.81,6.004c0.486,0.213,0.961,0.223,1.428,0.027c0.467-0.194,0.842-0.522,1.13-0.984
		c0.503-0.809,0.737-1.665,0.702-2.583c0.738-0.174,1.477-0.343,2.214-0.507c0.416,1.167,0.076,2.584-0.99,4.292
		c-0.783,1.254-1.798,2.048-3.075,2.393C88.094,178.687,86.83,178.507,85.579,177.778z M87.155,170.921
		c-0.475,0.195-0.863,0.533-1.16,1.009c-0.296,0.477-0.428,0.973-0.395,1.485c0.033,0.513,0.276,0.906,0.726,1.179
		c0.722-1.188,1.458-2.368,2.207-3.539C88.088,170.771,87.629,170.725,87.155,170.921z"/>
	<path d="M91.84,159.73c0.508-0.313,1.083-0.531,1.722-0.653c0.135,0.788,0.276,1.572,0.422,2.353
		c-0.711,0.069-1.276,0.396-1.693,0.979c-0.413,0.576-0.585,1.034-0.52,1.371c0.064,0.337,0.248,0.465,0.549,0.386
		c0.301-0.078,0.707-0.367,1.222-0.861c0.679-0.788,1.405-1.309,2.171-1.561c0.768-0.251,1.614-0.027,2.542,0.667
		c0.75,0.56,1.1,1.297,1.066,2.209c-0.035,0.912-0.341,1.771-0.921,2.583c-0.553,0.776-1.116,1.351-1.698,1.722
		c-0.581,0.371-1.184,0.621-1.813,0.75c-0.183-0.757-0.359-1.518-0.533-2.28c0.703-0.079,1.367-0.491,1.999-1.235
		c0.453-0.638,0.649-1.118,0.583-1.449c-0.066-0.329-0.245-0.501-0.54-0.516c-0.293-0.014-0.748,0.328-1.354,1.033
		c-0.561,0.63-1.201,1.117-1.929,1.465c-0.728,0.347-1.55,0.212-2.47-0.414c-0.842-0.574-1.259-1.348-1.235-2.324
		c0.023-0.978,0.289-1.824,0.792-2.53C90.785,160.61,91.333,160.045,91.84,159.73z"/>
	<path d="M97.886,151.927c0.524-0.285,1.11-0.472,1.755-0.559c0.092,0.792,0.19,1.584,0.292,2.373
		c-0.713,0.03-1.297,0.326-1.744,0.884c-0.443,0.554-0.64,1.001-0.594,1.341c0.045,0.34,0.221,0.478,0.526,0.415
		c0.305-0.061,0.726-0.326,1.268-0.793c0.722-0.751,1.476-1.231,2.254-1.441c0.781-0.211,1.614,0.061,2.503,0.803
		c0.717,0.6,1.027,1.355,0.943,2.264c-0.085,0.909-0.438,1.75-1.062,2.531c-0.595,0.745-1.188,1.288-1.789,1.626
		c-0.601,0.339-1.217,0.556-1.852,0.651c-0.141-0.766-0.277-1.534-0.407-2.306c0.706-0.041,1.391-0.417,2.062-1.125
		c0.487-0.612,0.709-1.082,0.661-1.415c-0.047-0.332-0.217-0.515-0.51-0.545s-0.766,0.286-1.409,0.958
		c-0.593,0.599-1.261,1.05-2.006,1.358c-0.746,0.307-1.56,0.127-2.444-0.548c-0.81-0.619-1.183-1.413-1.106-2.388
		c0.077-0.976,0.389-1.806,0.93-2.483C96.783,152.747,97.362,152.213,97.886,151.927z"/>
	<path d="M112.515,149.764c-3.613-3.368-7.225-6.735-10.837-10.103c1.44-1.545,2.908-3.067,4.404-4.565
		c3.645-3.635,7.247-3.524,10.571,0.116c3.337,3.651,3.237,7.034-0.086,10.35C115.191,146.941,113.841,148.342,112.515,149.764z
		 M114.478,143.478c1.924-1.932,1.903-3.942-0.135-6.096c-2.042-2.139-4.121-2.224-6.16-0.187c-0.707,0.708-1.408,1.423-2.104,2.143
		c2.132,2.06,4.264,4.119,6.396,6.179C113.138,144.832,113.805,144.153,114.478,143.478z"/>
	<path d="M118.292,131.998c0.484-1.485,1.413-2.82,2.782-3.974c0.985-0.831,1.985-1.226,2.982-1.187
		c0.997,0.038,1.905,0.577,2.728,1.602c1.237,1.539,2.474,3.078,3.711,4.617c-0.74,0.593-1.475,1.194-2.203,1.8
		c-0.168-0.202-0.337-0.406-0.505-0.607c-0.301,0.936-0.699,1.616-1.204,2.046c-1.028,0.878-1.973,1.337-2.852,1.368
		c-0.879,0.031-1.65-0.316-2.308-1.051c-0.615-0.686-0.921-1.518-0.908-2.496c0.014-0.979,0.582-1.961,1.71-2.926
		c0.519-0.443,1.238-0.792,2.154-1.041c-0.063-0.076-0.126-0.151-0.189-0.228c-0.472-0.547-1.162-0.491-2.056,0.18
		c-0.972,0.823-1.589,1.622-1.857,2.382C119.618,132.319,118.956,132.157,118.292,131.998z M126.399,132.579
		c-0.237-0.286-0.475-0.572-0.712-0.857c-0.538-0.212-1.21,0.016-2.004,0.691c-0.869,0.912-1.062,1.697-0.596,2.335
		c0.567,0.546,1.336,0.437,2.317-0.313C126.185,133.771,126.519,133.155,126.399,132.579z"/>
	<path d="M136.159,128.694c-0.93,0.686-1.849,0.988-2.771,0.905c-0.921-0.083-1.686-0.51-2.29-1.292
		c-0.87-1.128-1.741-2.256-2.611-3.383c-0.421,0.324-0.841,0.652-1.259,0.98c-0.46-0.584-0.919-1.168-1.379-1.754
		c0.423-0.332,0.849-0.664,1.275-0.993c-0.545-0.706-1.09-1.412-1.635-2.118c0.749-0.704,1.507-1.401,2.271-2.094
		c0.592,0.794,1.185,1.588,1.776,2.382c0.432-0.322,0.867-0.642,1.301-0.961c0.439,0.601,0.878,1.2,1.317,1.8
		c-0.43,0.314-0.858,0.631-1.286,0.949c0.773,1.036,1.546,2.073,2.318,3.11c0.314,0.422,0.63,0.649,0.942,0.683
		c0.313,0.034,0.616-0.056,0.912-0.273c0.088-0.064,0.271-0.252,0.55-0.562c0.553,0.415,1.104,0.832,1.656,1.251
		C137.031,127.864,136.668,128.319,136.159,128.694z"/>
	<path d="M134.084,119.48c0.656-1.428,1.741-2.658,3.243-3.66c1.083-0.721,2.129-1.007,3.12-0.861s1.836,0.781,2.54,1.892
		c1.057,1.668,2.113,3.335,3.169,5.003c-0.81,0.513-1.614,1.032-2.414,1.557c-0.145-0.22-0.289-0.44-0.434-0.66
		c-0.411,0.9-0.887,1.535-1.441,1.91c-1.13,0.765-2.126,1.119-3.009,1.055c-0.881-0.064-1.61-0.493-2.183-1.296
		c-0.534-0.751-0.744-1.612-0.617-2.587c0.127-0.974,0.809-1.892,2.049-2.731c0.57-0.385,1.329-0.656,2.273-0.804
		c-0.054-0.083-0.108-0.165-0.162-0.247c-0.409-0.597-1.104-0.615-2.078-0.043c-1.065,0.715-1.776,1.445-2.131,2.174
		C135.371,119.944,134.729,119.712,134.084,119.48z M142.117,120.938c-0.205-0.311-0.409-0.621-0.612-0.931
		c-0.512-0.271-1.21-0.116-2.083,0.472c-0.975,0.816-1.259,1.576-0.868,2.264c0.503,0.606,1.284,0.58,2.351-0.061
		C141.763,122.102,142.17,121.525,142.117,120.938z"/>
</g>
<g>
	<path d="M69.636,347.519c-3.857,0.976-7.716,1.951-11.573,2.925c0.71,2.812,1.486,5.597,2.326,8.357
		c-0.873,0.265-1.747,0.531-2.622,0.797c-1.171-3.854-2.22-7.756-3.143-11.703c4.764-1.11,9.528-2.226,14.292-3.338
		C69.147,345.548,69.387,346.536,69.636,347.519z"/>
	<path d="M60.065,362.452c0.582-1.303,1.557-2.158,2.907-2.582c1.357-0.427,2.644-0.291,3.863,0.385
		c1.22,0.677,2.066,1.716,2.562,3.139c0.496,1.419,0.478,2.759-0.058,4.042c-0.538,1.284-1.46,2.189-2.787,2.7
		c-1.328,0.507-2.625,0.448-3.886-0.209c-1.263-0.656-2.167-1.745-2.69-3.248C59.451,365.172,59.483,363.755,60.065,362.452z
		 M62.208,365.887c0.271,0.777,0.729,1.321,1.372,1.63c0.642,0.31,1.312,0.334,2.012,0.08c0.698-0.256,1.195-0.707,1.5-1.346
		c0.301-0.641,0.321-1.337,0.055-2.097c-0.26-0.748-0.707-1.276-1.339-1.59c-0.636-0.315-1.307-0.356-2.012-0.121
		c-0.707,0.231-1.217,0.668-1.527,1.31C61.958,364.399,61.936,365.111,62.208,365.887z"/>
	<path d="M64.271,374.366c0.352-1.312,1.145-2.2,2.359-2.675c0.304-0.119,0.607-0.237,0.911-0.358
		c1.213-0.475,2.392-0.371,3.537,0.29c1.144,0.662,1.98,1.622,2.524,2.894c0.649,1.518,0.7,2.991,0.148,4.457
		c-0.733-0.433-1.465-0.866-2.195-1.311c0.283-0.812,0.274-1.567-0.028-2.272c-0.273-0.644-0.749-1.103-1.433-1.388
		c-0.684-0.283-1.356-0.296-2.021-0.025c-0.665,0.274-1.145,0.738-1.434,1.401c-0.291,0.661-0.282,1.361,0.029,2.087
		c0.311,0.727,0.866,1.27,1.663,1.621c-0.16,0.851-0.313,1.703-0.46,2.561c-1.485-0.589-2.587-1.692-3.272-3.298
		C64.029,377.013,63.92,375.677,64.271,374.366z"/>
	<path d="M75.151,380.833c1.269,0.856,2.274,2.043,3.047,3.573c0.556,1.103,0.715,2.119,0.475,3.063
		c-0.242,0.945-0.934,1.728-2.085,2.339c-1.727,0.921-3.454,1.841-5.182,2.758c-0.475-0.894-0.945-1.792-1.407-2.694
		c0.233-0.12,0.465-0.239,0.698-0.358c-0.867-0.547-1.457-1.145-1.773-1.778c-0.643-1.301-0.862-2.404-0.669-3.295
		c0.19-0.891,0.737-1.539,1.624-1.951c0.827-0.386,1.707-0.426,2.64-0.131c0.934,0.296,1.714,1.102,2.369,2.424
		c0.3,0.607,0.47,1.382,0.513,2.328c0.087-0.044,0.175-0.091,0.262-0.135c0.633-0.339,0.727-1.012,0.292-2.024
		c-0.558-1.12-1.158-1.91-1.813-2.371C74.475,381.993,74.811,381.412,75.151,380.833z M72.614,388.534
		c0.327-0.167,0.654-0.337,0.982-0.504c0.319-0.481,0.237-1.19-0.235-2.139c-0.681-1.079-1.383-1.487-2.12-1.21
		c-0.667,0.399-0.751,1.197-0.237,2.38C71.483,388.024,72.024,388.514,72.614,388.534z"/>
	<path d="M75.127,399.218c-0.623-1.061-0.839-2.065-0.654-2.995c0.185-0.932,0.71-1.634,1.564-2.11
		c1.233-0.688,2.466-1.377,3.7-2.063c-0.253-0.455-0.506-0.909-0.755-1.368c0.647-0.354,1.294-0.704,1.941-1.059
		c0.246,0.452,0.496,0.903,0.746,1.35c0.772-0.43,1.543-0.861,2.315-1.29c0.547,0.78,1.102,1.556,1.661,2.324
		c-0.849,0.493-1.699,0.984-2.549,1.478c0.258,0.444,0.518,0.886,0.78,1.331c-0.634,0.373-1.27,0.749-1.904,1.125
		c-0.265-0.449-0.528-0.897-0.789-1.348c-1.108,0.642-2.216,1.286-3.327,1.929c-0.452,0.261-0.709,0.549-0.771,0.862
		c-0.064,0.312,0,0.632,0.193,0.961c0.056,0.097,0.231,0.306,0.519,0.626c-0.456,0.516-0.909,1.033-1.361,1.552
		C75.904,400.235,75.468,399.801,75.127,399.218z"/>
	<path d="M88.334,395.733c0.364,0.093,0.669,0.331,0.91,0.717c0.254,0.41,0.344,0.797,0.264,1.165
		c-0.079,0.366-0.282,0.656-0.612,0.866c-0.33,0.213-0.679,0.274-1.045,0.185c-0.365-0.091-0.676-0.337-0.929-0.742
		c-0.252-0.403-0.339-0.792-0.258-1.159c0.078-0.367,0.287-0.654,0.62-0.857C87.619,395.701,87.968,395.646,88.334,395.733z
		 M78.605,404.913c2.754-1.753,5.51-3.507,8.264-5.259c-0.515-0.811-1.023-1.621-1.525-2.438c-2.782,1.708-5.565,3.414-8.347,5.122
		C77.526,403.2,78.063,404.057,78.605,404.913z"/>
	<path d="M81.682,407.191c0.216-1.402,0.929-2.482,2.114-3.255c1.192-0.777,2.465-0.996,3.813-0.684
		c1.351,0.312,2.439,1.075,3.289,2.3c0.853,1.222,1.189,2.507,1.011,3.883c-0.177,1.372-0.825,2.49-1.968,3.338
		c-1.141,0.847-2.404,1.139-3.792,0.853c-1.385-0.287-2.543-1.08-3.443-2.376C81.807,409.953,81.466,408.592,81.682,407.191z
		 M84.646,409.889c0.464,0.667,1.05,1.063,1.749,1.185c0.699,0.122,1.351-0.036,1.955-0.471c0.604-0.433,0.964-0.999,1.087-1.693
		c0.122-0.693-0.043-1.363-0.5-2.019c-0.447-0.642-1.015-1.026-1.707-1.153c-0.694-0.125-1.349,0.013-1.966,0.43
		c-0.617,0.414-0.993,0.971-1.122,1.669C84.013,408.534,84.18,409.219,84.646,409.889z"/>
	<path d="M93.998,415.895c-1.632,1.28-3.263,2.562-4.895,3.84c-0.625-0.794-1.243-1.596-1.855-2.401
		c2.523-1.915,5.046-3.829,7.57-5.741c0.657,0.706,1.32,1.405,1.988,2.099c-0.233,0.185-0.466,0.368-0.699,0.549
		c0.891,0.186,1.63,0.646,2.228,1.386c0.817,1.013,1.161,2.012,1.028,3.021c-0.134,1.011-0.567,1.834-1.314,2.468
		c-1.543,1.307-3.085,2.612-4.63,3.918c-0.654-0.773-1.302-1.549-1.943-2.333c1.388-1.137,2.776-2.275,4.164-3.41
		c0.504-0.412,0.786-0.869,0.844-1.363c0.058-0.497-0.125-1.022-0.547-1.583C95.529,415.899,94.885,415.749,93.998,415.895z"/>
	<path d="M100.359,432.778c3.552-3.366,7.104-6.738,10.657-10.106c1.325,1.397,2.675,2.775,4.049,4.128
		c3.321,3.256,3.444,6.61,0.163,10.261c-3.261,3.634-6.826,3.774-10.468,0.204C103.268,435.792,101.8,434.297,100.359,432.778z
		 M106.813,435.18c2.042,1.995,4.103,1.891,6.109-0.248c2.001-2.15,2.004-4.14,0.077-6.034c-0.673-0.662-1.34-1.327-2.001-2.003
		c-2.095,2.061-4.191,4.121-6.289,6.178C105.406,433.782,106.106,434.483,106.813,435.18z"/>
	<path d="M118.553,438.317c1.508,0.277,2.91,0.963,4.238,2.062c0.957,0.791,1.515,1.663,1.678,2.626
		c0.161,0.967-0.155,1.961-0.964,2.984c-1.212,1.534-2.424,3.072-3.637,4.609c-0.802-0.633-1.598-1.274-2.387-1.92
		c0.164-0.201,0.33-0.404,0.494-0.605c-1.016-0.156-1.799-0.47-2.346-0.928c-1.116-0.937-1.763-1.86-1.945-2.754
		c-0.183-0.895,0.056-1.708,0.702-2.442c0.604-0.684,1.395-1.073,2.368-1.179c0.974-0.099,2.017,0.326,3.151,1.279
		c0.523,0.437,0.989,1.081,1.413,1.933c0.064-0.077,0.125-0.151,0.186-0.229c0.443-0.562,0.256-1.219-0.551-1.975
		c-0.964-0.806-1.833-1.29-2.621-1.451C118.403,439.654,118.476,438.983,118.553,438.317z M119.338,446.404
		c0.233-0.284,0.465-0.571,0.698-0.854c0.098-0.57-0.266-1.191-1.083-1.872c-1.062-0.719-1.869-0.812-2.433-0.263
		c-0.451,0.634-0.207,1.399,0.746,2.282C118.096,446.388,118.79,446.622,119.338,446.404z"/>
	<path d="M126.006,455.238c-1.009-0.73-1.618-1.569-1.827-2.502c-0.212-0.931-0.016-1.784,0.575-2.565
		c0.853-1.124,1.708-2.249,2.56-3.376c-0.419-0.316-0.835-0.637-1.253-0.956c0.451-0.584,0.902-1.168,1.352-1.751
		c0.411,0.318,0.824,0.63,1.236,0.946c0.534-0.704,1.069-1.408,1.602-2.113c0.822,0.501,1.648,0.993,2.479,1.478
		c-0.581,0.794-1.161,1.585-1.74,2.378c0.419,0.306,0.84,0.613,1.262,0.917c-0.43,0.6-0.859,1.197-1.29,1.795
		c-0.428-0.305-0.854-0.618-1.278-0.928c-0.758,1.035-1.515,2.069-2.271,3.102c-0.31,0.422-0.428,0.788-0.357,1.104
		c0.07,0.315,0.26,0.581,0.572,0.81c0.093,0.066,0.339,0.188,0.735,0.367c-0.208,0.66-0.413,1.316-0.616,1.976
		C127.139,455.864,126.558,455.636,126.006,455.238z"/>
	<path d="M134.082,450.406c1.538,0.112,3.019,0.646,4.475,1.598c1.048,0.685,1.709,1.491,1.984,2.436s0.076,1.972-0.613,3.082
		c-1.031,1.659-2.064,3.322-3.097,4.985c-0.876-0.546-1.747-1.098-2.613-1.653c0.142-0.221,0.284-0.438,0.424-0.659
		c-1.033-0.046-1.855-0.271-2.454-0.671c-1.225-0.812-1.978-1.664-2.263-2.533c-0.287-0.872-0.144-1.709,0.417-2.512
		c0.522-0.748,1.267-1.219,2.228-1.43c0.962-0.209,2.052,0.106,3.296,0.933c0.572,0.381,1.116,0.97,1.64,1.772
		c0.053-0.081,0.105-0.163,0.158-0.246c0.377-0.611,0.112-1.246-0.782-1.911c-1.059-0.696-1.982-1.087-2.788-1.162
		C134.087,451.757,134.082,451.083,134.082,450.406z M135.81,458.384c0.198-0.308,0.399-0.619,0.599-0.928
		c0.031-0.581-0.406-1.157-1.301-1.751c-1.146-0.601-1.963-0.605-2.463,0.003c-0.375,0.683-0.042,1.418,1.011,2.196
		C134.564,458.501,135.286,458.662,135.81,458.384z"/>
</g>
<g>
	<path d="M428.03,133.862c-1.706-1.699-2.56-3.827-2.56-6.384c0.008-2.502,0.863-4.606,2.565-6.313s3.812-2.56,6.331-2.56
		c2.542,0,4.724,0.792,6.545,2.376l-2.376,2.601c-1.211-0.95-2.602-1.425-4.169-1.425c-1.6,0.008-2.889,0.507-3.866,1.497
		c-0.979,0.99-1.467,2.257-1.467,3.801c0.008,1.655,0.503,2.97,1.484,3.943c0.982,0.974,2.272,1.461,3.872,1.461
		s2.981-0.471,4.146-1.413l2.376,2.601c-1.813,1.584-3.995,2.375-6.545,2.375C431.848,136.414,429.736,135.56,428.03,133.862z"/>
	<path d="M451.636,132.205v-7.673h3.326v11.89h-3.326v-1.081c-0.8,0.713-1.75,1.069-2.851,1.069c-1.504,0-2.652-0.456-3.444-1.366
		s-1.188-1.96-1.188-3.147v-7.364h3.325v6.533c0,0.792,0.198,1.406,0.595,1.841c0.396,0.436,0.993,0.665,1.793,0.688
		C450.556,133.547,451.146,133.083,451.636,132.205z"/>
	<path d="M464.547,124.876c0.618,0.27,1.196,0.669,1.734,1.2l-1.853,2.091c-0.539-0.642-1.212-0.962-2.02-0.962
		c-0.8,0-1.334,0.148-1.604,0.445c-0.27,0.297-0.27,0.566,0,0.808c0.27,0.241,0.804,0.441,1.604,0.6
		c1.18,0.111,2.146,0.447,2.898,1.01c0.752,0.562,1.128,1.54,1.128,2.934c0,1.125-0.443,1.996-1.33,2.613s-1.92,0.926-3.101,0.926
		c-1.124,0-2.061-0.16-2.809-0.481s-1.392-0.75-1.931-1.289l1.842-2.079c0.538,0.641,1.373,1.014,2.506,1.116
		c0.91,0,1.498-0.148,1.764-0.445s0.305-0.594,0.119-0.891c-0.187-0.297-0.813-0.497-1.883-0.6
		c-0.966-0.111-1.851-0.408-2.654-0.891s-1.206-1.394-1.206-2.732c0-1.228,0.457-2.164,1.372-2.809
		c0.914-0.646,1.854-0.968,2.821-0.968C463.063,124.472,463.93,124.607,464.547,124.876z"/>
	<path d="M474.229,136.421c-1.347,0-2.415-0.376-3.207-1.128c-0.792-0.752-1.188-1.722-1.188-2.91v-5.143h-1.782v-2.684h1.782
		v-3.219l3.337-0.356v3.575h1.782v2.684h-1.782v4.668c0,0.634,0.133,1.079,0.398,1.336c0.265,0.257,0.607,0.386,1.027,0.386
		c0.127,0,0.424-0.051,0.891-0.154l0.701,2.388C475.619,136.235,474.965,136.421,474.229,136.421z"/>
	<path d="M479.253,134.8c-1.156-1.16-1.734-2.6-1.734-4.318c0-1.726,0.578-3.167,1.734-4.323c1.155-1.156,2.597-1.734,4.323-1.734
		s3.167,0.578,4.323,1.734s1.734,2.597,1.734,4.323c0,1.727-0.578,3.167-1.734,4.324s-2.597,1.734-4.323,1.734
		S480.409,135.96,479.253,134.8z M483.565,133.666c0.902,0,1.635-0.303,2.197-0.908c0.562-0.606,0.843-1.36,0.843-2.263
		c0-0.902-0.28-1.659-0.843-2.269c-0.562-0.609-1.299-0.915-2.209-0.915c-0.896,0-1.624,0.305-2.186,0.915
		c-0.562,0.61-0.844,1.366-0.844,2.269c0,0.903,0.281,1.657,0.844,2.263C481.929,133.363,482.662,133.666,483.565,133.666z"/>
	<path d="M495.168,128.82v7.602h-3.325v-11.533l3.325-0.356v1.057c0.744-0.697,1.694-1.045,2.851-1.045
		c1.505,0,2.653,0.456,3.445,1.366c0.87-0.911,2.177-1.366,3.919-1.366c1.505,0,2.653,0.456,3.445,1.366
		c0.791,0.911,1.188,1.959,1.188,3.147v7.364h-3.326v-6.533c0-0.792-0.178-1.406-0.534-1.841c-0.356-0.435-0.935-0.665-1.734-0.689
		c-0.657,0.048-1.228,0.483-1.71,1.307c-0.04,0.246-0.06,0.495-0.06,0.749v7.008h-3.326v-6.533c0-0.792-0.178-1.406-0.534-1.841
		c-0.356-0.435-0.935-0.665-1.734-0.689C496.329,127.406,495.699,127.893,495.168,128.82z"/>
	<path d="M512.321,130.482c0-1.742,0.554-3.167,1.662-4.276c1.109-1.108,2.534-1.663,4.276-1.663s3.128,0.555,4.157,1.663
		c1.029,1.109,1.544,2.534,1.544,4.276v1.188h-8.195c0.079,0.633,0.356,1.128,0.831,1.484c0.476,0.356,1.029,0.535,1.663,0.535
		c1.108,0,2.099-0.316,2.97-0.95l1.9,1.9c-0.871,1.188-2.494,1.782-4.87,1.782c-1.742,0-3.167-0.554-4.276-1.663
		C512.875,133.65,512.321,132.225,512.321,130.482z M519.922,127.81c-0.476-0.356-1.029-0.535-1.663-0.535s-1.188,0.178-1.663,0.535
		c-0.475,0.356-0.712,0.851-0.712,1.485h4.751C520.635,128.661,520.397,128.167,519.922,127.81z"/>
	<path d="M529.638,125.85c0.848-0.871,1.881-1.307,3.101-1.307c0.388,0,0.756,0.032,1.104,0.095l-0.522,3.278
		c-0.389-0.349-0.942-0.535-1.663-0.559c-0.808,0.056-1.48,0.642-2.02,1.758v7.305h-3.325v-11.533l3.325-0.356V125.85z"/>
	<path d="M410.421,165.612v-17.805l13.09-0.012v3.326h-9.526v3.801h7.139v3.314h-7.139v4.05h9.503v3.326H410.421z"/>
	<path d="M430.151,158.058v7.554h-3.326v-11.533l3.326-0.356v1.081c0.8-0.713,1.75-1.069,2.851-1.069
		c1.504,0,2.652,0.456,3.444,1.366s1.188,1.959,1.188,3.147v7.364h-3.325v-6.533c0-0.792-0.198-1.406-0.594-1.841
		c-0.396-0.435-0.994-0.665-1.794-0.689C431.232,156.597,430.642,157.1,430.151,158.058z"/>
	<path d="M451.637,154.091v10.571c0,1.663-0.495,3.053-1.484,4.169c-0.99,1.117-2.237,1.707-3.742,1.77l-0.712,0.071
		c-2.297-0.048-4.078-0.705-5.346-1.972l1.544-1.782c0.871,0.633,1.929,0.99,3.172,1.069c1.267,0,2.124-0.297,2.571-0.891
		c0.447-0.594,0.671-1.247,0.671-1.96v-0.594c-0.887,0.712-1.916,1.069-3.088,1.069c-1.821,0-3.188-0.535-4.098-1.604
		c-0.911-1.069-1.366-2.514-1.366-4.335c0-1.742,0.495-3.167,1.485-4.276c0.989-1.108,2.395-1.663,4.216-1.663
		c1.347,0.08,2.297,0.439,2.851,1.081v-1.081L451.637,154.091z M448.311,160.742v-1.924c-0.158-1.331-0.989-2.11-2.494-2.34
		c-1.979,0.071-3.049,1.057-3.207,2.958c0.079,2.217,1.148,3.365,3.207,3.444C447.322,162.643,448.153,161.93,448.311,160.742z"/>
	<path d="M454.239,155.16c1.505-0.95,3.247-1.425,5.227-1.425c1.426,0,2.554,0.396,3.385,1.188c0.832,0.792,1.248,1.979,1.248,3.563
		v7.126h-3.326v-0.95c-0.966,0.634-1.837,0.95-2.613,0.95c-1.584,0-2.771-0.336-3.563-1.01c-0.792-0.673-1.188-1.604-1.188-2.791
		c0-1.109,0.374-2.099,1.122-2.97c0.749-0.871,1.958-1.306,3.629-1.306c0.769,0,1.64,0.237,2.613,0.712v-0.356
		c-0.016-0.871-0.649-1.346-1.9-1.425c-1.426,0-2.534,0.238-3.326,0.713L454.239,155.16z M460.772,162.049v-1.342
		c-0.316-0.609-1.069-0.915-2.257-0.915c-1.426,0.159-2.178,0.713-2.257,1.663c0.079,0.942,0.831,1.453,2.257,1.532
		C459.703,162.987,460.456,162.675,460.772,162.049z"/>
	<path d="M478.28,154.091v10.571c0,1.663-0.495,3.053-1.484,4.169c-0.99,1.117-2.237,1.707-3.742,1.77l-0.712,0.071
		c-2.297-0.048-4.078-0.705-5.346-1.972l1.544-1.782c0.871,0.633,1.929,0.99,3.172,1.069c1.267,0,2.124-0.297,2.571-0.891
		c0.447-0.594,0.671-1.247,0.671-1.96v-0.594c-0.887,0.712-1.916,1.069-3.088,1.069c-1.821,0-3.188-0.535-4.098-1.604
		c-0.911-1.069-1.366-2.514-1.366-4.335c0-1.742,0.495-3.167,1.485-4.276c0.989-1.108,2.395-1.663,4.216-1.663
		c1.347,0.08,2.297,0.439,2.851,1.081v-1.081L478.28,154.091z M474.954,160.742v-1.924c-0.158-1.331-0.989-2.11-2.494-2.34
		c-1.979,0.071-3.049,1.057-3.207,2.958c0.079,2.217,1.148,3.365,3.207,3.444C473.964,162.643,474.795,161.93,474.954,160.742z"/>
	<path d="M480.026,159.673c0-1.742,0.554-3.167,1.662-4.276c1.109-1.108,2.534-1.663,4.276-1.663s3.128,0.555,4.157,1.663
		c1.029,1.109,1.544,2.534,1.544,4.276v1.188h-8.195c0.079,0.633,0.356,1.128,0.831,1.484c0.476,0.356,1.029,0.535,1.663,0.535
		c1.108,0,2.099-0.316,2.97-0.95l1.9,1.9c-0.871,1.188-2.494,1.782-4.87,1.782c-1.742,0-3.167-0.554-4.276-1.663
		C480.58,162.841,480.026,161.416,480.026,159.673z M487.627,157.001c-0.476-0.356-1.029-0.535-1.663-0.535
		s-1.188,0.178-1.663,0.535c-0.475,0.356-0.712,0.851-0.712,1.485h4.751C488.34,157.852,488.102,157.357,487.627,157.001z"/>
	<path d="M497.557,158.011v7.602h-3.325v-11.533l3.325-0.356v1.057c0.744-0.697,1.694-1.045,2.851-1.045
		c1.505,0,2.653,0.456,3.445,1.366c0.87-0.911,2.177-1.366,3.919-1.366c1.505,0,2.653,0.456,3.445,1.366
		c0.791,0.911,1.188,1.959,1.188,3.147v7.364h-3.326v-6.533c0-0.792-0.178-1.406-0.534-1.841c-0.356-0.435-0.935-0.665-1.734-0.689
		c-0.657,0.048-1.228,0.483-1.71,1.307c-0.04,0.246-0.06,0.495-0.06,0.749v7.008h-3.326v-6.533c0-0.792-0.178-1.406-0.534-1.841
		c-0.356-0.435-0.935-0.665-1.734-0.689C498.717,156.597,498.087,157.084,497.557,158.011z"/>
	<path d="M514.709,159.673c0-1.742,0.554-3.167,1.662-4.276c1.109-1.108,2.534-1.663,4.276-1.663s3.128,0.555,4.157,1.663
		c1.029,1.109,1.544,2.534,1.544,4.276v1.188h-8.195c0.079,0.633,0.356,1.128,0.831,1.484c0.476,0.356,1.029,0.535,1.663,0.535
		c1.108,0,2.099-0.316,2.97-0.95l1.9,1.9c-0.871,1.188-2.494,1.782-4.87,1.782c-1.742,0-3.167-0.554-4.276-1.663
		C515.263,162.841,514.709,161.416,514.709,159.673z M522.311,157.001c-0.476-0.356-1.029-0.535-1.663-0.535
		s-1.188,0.178-1.663,0.535c-0.475,0.356-0.712,0.851-0.712,1.485h4.751C523.024,157.852,522.786,157.357,522.311,157.001z"/>
	<path d="M532.288,158.058v7.554h-3.326v-11.533l3.326-0.356v1.081c0.8-0.713,1.75-1.069,2.851-1.069
		c1.504,0,2.652,0.456,3.444,1.366s1.188,1.959,1.188,3.147v7.364h-3.325v-6.533c0-0.792-0.198-1.406-0.594-1.841
		c-0.396-0.435-0.994-0.665-1.794-0.689C533.369,156.597,532.779,157.1,532.288,158.058z"/>
	<path d="M547.931,165.612c-1.347,0-2.415-0.376-3.207-1.128c-0.792-0.752-1.188-1.722-1.188-2.91v-5.143h-1.782v-2.684h1.782
		v-3.219l3.337-0.356v3.575h1.782v2.684h-1.782v4.668c0,0.634,0.133,1.079,0.398,1.336c0.265,0.257,0.607,0.386,1.027,0.386
		c0.127,0,0.424-0.051,0.891-0.154l0.701,2.388C549.321,165.426,548.667,165.612,547.931,165.612z"/>
</g>
<circle fill="#FAB9A0" cx="440.676" cy="266.402" r="40.729"/>
<circle fill="#B4DAAA" cx="452.742" cy="312.317" r="40.729"/>
<text transform="matrix(1 0 0 1 430.9683 315.5698)" font-family="'nevis-Bold'" font-size="12.9922">Partner</text>
<text transform="matrix(1 0 0 1 417.7954 264.2471)" font-family="'nevis-Bold'" font-size="12.7421">Partner</text>
<text transform="matrix(1 0.0058 -0.0058 1 483.6372 280.4214)" font-family="'nevis-Bold'" font-size="13.2939">Partner</text>
<g>
	<path fill="#E66246" d="M417.69,344.981c-2.274,1.585-2.073,3.827,0.446,4.982l30.201,13.847c2.52,1.155,4.35-0.155,4.066-2.913
		l-3.329-32.419c-0.283-2.758-2.375-3.717-4.649-2.132L417.69,344.981z"/>
</g>
<g>
	<path d="M130.771,279.089v-16.546h7.214c3.861,0,5.791,1.588,5.791,4.765c0,3.294-1.927,4.942-5.78,4.942h-3.916v6.839H130.771z
		 M134.08,269.162h4.633c1.331-0.022,2.015-0.629,2.052-1.82c-0.037-1.088-0.709-1.655-2.019-1.699h-4.666V269.162z"/>
	<path d="M148.806,269.272c0.787-0.809,1.746-1.213,2.879-1.213c0.36,0,0.702,0.029,1.026,0.088l-0.485,3.044
		c-0.36-0.324-0.875-0.497-1.544-0.519c-0.75,0.052-1.375,0.596-1.875,1.633v6.784h-3.089v-10.711l3.089-0.331V269.272z"/>
	<path d="M155.711,277.583c-1.074-1.077-1.61-2.414-1.61-4.009c0-1.604,0.537-2.941,1.61-4.016c1.074-1.073,2.412-1.61,4.015-1.61
		s2.941,0.537,4.015,1.61c1.074,1.074,1.611,2.412,1.611,4.016c0,1.603-0.537,2.941-1.611,4.015s-2.412,1.61-4.015,1.61
		S156.785,278.661,155.711,277.583z M159.716,276.53c0.838,0,1.518-0.281,2.041-0.844c0.522-0.562,0.783-1.263,0.783-2.102
		s-0.261-1.541-0.783-2.107c-0.522-0.566-1.206-0.849-2.052-0.849c-0.831,0-1.508,0.283-2.03,0.849
		c-0.522,0.566-0.783,1.269-0.783,2.107s0.261,1.539,0.783,2.102S158.877,276.53,159.716,276.53z"/>
	<path d="M170.415,273.342l-3.574-5.262h3.132l2.019,2.957l2.019-2.957h3.133l-3.574,5.262l3.927,5.747h-3.166l-2.338-3.441
		l-2.339,3.441h-3.166L170.415,273.342z"/>
	<path d="M179.869,264.303c0.294-0.298,0.691-0.447,1.191-0.447c0.529,0,0.941,0.149,1.235,0.447
		c0.294,0.298,0.441,0.667,0.441,1.108c0,0.441-0.147,0.809-0.441,1.103c-0.294,0.294-0.699,0.441-1.213,0.441
		c-0.515,0-0.919-0.147-1.213-0.441c-0.294-0.294-0.441-0.662-0.441-1.103C179.427,264.97,179.574,264.601,179.869,264.303z
		 M182.626,279.089v-11.042h-3.089v11.042H182.626z"/>
	<path d="M188.362,272.03v7.06h-3.088v-10.711l3.088-0.331v0.982c0.691-0.647,1.574-0.971,2.647-0.971
		c1.397,0,2.463,0.423,3.199,1.269c0.809-0.846,2.022-1.269,3.64-1.269c1.397,0,2.464,0.423,3.199,1.269s1.103,1.82,1.103,2.923
		v6.839h-3.089v-6.067c0-0.735-0.165-1.305-0.496-1.71c-0.331-0.404-0.868-0.618-1.61-0.64c-0.611,0.044-1.14,0.449-1.589,1.213
		c-0.037,0.228-0.055,0.46-0.055,0.695v6.508h-3.088v-6.067c0-0.735-0.166-1.305-0.497-1.71c-0.331-0.404-0.868-0.618-1.61-0.64
		C189.439,270.717,188.855,271.169,188.362,272.03z"/>
	<path d="M205.207,264.303c0.294-0.298,0.691-0.447,1.191-0.447c0.529,0,0.941,0.149,1.235,0.447
		c0.294,0.298,0.441,0.667,0.441,1.108c0,0.441-0.147,0.809-0.441,1.103c-0.294,0.294-0.699,0.441-1.213,0.441
		c-0.515,0-0.919-0.147-1.213-0.441c-0.294-0.294-0.441-0.662-0.441-1.103C204.765,264.97,204.912,264.601,205.207,264.303z
		 M207.964,279.089v-11.042h-3.089v11.042H207.964z"/>
	<path d="M215.641,279.089c-1.25,0-2.243-0.349-2.978-1.048c-0.736-0.699-1.103-1.6-1.103-2.703v-4.776h-1.655v-2.493h1.655v-2.99
		l3.1-0.331v3.32h1.654v2.493h-1.654v4.335c0,0.589,0.123,1.002,0.369,1.241c0.247,0.239,0.564,0.358,0.955,0.358
		c0.117,0,0.393-0.048,0.827-0.144l0.651,2.217C216.932,278.917,216.325,279.089,215.641,279.089z"/>
	<path d="M226.175,275.273v-7.214h3.088v10.148c0,1.544-0.478,2.835-1.434,3.872c-0.956,1.037-2.096,1.584-3.419,1.644l-0.662,0.066
		c-1.544-0.044-2.941-0.655-4.191-1.831l1.434-1.655c0.882,0.662,1.717,1.029,2.504,1.103c0.956,0,1.642-0.239,2.057-0.717
		s0.623-1.158,0.623-2.041v-0.562c-0.779,0.669-1.68,1.004-2.702,1.004c-1.397,0-2.464-0.423-3.199-1.269s-1.103-1.82-1.103-2.923
		v-6.839h3.089v6.067c0,0.735,0.184,1.306,0.551,1.71s0.923,0.618,1.666,0.64C225.124,276.431,225.69,276.03,226.175,275.273z"/>
	<path d="M130.771,306.199v-16.546h1.103l10.369,10.369v-10.369h3.31v16.546h-1.213L134.08,295.94v10.259H130.771z"/>
	<path d="M148.145,300.683c0-1.617,0.515-2.94,1.544-3.971c1.029-1.03,2.353-1.544,3.971-1.544s2.905,0.514,3.861,1.544
		s1.434,2.354,1.434,3.971v1.104h-7.611c0.074,0.588,0.331,1.048,0.772,1.379c0.441,0.331,0.956,0.496,1.544,0.496
		c1.03,0,1.949-0.294,2.758-0.883l1.765,1.766c-0.809,1.103-2.317,1.654-4.523,1.654c-1.618,0-2.941-0.515-3.971-1.544
		C148.659,303.625,148.145,302.301,148.145,300.683z M155.204,298.202c-0.441-0.331-0.956-0.496-1.544-0.496
		s-1.103,0.165-1.544,0.496c-0.441,0.331-0.662,0.79-0.662,1.379h4.412C155.866,298.992,155.646,298.533,155.204,298.202z"/>
	<path d="M166.367,306.199c-1.25,0-2.243-0.35-2.978-1.048c-0.736-0.698-1.103-1.6-1.103-2.702v-4.776h-1.655v-2.493h1.655v-2.989
		l3.1-0.331v3.32h1.654v2.493h-1.654v4.335c0,0.588,0.123,1.002,0.369,1.24c0.247,0.239,0.564,0.359,0.955,0.359
		c0.117,0,0.393-0.048,0.827-0.144l0.651,2.217C167.657,306.026,167.051,306.199,166.367,306.199z"/>
	<path d="M176.604,300.672l-1.655,5.526h-2.758l-2.956-11.042h2.901l1.71,6.52l1.654-6.52h2.284l1.577,6.63l1.699-6.63h2.901
		l-2.945,11.042h-2.758L176.604,300.672z"/>
	<path d="M187.138,304.693c-1.074-1.077-1.61-2.414-1.61-4.01c0-1.603,0.537-2.94,1.61-4.015s2.412-1.611,4.015-1.611
		s2.941,0.537,4.015,1.611s1.611,2.412,1.611,4.015c0,1.604-0.537,2.941-1.611,4.016c-1.074,1.073-2.412,1.61-4.015,1.61
		S188.211,305.77,187.138,304.693z M191.142,303.639c0.838,0,1.518-0.281,2.041-0.844c0.522-0.562,0.783-1.263,0.783-2.101
		c0-0.839-0.261-1.541-0.783-2.107c-0.522-0.565-1.206-0.849-2.052-0.849c-0.831,0-1.508,0.283-2.03,0.849
		c-0.522,0.566-0.783,1.269-0.783,2.107c0,0.838,0.261,1.538,0.783,2.101S190.304,303.639,191.142,303.639z"/>
	<path d="M201.721,296.381c0.787-0.809,1.746-1.213,2.879-1.213c0.36,0,0.702,0.029,1.026,0.088l-0.485,3.044
		c-0.36-0.323-0.875-0.496-1.544-0.519c-0.75,0.053-1.375,0.597-1.875,1.633v6.784h-3.089v-10.711l3.089-0.331V296.381z"/>
	<path d="M207.941,289.653h3.31v9.365l3.166-3.85h3.717l-4.125,4.952l5.229,6.078h-4.302l-3.684-4.401v4.401h-3.31V289.653z"/>
</g>
<g>
	<path d="M363.951,463.758c1.508,3.125,3.015,6.247,4.521,9.372c2.245-1.084,4.465-2.208,6.659-3.37
		c0.373,0.703,0.745,1.406,1.118,2.11c-3.054,1.618-6.157,3.161-9.306,4.626c-1.799-3.867-3.597-7.733-5.396-11.601
		C362.352,464.523,363.154,464.142,363.951,463.758z"/>
	<path d="M378.276,469.455c-1.199-0.292-2.088-0.989-2.674-2.074c-0.588-1.091-0.687-2.212-0.312-3.365
		c0.376-1.151,1.126-2.044,2.26-2.692c1.135-0.648,2.283-0.841,3.464-0.576c1.18,0.263,2.097,0.917,2.736,1.979
		c0.642,1.061,0.793,2.179,0.436,3.357c-0.355,1.178-1.132,2.115-2.319,2.793C380.679,469.553,379.476,469.747,378.276,469.455z
		 M380.834,467.088c0.613-0.351,1.002-0.827,1.161-1.425c0.161-0.597,0.074-1.173-0.254-1.731c-0.329-0.559-0.791-0.919-1.384-1.078
		c-0.594-0.162-1.19-0.068-1.796,0.277c-0.595,0.341-0.973,0.804-1.136,1.397c-0.164,0.593-0.09,1.172,0.225,1.739
		c0.314,0.566,0.769,0.934,1.364,1.1C379.611,467.532,380.22,467.439,380.834,467.088z"/>
	<path d="M387.701,464.054c-1.167-0.111-2.045-0.658-2.638-1.628c-0.148-0.242-0.298-0.485-0.445-0.728
		c-0.595-0.971-0.688-1.995-0.296-3.075c0.39-1.082,1.087-1.939,2.096-2.591c1.204-0.778,2.46-1.031,3.794-0.764
		c-0.262,0.688-0.527,1.38-0.799,2.069c-0.736-0.128-1.381-0.014-1.939,0.347c-0.508,0.328-0.83,0.804-0.97,1.432
		c-0.141,0.626-0.047,1.206,0.286,1.736c0.332,0.528,0.801,0.873,1.41,1.025c0.607,0.153,1.199,0.045,1.771-0.323
		c0.572-0.369,0.95-0.923,1.13-1.653c0.749,0.017,1.499,0.03,2.251,0.039c-0.281,1.354-1.059,2.449-2.317,3.263
		C389.987,463.879,388.869,464.165,387.701,464.054z"/>
	<path d="M391.604,453.806c0.553-1.208,1.432-2.237,2.642-3.106c0.87-0.625,1.721-0.896,2.565-0.812
		c0.841,0.084,1.604,0.578,2.285,1.488c1.02,1.368,2.041,2.735,3.061,4.103c-0.698,0.521-1.4,1.037-2.104,1.549
		c-0.134-0.184-0.268-0.368-0.4-0.552c-0.347,0.812-0.772,1.397-1.27,1.751c-1.016,0.722-1.924,1.056-2.708,1.01
		c-0.786-0.045-1.417-0.424-1.898-1.128c-0.448-0.657-0.609-1.407-0.49-2.249c0.117-0.841,0.699-1.623,1.739-2.361
		c0.479-0.339,1.116-0.588,1.921-0.75c-0.051-0.068-0.102-0.138-0.15-0.206c-0.378-0.5-0.968-0.49-1.773,0.015
		c-0.883,0.631-1.476,1.255-1.775,1.878C392.697,454.227,392.15,454.019,391.604,453.806z M398.548,454.957
		c-0.188-0.261-0.377-0.52-0.565-0.779c-0.457-0.211-1.052-0.05-1.797,0.482c-0.828,0.729-1.075,1.386-0.735,1.979
		c0.438,0.521,1.129,0.486,2.067-0.111C398.271,455.991,398.615,455.464,398.548,454.957z"/>
	<path d="M407.337,451.478c-0.824,0.659-1.653,0.965-2.473,0.919c-0.821-0.046-1.49-0.412-2.011-1.088
		c-0.751-0.976-1.502-1.95-2.254-2.925c-0.356,0.275-0.715,0.551-1.073,0.822c-0.389-0.513-0.778-1.022-1.166-1.534
		c0.355-0.271,0.71-0.542,1.063-0.814c-0.47-0.61-0.94-1.221-1.412-1.831c0.605-0.571,1.201-1.147,1.795-1.726
		c0.531,0.67,1.063,1.342,1.595,2.013c0.349-0.276,0.698-0.556,1.045-0.834c0.402,0.501,0.805,1.002,1.207,1.502
		c-0.351,0.282-0.703,0.564-1.056,0.844c0.691,0.876,1.386,1.752,2.08,2.627c0.283,0.356,0.56,0.544,0.837,0.561
		c0.276,0.017,0.542-0.076,0.796-0.28c0.076-0.061,0.234-0.232,0.47-0.521c0.5,0.333,1,0.661,1.503,0.991
		C408.105,450.693,407.791,451.118,407.337,451.478z"/>
	<path d="M402.693,440.523c0.035-0.328,0.203-0.617,0.508-0.872c0.323-0.27,0.647-0.393,0.975-0.367
		c0.327,0.026,0.603,0.168,0.823,0.428c0.22,0.26,0.313,0.554,0.279,0.879c-0.033,0.326-0.209,0.625-0.525,0.89
		c-0.319,0.266-0.643,0.384-0.97,0.36c-0.327-0.024-0.599-0.169-0.814-0.433C402.75,441.144,402.66,440.848,402.693,440.523z
		 M411.762,447.84c-1.838-2.172-3.676-4.345-5.515-6.516c-0.635,0.536-1.272,1.07-1.915,1.599c1.811,2.196,3.62,4.392,5.43,6.589
		C410.434,448.958,411.099,448.401,411.762,447.84z"/>
	<path d="M413.34,444.948c-1.226-0.033-2.238-0.529-3.044-1.462c-0.81-0.94-1.149-2.011-1.037-3.211
		c0.11-1.199,0.645-2.223,1.604-3.089c0.959-0.867,2.03-1.295,3.234-1.283c1.204,0.01,2.235,0.457,3.087,1.357
		c0.854,0.898,1.244,1.955,1.154,3.178c-0.09,1.221-0.639,2.294-1.643,3.202C415.692,444.545,414.567,444.984,413.34,444.948z
		 M415.305,442.114c0.519-0.469,0.791-1.014,0.816-1.627c0.026-0.615-0.184-1.159-0.624-1.635s-0.968-0.729-1.578-0.761
		c-0.61-0.034-1.169,0.181-1.681,0.644c-0.504,0.455-0.768,0.984-0.797,1.596c-0.03,0.612,0.168,1.161,0.597,1.646
		c0.431,0.487,0.95,0.75,1.563,0.786S414.786,442.583,415.305,442.114z"/>
	<path d="M419.44,433.46c1.272,1.284,2.545,2.568,3.816,3.854c-0.617,0.609-1.236,1.217-1.86,1.818
		c-1.918-1.985-3.833-3.973-5.751-5.96c0.54-0.638,1.074-1.28,1.604-1.926c0.182,0.185,0.363,0.368,0.546,0.552
		c0.066-0.786,0.389-1.469,0.969-2.057c0.791-0.801,1.623-1.191,2.507-1.169c0.885,0.025,1.637,0.325,2.255,0.914
		c1.277,1.215,2.553,2.431,3.83,3.646c-0.6,0.629-1.201,1.253-1.807,1.873c-1.119-1.092-2.236-2.187-3.354-3.279
		c-0.408-0.397-0.828-0.597-1.261-0.603c-0.434-0.005-0.868,0.201-1.308,0.619C419.284,432.137,419.221,432.708,419.44,433.46z"/>
	<path d="M428.57,413.006c0.643-0.343,1.365-0.564,2.175-0.672c0.083,0.812,0.161,1.625,0.233,2.442
		c-0.903,0.031-1.685,0.454-2.356,1.269c-0.674,0.814-0.926,1.486-0.747,2.023c0.18,0.536,0.493,0.805,0.945,0.798
		c0.45-0.006,1.089-0.363,1.903-1.082c0.81-0.799,1.732-1.374,2.78-1.727c1.046-0.351,2.081-0.13,3.109,0.679
		c0.804,0.633,1.184,1.576,1.124,2.836c-0.062,1.258-0.529,2.42-1.401,3.469c-0.827,0.997-1.658,1.711-2.48,2.145
		c-0.823,0.435-1.651,0.694-2.484,0.78c-0.022-0.837-0.05-1.671-0.082-2.504c0.913-0.016,1.894-0.546,2.923-1.601
		c0.785-0.941,1.08-1.688,0.896-2.227c-0.183-0.539-0.56-0.843-1.124-0.916c-0.564-0.072-1.271,0.322-2.128,1.176
		c-0.784,0.759-1.667,1.314-2.642,1.661c-0.975,0.348-1.934,0.104-2.875-0.719c-0.853-0.745-1.204-1.721-1.076-2.92
		c0.129-1.2,0.521-2.195,1.19-2.998C427.228,413.987,427.93,413.348,428.57,413.006z"/>
	<path d="M437.287,415.042c-0.988-0.765-1.538-1.727-1.663-2.873c-0.124-1.147,0.201-2.238,0.976-3.289
		c0.775-1.051,1.704-1.661,2.803-1.831c1.1-0.171,2.163,0.095,3.186,0.814c0.232,0.164,0.466,0.327,0.698,0.49
		c-1.212,1.723-2.45,3.424-3.715,5.104c0.398,0.226,0.812,0.268,1.237,0.126c0.426-0.141,0.785-0.409,1.076-0.805
		c0.511-0.692,0.778-1.448,0.804-2.261c0.655-0.132,1.31-0.269,1.968-0.407c0.303,1.045-0.088,2.332-1.191,3.831
		c-0.811,1.098-1.804,1.752-2.961,1.954C439.346,416.099,438.275,415.809,437.287,415.042z M439.233,409.253
		c-0.418,0.142-0.771,0.405-1.055,0.791c-0.285,0.386-0.433,0.799-0.443,1.24c-0.012,0.442,0.164,0.801,0.527,1.074
		c0.726-0.966,1.444-1.938,2.153-2.918C440.046,409.174,439.652,409.113,439.233,409.253z"/>
	<path d="M442.292,402.419c-0.163-0.878,0.006-1.697,0.506-2.464c0.16-0.244,0.33-0.465,0.511-0.659
		c0.588,0.536,1.174,1.073,1.76,1.612c-0.37,0.111-0.712,0.391-1.026,0.838c-0.305,0.534-0.238,1.191,0.198,1.979
		c1.452,0.974,2.905,1.948,4.356,2.923c-0.484,0.722-0.974,1.44-1.468,2.155c-2.271-1.567-4.545-3.134-6.817-4.702
		c0.404-0.733,0.801-1.471,1.196-2.209C441.768,402.068,442.03,402.245,442.292,402.419z"/>
	<path d="M445.092,396.358c1.878,0.343,3.764,0.668,5.656,0.974c-1.138-1.55-2.289-3.084-3.455-4.604
		c0.432-0.729,0.857-1.459,1.279-2.195c1.87,2.451,3.705,4.946,5.503,7.477c-0.384,0.641-0.771,1.278-1.162,1.914
		c-3.076-0.421-6.136-0.896-9.175-1.421C444.194,397.79,444.645,397.075,445.092,396.358z"/>
	<path d="M446.975,387.461c-0.086-0.317-0.032-0.649,0.161-0.999c0.205-0.369,0.464-0.602,0.778-0.698
		c0.315-0.096,0.623-0.063,0.924,0.101c0.299,0.163,0.493,0.404,0.576,0.72c0.086,0.318,0.028,0.66-0.173,1.023
		c-0.202,0.365-0.461,0.594-0.775,0.689c-0.315,0.098-0.619,0.06-0.917-0.106C447.251,388.023,447.061,387.78,446.975,387.461z
		 M458.079,391.006c-2.498-1.363-4.996-2.726-7.494-4.089c-0.4,0.735-0.806,1.465-1.215,2.193c2.48,1.396,4.961,2.79,7.441,4.186
		C457.238,392.536,457.662,391.771,458.079,391.006z"/>
	<path d="M458.651,387.677c-1.063,0.496-2.097,0.466-3.1-0.068c-0.25-0.135-0.502-0.269-0.752-0.402
		c-1.004-0.536-1.604-1.372-1.813-2.499c-0.211-1.13-0.045-2.223,0.496-3.298c0.646-1.282,1.603-2.141,2.889-2.588
		c0.123,0.729,0.242,1.459,0.356,2.194c-0.7,0.264-1.199,0.69-1.497,1.283c-0.272,0.54-0.31,1.113-0.113,1.727
		s0.57,1.065,1.126,1.353c0.555,0.288,1.133,0.347,1.735,0.171c0.602-0.176,1.058-0.569,1.364-1.177
		c0.307-0.608,0.355-1.278,0.14-2.002c0.655-0.365,1.31-0.735,1.963-1.111c0.44,1.314,0.325,2.655-0.35,3.996
		C460.532,386.372,459.711,387.182,458.651,387.677z"/>
	<path d="M459.489,378.821c-1.131-0.534-1.873-1.358-2.24-2.459c-0.365-1.102-0.279-2.248,0.258-3.456
		c0.534-1.208,1.314-2.016,2.354-2.429c1.04-0.414,2.137-0.389,3.293,0.092c0.263,0.109,0.524,0.219,0.788,0.327
		c-0.821,1.97-1.673,3.922-2.554,5.857c0.438,0.133,0.853,0.082,1.239-0.152c0.387-0.233,0.681-0.577,0.883-1.033
		c0.352-0.794,0.454-1.6,0.306-2.405c0.612-0.275,1.227-0.557,1.839-0.84c0.52,0.962,0.412,2.318-0.353,4.041
		c-0.559,1.263-1.394,2.127-2.481,2.583C461.73,379.402,460.62,379.355,459.489,378.821z M460.164,372.688
		c-0.38,0.231-0.668,0.569-0.865,1.013c-0.197,0.444-0.253,0.885-0.171,1.321c0.084,0.438,0.331,0.752,0.746,0.94
		c0.505-1.113,1.002-2.229,1.487-3.354C460.943,372.426,460.543,372.455,460.164,372.688z"/>
	<path d="M462.047,362.41c0.347-0.375,0.77-0.689,1.27-0.946c0.306,0.617,0.609,1.236,0.911,1.859
		c-0.576,0.228-0.974,0.631-1.197,1.212c-0.22,0.574-0.271,0.997-0.147,1.267c0.123,0.271,0.304,0.343,0.541,0.211
		c0.235-0.13,0.521-0.464,0.849-1.002c0.401-0.826,0.891-1.44,1.472-1.852c0.582-0.408,1.343-0.445,2.283-0.102
		c0.759,0.276,1.226,0.821,1.396,1.634c0.171,0.816,0.088,1.667-0.25,2.543c-0.322,0.836-0.703,1.489-1.137,1.956
		c-0.434,0.465-0.911,0.823-1.43,1.07c-0.277-0.635-0.559-1.27-0.843-1.901c0.586-0.222,1.076-0.734,1.467-1.541
		c0.261-0.671,0.324-1.142,0.199-1.413c-0.125-0.271-0.314-0.376-0.565-0.313c-0.251,0.06-0.559,0.471-0.93,1.225
		c-0.348,0.677-0.8,1.242-1.354,1.696c-0.556,0.454-1.279,0.496-2.168,0.135c-0.818-0.331-1.309-0.908-1.48-1.729
		s-0.126-1.57,0.139-2.257C461.377,363.369,461.702,362.783,462.047,362.41z"/>
</g>
<g>
	<path fill="#FFFFFF" d="M103.592,303.363c4.565,15.101-3.652,30.939-18.35,35.384c-14.705,4.446-30.32-4.187-34.885-19.286
		c-4.565-15.097,3.649-30.936,18.354-35.381C83.41,279.634,99.027,288.268,103.592,303.363z"/>
	<g>
		<path fill="#3997D3" d="M86.458,340.1c-16.189,4.896-33.342-4.285-38.242-20.487c-4.895-16.191,4.294-33.345,20.484-38.24
			c16.196-4.897,33.35,4.29,38.246,20.481C111.846,318.056,102.653,335.203,86.458,340.1z M70.375,286.913
			c-13.133,3.971-20.594,17.896-16.624,31.025c3.974,13.14,17.9,20.602,31.033,16.628c13.142-3.973,20.598-17.897,16.625-31.037
			C97.438,290.397,83.517,282.938,70.375,286.913z"/>
	</g>
</g>
<g>
	<g>
		<polygon fill="#3997D3" points="73.645,293.933 79.554,312.238 70.465,315.171 		"/>
	</g>
	<g>
		<polygon fill="#3997D3" points="82.768,306.647 79.587,327.885 73.679,309.582 		"/>
	</g>
</g>
<line fill="none" stroke="#6FBE44" stroke-width="5" stroke-miterlimit="10" x1="62.032" y1="258.772" x2="75.874" y2="255.487"/>
<path fill="#FFFFFF" d="M125.716,242.402c4.659,14.432-2.957,29.805-17.007,34.341c-14.055,4.538-29.22-3.483-33.879-17.915
	c-4.657-14.43,2.955-29.803,17.01-34.341C105.89,219.952,121.058,227.971,125.716,242.402z"/>
<g>
	<path fill="#C14E9D" d="M109.903,278.022c-15.475,4.996-32.129-3.524-37.128-19.01c-4.996-15.478,3.532-32.131,19.006-37.126
		c15.481-4.997,32.136,3.527,37.133,19.004C133.913,256.377,125.383,273.025,109.903,278.022z M93.491,227.182
		c-12.553,4.052-19.476,17.57-15.424,30.123c4.055,12.561,17.575,19.482,30.129,15.429c12.562-4.055,19.48-17.574,15.426-30.135
		C119.569,230.047,106.052,223.127,93.491,227.182z"/>
</g>
<path fill="#FFFFFF" d="M61.306,254.803c4.66,14.433-2.957,29.809-17.009,34.345c-14.057,4.538-29.224-3.483-33.883-17.916
	c-4.659-14.433,2.956-29.808,17.013-34.346C41.478,232.351,56.647,240.371,61.306,254.803z"/>
<g>
	<path fill="#6FBE44" d="M45.491,290.428c-15.477,4.996-32.133-3.523-37.133-19.012c-4.998-15.479,3.532-32.135,19.009-37.131
		c15.483-4.998,32.14,3.527,37.137,19.006C69.504,268.78,60.975,285.43,45.491,290.428z M29.077,239.581
		c-12.556,4.053-19.479,17.573-15.426,30.127c4.055,12.562,17.577,19.484,30.133,15.431c12.564-4.056,19.483-17.576,15.428-30.14
		C55.158,242.446,41.64,235.525,29.077,239.581z"/>
</g>
<g>
	<g>
		<polygon fill="#C14E9D" points="97.875,232.978 103.783,251.283 94.694,254.217 		"/>
	</g>
	<g>
		<polygon fill="#C14E9D" points="106.997,245.692 103.817,266.93 97.908,248.626 		"/>
	</g>
</g>
<g>
	<g>
		<polygon fill="#6FBE44" points="32.75,245.609 38.659,263.914 29.569,266.848 		"/>
	</g>
	<g>
		<polygon fill="#6FBE44" points="41.873,258.324 38.692,279.562 32.784,261.258 		"/>
	</g>
</g>
</svg>
