<?xml version="1.0" encoding="utf-8"?>
<!-- Generator: Adobe Illustrator 15.0.0, SVG Export Plug-In . SVG Version: 6.00 Build 0)  -->
<!DOCTYPE svg PUBLIC "-//W3C//DTD SVG 1.1//EN" "http://www.w3.org/Graphics/SVG/1.1/DTD/svg11.dtd">
<svg version="1.1" id="Layer_1" xmlns="http://www.w3.org/2000/svg" xmlns:xlink="http://www.w3.org/1999/xlink" x="0px" y="0px"
	 width="38.18px" height="38.182px" viewBox="0 0 38.18 38.182" enable-background="new 0 0 38.18 38.182" xml:space="preserve">
<g>
	<g>
		<g>
			<path fill="#40BEEE" d="M19.094,38.182C8.566,38.182,0,29.62,0,19.09C0,8.566,8.563,0,19.094,0C29.616,0,38.18,8.564,38.18,19.09
				C38.182,29.618,29.619,38.182,19.094,38.182z M19.094,4.002c-8.32,0-15.09,6.77-15.09,15.088c0,8.319,6.77,15.088,15.09,15.088
				c8.315,0,15.086-6.77,15.086-15.088C34.178,10.771,27.41,4.002,19.094,4.002z"/>
		</g>
		<g>
			<polyline fill="#40BEEE" points="5.838,31.608 -0.131,38.268 12.979,34.536 			"/>
		</g>
		<g>
			<g>
				<polygon fill="#40BEEE" points="20.777,7.057 20.777,20.618 14.041,20.618 				"/>
			</g>
			<g>
				<polygon fill="#40BEEE" points="24.143,17.562 17.41,31.124 17.41,17.562 				"/>
			</g>
		</g>
	</g>
</g>
</svg>
