<?xml version="1.0" encoding="utf-8"?>
<!-- Generator: Adobe Illustrator 15.0.0, SVG Export Plug-In . SVG Version: 6.00 Build 0)  -->
<!DOCTYPE svg PUBLIC "-//W3C//DTD SVG 1.1//EN" "http://www.w3.org/Graphics/SVG/1.1/DTD/svg11.dtd">
<svg version="1.1" id="Layer_1" xmlns="http://www.w3.org/2000/svg" xmlns:xlink="http://www.w3.org/1999/xlink" x="0px" y="0px"
	 width="369px" height="149px" viewBox="0 0 369 149" enable-background="new 0 0 369 149" xml:space="preserve">
<g>
	<path fill="none" stroke="#E56246" stroke-width="4" stroke-miterlimit="10" d="M366.248,138.856c0,3.95-3.201,7.15-7.152,7.15
		H9.904c-3.949,0-7.152-3.2-7.152-7.15V10.146c0-3.949,3.201-7.152,7.152-7.152h349.191c3.949,0,7.152,3.201,7.152,7.152V138.856
		L366.248,138.856z"/>
	<g>
		<path fill="#333333" d="M347.551,104.792c0,2.562-1.65,4.636-3.686,4.636h-43.479c-2.035,0-3.684-2.074-3.684-4.636V50.117
			c0-2.561,1.648-4.635,3.684-4.635h43.479c2.035,0,3.686,2.074,3.686,4.635V104.792z"/>
	</g>
	<g>
		<line fill="none" x1="347.381" y1="69.231" x2="330.85" y2="69.231"/>
		<rect x="330.85" y="68.276" fill="#FFFFFF" width="16.531" height="1.91"/>
	</g>
	<g>
		<line fill="none" x1="347.381" y1="65.116" x2="330.85" y2="65.116"/>
		<rect x="330.85" y="64.159" fill="#FFFFFF" width="16.531" height="1.912"/>
	</g>
	<g>
		<circle fill="#FFFFFF" cx="333.656" cy="58.254" r="2.646"/>
	</g>
	<g>
		<circle fill="#FFFFFF" cx="340.318" cy="58.253" r="2.646"/>
	</g>
	<g>
		<path fill="#FFFFFF" d="M330.977,101.026h-17.701c-1.129,0-2.049-0.92-2.049-2.052V81.273c0-1.131,0.92-2.05,2.049-2.05h17.701
			c1.133,0,2.053,0.919,2.053,2.05v17.701C333.029,100.106,332.109,101.026,330.977,101.026z M313.275,79.859
			c-0.779,0-1.412,0.636-1.412,1.414v17.701c0,0.78,0.633,1.414,1.412,1.414h17.701c0.781,0,1.416-0.634,1.416-1.414V81.273
			c0-0.778-0.635-1.414-1.416-1.414H313.275z"/>
	</g>
	<g>
		<rect x="245.748" y="70.991" fill="#E56246" width="40.535" height="8.211"/>
		<g>
			<polygon fill="#E56246" points="286.283,60.253 286.283,89.936 306.205,75.616 			"/>
		</g>
	</g>
	<g>
		<g>
			<path fill="#3ABEEE" d="M212.523,68.532c-10.736-1.238-20.445,6.461-21.686,17.198c-1.24,10.736,6.459,20.444,17.195,21.685
				c10.736,1.237,20.445-6.459,21.686-17.195C230.957,79.48,223.26,69.773,212.523,68.532z M245.492,46.908
				c-8.658-0.998-16.49,5.21-17.488,13.871c-1,8.66,5.209,16.49,13.869,17.491c8.662,1,16.492-5.21,17.49-13.87
				C260.365,55.741,254.156,47.909,245.492,46.908z M225.408,43.11c-10.738-1.241-20.445,6.459-21.686,17.197
				c-1.24,10.734,6.459,20.443,17.197,21.684c10.736,1.238,20.443-6.457,21.682-17.195C243.844,54.059,236.145,44.35,225.408,43.11z
				 M237.9,76.238c-8.135-0.938-15.49,4.895-16.43,13.027c-0.938,8.135,4.896,15.489,13.027,16.428
				c8.133,0.938,15.49-4.894,16.43-13.026C251.865,84.534,246.033,77.178,237.9,76.238z M203.445,45.475
				c-8.135-0.94-15.49,4.894-16.43,13.025c-0.938,8.136,4.895,15.489,13.027,16.43c8.135,0.938,15.49-4.894,16.428-13.026
				C217.412,53.769,211.578,46.414,203.445,45.475z M189.439,66.814c-6.29-0.726-11.978,3.784-12.704,10.075
				c-0.727,6.289,3.782,11.979,10.073,12.706c6.291,0.725,11.979-3.785,12.703-10.076C200.24,73.23,195.729,67.542,189.439,66.814z
				 M256.826,72.712c-6.178-1.381-12.309,2.51-13.689,8.688c-1.379,6.18,2.512,12.309,8.691,13.689s12.307-2.512,13.688-8.689
				C266.896,80.221,263.008,74.091,256.826,72.712z M264.854,58.234c-6.289-0.729-11.979,3.784-12.703,10.074
				c-0.727,6.29,3.783,11.978,10.072,12.704c6.291,0.729,11.979-3.784,12.705-10.075C275.656,64.648,271.143,58.96,264.854,58.234z"
				/>
		</g>
		<g>
			<g>
				<path fill="#FFFFFF" d="M225.9,94.31c-10.527,0-19.094-8.562-19.094-19.091c0-10.524,8.564-19.09,19.094-19.09
					c10.523,0,19.086,8.564,19.086,19.09C244.988,85.747,236.426,94.31,225.9,94.31z M225.9,60.131c-8.32,0-15.09,6.77-15.09,15.088
					c0,8.319,6.77,15.088,15.09,15.088c8.316,0,15.086-6.769,15.086-15.088C240.984,66.9,234.217,60.131,225.9,60.131z"/>
			</g>
			<g>
				<polyline fill="#FFFFFF" points="212.645,87.736 206.676,94.396 219.785,90.665 				"/>
			</g>
			<g>
				<g>
					<polygon fill="#FFFFFF" points="227.584,63.186 227.584,76.747 220.848,76.747 					"/>
				</g>
				<g>
					<polygon fill="#FFFFFF" points="230.949,73.691 224.217,87.253 224.217,73.691 					"/>
				</g>
			</g>
		</g>
	</g>
	<g>
		<rect x="127.741" y="70.991" fill="#E56246" width="40.534" height="8.211"/>
		<g>
			<polygon fill="#E56246" points="168.275,60.253 168.275,89.936 188.197,75.616 			"/>
		</g>
	</g>
	<g>
		<g>
			<path fill="#2491CF" d="M137.93,45.754c0,0-1.332,0.515-2.664,0l-0.004,10.698l-0.645,3.901v9.674h3.957v-9.674l-0.643-3.901
				L137.93,45.754z"/>
		</g>
		<g>
			<path fill="#3ABEEE" d="M153.351,24.955c-1.951-1.944-4.298-3.608-7.038-4.83c-2.743-1.225-5.905-2.081-9.781-2.072
				c-3.874,0.011-7.041,0.89-9.761,2.137c-2.729,1.248-5.042,2.924-6.999,4.865c-0.92-0.943-1.878-1.845-2.786-2.8
				c2.31-2.276,4.993-4.252,8.17-5.672c2.404-1.077,4.998-1.903,8.108-2.28c0.514-0.062,1.042-0.124,1.581-0.153
				c5.179-0.278,9.579,0.755,13.117,2.363c2.738,1.246,5.189,2.862,7.297,4.802c0.208,0.187,0.438,0.411,0.669,0.638
				c0.06,0.06,0.222,0.19,0.222,0.204c0.004,0.062-0.283,0.287-0.354,0.353C154.99,23.322,154.162,24.181,153.351,24.955"/>
		</g>
		<g>
			<path fill="#3ABEEE" d="M147.796,30.562c-1.326-1.273-2.867-2.393-4.707-3.214c-1.824-0.813-3.94-1.394-6.508-1.385
				c-2.557,0.006-4.72,0.57-6.52,1.417c-1.817,0.854-3.384,1.945-4.665,3.253c-0.941-0.914-1.857-1.854-2.798-2.77
				c1.548-1.602,3.415-2.934,5.573-3.962c2.156-1.031,4.647-1.725,7.664-1.871c1.683-0.083,3.387,0.104,4.749,0.383
				c3.853,0.78,6.868,2.514,9.33,4.739c0.101,0.094,0.214,0.179,0.339,0.3c0.081,0.076,0.313,0.3,0.314,0.312
				c0.003,0.055-0.312,0.313-0.351,0.354C149.386,28.949,148.628,29.761,147.796,30.562"/>
		</g>
		<g>
			<path fill="#3ABEEE" d="M144.986,33.375c-0.902,0.955-1.845,1.87-2.773,2.802c-1.339-1.23-3.065-2.312-5.614-2.305
				c-2.541,0.006-4.282,1.086-5.592,2.348c-0.937-0.935-1.885-1.851-2.799-2.803c1.89-1.806,4.296-3.305,7.835-3.476
				c2.055-0.103,3.856,0.331,5.257,0.938C142.778,31.522,143.999,32.385,144.986,33.375"/>
		</g>
		<g>
			<path fill="#3ABEEE" d="M139.758,42.405c0-1.761-1.428-3.188-3.188-3.188c-1.76,0-3.188,1.427-3.188,3.188
				s1.427,3.188,3.188,3.188C138.33,45.595,139.758,44.165,139.758,42.405"/>
		</g>
		<g>
			<path fill="#3ABEEE" d="M146.942,103.594c0,1.433-1.163,2.595-2.596,2.595h-38.605c-1.435,0-2.597-1.161-2.597-2.595V64.988
				c0-1.434,1.162-2.598,2.597-2.598h38.605c1.433,0,2.596,1.163,2.596,2.598V103.594z"/>
		</g>
		<g>
			<rect x="109.373" y="79.967" fill="#FFFFFF" width="8.933" height="1.872"/>
		</g>
		<g>
			<rect x="120.737" y="79.967" fill="#FFFFFF" width="8.934" height="1.872"/>
		</g>
		<g>
			<rect x="132.105" y="79.967" fill="#FFFFFF" width="8.931" height="1.872"/>
		</g>
		<g>
			<rect x="109.373" y="84.29" fill="#FFFFFF" width="8.933" height="1.873"/>
		</g>
		<g>
			<rect x="120.737" y="84.29" fill="#FFFFFF" width="8.934" height="1.873"/>
		</g>
		<g>
			<rect x="132.105" y="84.29" fill="#FFFFFF" width="8.931" height="1.873"/>
		</g>
		<g>
			<rect x="109.373" y="88.9" fill="#FFFFFF" width="8.933" height="1.874"/>
		</g>
		<g>
			<rect x="120.737" y="88.9" fill="#FFFFFF" width="8.934" height="1.874"/>
		</g>
		<g>
			<rect x="132.105" y="88.9" fill="#FFFFFF" width="8.931" height="1.874"/>
		</g>
		<g>
			<rect x="109.373" y="93.224" fill="#FFFFFF" width="8.933" height="1.873"/>
		</g>
		<g>
			<rect x="120.737" y="93.224" fill="#FFFFFF" width="8.934" height="1.873"/>
		</g>
		<g>
			<rect x="132.105" y="93.224" fill="#FFFFFF" width="8.931" height="1.873"/>
		</g>
		<g>
			<path fill="#3ABEEE" d="M137.648,45.754c0,0-1.05,0.515-2.103,0l-0.001,10.698l-0.71,3.925v9.675l3.506-0.023v-9.674
				l-0.688-3.901L137.648,45.754z"/>
		</g>
		<g>
			<path fill="#FFFFFF" d="M117.145,76.657h-8.183c-0.674,0-1.226-0.553-1.226-1.229v-8.183c0-0.676,0.551-1.226,1.226-1.226h8.183
				c0.676,0,1.226,0.55,1.226,1.226v8.183C118.369,76.104,117.821,76.657,117.145,76.657z M108.962,66.872
				c-0.207,0-0.374,0.168-0.374,0.375v8.182c0,0.207,0.167,0.376,0.374,0.376h8.183c0.207,0,0.375-0.168,0.375-0.376v-8.182
				c0-0.207-0.168-0.375-0.375-0.375H108.962z"/>
		</g>
		<g>
			<g>
				<g>
					<polygon fill="#FFFFFF" points="113.706,66.676 113.706,71.93 111.096,71.93 					"/>
				</g>
			</g>
			<g>
				<g>
					<polygon fill="#FFFFFF" points="115.011,70.747 112.402,75.999 112.402,70.747 					"/>
				</g>
			</g>
		</g>
	</g>
	<g>
		<rect x="58.004" y="70.991" fill="#E56246" width="30.391" height="8.211"/>
		<g>
			<polygon fill="#E56246" points="88.394,60.253 88.394,89.936 108.317,75.616 			"/>
		</g>
	</g>
	<g>
		<g>
			<g>
				<g>
					<g>
						<path fill="#E56246" d="M53.329,29.186c2.678-0.221,5.47,0.019,8.279,0.833c2.813,0.812,5.708,2.165,8.588,4.609
							c2.878,2.445,4.684,5.094,5.924,7.731c1.247,2.646,1.914,5.35,2.15,8.026c1.279-0.123,2.561-0.191,3.836-0.332
							c-0.287-3.149-1.043-6.306-2.515-9.364c-1.114-2.313-2.524-4.562-4.602-6.799c-0.344-0.37-0.7-0.748-1.08-1.108
							c-3.683-3.466-7.611-5.468-11.256-6.494c-2.825-0.795-5.667-1.132-8.455-1.016c-0.273,0.009-0.588,0.031-0.899,0.055
							c-0.082,0.007-0.285,0.005-0.293,0.015c-0.039,0.044,0.032,0.393,0.044,0.485C53.136,26.942,53.212,28.101,53.329,29.186z"/>
					</g>
					<g>
						<path fill="#E56246" d="M53.938,36.857c1.786-0.114,3.64,0.022,5.527,0.567c1.872,0.543,3.811,1.442,5.718,3.064
							c1.899,1.611,3.155,3.396,3.963,5.157c0.815,1.775,1.293,3.576,1.426,5.354c1.276-0.087,2.55-0.21,3.825-0.301
							c-0.144-2.165-0.697-4.333-1.657-6.457c-0.957-2.125-2.375-4.206-4.527-6.213c-1.2-1.12-2.587-2.055-3.778-2.705
							c-3.361-1.843-6.696-2.449-9.929-2.339c-0.133,0.007-0.27-0.002-0.44,0.011c-0.109,0.004-0.422,0.024-0.432,0.034
							c-0.036,0.039,0.036,0.432,0.039,0.485C53.767,34.655,53.821,35.736,53.938,36.857z"/>
					</g>
					<g>
						<path fill="#E56246" d="M54.258,40.721c0.074,1.28,0.198,2.551,0.304,3.83c1.77-0.072,3.736,0.208,5.63,1.816
							c1.89,1.604,2.505,3.502,2.688,5.266c1.284-0.106,2.566-0.191,3.848-0.324c-0.273-2.534-1.12-5.165-3.648-7.521
							c-1.467-1.368-3.082-2.181-4.506-2.608C57.069,40.729,55.619,40.603,54.258,40.721z"/>
					</g>
				</g>
			</g>
			<g opacity="0.8">
				<path fill="#E56246" d="M46.758,80.532c0,1.115-0.907,2.021-2.023,2.021H31.55c-1.117,0-2.022-0.906-2.022-2.021V67.346
					c0-1.116,0.905-2.021,2.022-2.021h13.184c1.118,0,2.023,0.904,2.023,2.021L46.758,80.532L46.758,80.532z"/>
			</g>
			<g id="iphone">
				<g>
					<path fill="#BCBEC0" d="M45.277,48.054H30.672c-8.066,0-14.606,6.541-14.606,14.605V91.87c0,8.066,6.54,14.605,14.606,14.605
						h14.605c8.065,0,14.606-6.539,14.606-14.605V62.659C59.882,54.595,53.343,48.054,45.277,48.054z M37.974,102.938
						c-2.08,0-3.765-1.684-3.765-3.766c0-2.084,1.687-3.766,3.765-3.766c2.079,0,3.766,1.682,3.766,3.766
						C41.74,101.255,40.052,102.938,37.974,102.938z M52.579,91.87h-29.21V62.66c0-4.021,3.276-7.303,7.304-7.303h14.605
						c4.022,0,7.302,3.281,7.302,7.303L52.579,91.87L52.579,91.87z"/>
					<path fill="#A7A9AC" d="M45.277,106.89H30.672c-8.282,0-15.021-6.737-15.021-15.02V62.659c0-8.282,6.737-15.021,15.021-15.021
						h14.605c8.282,0,15.021,6.737,15.021,15.021V91.87C60.296,100.152,53.558,106.89,45.277,106.89z M30.672,48.469
						c-7.825,0-14.19,6.365-14.19,14.19V91.87c0,7.822,6.365,14.189,14.19,14.189h14.605c7.824,0,14.19-6.367,14.19-14.189V62.659
						c0-7.825-6.366-14.189-14.19-14.189L30.672,48.469L30.672,48.469z M37.974,103.353c-2.304,0-4.179-1.874-4.179-4.18
						c0-2.307,1.875-4.18,4.179-4.18c2.305,0,4.182,1.873,4.182,4.18C42.156,101.479,40.28,103.353,37.974,103.353z M37.974,95.823
						c-1.847,0-3.349,1.502-3.349,3.35c0,1.849,1.502,3.352,3.349,3.352c1.848,0,3.352-1.503,3.352-3.352
						C41.326,97.325,39.822,95.823,37.974,95.823z M52.994,92.286h-30.04V62.66c0-4.256,3.461-7.717,7.718-7.717h14.605
						c4.255,0,7.717,3.461,7.717,7.717V92.286z M23.784,91.456h28.381V62.66c0-3.798-3.09-6.888-6.888-6.888H30.672
						c-3.799,0-6.888,3.09-6.888,6.888V91.456z"/>
				</g>
			</g>
		</g>
		<g>
			<g>
				<path fill="#FFFFFF" d="M36.962,68.897h2.662l-0.615,8.143h-1.433L36.962,68.897z M37.099,78.357h2.389v1.685h-2.389V78.357z"/>
			</g>
		</g>
	</g>
	<text transform="matrix(1 0 0 1 26.5674 122.6016)" fill="#414042" font-family="'HelveticaNeue-Light'" font-size="8">Mobile</text>
	<text transform="matrix(1 0 0 1 26.4155 132.2012)" fill="#414042" font-family="'HelveticaNeue-Light'" font-size="8">Device</text>
	<text transform="matrix(1 0 0 1 111.7754 127.4014)" fill="#414042" font-family="'HelveticaNeue-Light'" font-size="8">Beacon</text>
	<text transform="matrix(1 0 0 1 197.2363 122.6016)" fill="#414042" font-family="'HelveticaNeue-Light'" font-size="8">Message Radius</text>
	<text transform="matrix(1 0 0 1 207.748 132.2012)" fill="#414042" font-family="'HelveticaNeue-Light'" font-size="8">API Server</text>
	<text transform="matrix(1 0 0 1 309.627 122.6016)" fill="#414042" font-family="'HelveticaNeue-Light'" font-size="8">Partner</text>
	<text transform="matrix(1 0 0 1 290.9551 132.2012)" fill="#414042" font-family="'HelveticaNeue-Light'" font-size="8">Application Server</text>
	<text transform="matrix(1 0 0 1 317.3242 96.4326)" fill="#FFFFFF" font-family="'HelveticaNeue-Bold'" font-size="17.2754">?</text>
</g>
</svg>
