<?xml version="1.0" encoding="utf-8"?>
<!-- Generator: Adobe Illustrator 15.0.0, SVG Export Plug-In . SVG Version: 6.00 Build 0)  -->
<!DOCTYPE svg PUBLIC "-//W3C//DTD SVG 1.1//EN" "http://www.w3.org/Graphics/SVG/1.1/DTD/svg11.dtd">
<svg version="1.1" id="Layer_1" xmlns="http://www.w3.org/2000/svg" xmlns:xlink="http://www.w3.org/1999/xlink" x="0px" y="0px"
	 width="211.279px" height="179.609px" viewBox="0 0 211.279 179.609" enable-background="new 0 0 211.279 179.609"
	 xml:space="preserve">
<g>
	<g>
		<path fill="#333333" d="M169.521,31.373c-1.552,2.359-3.946,4.552-6.251,6.856c-2.194,2.195-4.44,4.441-6.654,6.654
			c-5.131,5.132-13.651,10.936-9.88,21.375c2.687,7.44,13.265,12.641,21.576,6.856c3.877-2.699,7.458-7.055,11.09-10.688
			c3.719-3.717,7.124-7.583,10.688-10.485c7.535,21.581-4.571,39.988-20.165,45.974c-4.412,1.693-9.167,2.847-15.325,2.42
			c-1.477-0.103-3.474-1.057-5.042-0.807c-3.086,0.493-5.962,7.121-8.872,8.066c-9.213-8.531-18.555-16.935-27.827-25.407
			c2.74-3.646,6.537-6.234,9.276-9.88C117.077,43.387,141.714,22.545,169.521,31.373z"/>
		<path fill="#333333" d="M106.202,42.262C94.948,44.68,86.251,49.774,78.78,56.781c-0.752,0.707-3.011,2.5-3.025,2.824
			c-0.03,0.71,4.807,4.727,6.251,6.049c29.741,27.228,59.55,53.927,89.329,81.263c3.572,3.28,9.286,7.008,6.251,13.511
			c-1.355,2.904-4.911,5.312-7.462,7.863c-3.328,3.328-7.764,10.42-14.721,7.057c-1.826-0.881-4.076-3.653-6.25-6.048
			c-28.663-31.562-58.625-64.653-87.111-95.781c-6.01,6.425-11.087,13.783-15.729,21.575c-9.392-8.888-18.533-18.03-27.422-27.423
			c9.498-4.873,17.133-11.689,25.004-19.56c7.428-7.428,14.524-15.717,27.625-16.737C86.461,30.212,97.201,36.313,106.202,42.262z"
			/>
		<path fill="#333333" d="M84.225,110.62c8.738,9.076,16.972,18.652,25.609,27.827c-8.339,8.413-16.998,17.2-25.609,25.812
			c-5.164,5.164-9.709,11.896-19.761,11.896c-10.653,0-19.646-8.619-18.955-20.165c0.568-9.484,6.9-13.555,12.3-18.954
			C66.256,128.589,76.158,118.393,84.225,110.62z M70.513,144.497c-5.016,1.224-12.16,4.963-13.914,9.275
			c-3.132,7.702,4.834,13.587,11.091,11.291c3.587-1.314,5.75-5.626,7.46-9.275c0.939-2.003,3.62-6.821,1.815-10.082
			c-0.767-1.386-2.668-1.484-4.033-1.412C71.981,144.345,71.346,144.293,70.513,144.497z"/>
		<path fill="#FFFFFF" d="M72.932,144.295c1.365-0.072,3.267,0.025,4.033,1.412c1.805,3.261-0.875,8.079-1.815,10.082
			c-1.71,3.649-3.875,7.961-7.46,9.275c-6.256,2.295-14.223-3.589-11.091-11.291c1.753-4.312,8.897-8.052,13.914-9.275
			C71.346,144.293,71.981,144.345,72.932,144.295z"/>
	</g>
</g>
</svg>
