<?xml version="1.0" encoding="utf-8"?>
<!-- Generator: Adobe Illustrator 15.0.0, SVG Export Plug-In . SVG Version: 6.00 Build 0)  -->
<!DOCTYPE svg PUBLIC "-//W3C//DTD SVG 1.1//EN" "http://www.w3.org/Graphics/SVG/1.1/DTD/svg11.dtd">
<svg version="1.1" id="Layer_1" xmlns="http://www.w3.org/2000/svg" xmlns:xlink="http://www.w3.org/1999/xlink" x="0px" y="0px"
	 width="211.279px" height="179.609px" viewBox="0 0 211.279 179.609" enable-background="new 0 0 211.279 179.609"
	 xml:space="preserve">
<g>
	<g>
		<path fill="#3ABEEE" d="M169.521,31.373c-1.553,2.359-3.946,4.552-6.251,6.856c-2.194,2.194-4.44,4.44-6.654,6.653
			c-5.131,5.133-13.651,10.937-9.88,21.375c2.687,7.44,13.265,12.642,21.576,6.856c3.877-2.699,7.458-7.055,11.09-10.688
			c3.719-3.717,7.124-7.583,10.688-10.484c7.535,21.581-4.57,39.988-20.165,45.974c-4.411,1.693-9.167,2.848-15.324,2.42
			c-1.478-0.103-3.475-1.057-5.042-0.807c-3.086,0.493-5.962,7.121-8.872,8.065c-9.213-8.53-18.556-16.935-27.827-25.406
			c2.74-3.646,6.537-6.234,9.275-9.88C117.077,43.387,141.714,22.545,169.521,31.373z"/>
		<path fill="#3ABEEE" d="M106.202,42.262C94.948,44.68,86.251,49.774,78.78,56.781c-0.752,0.707-3.011,2.5-3.025,2.824
			c-0.029,0.71,4.808,4.727,6.251,6.049c29.741,27.228,59.551,53.927,89.329,81.263c3.572,3.28,9.286,7.008,6.251,13.511
			c-1.354,2.904-4.911,5.312-7.462,7.863c-3.328,3.328-7.764,10.42-14.721,7.058c-1.826-0.882-4.076-3.653-6.25-6.049
			c-28.663-31.562-58.625-64.652-87.111-95.78c-6.01,6.425-11.087,13.782-15.729,21.574c-9.393-8.888-18.533-18.029-27.422-27.423
			c9.498-4.873,17.133-11.688,25.004-19.56c7.428-7.428,14.523-15.717,27.625-16.737C86.461,30.212,97.201,36.313,106.202,42.262z"
			/>
		<path fill="#3ABEEE" d="M84.225,110.62c8.737,9.076,16.972,18.652,25.608,27.827c-8.339,8.413-16.998,17.2-25.608,25.812
			c-5.164,5.164-9.709,11.896-19.762,11.896c-10.652,0-19.646-8.619-18.955-20.165c0.568-9.484,6.9-13.555,12.301-18.954
			C66.256,128.589,76.158,118.393,84.225,110.62z M70.513,144.497c-5.017,1.225-12.16,4.963-13.914,9.275
			c-3.133,7.702,4.834,13.587,11.091,11.291c3.587-1.314,5.75-5.626,7.46-9.275c0.938-2.003,3.62-6.821,1.814-10.082
			c-0.767-1.386-2.668-1.483-4.032-1.412C71.981,144.345,71.346,144.293,70.513,144.497z"/>
		<path fill="#FFFFFF" d="M72.932,144.295c1.364-0.071,3.267,0.025,4.032,1.412c1.806,3.261-0.875,8.079-1.814,10.082
			c-1.71,3.649-3.875,7.961-7.46,9.275c-6.256,2.295-14.224-3.589-11.091-11.291c1.753-4.312,8.896-8.052,13.914-9.275
			C71.346,144.293,71.981,144.345,72.932,144.295z"/>
	</g>
</g>
</svg>
