<?xml version="1.0" encoding="utf-8"?>
<!-- Generator: Adobe Illustrator 15.0.0, SVG Export Plug-In . SVG Version: 6.00 Build 0)  -->
<!DOCTYPE svg PUBLIC "-//W3C//DTD SVG 1.1//EN" "http://www.w3.org/Graphics/SVG/1.1/DTD/svg11.dtd">
<svg version="1.1" id="Layer_1" xmlns="http://www.w3.org/2000/svg" xmlns:xlink="http://www.w3.org/1999/xlink" x="0px" y="0px"
	 width="183.333px" height="165.384px" viewBox="0 0 183.333 165.384" enable-background="new 0 0 183.333 165.384"
	 xml:space="preserve">
<path opacity="0.61" fill="#A5A5A5" enable-background="new    " d="M128.301,155.818c0.167,3.525-16.099,6.177-36.33,5.923
	c-20.234-0.256-36.771-3.321-36.939-6.845c-0.169-3.524,16.095-6.178,36.33-5.924C111.593,149.229,128.134,152.292,128.301,155.818z
	"/>
<polygon fill="#E16226" points="50.898,66.278 91.893,147 129.113,66.166 "/>
<path fill="#E16226" d="M132.402,55.287c-3.395,22.829-25.191,38.5-48.682,35c-23.495-3.5-39.786-24.844-36.391-47.677
	C50.724,19.78,72.521,4.11,96.014,7.61C119.505,11.108,135.796,32.452,132.402,55.287z"/>
<g>
	<polygon fill="#4EC5F4" points="94.818,14.138 95.979,56.457 78.033,57.055 	"/>
	<polygon fill="#4EC5F4" points="104.694,46.626 87.913,89.544 86.749,47.221 	"/>
</g>
</svg>
