<?xml version="1.0" encoding="utf-8"?>
<!-- Generator: Adobe Illustrator 15.0.0, SVG Export Plug-In . SVG Version: 6.00 Build 0)  -->
<!DOCTYPE svg PUBLIC "-//W3C//DTD SVG 1.1//EN" "http://www.w3.org/Graphics/SVG/1.1/DTD/svg11.dtd">
<svg version="1.1" id="Layer_1" xmlns="http://www.w3.org/2000/svg" xmlns:xlink="http://www.w3.org/1999/xlink" x="0px" y="0px"
	 width="281.725px" height="230.817px" viewBox="0 0 281.725 230.817" enable-background="new 0 0 281.725 230.817"
	 xml:space="preserve">
<g>
	<path fill="#FFFFFF" stroke="#000000" stroke-width="4" stroke-miterlimit="10" d="M181.812,166.418
		c0,2.294-1.86,4.154-4.154,4.154H80.211c-2.294,0-4.155-1.86-4.155-4.154V74.209l42.781-39.607l0,0h58.819
		c2.294,0,4.154,1.86,4.154,4.155V166.418z"/>
	<polyline fill="#FFFFFF" stroke="#000000" stroke-width="4" stroke-miterlimit="10" points="76.888,74.209 118.838,74.209 
		118.838,36.266 	"/>
</g>
<g>
	<path fill="#FFFFFF" stroke="#000000" stroke-width="4" stroke-miterlimit="10" d="M199.363,183.138
		c0,2.295-1.86,4.155-4.154,4.155H97.763c-2.294,0-4.155-1.86-4.155-4.155V90.93l42.781-39.607l0,0h58.819
		c2.294,0,4.154,1.86,4.154,4.154V183.138z"/>
	<polyline fill="#FFFFFF" stroke="#000000" stroke-width="4" stroke-miterlimit="10" points="94.44,90.93 136.39,90.93 
		136.39,52.986 	"/>
</g>
</svg>
